<?xml version="1.0" encoding="utf-8"?>
<!-- Generator: Adobe Illustrator 27.5.0, SVG Export Plug-In . SVG Version: 6.00 Build 0)  -->
<svg version="1.1" xmlns="http://www.w3.org/2000/svg" xmlns:xlink="http://www.w3.org/1999/xlink" x="0px" y="0px"
	 viewBox="0 0 500 500" style="enable-background:new 0 0 500 500;" xml:space="preserve">
<g id="Background_Simple">
	<g>
		<path style="fill:#92E3A9;" d="M331.518,26.626c0,0-78.731-28.657-155.565,15.706C99.119,86.695,60.761,175.474,27.79,246.575
			C-5.181,317.676,14.5,390.33,73.569,423.771c59.069,33.441,98.794-15.064,181.358-16.923
			c82.564-1.858,104.846,10.185,173.078-36.428c68.232-46.613,79.931-157.63,25.369-240.168
			C398.81,47.713,331.518,26.626,331.518,26.626z"/>
		<path style="opacity:0.7;fill:#FFFFFF;" d="M331.518,26.626c0,0-78.731-28.657-155.565,15.706
			C99.119,86.695,60.761,175.474,27.79,246.575C-5.181,317.676,14.5,390.33,73.569,423.771
			c59.069,33.441,98.794-15.064,181.358-16.923c82.564-1.858,104.846,10.185,173.078-36.428
			c68.232-46.613,79.931-157.63,25.369-240.168C398.81,47.713,331.518,26.626,331.518,26.626z"/>
	</g>
</g>
<g id="Window">
	<g style="opacity:0.1;">
		
			<line style="fill:none;stroke:#263238;stroke-width:5;stroke-linejoin:round;stroke-miterlimit:10;" x1="253.466" y1="21.999" x2="253.534" y2="399.999"/>
		
			<line style="fill:none;stroke:#263238;stroke-width:5;stroke-linejoin:round;stroke-miterlimit:10;" x1="434.966" y1="21.967" x2="435.034" y2="399.967"/>
		
			<line style="fill:none;stroke:#263238;stroke-width:5;stroke-linejoin:round;stroke-miterlimit:10;" x1="162" y1="102.041" x2="479.98" y2="101.959"/>
		
			<line style="fill:none;stroke:#263238;stroke-width:5;stroke-linejoin:round;stroke-miterlimit:10;" x1="20.01" y1="266.041" x2="480.01" y2="265.959"/>
		
			<line style="fill:none;stroke:#263238;stroke-width:5;stroke-linejoin:round;stroke-miterlimit:10;" x1="20.034" y1="399.041" x2="480.034" y2="398.959"/>
	</g>
</g>
<g id="Plants">
	<g>
		<path style="fill:none;stroke:#263238;stroke-width:5;stroke-linecap:round;stroke-linejoin:round;stroke-miterlimit:10;" d="
			M256.009,207.67c0,0,0.48,59.952,0.48,75.78c0,15.827-0.48,110.654-0.48,110.654"/>
		<path style="fill:none;stroke:#263238;stroke-width:5;stroke-linecap:round;stroke-linejoin:round;stroke-miterlimit:10;" d="
			M241.621,268.102c0,0-1.439,12.47-0.48,17.266c0.959,4.796,1.439,10.552,1.439,16.787c0,6.235,0.48,32.734,0.48,37.051
			c0,4.317-0.48,40.989-0.48,44.346s0,5.755,0,7.674c0,1.919,0,3.837,0,3.837"/>
		<path style="fill:none;stroke:#263238;stroke-width:5;stroke-linecap:round;stroke-linejoin:round;stroke-miterlimit:10;" d="
			M243.059,334.409c0,0,1.918-36.571,3.837-41.367c1.919-4.796,3.357-3.357,3.837-9.113c0.48-5.755,0.48-8.154,1.439-10.072
			c0.959-1.918,1.918-5.276,1.918-5.276l0.959-3.837"/>
		<path style="fill:none;stroke:#263238;stroke-width:5;stroke-linejoin:round;stroke-miterlimit:10;" d="M306.399,315.017
			c0,0,0.48,59.952,0.48,75.78c0,15.828-0.48,84.511-0.48,84.511"/>
		<path style="fill:none;stroke:#263238;stroke-width:5;stroke-linejoin:round;stroke-miterlimit:10;" d="M292.011,375.449
			c0,0-1.439,12.47-0.48,17.266c0.959,4.796,1.439,10.552,1.439,16.787c0,6.235,0.48,32.734,0.48,37.051
			c0,4.316-0.48,14.847-0.48,18.204s0,5.755,0,7.674c0,1.919,0,1.979,0,1.979"/>
		<path style="fill:none;stroke:#263238;stroke-width:5;stroke-linecap:round;stroke-linejoin:round;stroke-miterlimit:10;" d="
			M293.45,441.756c0,0,1.919-36.571,3.837-41.367s3.357-3.357,3.837-9.113c0.48-5.755,0.48-8.154,1.439-10.072
			c0.959-1.918,1.919-5.276,1.919-5.276l0.959-3.837"/>
		<g>
			<g>
				<g>
					<polygon style="fill:#92E3A9;" points="291.981,223.018 277.112,210.547 318.839,215.344 281.909,203.353 319.798,196.638 
						277.112,196.638 310.206,171.698 272.796,190.403 294.379,153.473 265.602,186.566 275.674,138.125 256.968,183.209 
						255.05,132.849 251.213,184.168 230.803,138.831 244.978,188.485 214.451,155.184 241.141,196.159 203.354,169.201 
						238.743,203.353 198.682,181.465 235.386,206.231 202.186,201.906 234.426,211.027 208.611,215.338 235.386,214.384 
						219.558,224.936 256.968,214.864 					"/>
				</g>
				<polygon style="fill:#92E3A9;" points="277.112,280.572 262.244,268.102 303.971,272.898 267.04,260.907 304.93,254.193 
					262.244,254.193 295.338,229.253 257.928,247.958 279.51,211.027 250.733,244.121 260.805,195.679 242.1,240.763 
					240.182,190.403 236.345,241.723 221.477,195.2 230.11,246.039 203.731,208.149 226.273,253.713 191.674,231.107 
					223.875,260.907 188.17,246.291 220.517,263.785 187.002,260.892 219.558,268.581 196.93,273.74 220.517,271.939 204.69,282.49 
					242.1,272.418 				"/>
			</g>
		</g>
		<g>
			<g>
				<g>
					<polygon style="fill:#92E3A9;" points="342.371,330.365 327.503,317.894 369.229,322.69 332.299,310.7 370.189,303.985 
						327.503,303.985 360.596,279.045 323.186,297.75 344.769,260.82 315.992,293.913 326.064,245.472 307.359,290.556 
						305.44,240.196 301.603,291.515 281.193,246.178 295.368,295.832 264.841,262.531 291.531,303.506 253.744,276.548 
						289.133,310.7 249.072,288.812 285.776,313.578 252.576,309.253 284.816,318.374 259.001,322.685 285.776,321.731 
						269.948,332.283 307.359,322.211 					"/>
				</g>
				<polygon style="fill:#92E3A9;" points="327.503,387.919 312.634,375.449 354.361,380.245 317.431,368.254 355.32,361.54 
					312.634,361.54 345.728,336.599 308.318,355.305 329.901,318.374 301.124,351.468 311.196,303.026 292.49,348.11 
					290.572,297.75 286.735,349.07 271.867,302.547 280.5,353.386 254.121,315.496 276.663,361.06 242.064,338.454 274.265,368.254 
					238.56,353.638 270.908,371.132 237.392,368.239 269.948,375.928 247.32,381.087 270.908,379.286 255.08,389.837 
					292.49,379.765 				"/>
			</g>
		</g>
	</g>
	<g>
		<g>
			<g>
				<g>
					<path style="fill:#92E3A9;" d="M443.608,278.375c0,0,0-5.627-7.878-13.504c-7.878-7.878-12.942-12.379-12.942-12.379
						s-3.939,12.942,3.376,20.82c7.315,7.878,17.444,15.193,17.444,15.193V278.375z"/>
					<path style="fill:#92E3A9;" d="M432.175,313.517c0,0,0-5.627-7.878-13.505c-7.878-7.878-12.942-12.379-12.942-12.379
						s-3.939,12.942,3.376,20.82c7.315,7.878,17.444,15.193,17.444,15.193V313.517z"/>
					<path style="fill:#92E3A9;" d="M443.113,287.96c0,0,0.595-5.595,9.261-12.597c8.666-7.001,14.178-10.942,14.178-10.942
						s2.549,13.286-5.557,20.346c-8.106,7.061-18.951,13.265-18.951,13.265L443.113,287.96z"/>
					<path style="fill:#92E3A9;" d="M429.301,329.461c0,0,1.179-5.502,10.533-11.554c9.353-6.052,15.248-9.393,15.248-9.393
						s1.14,13.48-7.664,19.65c-8.803,6.17-20.24,11.201-20.24,11.201L429.301,329.461z"/>
					<path style="fill:#92E3A9;" d="M431.898,374.71c0,0,0-5.627,7.878-13.505c7.878-7.878,12.942-12.379,12.942-12.379
						s3.939,12.942-3.376,20.82c-7.315,7.878-17.444,15.193-17.444,15.193V374.71z"/>
					<path style="fill:#92E3A9;" d="M431.766,385.755c0,0,0.8-5.57-5.879-14.487c-6.678-8.917-11.052-14.093-11.052-14.093
						s-5.738,12.251,0.384,21.088c6.121,8.837,15.107,17.517,15.107,17.517L431.766,385.755z"/>
					<path style="fill:#92E3A9;" d="M423.998,418.487c0,0,0-5.627,7.878-13.504c7.878-7.878,12.942-12.379,12.942-12.379
						s3.939,12.942-3.376,20.82c-7.315,7.878-17.444,15.193-17.444,15.193V418.487z"/>
					<path style="fill:#92E3A9;" d="M429.259,448.164c0,0-1.425-5.443,4.201-15.059c5.626-9.616,9.385-15.254,9.385-15.254
						s7.088,11.522,2.007,20.996c-5.081,9.474-13.027,19.115-13.027,19.115L429.259,448.164z"/>
				</g>
				<path style="fill:none;stroke:#263238;stroke-linecap:round;stroke-linejoin:round;stroke-miterlimit:10;" d="M444.322,276.934
					c-0.461,6.014-1.145,12.237-2.158,17.472c-3.114,16.089-10.899,26.469-14.013,41.002c-3.114,14.532,5.826,33.254,3.432,51.919
					c-2.394,18.666-9.66,29.046-7.584,41.502c2.076,12.456,12.975,46.192,12.975,46.192"/>
				
					<line style="fill:none;stroke:#263238;stroke-linecap:round;stroke-linejoin:round;stroke-miterlimit:10;" x1="443.035" y1="291.699" x2="451.525" y2="285.184"/>
				
					<line style="fill:none;stroke:#263238;stroke-linecap:round;stroke-linejoin:round;stroke-miterlimit:10;" x1="443.43" y1="284.197" x2="439.876" y2="277.879"/>
				<path style="fill:none;stroke:#263238;stroke-linecap:round;stroke-linejoin:round;stroke-miterlimit:10;" d="M428.623,334.739
					c0,0,7.108-5.331,14.413-10.661"/>
				<path style="fill:none;stroke:#263238;stroke-linecap:round;stroke-linejoin:round;stroke-miterlimit:10;" d="M432.175,323.646
					c0,0-5.922-11.611-12.634-19.311"/>
				<path style="fill:none;stroke:#263238;stroke-linecap:round;stroke-linejoin:round;stroke-miterlimit:10;" d="M432.176,382.715
					c0,0,5.528-10.859,15.202-20.336"/>
				<path style="fill:none;stroke:#263238;stroke-linecap:round;stroke-linejoin:round;stroke-miterlimit:10;" d="M430.794,390.612
					c0,0-3.554-8.49-7.7-14.61c-4.146-6.12-4.738-6.91-4.738-6.91"/>
				<path style="fill:none;stroke:#263238;stroke-linecap:round;stroke-linejoin:round;stroke-miterlimit:10;" d="M423.999,428.828
					c0,0,2.847-7.219,6.401-12.944c3.554-5.726,8.292-10.859,8.292-10.859"/>
				<path style="fill:none;stroke:#263238;stroke-linecap:round;stroke-linejoin:round;stroke-miterlimit:10;" d="M431.824,457.962
					c0,0-0.832-6.738,2.129-12.464c2.962-5.725,6.318-13.228,7.7-16.189"/>
			</g>
			<g>
				<g>
					<path style="fill:#92E3A9;" d="M392.022,353.548c0,0-0.611-3.529,3.474-9.324c4.085-5.795,6.772-9.168,6.772-9.168
						s3.875,7.688,0.143,13.422c-3.732,5.734-9.289,11.421-9.289,11.421L392.022,353.548z"/>
					<path style="fill:#92E3A9;" d="M403.006,374.344c0,0-0.611-3.529,3.474-9.324c4.085-5.795,6.772-9.168,6.772-9.168
						s3.875,7.688,0.143,13.422c-3.732,5.734-9.289,11.421-9.289,11.421L403.006,374.344z"/>
					<path style="fill:#92E3A9;" d="M393.373,359.504c0,0-0.98-3.444-7.175-6.894c-6.194-3.45-10.078-5.323-10.078-5.323
						s-0.156,8.608,5.693,12.156c5.85,3.548,13.324,6.261,13.324,6.261L393.373,359.504z"/>
					<path style="fill:#92E3A9;" d="M406.539,384.03c0,0-1.337-3.322-7.859-6.102c-6.522-2.78-10.582-4.235-10.582-4.235
						s0.749,8.577,6.939,11.49c6.19,2.913,13.908,4.826,13.908,4.826L406.539,384.03z"/>
					<path style="fill:#92E3A9;" d="M409.823,412.687c0,0-0.611-3.529-6.406-7.613s-9.46-6.358-9.46-6.358
						s-1.065,8.543,4.377,12.689c5.443,4.146,12.588,7.633,12.588,7.633L409.823,412.687z"/>
					<path style="fill:#92E3A9;" d="M411.105,419.598c0,0-1.106-3.406,2.114-9.723c3.22-6.317,5.4-10.037,5.4-10.037
						s4.928,7.059,2.049,13.266c-2.879,6.206-7.572,12.625-7.572,12.625L411.105,419.598z"/>
					<path style="fill:#92E3A9;" d="M420.992,448.061c0,0,0.408-3.558,5.961-7.967c5.552-4.409,9.081-6.887,9.081-6.887
						s1.551,8.469-3.646,12.918c-5.197,4.45-12.132,8.339-12.132,8.339L420.992,448.061z"/>
					<path style="fill:#92E3A9;" d="M419.529,439.281c0,0-0.611-3.529-6.406-7.613c-5.795-4.085-9.459-6.358-9.459-6.358
						s-1.065,8.543,4.377,12.689c5.442,4.146,12.588,7.633,12.588,7.633L419.529,439.281z"/>
					<path style="fill:#92E3A9;" d="M419.452,458.461c0,0,0.303-3.568-4.269-8.987c-4.572-5.419-7.541-8.547-7.541-8.547
						s-3.194,7.995,1.021,13.384c4.215,5.389,10.244,10.573,10.244,10.573L419.452,458.461z"/>
				</g>
				<path style="fill:none;stroke:#263238;stroke-linecap:round;stroke-linejoin:round;stroke-miterlimit:10;" d="M391.418,352.722
					c0.942,3.721,2.046,7.549,3.25,10.722c3.699,9.751,9.708,15.415,13.238,24.19c3.53,8.775-0.043,21.486,3.484,32.93
					c3.527,11.445,9.211,17.165,9.261,25.202c0.05,8.036-3.224,29.003-3.224,29.003"/>
				
					<line style="fill:none;stroke:#263238;stroke-linecap:round;stroke-linejoin:round;stroke-miterlimit:10;" x1="393.827" y1="361.841" x2="387.797" y2="358.677"/>
				
					<line style="fill:none;stroke:#263238;stroke-linecap:round;stroke-linejoin:round;stroke-miterlimit:10;" x1="392.766" y1="357.18" x2="394.308" y2="352.832"/>
				<path style="fill:none;stroke:#263238;stroke-linecap:round;stroke-linejoin:round;stroke-miterlimit:10;" d="M407.538,387.266
					c0,0-5.036-2.571-10.195-5.121"/>
				<path style="fill:none;stroke:#263238;stroke-linecap:round;stroke-linejoin:round;stroke-miterlimit:10;" d="M404.106,380.695
					c0,0,2.453-7.924,5.826-13.481"/>
				<path style="fill:none;stroke:#263238;stroke-linecap:round;stroke-linejoin:round;stroke-miterlimit:10;" d="M410.517,417.737
					c0,0-4.645-6.209-11.741-11.102"/>
				<path style="fill:none;stroke:#263238;stroke-linecap:round;stroke-linejoin:round;stroke-miterlimit:10;" d="M412.242,422.539
					c0,0,1.307-5.71,3.242-9.998c1.936-4.288,2.221-4.847,2.221-4.847"/>
				<path style="fill:none;stroke:#263238;stroke-linecap:round;stroke-linejoin:round;stroke-miterlimit:10;" d="M420.378,451.861
					c0,0,3.997-4.9,6.485-6.733c2.488-1.834,4.212-3.662,4.212-3.662"/>
				<path style="fill:none;stroke:#263238;stroke-linecap:round;stroke-linejoin:round;stroke-miterlimit:10;" d="M420.652,445.765
					c0,0-2.569-4.218-5.419-7.422c-2.85-3.205-6.379-5.909-6.379-5.909"/>
				<path style="fill:none;stroke:#263238;stroke-linecap:round;stroke-linejoin:round;stroke-miterlimit:10;" d="M418.907,464.884
					c0,0-0.21-4.316-2.688-7.584c-2.479-3.269-5.398-7.609-6.586-9.316"/>
			</g>
		</g>
	</g>
</g>
<g id="Flag">
	<g>
		
			<rect x="371.943" y="50.425" style="fill:#263238;stroke:#263238;stroke-linecap:round;stroke-linejoin:round;stroke-miterlimit:10;" width="4.644" height="424.595"/>
		<polygon style="fill:#92E3A9;stroke:#263238;stroke-linecap:round;stroke-linejoin:round;stroke-miterlimit:10;" points="
			417.144,453.953 374.033,61.107 341.352,472.695 		"/>
		<polygon style="fill:#92E3A9;" points="416.778,453.953 404.019,301.366 353.83,382.266 		"/>
		<polygon style="opacity:0.3;" points="416.778,453.953 404.019,301.366 353.83,382.266 		"/>
		<polygon style="fill:none;stroke:#263238;stroke-linecap:round;stroke-linejoin:round;stroke-miterlimit:10;" points="
			416.778,453.953 404.019,301.366 353.83,382.266 		"/>
		<polygon style="fill:#92E3A9;stroke:#263238;stroke-linecap:round;stroke-linejoin:round;stroke-miterlimit:10;" points="
			417.923,344.647 353.83,382.266 374.033,61.107 		"/>
		<g>
			<polygon style="fill:#92E3A9;" points="374.033,61.107 417.923,344.647 383.787,321.657 			"/>
			<polygon style="opacity:0.3;" points="374.033,61.107 417.923,344.647 383.787,321.657 			"/>
			<polygon style="fill:none;stroke:#263238;stroke-linecap:round;stroke-linejoin:round;stroke-miterlimit:10;" points="
				374.033,61.107 417.923,344.647 383.787,321.657 			"/>
			<polygon style="fill:#92E3A9;stroke:#263238;stroke-linecap:round;stroke-linejoin:round;stroke-miterlimit:10;" points="
				383.787,321.657 399.81,294.488 381,260.352 			"/>
			<polygon style="fill:#92E3A9;stroke:#263238;stroke-linecap:round;stroke-linejoin:round;stroke-miterlimit:10;" points="
				374.033,61.107 346.864,262.441 399.81,294.488 			"/>
		</g>
		<path style="fill:#FFFFFF;stroke:#263238;stroke-linecap:round;stroke-linejoin:round;stroke-miterlimit:10;" d="M371.943,50.425
			l-5.864-10.318c-0.076-0.134-0.08-0.297-0.01-0.435l8.09-15.857c0.172-0.336,0.654-0.332,0.82,0.007l8.099,16.522
			c0.072,0.147,0.06,0.321-0.031,0.457l-6.46,9.623H371.943z"/>
	</g>
</g>
<g id="Character">
	<g>
		
			<line style="fill:none;stroke:#263238;stroke-linecap:round;stroke-linejoin:round;stroke-miterlimit:10;" x1="479.817" y1="475" x2="486" y2="475"/>
		
			<line style="fill:none;stroke:#263238;stroke-linecap:round;stroke-linejoin:round;stroke-miterlimit:10;" x1="8" y1="475" x2="473.273" y2="475"/>
	</g>
	<g>
		<g>
			<g>
				<g>
					<path style="fill:#CCCCCC;stroke:#263238;stroke-linecap:round;stroke-linejoin:round;stroke-miterlimit:10;" d="
						M150.306,189.358c0,0,18.445,3.559,20.386,8.737c1.941,5.177,5.501,28.799,6.148,30.741c0.647,1.941,6.472,0.324,9.061,3.236
						c2.589,2.912,13.914,16.179,13.914,16.179s-1.294-6.472-0.324-17.797c0.971-11.326,5.825-39.801,5.825-46.596
						c0-6.795,0.324-17.797,0.324-17.797s3.236-28.152,3.883-31.388s10.44-0.781,18.206,2.779c7.766,3.559,6.063,9.194,4.768,15.666
						c-1.294,6.472-8.413,16.503-8.413,16.503s4.854,33.006,5.825,41.096c0.971,8.09,4.207,30.741,3.236,40.125
						c-0.971,9.384-10.678,28.799-12.62,32.035c-1.941,3.236-9.708,9.384-13.914,7.766c-4.207-1.618-34.3-16.503-37.213-17.474
						c-2.912-0.971-9.06-30.094-11.649-37.86c-2.589-7.766-16.826-39.477-16.826-44.008c0-4.53,7.119-1.294,7.119-1.294
						L150.306,189.358z"/>
					<g>
						<path style="fill:#263238;stroke:#263238;stroke-linecap:round;stroke-linejoin:round;stroke-miterlimit:10;" d="
							M199.147,237.147c-0.118,7.135,0.668,11.104,0.668,11.104s-11.326-13.267-13.914-16.179c-2.589-2.912-8.413-1.294-9.061-3.236
							s-4.207-25.563-6.148-30.741c-1.941-5.177-20.386-8.737-20.386-8.737l-2.265,0.647c0,0-7.119-3.236-7.119,1.294
							c0,4.53,14.238,36.242,16.826,44.008c2.589,7.766,8.737,36.889,11.649,37.86c2.912,0.971,33.006,15.856,37.212,17.474
							c4.207,1.618,11.973-4.53,13.914-7.766c1.942-3.236,11.649-22.651,12.62-32.035c0.154-1.493,0.202-3.324,0.169-5.377
							C214.075,246.795,204.104,241.647,199.147,237.147z"/>
						<g>
							<path style="fill:none;stroke:#7D7D7D;stroke-linecap:round;stroke-linejoin:round;stroke-miterlimit:10;" d="
								M199.815,248.251c0,0,0.507,11.972,2.271,16.557"/>
							<path style="fill:none;stroke:#7D7D7D;stroke-linecap:round;stroke-linejoin:round;stroke-miterlimit:10;" d="
								M199.969,250.699c0,0-3.174,8.113-2.469,16.578"/>
						</g>
					</g>
					<path style="fill:#CCCCCC;stroke:#263238;stroke-linecap:round;stroke-linejoin:round;stroke-miterlimit:10;" d="
						M208.875,126.906c0,0-0.971,12.296-0.324,14.238c0.647,1.941,18.768,13.591,20.062,12.296
						c1.294-1.294,6.148-12.943,5.501-14.238c-0.647-1.294-16.179-9.06-17.797-10.355
						C214.7,127.553,211.464,126.906,208.875,126.906z"/>
					
						<line style="fill:none;stroke:#263238;stroke-linecap:round;stroke-linejoin:round;stroke-miterlimit:10;" x1="216.318" y1="128.848" x2="213.729" y2="144.703"/>
					
						<line style="fill:none;stroke:#263238;stroke-linecap:round;stroke-linejoin:round;stroke-miterlimit:10;" x1="224.084" y1="133.701" x2="219.554" y2="149.557"/>
					
						<line style="fill:none;stroke:#263238;stroke-linecap:round;stroke-linejoin:round;stroke-miterlimit:10;" x1="230.879" y1="137.584" x2="225.702" y2="152.469"/>
					<path style="fill:#CCCCCC;stroke:#263238;stroke-linecap:round;stroke-linejoin:round;stroke-miterlimit:10;" d="
						M208.228,168.972c0,0-11.326-9.384-11.326-13.591c0-4.207-0.647-19.415,0.971-21.033c1.618-1.618,22.975-1.941,21.357,1.618
						c-1.618,3.559-10.678,5.177-10.678,5.177s12.62,7.443,8.413,19.739"/>
				</g>
				<g>
					<path style="fill:#92E3A9;stroke:#263238;stroke-linecap:round;stroke-linejoin:round;stroke-miterlimit:10;" d="
						M179.91,475.02l-5.293-77.808l-143.014-1.644c-3.398,19.419-3.786,68.509-3.83,79.452H179.91z"/>
					<path style="fill:#263238;stroke:#263238;stroke-linecap:round;stroke-linejoin:round;stroke-miterlimit:10;" d="
						M170.781,341.869c0,0-0.439-0.013-1.256-0.035l-5.304-33.719c0,0,11.973-44.331,9.708-51.127
						c-2.265-6.795-10.678-33.006-10.678-33.006l-2.912-20.062c-1.294-5.177-5.501-12.943-10.031-14.561
						c-4.53-1.618-23.622-7.119-24.593-13.267c-0.971-6.148,0.324-13.591,0.324-13.591l-33.006-11.973
						c0,0,1.941,17.797,1.941,22.004c0,0-14.238,6.148-25.563,9.708c-11.325,3.559-24.269,5.824-27.505,7.766
						c-3.236,1.941,1.941,28.799,1.941,40.448c0,11.649,8.413,92.546,8.413,92.546s-9.388,17.717-14.796,31.127
						c-0.871,1.108-5.002,6.995-6.957,21.167c-2.192,15.891-3.836,21.918-3.836,21.918s12.055,7.123,36.712,12.055
						c24.658,4.932,90.959,1.644,113.973-10.959L170.781,341.869z"/>
					<path style="fill:none;stroke:#7D7D7D;stroke-linecap:round;stroke-linejoin:round;stroke-miterlimit:10;" d="M166.285,227.158
						c0,0,7.755,22.537,7.644,29.83c-0.111,7.293-1.725,14.287-1.725,14.287"/>
				</g>
				<path style="fill:#404B50;stroke:#263238;stroke-linecap:round;stroke-linejoin:round;stroke-miterlimit:10;" d="
					M82.353,250.193l45.949,73.778c0,0,14.885-35.918,18.768-55.333c3.883-19.415,5.501-25.563,5.501-25.563l-11.002-10.678
					l13.267-6.148c0,0-9.384-26.21-14.561-36.565c-0.905-1.809-1.725-3.389-2.472-4.785c-5.88-2.422-11.571-5.521-12.089-8.806
					c-0.971-6.148,0.324-13.591,0.324-13.591l-33.006-11.973c0,0,1.941,17.797,1.941,22.004c0,0-5.055,2.183-11.537,4.7
					l-7.554,52.251l21.357,5.501L82.353,250.193z"/>
				<g>
					<g>
						<path style="fill:#CCCCCC;stroke:#263238;stroke-linecap:round;stroke-linejoin:round;stroke-miterlimit:10;" d="
							M128.95,326.883c0,0,5.501-39.154,5.501-57.275s-0.971-61.158-1.618-71.513c-0.399-6.386-1.659-12.891-2.567-16.943
							c-2.495-1.583-4.273-3.295-4.552-5.061c-0.971-6.148,0.324-13.591,0.324-13.591l-33.006-11.973c0,0,1.941,17.797,1.941,22.004
							c0,0,15.532,80.25,19.739,94.811C118.918,281.904,128.95,326.883,128.95,326.883z"/>
						<path style="fill:#263238;stroke:#263238;stroke-linecap:round;stroke-linejoin:round;stroke-miterlimit:10;" d="
							M125.722,164.801c0.065-0.563,0.127-1.04,0.179-1.412l-1.145-1.354l-31.725-11.508c0,0,1.101,10.097,1.645,16.878
							C103.995,167.553,121.016,165.419,125.722,164.801z"/>
					</g>
					<path style="fill:#92E3A9;stroke:#263238;stroke-linecap:round;stroke-linejoin:round;stroke-miterlimit:10;" d="
						M134.451,269.608c0-14.864-0.653-46.481-1.245-63.085c-3.198,9.016-7.882,19.943-12.022,20.695
						c-3.878,0.705-12.17-8.864-18.92-17.724c4.638,23.143,10.184,50.01,12.448,57.848c4.207,14.561,14.238,59.54,14.238,59.54
						S134.451,287.729,134.451,269.608z"/>
				</g>
			</g>
			<g>
				<path style="fill:#CCCCCC;stroke:#263238;stroke-linecap:round;stroke-linejoin:round;stroke-miterlimit:10;" d="
					M139.304,102.637c0,0-2.589-6.472-11.649-16.826s-29.77-15.209-44.008-10.678C69.41,79.662,61.32,88.399,55.819,95.518
					c-5.501,7.119-8.413,22.327-10.355,26.211c-1.941,3.883-0.647,17.15,5.177,22.328c5.825,5.177,11.649,9.384,15.208,7.766
					c3.56-1.618,4.854-5.825,4.854-5.825l5.825,1.618c0,0,3.236,1.941,6.472,2.912c3.236,0.971,6.472,0,6.472,0
					s4.53,5.825,10.031,8.09c5.501,2.265,23.945,6.472,28.476,7.443c4.53,0.971,9.708-1.618,11.973-5.825
					c2.265-4.207,2.265-13.267,4.53-21.68c2.265-8.413-0.971-15.856-1.618-19.092C142.217,116.228,139.304,102.637,139.304,102.637z
					"/>
				<g>
					<path style="fill:#263238;stroke:#263238;stroke-linecap:round;stroke-linejoin:round;stroke-miterlimit:10;" d="
						M81.706,135.966c0,0,5.825,2.589,5.825-0.971c0-3.559-2.265-10.031-2.265-10.031L81.706,135.966z"/>
					<path style="fill:#92E3A9;stroke:#263238;stroke-linecap:round;stroke-linejoin:round;stroke-miterlimit:10;" d="
						M139.304,102.637c0,0-2.589-6.472-11.649-16.826s-29.77-15.209-44.008-10.678C69.41,79.662,61.32,88.399,55.819,95.518
						c-5.501,7.119-8.413,22.327-10.355,26.211c-1.941,3.883-0.647,17.15,5.177,22.328c5.825,5.177,11.649,9.384,15.209,7.766
						c3.559-1.618,4.854-5.825,4.854-5.825l5.825,1.618c0,0,0.528,0.316,1.362,0.753C82.073,136.725,99.435,96.823,139.304,102.637z
						"/>
					<path style="fill:none;stroke:#263238;stroke-linecap:round;stroke-linejoin:round;stroke-miterlimit:10;" d="M122.478,81.604
						c-5.177,0-21.68-0.324-36.565,24.269s-9.384,41.743-9.384,41.743s-12.296-42.713-0.324-57.275"/>
					<path style="fill:none;stroke:#263238;stroke-linecap:round;stroke-linejoin:round;stroke-miterlimit:10;" d="M73.94,146.321
						c0,0-9.708-24.916-3.883-45.949c5.825-21.033,36.889-27.181,49.185-21.033"/>
					<path style="fill:none;stroke:#263238;stroke-linecap:round;stroke-linejoin:round;stroke-miterlimit:10;" d="M62.614,87.428
						c-5.825,7.119-11.649,21.033-6.472,37.536s14.561,21.033,14.561,21.033s-3.612-0.781-7.955-2.836
						c-6.838-3.236-15.487-9.631-14.696-21.109c0,0,0.647-5.177,3.236-0.971c2.589,4.207,0.647,13.914,10.031,20.062"/>
				</g>
				<g>
					<path style="fill:none;stroke:#263238;stroke-linecap:round;stroke-linejoin:round;stroke-miterlimit:10;" d="M134.451,116.551
						c0,0,0.324,6.472,3.883,9.384c3.559,2.912,6.472,5.177,4.854,7.766c-1.618,2.589-5.824,3.236-5.824,3.236"/>
					<g>
						<path style="fill:#263238;stroke:#263238;stroke-linecap:round;stroke-linejoin:round;stroke-miterlimit:10;" d="
							M136.716,143.409c0,0-6.795,2.912-14.561-1.294c0,0,0,9.384,4.854,9.708C131.862,152.146,136.716,143.409,136.716,143.409z"/>
						<path style="fill:#FFFFFF;stroke:#263238;stroke-linecap:round;stroke-linejoin:round;stroke-miterlimit:10;" d="
							M135.587,145.212c0.711-1.051,1.129-1.803,1.129-1.803s-6.795,2.912-14.561-1.294
							C122.154,142.115,126.221,149.42,135.587,145.212z"/>
					</g>
					<path style="fill:#263238;" d="M121.831,123.832c0,1.876-0.724,3.398-1.618,3.398c-0.894,0-1.618-1.521-1.618-3.398
						c0-1.876,0.724-3.398,1.618-3.398C121.106,120.434,121.831,121.955,121.831,123.832z"/>
					<path style="fill:#263238;" d="M140.599,120.596c0,1.877-0.724,3.398-1.618,3.398c-0.894,0-1.618-1.521-1.618-3.398
						s0.724-3.398,1.618-3.398C139.874,117.198,140.599,118.72,140.599,120.596z"/>
					<path style="fill:none;stroke:#263238;stroke-width:2;stroke-linecap:round;stroke-linejoin:round;stroke-miterlimit:10;" d="
						M125.39,114.61c0,0-7.442-2.265-13.267,3.883"/>
					<path style="fill:none;stroke:#263238;stroke-width:2;stroke-linecap:round;stroke-linejoin:round;stroke-miterlimit:10;" d="
						M135.098,113.315c0,0,1.294-3.56,4.854-2.265"/>
					<path style="fill:none;stroke:#263238;stroke-linecap:round;stroke-linejoin:round;stroke-miterlimit:10;" d="M128.001,117.709
						l0.969,7.996c0.085,0.704-0.386,1.355-1.081,1.494l-15.08,3.016c-0.793,0.159-1.547-0.406-1.618-1.212l-0.729-8.264
						c-0.062-0.697,0.417-1.326,1.105-1.454l14.84-2.748C127.177,116.395,127.907,116.931,128.001,117.709z"/>
					<path style="fill:none;stroke:#263238;stroke-linecap:round;stroke-linejoin:round;stroke-miterlimit:10;" d="M148.8,113.856
						l0.969,7.996c0.085,0.704-0.386,1.355-1.081,1.494l-10.873,2.369c-0.792,0.159-1.547-0.407-1.618-1.212l-0.729-8.264
						c-0.062-0.697,0.417-1.326,1.105-1.454l10.633-2.101C147.976,112.542,148.706,113.079,148.8,113.856z"/>
					<path style="fill:none;stroke:#263238;stroke-linecap:round;stroke-linejoin:round;stroke-miterlimit:10;" d="M128.626,121.729
						c0,0,3.883-3.559,7.119-0.647"/>
					
						<line style="fill:none;stroke:#263238;stroke-linecap:round;stroke-linejoin:round;stroke-miterlimit:10;" x1="110.829" y1="125.288" x2="86.883" y2="129.818"/>
				</g>
			</g>
		</g>
		<g>
			<path style="fill:none;stroke:#263238;stroke-width:3;stroke-linecap:round;stroke-linejoin:round;stroke-miterlimit:10;" d="
				M220.258,203.475c21.521,14.937,52.68,42.839,70.657,87.583"/>
			<path style="fill:none;stroke:#263238;stroke-width:7;stroke-linecap:round;stroke-linejoin:round;stroke-miterlimit:10;" d="
				M196.759,189.709c0,0,9.796,4.255,23.499,13.765"/>
			<path style="fill:#263238;stroke:#263238;stroke-linecap:round;stroke-linejoin:round;stroke-miterlimit:10;" d="
				M199.717,189.546c-0.993,3.846-6.05,5.866-11.295,4.512c-5.245-1.355-8.691-5.57-7.698-9.416
				c0.993-3.846,6.05-5.866,11.295-4.511C197.264,181.484,200.71,185.7,199.717,189.546z"/>
		</g>
		
			<rect x="93.521" y="344.061" style="fill:#FFFFFF;stroke:#263238;stroke-linecap:round;stroke-linejoin:round;stroke-miterlimit:10;" width="204.932" height="130.959"/>
		
			<rect x="170.233" y="344.061" style="fill:#A6A6A6;stroke:#263238;stroke-linecap:round;stroke-linejoin:round;stroke-miterlimit:10;" width="128.219" height="130.959"/>
		
			<rect x="93.521" y="344.061" style="fill:#263238;stroke:#263238;stroke-linecap:round;stroke-linejoin:round;stroke-miterlimit:10;" width="204.932" height="34.402"/>
		<g>
			<polygon style="fill:#FFFFFF;stroke:#263238;stroke-linecap:round;stroke-linejoin:round;stroke-miterlimit:10;" points="
				332.425,368.245 332.425,286.738 166.814,286.738 66.123,348.746 66.123,368.245 			"/>
			
				<rect x="207.411" y="286.738" style="fill:#A6A6A6;stroke:#263238;stroke-linecap:round;stroke-linejoin:round;stroke-miterlimit:10;" width="124.963" height="81.506"/>
		</g>
		<g>
			<g>
				<g>
					<path style="fill:#263238;stroke:#263238;stroke-linecap:round;stroke-linejoin:round;stroke-miterlimit:10;" d="
						M63.585,185.475c0,0-14.561,0.324-21.68,2.912s-13.267,5.825-13.267,8.737c0,2.912-0.324,33.653-1.618,43.037
						c-1.294,9.384-3.883,35.918-5.501,38.507c-1.618,2.589-5.667,4.129-4.207,12.296c0.242,1.351,0.971,4.207,0.971,4.207
						s-0.971,4.207-0.971,7.766c0,3.56,1.942,8.737,1.942,8.737s2.589,6.795,4.53,7.766c1.941,0.971,11.002,9.06,29.446,12.296
						c18.444,3.236,33.977,4.207,33.977,4.207s2.912,3.559,9.061,6.148c6.148,2.589,11.002,3.236,11.002,3.236
						s12.296,3.883,13.591,3.883c1.294,0,2.265,0,2.265,0s3.559,0,4.854-1.294c1.294-1.294-3.236-2.589-7.119-9.384
						c-3.883-6.795-5.825-11.973-5.825-11.973s7.119,1.618,9.708,2.912c2.589,1.294,11.002,6.472,11.973,3.883
						c0.971-2.589,0.647-2.265-1.618-4.53c-2.265-2.265-18.444-14.885-18.444-14.885s18.444-5.177,21.357-6.795
						c2.912-1.618,0.647-2.589-3.883-2.265c-4.53,0.324-17.797,2.589-23.945,4.53c-6.148,1.941-15.209,8.737-18.444,10.031
						c-3.236,1.294-24.593-12.943-27.181-16.827c-2.589-3.883-3.883-6.148-3.883-6.148s2.265-2.912,2.589-5.177
						c0.324-2.265-3.883-5.824-3.883-5.824s1.941-2.912,1.941-4.854c0-1.942-0.647-2.912-0.647-2.912l1.294-29.446l1.294-10.678"/>
					<path style="fill:none;stroke:#7D7D7D;stroke-linecap:round;stroke-linejoin:round;stroke-miterlimit:10;" d="M27.491,289.851
						c0,0,15.167-8.818,28.923-3.88"/>
					<path style="fill:none;stroke:#7D7D7D;stroke-linecap:round;stroke-linejoin:round;stroke-miterlimit:10;" d="M56.767,282.444
						c0,0-5.996-4.233-11.992-5.291c-5.996-1.058-15.52,0.353-13.051-1.058c2.469-1.411,5.996-2.469,13.051-1.058"/>
				</g>
				<path style="fill:none;stroke:#7D7D7D;stroke-linecap:round;stroke-linejoin:round;stroke-miterlimit:10;" d="M61.967,248.251
					c0,0-1.942,26.534-1.294,29.446c0.647,2.912-1.294,7.766-1.294,7.766s2.53-0.2,2.53,3.566c0,3.766-1.236,7.436-1.236,7.436"/>
			</g>
			<path style="fill:#CCCCCC;stroke:#263238;stroke-linecap:round;stroke-linejoin:round;stroke-miterlimit:10;" d="
				M134.127,304.879c-4.53,0.324-17.797,2.589-23.945,4.53c-6.148,1.941-15.209,8.737-18.444,10.031
				c-3.236,1.294-24.592-12.943-27.181-16.827c-1.314-1.972-2.293-3.524-2.941-4.576l-0.295,0.046c0,0-12.296-7.443-21.68-2.265
				s-13.591,17.474-10.678,24.916c0.458,1.169,1.083,2.218,1.812,3.157c4.842,2.743,12.195,6.045,22.457,7.845
				c18.444,3.236,33.977,4.207,33.977,4.207s2.912,3.56,9.06,6.148c6.148,2.589,11.002,3.236,11.002,3.236
				s12.296,3.883,13.591,3.883c1.294,0,2.265,0,2.265,0s3.559,0,4.854-1.294c1.294-1.294-3.236-2.589-7.119-9.384
				c-3.883-6.795-5.825-11.973-5.825-11.973s7.119,1.618,9.708,2.912c2.589,1.294,11.002,6.472,11.973,3.883
				c0.971-2.589,0.647-2.265-1.618-4.53c-2.265-2.265-18.444-14.885-18.444-14.885s18.444-5.177,21.357-6.795
				C140.922,305.526,138.657,304.555,134.127,304.879z"/>
			<path style="fill:#FFFFFF;stroke:#263238;stroke-linecap:round;stroke-linejoin:round;stroke-miterlimit:10;" d="M95.62,337.561
				c0,0,6.472,5.501,11.649,7.766"/>
			<path style="fill:none;stroke:#263238;stroke-linecap:round;stroke-linejoin:round;stroke-miterlimit:10;" d="M105.651,334.325
				c0,0,7.766,11.973,15.209,14.885"/>
		</g>
	</g>
</g>
</svg>
