<?xml version="1.0" encoding="utf-8"?>
<!-- Generator: Adobe Illustrator 27.5.0, SVG Export Plug-In . SVG Version: 6.00 Build 0)  -->
<svg version="1.1" xmlns="http://www.w3.org/2000/svg" xmlns:xlink="http://www.w3.org/1999/xlink" x="0px" y="0px"
	 viewBox="0 0 500 500" style="enable-background:new 0 0 500 500;" xml:space="preserve">
<g id="Background_Complete">
	<g>
		<rect y="382.398" style="fill:#EBEBEB;" width="500" height="0.25"/>
		<rect x="416.779" y="398.494" style="fill:#EBEBEB;" width="33.122" height="0.25"/>
		<rect x="322.527" y="401.208" style="fill:#EBEBEB;" width="8.693" height="0.25"/>
		<rect x="396.586" y="389.208" style="fill:#EBEBEB;" width="19.192" height="0.25"/>
		<rect x="52.459" y="390.888" style="fill:#EBEBEB;" width="43.193" height="0.25"/>
		<rect x="104.556" y="390.888" style="fill:#EBEBEB;" width="6.333" height="0.25"/>
		<rect x="131.471" y="395.111" style="fill:#EBEBEB;" width="93.676" height="0.25"/>
		<path style="fill:#EBEBEB;" d="M237.014,337.8H43.915c-3.147,0-5.708-2.561-5.708-5.708V60.66c0-3.147,2.561-5.708,5.708-5.708
			h193.099c3.146,0,5.707,2.561,5.707,5.708v271.432C242.721,335.239,240.16,337.8,237.014,337.8z M43.915,55.203
			c-3.01,0-5.458,2.448-5.458,5.458v271.432c0,3.01,2.448,5.458,5.458,5.458h193.099c3.009,0,5.457-2.448,5.457-5.458V60.66
			c0-3.009-2.448-5.458-5.457-5.458H43.915z"/>
		<path style="fill:#EBEBEB;" d="M453.31,337.8H260.212c-3.147,0-5.707-2.561-5.707-5.708V60.66c0-3.147,2.561-5.708,5.707-5.708
			H453.31c3.148,0,5.708,2.561,5.708,5.708v271.432C459.019,335.239,456.458,337.8,453.31,337.8z M260.212,55.203
			c-3.009,0-5.457,2.448-5.457,5.458v271.432c0,3.01,2.448,5.458,5.457,5.458H453.31c3.01,0,5.458-2.448,5.458-5.458V60.66
			c0-3.009-2.448-5.458-5.458-5.458H260.212z"/>
	</g>
	<g>
		<rect x="265.824" y="159.165" style="fill:#F0F0F0;" width="176.289" height="223.233"/>
		<g>
			<rect x="272.056" y="167.301" style="fill:#E0E0E0;" width="163.826" height="47.735"/>
			<rect x="272.056" y="175.029" style="fill:#EBEBEB;" width="9.306" height="40.008"/>
			<rect x="317.056" y="175.029" style="fill:#EBEBEB;" width="9.306" height="40.008"/>
			
				<rect x="371.607" y="174.529" transform="matrix(0.9855 -0.1698 0.1698 0.9855 -27.5731 66.7302)" style="fill:#EBEBEB;" width="9.306" height="40.008"/>
			<rect x="283.587" y="180.301" style="fill:#EBEBEB;" width="9.306" height="34.735"/>
			<rect x="304.978" y="180.301" style="fill:#EBEBEB;" width="9.306" height="34.735"/>
			<rect x="358.971" y="180.301" style="fill:#EBEBEB;" width="9.306" height="34.735"/>
			
				<rect x="333.157" y="179.706" transform="matrix(0.9762 -0.2169 0.2169 0.9762 -34.7036 77.9638)" style="fill:#EBEBEB;" width="9.306" height="34.735"/>
			<rect x="296.288" y="173.043" style="fill:#EBEBEB;" width="4.653" height="41.994"/>
			<rect x="351.642" y="173.043" style="fill:#EBEBEB;" width="4.653" height="41.994"/>
		</g>
		<g>
			
				<rect x="272.056" y="222.595" transform="matrix(-1 -1.224647e-16 1.224647e-16 -1 707.9376 492.9262)" style="fill:#E0E0E0;" width="163.826" height="47.735"/>
			
				<rect x="426.576" y="230.323" transform="matrix(-1 -1.224647e-16 1.224647e-16 -1 862.4576 500.654)" style="fill:#EBEBEB;" width="9.306" height="40.008"/>
			
				<rect x="381.576" y="230.323" transform="matrix(-1 -1.224647e-16 1.224647e-16 -1 772.4576 500.654)" style="fill:#EBEBEB;" width="9.306" height="40.008"/>
			
				<rect x="327.024" y="229.824" transform="matrix(-0.9855 -0.1698 0.1698 -0.9855 616.1058 552.3572)" style="fill:#EBEBEB;" width="9.306" height="40.008"/>
			
				<rect x="415.044" y="235.595" transform="matrix(-1 -1.224647e-16 1.224647e-16 -1 839.3948 505.9262)" style="fill:#EBEBEB;" width="9.306" height="34.735"/>
			
				<rect x="393.653" y="235.595" transform="matrix(-1 -1.224647e-16 1.224647e-16 -1 796.6131 505.9262)" style="fill:#EBEBEB;" width="9.307" height="34.735"/>
			
				<rect x="339.661" y="235.595" transform="matrix(-1 -1.224647e-16 1.224647e-16 -1 688.6278 505.9262)" style="fill:#EBEBEB;" width="9.306" height="34.735"/>
			
				<rect x="365.474" y="235" transform="matrix(-0.9762 -0.2169 0.2169 -0.9762 676.7037 579.0083)" style="fill:#EBEBEB;" width="9.306" height="34.735"/>
			
				<rect x="406.997" y="228.337" transform="matrix(-1 -1.224647e-16 1.224647e-16 -1 818.6469 498.6677)" style="fill:#EBEBEB;" width="4.653" height="41.994"/>
			
				<rect x="351.642" y="228.337" transform="matrix(-1 -1.224647e-16 1.224647e-16 -1 707.9376 498.6677)" style="fill:#EBEBEB;" width="4.653" height="41.994"/>
			<rect x="272.056" y="230.323" style="fill:#EBEBEB;" width="9.306" height="40.008"/>
			<rect x="283.587" y="235.595" style="fill:#EBEBEB;" width="9.306" height="34.735"/>
			<rect x="304.978" y="235.595" style="fill:#EBEBEB;" width="9.306" height="34.735"/>
			<rect x="296.288" y="228.337" style="fill:#EBEBEB;" width="4.653" height="41.994"/>
		</g>
		<g>
			<rect x="272.056" y="277.889" style="fill:#E0E0E0;" width="163.826" height="47.735"/>
			<g>
				<rect x="366.086" y="285.617" style="fill:#EBEBEB;" width="9.306" height="40.008"/>
				
					<rect x="420.638" y="285.118" transform="matrix(0.9855 -0.1698 0.1698 0.9855 -45.643 76.6643)" style="fill:#EBEBEB;" width="9.306" height="40.008"/>
				<rect x="332.618" y="290.889" style="fill:#EBEBEB;" width="9.307" height="34.735"/>
				<rect x="354.009" y="290.889" style="fill:#EBEBEB;" width="9.306" height="34.735"/>
				<rect x="408.001" y="290.889" style="fill:#EBEBEB;" width="9.307" height="34.735"/>
				
					<rect x="382.188" y="290.294" transform="matrix(0.9762 -0.2169 0.2169 0.9762 -57.5237 91.2326)" style="fill:#EBEBEB;" width="9.306" height="34.735"/>
				<rect x="345.319" y="283.631" style="fill:#EBEBEB;" width="4.653" height="41.994"/>
				<rect x="400.673" y="283.631" style="fill:#EBEBEB;" width="4.653" height="41.994"/>
				
					<rect x="313.57" y="285.118" transform="matrix(0.9855 -0.1698 0.1698 0.9855 -47.1986 58.48)" style="fill:#EBEBEB;" width="9.306" height="40.008"/>
				<rect x="300.934" y="290.889" style="fill:#EBEBEB;" width="9.307" height="34.735"/>
				
					<rect x="275.121" y="290.294" transform="matrix(0.9762 -0.2169 0.2169 0.9762 -60.0727 68.0091)" style="fill:#EBEBEB;" width="9.306" height="34.735"/>
				<rect x="293.606" y="283.631" style="fill:#EBEBEB;" width="4.653" height="41.994"/>
			</g>
		</g>
	</g>
	<g>
		<g>
			<rect x="297.223" y="80.453" style="fill:#E0E0E0;" width="39.139" height="50.557"/>
			<rect x="300.615" y="83.744" style="fill:#EBEBEB;" width="32.356" height="43.977"/>
			<rect x="306.233" y="87.689" style="fill:#E0E0E0;" width="21.119" height="2.4"/>
			<path style="fill:#E0E0E0;" d="M320.633,98.569c0,2.121-1.719,3.84-3.84,3.84c-2.121,0-3.84-1.719-3.84-3.84
				c0-2.121,1.719-3.84,3.84-3.84C318.913,94.729,320.633,96.448,320.633,98.569z"/>
			<rect x="309.832" y="107.528" style="fill:#E0E0E0;" width="13.922" height="2.24"/>
			<rect x="305.913" y="112.808" style="fill:#E0E0E0;" width="21.759" height="1.802"/>
			<rect x="308.073" y="118.514" style="fill:#E0E0E0;" width="17.439" height="3.586"/>
		</g>
		<g>
			<rect x="371.575" y="80.453" style="fill:#E0E0E0;" width="39.139" height="50.557"/>
			<rect x="374.967" y="83.744" style="fill:#EBEBEB;" width="32.356" height="43.977"/>
			<rect x="380.586" y="87.689" style="fill:#E0E0E0;" width="21.119" height="2.4"/>
			<path style="fill:#E0E0E0;" d="M394.985,98.569c0,2.121-1.719,3.84-3.84,3.84c-2.121,0-3.84-1.719-3.84-3.84
				c0-2.121,1.719-3.84,3.84-3.84C393.266,94.729,394.985,96.448,394.985,98.569z"/>
			<rect x="384.184" y="107.528" style="fill:#E0E0E0;" width="13.922" height="2.24"/>
			<rect x="380.266" y="112.808" style="fill:#E0E0E0;" width="21.759" height="1.802"/>
			<rect x="382.426" y="118.514" style="fill:#E0E0E0;" width="17.439" height="3.586"/>
		</g>
	</g>
	<g>
		<circle style="fill:#E0E0E0;" cx="228.247" cy="92.419" r="20.836"/>
		<circle style="fill:#EBEBEB;" cx="228.247" cy="92.419" r="17.516"/>
		<g>
			<path style="fill:#E0E0E0;" d="M228.248,93.419c-0.025,0-0.049-0.001-0.074-0.003c-0.306-0.022-0.584-0.184-0.755-0.438
				l-7.248-10.753c-0.309-0.458-0.188-1.08,0.27-1.388c0.458-0.31,1.08-0.188,1.388,0.27l6.538,9.7l4.561-4.983
				c0.373-0.407,1.006-0.435,1.413-0.063c0.407,0.373,0.435,1.006,0.063,1.413l-5.419,5.919
				C228.795,93.302,228.527,93.419,228.248,93.419z"/>
		</g>
	</g>
</g>
<g id="Background_Simple" style="display:none;">
	<g style="display:inline;">
		<path style="fill:#407BFF;" d="M140.5,244C94.788,259.942,96,303.5,115,330c37.051,51.676,110.787,49.578,160.741,8.622
			s38.889-61.047,92.517-73.358C450,246.5,443.5,126.5,365,99c-84.421-29.574-142.5,14.5-151.542,74.912
			C206.101,223.067,172.082,232.986,140.5,244z"/>
		<path style="opacity:0.9;fill:#FFFFFF;enable-background:new    ;" d="M140.5,244C94.788,259.942,96,303.5,115,330
			c37.051,51.676,110.787,49.578,160.741,8.622s38.889-61.047,92.517-73.358C450,246.5,443.5,126.5,365,99
			c-84.421-29.574-142.5,14.5-151.542,74.912C206.101,223.067,172.082,232.986,140.5,244z"/>
	</g>
</g>
<g id="Shadow_1_">
	<ellipse id="_x3C_Path_x3E__359_" style="fill:#F5F5F5;" cx="250" cy="416.238" rx="193.889" ry="11.323"/>
</g>
<g id="Flag">
	<g>
		<g>
			<path style="fill:#407BFF;" d="M67.69,318.31c0,0,0.067-0.013,0.08-0.013c-0.053,0.013-0.08,0.027-0.08,0.027V318.31z"/>
			<path style="fill:#407BFF;" d="M85,113.15c0,0,0,59.878,0,111.514v73.406c0,14.7-15.565,19.733-17.176,20.212
				c-0.013,0.013-0.04,0.013-0.053,0.013c7.496-9.44,3.848-21.584,3.848-21.584c-0.013,0-0.013,0-0.013-0.013
				c-11.757-4.873-18.655-19.547-20.865-29.613c-1.318-6.005,4.261-22.529,10.026-37.682c3.901-10.293,7.909-19.946,9.88-25.232
				c4.261-11.451-5.153-24.766-4.327-40.691c0.12-2.277,0.453-4.62,1.065-7.017C72.257,137.397,85,113.15,85,113.15z"/>
			<path style="opacity:0.2;enable-background:new    ;" d="M67.69,318.31c0,0,0.067-0.013,0.08-0.013
				c-0.053,0.013-0.08,0.027-0.08,0.027V318.31z"/>
			<path style="opacity:0.2;enable-background:new    ;" d="M67.824,318.434c-0.013,0.013-0.04-0.062-0.053-0.062
				c7.496-9.44,3.848-21.471,3.848-21.471c-0.013,0-0.013,0.099-0.013,0.099h0.04C80.113,298,87.41,304.133,67.824,318.434z"/>
			<path style="opacity:0.2;enable-background:new    ;" d="M85,224.664v43.687c-5.699-7.483-15.446-21.357-24.234-38.947
				c3.901-10.293,7.909-19.946,9.88-25.232c4.261-11.451-5.153-24.766-4.327-40.691c1.997,12.929,5.073,28.401,8.921,34.353
				C78.689,203.161,82.111,213.799,85,224.664z"/>
		</g>
		<g>
			<rect x="83.633" y="110.334" style="fill:#263238;" width="4.468" height="299.666"/>
			<rect x="83.633" y="110.334" style="opacity:0.2;fill:#FFFFFF;enable-background:new    ;" width="4.468" height="299.666"/>
		</g>
		<path style="fill:#263238;" d="M79.621,406.536L79.621,406.536h12.49l0,0c2.791,3.616,6.796,6.101,11.275,6.997l4.529,0.906v2.039
			H63.817v-2.039l4.529-0.906C72.826,412.637,76.83,410.152,79.621,406.536z"/>
		<path style="opacity:0.1;fill:#FFFFFF;enable-background:new    ;" d="M79.621,406.536L79.621,406.536h12.49l0,0
			c2.791,3.616,6.796,6.101,11.275,6.997l4.529,0.906H63.817l4.529-0.906C72.826,412.637,76.83,410.152,79.621,406.536z"/>
		<path style="fill:#263238;" d="M88.772,110.334c0,1.605-1.301,2.906-2.906,2.906c-1.605,0-2.906-1.301-2.906-2.906
			c0-1.605,1.301-2.906,2.906-2.906C87.471,107.428,88.772,108.729,88.772,110.334z"/>
		<path style="opacity:0.3;fill:#FFFFFF;enable-background:new    ;" d="M88.772,110.334c0,1.605-1.301,2.906-2.906,2.906
			c-1.605,0-2.906-1.301-2.906-2.906c0-1.605,1.301-2.906,2.906-2.906C87.471,107.428,88.772,108.729,88.772,110.334z"/>
	</g>
</g>
<g id="Character">
	<g id="_x3C_Group_x3E__17_">
		<g>
			<path style="fill:#263238;" d="M167.498,159.796c8.413,2.954,26.413,30.704,24.163,42.954s-25.815,16-25.815,16L167.498,159.796z
				"/>
			<path style="opacity:0.3;enable-background:new    ;" d="M167.498,159.796c8.413,2.954,26.413,30.704,24.163,42.954
				s-25.815,16-25.815,16L167.498,159.796z"/>
		</g>
		<polygon style="fill:#B97964;" points="162.67,409.03 170.786,409.88 171.209,405 171.064,404.91 172,392.44 172,392.39 
			164.046,391.53 164.102,391.63 163,404.91 163,405 		"/>
		<polygon style="fill:#B97964;" points="122.201,408 130.061,408 130.151,405.6 130.161,405.38 130.521,395.26 130.531,395.04 
			130.712,390 123,390 123,390.24 122.85,390.44 122,404.87 122,405.1 		"/>
		<path style="fill:#263238;" d="M131.151,407.527h-9.55c-0.322,0.002-0.6,0.226-0.67,0.54l-1.55,7
			c-0.133,0.627,0.268,1.242,0.895,1.375c0.084,0.018,0.17,0.026,0.255,0.025c3.09-0.05,5.34-0.24,9.22-0.24
			c2.39,0,9.6,0.25,12.9,0.25s3.73-3.26,2.38-3.56c-6.06-1.32-10.62-3.15-12.56-4.89
			C132.112,407.697,131.639,407.518,131.151,407.527z"/>
		<path style="fill:#263238;" d="M171.651,407.277h-9.55c-0.322,0.002-0.6,0.226-0.67,0.54l-1.55,7
			c-0.133,0.627,0.268,1.242,0.895,1.375c0.084,0.018,0.169,0.026,0.255,0.025c3.09-0.05,5.34-0.24,9.22-0.24
			c2.39,0,9.6,0.25,12.9,0.25s3.73-3.26,2.38-3.56c-6.06-1.32-10.62-3.15-12.56-4.89
			C172.612,407.447,172.139,407.268,171.651,407.277z"/>
		<polygon style="opacity:0.2;enable-background:new    ;" points="163.031,405 171.221,405 172.311,392.44 164.201,391.6 
			164.191,391.63 163.041,404.91 		"/>
		<polygon style="opacity:0.2;enable-background:new    ;" points="122.462,405.3 130.151,406 130.161,406 130.531,395.47 
			130.521,395.36 123.151,390.49 122.481,404.995 		"/>
		<g>
			<path style="fill:#263238;" d="M120.492,403.5l12.06,1.41c0,0,8.91-59.64,12.66-85.35c0.06-0.41,0.11-0.81,0.17-1.2
				c1.48-10.15,3.18-29.24,4.62-47.18c0.82,2.2,1.57,4.63,2.27,7.28c0.15,0.55,0.3,1.11,0.44,1.68c0.17,0.67,0.33,1.35,0.49,2.04
				c0.15,0.66,0.3,1.32,0.45,2c0.26,1.22,0.52,2.48,0.77,3.76c8.1,41.53,8.26,114.89,8.26,114.89l11.4,0.69
				c8.3-63.63-0.86-140.05-5.36-167.73c0,0.03-0.01,0.11-0.02,0.13c-0.08-0.52-0.17-1.05-0.25-1.55c0-0.04-0.01-0.07-0.02-0.11
				c-0.22-1.35-0.43-2.26-0.62-3.26h-41.65c0,0-0.04,0.36-0.05,0.61c-0.01,0.28-0.02,0.59-0.02,0.94c0,0.25-0.01,0.52-0.02,0.82
				c0,0.17-0.01,0.34-0.01,0.52c-0.01,0.18-0.01,0.37-0.01,0.57c-0.01,0.9-0.02,1.95-0.04,3.13c-0.01,0.42-0.01,0.86-0.02,1.32
				c0,0.26,0,0.52-0.01,0.78c0,0.37-0.01,0.74-0.02,1.13c-0.13,10.6-0.4,28.03-0.81,44.98c-0.02,0.67-0.03,1.34-0.05,2.01
				c-0.01,0.53-0.03,1.06-0.04,1.59c-0.15,5.97-0.32,11.82-0.52,17.23c-0.2,5.39-0.41,10.33-0.64,14.5
				c-0.02,0.38-0.04,0.78-0.06,1.18c-0.03,0.57-0.06,1.16-0.1,1.77C122.391,350.02,120.492,403.5,120.492,403.5z"/>
			<path style="opacity:0.3;enable-background:new    ;" d="M120.492,403.5l12.06,1.41c0,0,8.91-59.64,12.66-85.35
				c0.06-0.41,0.11-0.81,0.17-1.2c1.48-10.15,3.18-29.24,4.62-47.18c0.82,2.2,1.57,4.63,2.27,7.28c0.15,0.55,0.3,1.11,0.44,1.68
				c0.17,0.67,0.33,1.35,0.49,2.04c0.15,0.66,0.3,1.32,0.45,2c0.26,1.22,0.52,2.48,0.77,3.76c8.1,41.53,8.26,114.89,8.26,114.89
				l11.4,0.69c8.3-63.63-0.86-140.05-5.36-167.73c0-0.04-0.01-0.08-0.02-0.12c-0.08-0.45-0.17-0.88-0.25-1.3
				c0-0.04-0.01-0.07-0.02-0.11c-0.23-1.22-0.44-2.26-0.62-3.26h-41.72c0,0,0,0.36-0.01,0.61c0,0.26-0.031,0.58-0.041,0.94
				c0,0.25-0.041,0.52-0.041,0.82v0.52c0,0.18,0.021,0.37,0.021,0.57c-0.01,0.9-0.005,1.95-0.025,3.13
				c-0.01,0.42-0.003,0.86-0.012,1.32c0,0.26,0.004,0.52-0.006,0.78c0,0.37-0.008,0.74-0.018,1.13
				c-0.13,10.6-0.399,28.03-0.809,44.98c-0.02,0.67-0.029,1.34-0.049,2.01c-0.01,0.53-0.03,1.06-0.04,1.59
				c-0.15,5.97-0.32,11.82-0.52,17.23c-0.19,5.49-0.4,10.52-0.64,14.75c-0.02,0.3-0.03,0.61-0.06,0.93
				c-0.03,0.57-0.06,1.16-0.1,1.77C122.391,350.02,120.492,403.5,120.492,403.5z"/>
		</g>
		<path style="fill:#263238;" d="M114.161,364.22c0,0,31.45,8.21,70.47,0c0,0-1.76-66.36-8.08-133.24
			c-1.4-14.85-3.03-29.74-4.92-43.92c-1.26-9.47-2.63-18.63-4.13-27.26c0,0-22.94-7.28-48.64,2.21c0,0,0.79,20.31,1.18,49.05
			c0.07,4.97,0.13,10.19,0.16,15.61C120.521,270.94,119.631,327.98,114.161,364.22z"/>
		<path style="fill:#263238;" d="M156.188,124c1.833,3.835-0.125,11.884-4.443,13.5c-6.65,2.489-5.75-16-5.75-16
			S153.977,119.375,156.188,124z"/>
		<path style="fill:#B97964;" d="M132.781,159.25c3.83,3.48,13.213,2.193,13.213,2.193s5.857-1.603,4.627-3.433
			c-3.45-0.57-5.12-2.18-5.81-4.24c-0.4-1.2-0.46-2.55-0.35-3.94c0.05-0.73,0.16-1.47,0.29-2.2l-11.6-8.59
			C134.671,144.71,136.531,155.14,132.781,159.25z"/>
		<path style="opacity:0.2;enable-background:new    ;" d="M135.831,144.5c0.46,6.96,6.18,8.88,8.98,9.27
			c-0.4-1.2-0.46-2.55-0.35-3.94L135.831,144.5z"/>
		<path style="fill:#B97964;" d="M135.051,146.11c2.79,4.01,7.34,5.06,11.29,3.81c2.54-0.8,4.83-2.56,6.25-5.09
			c0.19-0.33,0.36-0.68,0.52-1.04c2.83-6.62,3.73-18.2-3.27-22.54c-4.97-3.13-11.55-1.64-14.68,3.34c-0.9,1.41-1.44,3.02-1.6,4.69
			C132.701,137.02,131.831,141.53,135.051,146.11z"/>
		<path style="fill:#263238;" d="M144.844,133.415c-0.149,0.612,0.133,1.185,0.548,1.255c0.415,0.07,0.825-0.386,0.935-1.007
			c0.11-0.621-0.143-1.188-0.548-1.255C145.374,132.34,144.957,132.784,144.844,133.415z"/>
		<path style="fill:#263238;" d="M151.91,134.622c-0.149,0.612,0.143,1.188,0.549,1.255c0.405,0.068,0.825-0.386,0.935-1.007
			c0.11-0.622-0.143-1.188-0.548-1.255C152.439,133.547,152.013,134.029,151.91,134.622z"/>
		<path style="fill:#A24E3F;" d="M149.612,134.546c0.418,2.038,1.115,4.009,2.073,5.857c-0.975,0.473-2.11,0.49-3.099,0.048
			L149.612,134.546z"/>
		<path style="fill:#263238;" d="M143.043,130.753c0.132,0.042,0.277,0.011,0.38-0.082c0.675-0.664,1.623-0.971,2.559-0.828
			c0.198,0.049,0.399-0.072,0.448-0.271c0.049-0.198-0.072-0.399-0.271-0.448c0,0-0.001,0-0.002,0
			c-1.178-0.211-2.386,0.162-3.239,1.002c-0.153,0.135-0.167,0.369-0.032,0.522c0.002,0.002,0.004,0.005,0.006,0.007
			C142.937,130.695,142.988,130.729,143.043,130.753z"/>
		<path style="fill:#263238;" d="M147.018,143.514L147.018,143.514c-1.862-0.035-3.59-0.975-4.63-2.52
			c-0.054-0.094-0.023-0.214,0.07-0.27c0.088-0.057,0.206-0.031,0.262,0.057c0.003,0.004,0.005,0.008,0.008,0.013
			c0.991,1.409,2.588,2.268,4.31,2.32c0.105,0,0.19,0.084,0.191,0.189c0,0.007,0,0.014-0.001,0.021
			c0.001,0.105-0.084,0.19-0.189,0.191C147.032,143.515,147.025,143.514,147.018,143.514z"/>
		<path style="fill:#263238;" d="M155.362,132.704c0.064,0.039,0.139,0.058,0.214,0.052c0.197-0.054,0.313-0.258,0.259-0.455
			c-0.001-0.003-0.001-0.005-0.002-0.008c-0.309-1.161-1.163-2.098-2.29-2.513c-0.195-0.059-0.402,0.051-0.461,0.247
			c0,0,0,0.001,0,0.001c-0.054,0.196,0.055,0.399,0.248,0.462l0,0c0.88,0.354,1.541,1.102,1.783,2.019
			C155.162,132.608,155.253,132.679,155.362,132.704z"/>
		<path style="fill:#263238;" d="M136.25,116c-6.366,1.667-7.208,10.5-6.313,18.546c0.781,7.016,4.474,10.287,4.474,10.287
			c-1.667-3.333-1.167-9.833-0.083-10c1.083-0.167,1,1.083,1,1.083c2.415-1.504,5.922-3.917,3.234-11.167
			c-0.32-0.862-0.561-2.87,0.604-3.625c2.25-1.458,5.396-0.063,5.396-0.063s7.813,9.813,11.563,1.688
			C157.983,118.725,143.25,114.167,136.25,116z"/>
		<path style="opacity:0.2;enable-background:new    ;" d="M146.341,149.92c2.54-0.8,4.83-2.56,6.25-5.09
			c-1.89,0.01-4.64,0.11-5.36,0.55C146.512,145.81,146.351,148.23,146.341,149.92z"/>
		<path style="fill:#B97964;" d="M129.134,135.001c0.555,1.882,1.833,3.467,3.555,4.408c2.289,1.229,3.999-0.684,3.844-3.142
			c-0.159-2.183-1.516-5.522-4.052-5.714C129.946,130.361,128.482,132.682,129.134,135.001z"/>
		<path style="fill:#407BFF;" d="M132.725,157.734c0,0,16.673,45.766,9.369,201.766l-14.932-2.125c0,0,13.16-113.375-4.75-197.579
			L132.725,157.734z"/>
		<path style="fill:#407BFF;" d="M149.031,156.101c0,0,16.815,45.649,24.38,201.899l9.25-1.5c0,0-10-173.75-24.852-200.159
			L149.031,156.101z"/>
		<path style="fill:#B97964;" d="M162.322,173.912l-9.409-15.323c0,0-2.434-0.44-3.881-2.487c-1.446-2.047-2.354-9.98-1.669-10.338
			c0.685-0.358,7.983,0.499,8.495,1.478c0.511,0.978,1.952,9.1,1.952,9.1l10.843,12.706L162.322,173.912z"/>
		<path style="opacity:0.2;enable-background:new    ;" d="M159.411,176.75c0,0,6.04,47.55,17.14,54.23
			c-1.4-14.85-3.03-29.74-4.92-43.92L159.411,176.75z"/>
		<g>
			<path style="fill:#407BFF;" d="M134.789,154.241c-4.253,1.86-6.878,5.246-6.878,5.246l4.87,7.638l3.05-1.037l0.33,26.912
				c0,0,15.191,2.581,25.25-2.272l-8.82-25.853l2.626,0.222c0,0-0.574-8.797-10.406-11.327c0,0,2.319,4.542,1.975,5.167
				l-8.875,0.549L134.789,154.241z"/>
			<path style="opacity:0.6;fill:#FFFFFF;enable-background:new    ;" d="M134.789,154.241c-4.253,1.86-6.878,5.246-6.878,5.246
				l4.87,7.638l3.05-1.037l0.33,26.912c0,0,15.191,2.581,25.25-2.272l-8.82-25.853l2.626,0.222c0,0-0.574-8.797-10.406-11.327
				c0,0,2.319,4.542,1.975,5.167l-8.875,0.549L134.789,154.241z"/>
			<polygon style="opacity:0.2;enable-background:new    ;" points="135.831,166.088 136.543,161.081 132.781,167.125 			"/>
			<polygon style="opacity:0.2;enable-background:new    ;" points="152.591,164.875 148.586,159.487 155.218,165.097 			"/>
		</g>
		<path style="opacity:0.2;enable-background:new    ;" d="M120.041,211.06c0.07,4.97,0.13,10.19,0.16,15.61
			c18.48,1.72,28.83-7.92,28.83-7.92L120.041,211.06z"/>
		<path style="fill:#263238;" d="M191.776,198.839c-0.223-4.736-24.426-33.742-24.426-33.742l-7.938,11.653l15.683,39.627
			C175.094,216.377,192.515,214.552,191.776,198.839z"/>
		<g>
			<path style="fill:#407BFF;" d="M174.638,208.386l17.181-17.524l-2.198-2.155l-17.181,17.524
				c-0.242,0.246-0.238,0.642,0.009,0.884l1.305,1.28C174.001,208.636,174.396,208.632,174.638,208.386z"/>
			<path style="fill:#407BFF;" d="M194.137,197.068c1.809-1.845,3.617-3.689,5.426-5.534c-2.438-4.236-5.942-7.672-10.226-10.026
				c-1.808,1.845-3.617,3.689-5.426,5.534C186.349,191.279,189.853,194.715,194.137,197.068z"/>
			<path style="opacity:0.2;enable-background:new    ;" d="M194.137,197.068c1.809-1.845,3.617-3.689,5.426-5.534
				c-2.438-4.236-5.942-7.672-10.226-10.026c-1.808,1.845-3.617,3.689-5.426,5.534C186.349,191.279,189.853,194.715,194.137,197.068
				z"/>
			<g>
				<path style="fill:#407BFF;" d="M184.2,188.297l6.396-6.524c0.193-0.197,0.19-0.514-0.007-0.707l-1.02-1
					c-0.197-0.193-0.514-0.19-0.707,0.007l-6.396,6.524c-0.193,0.197-0.19,0.514,0.007,0.707l1.02,1
					C183.69,188.497,184.006,188.494,184.2,188.297z"/>
				<path style="fill:#407BFF;" d="M194.612,198.505l6.396-6.524c0.193-0.197,0.19-0.514-0.007-0.707l-1.02-1
					c-0.197-0.193-0.514-0.19-0.707,0.007l-6.396,6.524c-0.193,0.197-0.19,0.514,0.007,0.707l1.02,1
					C194.102,198.705,194.419,198.702,194.612,198.505z"/>
			</g>
		</g>
		<path style="fill:#B97964;" d="M153.911,198.636l17.938-1.243c0,0,1.518-1.954,4.002-2.288c2.484-0.334,9.935,2.536,9.935,3.309
			c0,0.773-4.14,6.844-5.244,6.844c-1.104,0-8.969-2.484-8.969-2.484l-16.282,3.726L153.911,198.636z"/>
		<g>
			<path style="fill:#263238;" d="M118.861,162.01c-9.2,4.74-19.7,36.49-11.95,49.99s48.936,10.74,48.936,10.74l8.814-25.715
				c0,0-32.5,4.227-39.25-0.649c-4.158-3.004-4.365-16.279-4.92-25.316C120.146,165.427,118.861,162.01,118.861,162.01z"/>
			<path style="opacity:0.3;enable-background:new    ;" d="M118.861,162.01c-9.2,4.74-19.7,36.49-11.95,49.99
				s48.936,10.74,48.936,10.74l8.814-25.715c0,0-32.5,4.227-39.25-0.649c-4.158-3.004-4.365-16.279-4.92-25.316
				C120.146,165.427,118.861,162.01,118.861,162.01z"/>
		</g>
		<g>
			<path style="fill:none;stroke:#263238;stroke-width:0.5;stroke-miterlimit:10;" d="M148.119,137.103
				c0,1.07-0.867,1.937-1.937,1.937s-1.937-0.867-1.937-1.937s0.867-1.937,1.937-1.937S148.119,136.034,148.119,137.103z"/>
			<path style="fill:none;stroke:#263238;stroke-width:0.5;stroke-miterlimit:10;" d="M155.003,138.067
				c0,1.07-0.867,1.937-1.937,1.937s-1.937-0.867-1.937-1.937c0-1.07,0.867-1.937,1.937-1.937S155.003,136.997,155.003,138.067z"/>
			
				<line style="fill:none;stroke:#263238;stroke-width:0.5;stroke-miterlimit:10;" x1="136.543" y1="132.757" x2="144.245" y2="136.75"/>
			<path style="fill:none;stroke:#263238;stroke-width:0.5;stroke-miterlimit:10;" d="M148.119,137.5c0,0,2.009-1.127,3.011,0.567"
				/>
		</g>
	</g>
</g>
<g id="Balance">
	<g>
		<g>
			<rect x="326.667" y="192.141" style="fill:#407BFF;" width="4.281" height="6.909"/>
			<rect x="326.667" y="192.141" style="opacity:0.2;enable-background:new    ;" width="4.281" height="6.909"/>
		</g>
		
			<rect x="325.694" y="249.915" transform="matrix(-1 -1.224647e-16 1.224647e-16 -1 657.6153 656.6054)" style="fill:#263238;" width="6.226" height="156.776"/>
		<g>
			<path style="fill:#407BFF;" d="M343.967,377.285c0-5.371-2.801-9.859-7.015-12.552L336.466,356H321.15l-0.486,8.733
				c-4.214,2.693-7.015,7.29-7.015,12.662c0,4.783,2.22,8.983,5.68,11.761L318.845,398h19.924l-0.483-8.899
				C341.747,386.323,343.967,382.067,343.967,377.285z"/>
			<polygon style="opacity:0.1;fill:#FFFFFF;enable-background:new    ;" points="336.952,365 336.466,356 321.15,356 320.664,365 
							"/>
			<polygon style="opacity:0.2;enable-background:new    ;" points="319.329,389.79 318.845,398.86 338.77,398.86 338.286,389.769 
							"/>
		</g>
		<path style="fill:#263238;" d="M314.704,394.026L314.704,394.026h28.208l0,0c6.303,8.167,15.347,13.779,25.463,15.801
			l10.228,2.045v4.604h-99.59v-4.604l10.228-2.045C299.357,407.805,308.401,402.193,314.704,394.026z"/>
		<path style="opacity:0.1;fill:#FFFFFF;enable-background:new    ;" d="M314.704,394.026L314.704,394.026h28.208l0,0
			c6.303,8.167,15.347,13.779,25.463,15.801l10.228,2.045h-99.59l10.228-2.045C299.357,407.805,308.401,402.193,314.704,394.026z"/>
		<g>
			<rect x="324.095" y="219.928" style="fill:#407BFF;" width="9.425" height="34.392"/>
			<rect x="324.095" y="219.928" style="opacity:0.2;enable-background:new    ;" width="9.425" height="34.392"/>
		</g>
		<path style="fill:#407BFF;" d="M331.103,193.537c0.175-0.348,0.283-0.736,0.283-1.153c0-1.424-1.155-2.579-2.578-2.579
			c-1.424,0-2.579,1.154-2.579,2.579c0,0.417,0.108,0.804,0.284,1.153H331.103z"/>
		<g>
			<g>
				<g>
					<path style="fill:none;stroke:#263238;stroke-miterlimit:10;" d="M449.218,333.62c-0.348-0.952-0.051-1.934,0.662-2.195
						c0.713-0.261,1.573,0.3,1.921,1.251c0.348,0.952,0.051,1.935-0.662,2.195C450.426,335.132,449.566,334.572,449.218,333.62z"/>
					
						<line style="fill:none;stroke:#263238;stroke-linecap:round;stroke-linejoin:round;stroke-miterlimit:10;" x1="450.11" y1="332.054" x2="448.737" y2="328.297"/>
					<path style="fill:none;stroke:#263238;stroke-miterlimit:10;" d="M447.159,327.985c-0.348-0.952-0.052-1.934,0.662-2.195
						c0.713-0.261,1.573,0.299,1.921,1.251c0.348,0.952,0.052,1.934-0.662,2.195C448.367,329.497,447.507,328.936,447.159,327.985z"
						/>
					
						<line style="fill:none;stroke:#263238;stroke-linecap:round;stroke-linejoin:round;stroke-miterlimit:10;" x1="448.051" y1="326.418" x2="446.677" y2="322.661"/>
					<path style="fill:none;stroke:#263238;stroke-miterlimit:10;" d="M445.099,322.349c-0.348-0.952-0.051-1.934,0.662-2.195
						c0.713-0.261,1.573,0.299,1.921,1.251c0.348,0.952,0.051,1.934-0.662,2.195C446.307,323.861,445.447,323.301,445.099,322.349z"
						/>
					
						<line style="fill:none;stroke:#263238;stroke-linecap:round;stroke-linejoin:round;stroke-miterlimit:10;" x1="445.991" y1="320.783" x2="444.618" y2="317.026"/>
					<path style="fill:none;stroke:#263238;stroke-miterlimit:10;" d="M443.04,316.714c-0.348-0.952-0.051-1.934,0.662-2.195
						c0.713-0.261,1.573,0.3,1.921,1.251c0.348,0.952,0.051,1.934-0.662,2.195C444.248,318.226,443.388,317.665,443.04,316.714z"/>
					
						<line style="fill:none;stroke:#263238;stroke-linecap:round;stroke-linejoin:round;stroke-miterlimit:10;" x1="443.932" y1="315.147" x2="442.559" y2="311.39"/>
					<path style="fill:none;stroke:#263238;stroke-miterlimit:10;" d="M440.981,311.078c-0.348-0.951-0.051-1.934,0.662-2.195
						c0.713-0.261,1.573,0.3,1.921,1.251c0.348,0.952,0.052,1.934-0.662,2.195C442.189,312.59,441.329,312.03,440.981,311.078z"/>
					
						<line style="fill:none;stroke:#263238;stroke-linecap:round;stroke-linejoin:round;stroke-miterlimit:10;" x1="441.872" y1="309.512" x2="440.5" y2="305.755"/>
					<path style="fill:none;stroke:#263238;stroke-miterlimit:10;" d="M438.921,305.443c-0.348-0.951-0.051-1.934,0.662-2.195
						c0.713-0.261,1.573,0.3,1.921,1.251c0.348,0.952,0.052,1.934-0.662,2.195C440.129,306.955,439.269,306.394,438.921,305.443z"/>
					
						<line style="fill:none;stroke:#263238;stroke-linecap:round;stroke-linejoin:round;stroke-miterlimit:10;" x1="439.813" y1="303.876" x2="438.44" y2="300.119"/>
					<path style="fill:none;stroke:#263238;stroke-miterlimit:10;" d="M436.862,299.807c-0.348-0.952-0.051-1.934,0.662-2.195
						c0.713-0.261,1.573,0.3,1.921,1.251c0.348,0.952,0.051,1.934-0.662,2.195C438.07,301.319,437.21,300.759,436.862,299.807z"/>
					
						<line style="fill:none;stroke:#263238;stroke-linecap:round;stroke-linejoin:round;stroke-miterlimit:10;" x1="437.754" y1="298.241" x2="436.381" y2="294.484"/>
					<path style="fill:none;stroke:#263238;stroke-miterlimit:10;" d="M434.803,294.172c-0.348-0.952-0.051-1.934,0.662-2.195
						c0.713-0.261,1.573,0.3,1.921,1.251c0.348,0.952,0.051,1.934-0.662,2.195C436.011,295.684,435.151,295.123,434.803,294.172z"/>
					
						<line style="fill:none;stroke:#263238;stroke-linecap:round;stroke-linejoin:round;stroke-miterlimit:10;" x1="435.694" y1="292.605" x2="434.321" y2="288.848"/>
					<path style="fill:none;stroke:#263238;stroke-miterlimit:10;" d="M432.743,288.536c-0.348-0.952-0.052-1.934,0.662-2.195
						c0.713-0.261,1.573,0.299,1.921,1.251c0.348,0.952,0.052,1.934-0.662,2.195C433.951,290.048,433.091,289.488,432.743,288.536z"
						/>
					
						<line style="fill:none;stroke:#263238;stroke-linecap:round;stroke-linejoin:round;stroke-miterlimit:10;" x1="433.635" y1="286.97" x2="432.262" y2="283.213"/>
					<path style="fill:none;stroke:#263238;stroke-miterlimit:10;" d="M430.684,282.901c-0.348-0.952-0.051-1.934,0.662-2.195
						c0.713-0.261,1.573,0.299,1.921,1.251c0.348,0.952,0.051,1.934-0.662,2.195C431.892,284.413,431.032,283.852,430.684,282.901z"
						/>
					
						<line style="fill:none;stroke:#263238;stroke-linecap:round;stroke-linejoin:round;stroke-miterlimit:10;" x1="431.576" y1="281.334" x2="430.203" y2="277.577"/>
					<path style="fill:none;stroke:#263238;stroke-miterlimit:10;" d="M428.625,277.265c-0.348-0.952-0.051-1.934,0.662-2.195
						c0.713-0.261,1.573,0.3,1.921,1.251c0.348,0.952,0.051,1.934-0.662,2.195C429.832,278.777,428.972,278.217,428.625,277.265z"/>
					
						<line style="fill:none;stroke:#263238;stroke-linecap:round;stroke-linejoin:round;stroke-miterlimit:10;" x1="429.516" y1="275.699" x2="428.143" y2="271.942"/>
					<path style="fill:none;stroke:#263238;stroke-miterlimit:10;" d="M426.565,271.63c-0.348-0.952-0.052-1.934,0.662-2.195
						c0.713-0.261,1.573,0.3,1.921,1.251c0.348,0.952,0.052,1.935-0.662,2.195C427.773,273.142,426.913,272.581,426.565,271.63z"/>
					
						<line style="fill:none;stroke:#263238;stroke-linecap:round;stroke-linejoin:round;stroke-miterlimit:10;" x1="427.457" y1="270.063" x2="426.084" y2="266.306"/>
					<path style="fill:none;stroke:#263238;stroke-miterlimit:10;" d="M424.506,265.994c-0.348-0.952-0.051-1.934,0.662-2.195
						c0.713-0.261,1.573,0.3,1.921,1.251c0.348,0.952,0.051,1.935-0.662,2.195C425.714,267.506,424.854,266.946,424.506,265.994z"/>
					
						<line style="fill:none;stroke:#263238;stroke-linecap:round;stroke-linejoin:round;stroke-miterlimit:10;" x1="425.397" y1="264.427" x2="424.025" y2="260.671"/>
					<path style="fill:none;stroke:#263238;stroke-miterlimit:10;" d="M422.447,260.359c-0.348-0.952-0.051-1.934,0.662-2.195
						c0.713-0.261,1.573,0.3,1.921,1.251c0.348,0.952,0.051,1.935-0.662,2.195C423.654,261.871,422.794,261.31,422.447,260.359z"/>
					
						<line style="fill:none;stroke:#263238;stroke-linecap:round;stroke-linejoin:round;stroke-miterlimit:10;" x1="423.338" y1="258.792" x2="421.965" y2="255.035"/>
					<path style="fill:none;stroke:#263238;stroke-miterlimit:10;" d="M420.387,254.723c-0.348-0.952-0.052-1.934,0.662-2.195
						c0.713-0.261,1.573,0.299,1.921,1.251c0.348,0.952,0.052,1.934-0.662,2.195C421.595,256.235,420.735,255.675,420.387,254.723z"
						/>
					
						<line style="fill:none;stroke:#263238;stroke-linecap:round;stroke-linejoin:round;stroke-miterlimit:10;" x1="421.279" y1="253.156" x2="419.906" y2="249.4"/>
					<path style="fill:none;stroke:#263238;stroke-miterlimit:10;" d="M418.328,249.088c-0.348-0.952-0.051-1.934,0.662-2.195
						c0.713-0.261,1.573,0.299,1.921,1.251c0.348,0.952,0.051,1.934-0.662,2.195C419.536,250.599,418.676,250.039,418.328,249.088z"
						/>
					
						<line style="fill:none;stroke:#263238;stroke-linecap:round;stroke-linejoin:round;stroke-miterlimit:10;" x1="419.219" y1="247.521" x2="417.846" y2="243.764"/>
					<path style="fill:none;stroke:#263238;stroke-miterlimit:10;" d="M416.268,243.452c-0.348-0.951-0.051-1.934,0.662-2.195
						c0.713-0.261,1.573,0.299,1.921,1.251c0.348,0.952,0.051,1.934-0.662,2.195C417.476,244.964,416.616,244.404,416.268,243.452z"
						/>
					
						<line style="fill:none;stroke:#263238;stroke-linecap:round;stroke-linejoin:round;stroke-miterlimit:10;" x1="417.16" y1="241.885" x2="415.787" y2="238.128"/>
					<path style="fill:none;stroke:#263238;stroke-miterlimit:10;" d="M414.209,237.816c-0.348-0.951-0.051-1.934,0.662-2.195
						c0.713-0.261,1.573,0.3,1.921,1.251c0.348,0.952,0.052,1.934-0.662,2.195C415.417,239.328,414.557,238.768,414.209,237.816z"/>
					
						<line style="fill:none;stroke:#263238;stroke-linecap:round;stroke-linejoin:round;stroke-miterlimit:10;" x1="415.101" y1="236.25" x2="413.728" y2="232.493"/>
				</g>
				<g>
					<path style="fill:none;stroke:#263238;stroke-miterlimit:10;" d="M377.782,333.62c0.348-0.952,0.051-1.934-0.662-2.195
						c-0.713-0.261-1.573,0.3-1.921,1.251c-0.348,0.952-0.052,1.935,0.662,2.195C376.574,335.132,377.434,334.572,377.782,333.62z"
						/>
					
						<line style="fill:none;stroke:#263238;stroke-linecap:round;stroke-linejoin:round;stroke-miterlimit:10;" x1="376.89" y1="332.054" x2="378.263" y2="328.297"/>
					<path style="fill:none;stroke:#263238;stroke-miterlimit:10;" d="M379.841,327.985c0.348-0.952,0.051-1.934-0.662-2.195
						c-0.713-0.261-1.573,0.299-1.921,1.251c-0.348,0.952-0.051,1.934,0.662,2.195C378.633,329.497,379.493,328.936,379.841,327.985
						z"/>
					
						<line style="fill:none;stroke:#263238;stroke-linecap:round;stroke-linejoin:round;stroke-miterlimit:10;" x1="378.949" y1="326.418" x2="380.322" y2="322.661"/>
					<path style="fill:none;stroke:#263238;stroke-miterlimit:10;" d="M381.9,322.349c0.348-0.952,0.051-1.934-0.662-2.195
						c-0.713-0.261-1.573,0.299-1.921,1.251c-0.348,0.952-0.051,1.934,0.662,2.195C380.692,323.861,381.552,323.301,381.9,322.349z"
						/>
					
						<line style="fill:none;stroke:#263238;stroke-linecap:round;stroke-linejoin:round;stroke-miterlimit:10;" x1="381.009" y1="320.783" x2="382.382" y2="317.026"/>
					<path style="fill:none;stroke:#263238;stroke-miterlimit:10;" d="M383.96,316.714c0.348-0.952,0.052-1.934-0.662-2.195
						c-0.713-0.261-1.573,0.3-1.921,1.251c-0.348,0.952-0.052,1.934,0.662,2.195C382.752,318.226,383.612,317.665,383.96,316.714z"
						/>
					
						<line style="fill:none;stroke:#263238;stroke-linecap:round;stroke-linejoin:round;stroke-miterlimit:10;" x1="383.068" y1="315.147" x2="384.441" y2="311.39"/>
					<path style="fill:none;stroke:#263238;stroke-miterlimit:10;" d="M386.019,311.078c0.348-0.951,0.051-1.934-0.662-2.195
						c-0.713-0.261-1.573,0.3-1.921,1.251c-0.348,0.952-0.051,1.934,0.662,2.195C384.811,312.59,385.671,312.03,386.019,311.078z"/>
					
						<line style="fill:none;stroke:#263238;stroke-linecap:round;stroke-linejoin:round;stroke-miterlimit:10;" x1="385.127" y1="309.512" x2="386.5" y2="305.755"/>
					<path style="fill:none;stroke:#263238;stroke-miterlimit:10;" d="M388.078,305.443c0.348-0.951,0.051-1.934-0.662-2.195
						c-0.713-0.261-1.573,0.3-1.921,1.251c-0.348,0.952-0.051,1.934,0.662,2.195C386.871,306.955,387.731,306.394,388.078,305.443z"
						/>
					
						<line style="fill:none;stroke:#263238;stroke-linecap:round;stroke-linejoin:round;stroke-miterlimit:10;" x1="387.187" y1="303.876" x2="388.56" y2="300.119"/>
					<path style="fill:none;stroke:#263238;stroke-miterlimit:10;" d="M390.138,299.807c0.348-0.952,0.052-1.934-0.662-2.195
						c-0.713-0.261-1.573,0.3-1.921,1.251c-0.348,0.952-0.052,1.934,0.662,2.195C388.93,301.319,389.79,300.759,390.138,299.807z"/>
					
						<line style="fill:none;stroke:#263238;stroke-linecap:round;stroke-linejoin:round;stroke-miterlimit:10;" x1="389.246" y1="298.241" x2="390.619" y2="294.484"/>
					<path style="fill:none;stroke:#263238;stroke-miterlimit:10;" d="M392.197,294.172c0.348-0.952,0.051-1.934-0.662-2.195
						c-0.713-0.261-1.573,0.3-1.921,1.251c-0.348,0.952-0.051,1.934,0.662,2.195C390.989,295.684,391.849,295.123,392.197,294.172z"
						/>
					
						<line style="fill:none;stroke:#263238;stroke-linecap:round;stroke-linejoin:round;stroke-miterlimit:10;" x1="391.306" y1="292.605" x2="392.678" y2="288.848"/>
					<path style="fill:none;stroke:#263238;stroke-miterlimit:10;" d="M394.256,288.536c0.348-0.952,0.051-1.934-0.662-2.195
						c-0.713-0.261-1.573,0.299-1.921,1.251c-0.348,0.952-0.051,1.934,0.662,2.195C393.049,290.048,393.909,289.488,394.256,288.536
						z"/>
					
						<line style="fill:none;stroke:#263238;stroke-linecap:round;stroke-linejoin:round;stroke-miterlimit:10;" x1="393.365" y1="286.97" x2="394.738" y2="283.213"/>
					<path style="fill:none;stroke:#263238;stroke-miterlimit:10;" d="M396.316,282.901c0.348-0.952,0.052-1.934-0.662-2.195
						c-0.713-0.261-1.573,0.299-1.921,1.251c-0.348,0.952-0.052,1.934,0.662,2.195C395.108,284.413,395.968,283.852,396.316,282.901
						z"/>
					
						<line style="fill:none;stroke:#263238;stroke-linecap:round;stroke-linejoin:round;stroke-miterlimit:10;" x1="395.424" y1="281.334" x2="396.797" y2="277.577"/>
					<path style="fill:none;stroke:#263238;stroke-miterlimit:10;" d="M398.375,277.265c0.348-0.952,0.051-1.934-0.662-2.195
						c-0.713-0.261-1.573,0.3-1.921,1.251c-0.348,0.952-0.052,1.934,0.662,2.195C397.167,278.777,398.027,278.217,398.375,277.265z"
						/>
					
						<line style="fill:none;stroke:#263238;stroke-linecap:round;stroke-linejoin:round;stroke-miterlimit:10;" x1="397.484" y1="275.699" x2="398.857" y2="271.942"/>
					<path style="fill:none;stroke:#263238;stroke-miterlimit:10;" d="M400.435,271.63c0.348-0.952,0.051-1.934-0.662-2.195
						c-0.713-0.261-1.573,0.3-1.921,1.251c-0.348,0.952-0.051,1.935,0.662,2.195C399.227,273.142,400.087,272.581,400.435,271.63z"
						/>
					
						<line style="fill:none;stroke:#263238;stroke-linecap:round;stroke-linejoin:round;stroke-miterlimit:10;" x1="399.543" y1="270.063" x2="400.916" y2="266.306"/>
					<path style="fill:none;stroke:#263238;stroke-miterlimit:10;" d="M402.494,265.994c0.348-0.952,0.051-1.934-0.662-2.195
						c-0.713-0.261-1.573,0.3-1.921,1.251c-0.348,0.952-0.051,1.935,0.662,2.195C401.286,267.506,402.146,266.946,402.494,265.994z"
						/>
					
						<line style="fill:none;stroke:#263238;stroke-linecap:round;stroke-linejoin:round;stroke-miterlimit:10;" x1="401.602" y1="264.427" x2="402.975" y2="260.671"/>
					<path style="fill:none;stroke:#263238;stroke-miterlimit:10;" d="M404.553,260.359c0.348-0.952,0.051-1.934-0.662-2.195
						c-0.713-0.261-1.573,0.3-1.921,1.251c-0.348,0.952-0.052,1.935,0.662,2.195C403.345,261.871,404.206,261.31,404.553,260.359z"
						/>
					
						<line style="fill:none;stroke:#263238;stroke-linecap:round;stroke-linejoin:round;stroke-miterlimit:10;" x1="403.662" y1="258.792" x2="405.035" y2="255.035"/>
					<path style="fill:none;stroke:#263238;stroke-miterlimit:10;" d="M406.613,254.723c0.348-0.952,0.051-1.934-0.662-2.195
						c-0.713-0.261-1.573,0.299-1.921,1.251c-0.348,0.952-0.051,1.934,0.662,2.195C405.405,256.235,406.265,255.675,406.613,254.723
						z"/>
					
						<line style="fill:none;stroke:#263238;stroke-linecap:round;stroke-linejoin:round;stroke-miterlimit:10;" x1="405.721" y1="253.156" x2="407.094" y2="249.4"/>
					<path style="fill:none;stroke:#263238;stroke-miterlimit:10;" d="M408.672,249.088c0.348-0.952,0.051-1.934-0.662-2.195
						c-0.713-0.261-1.573,0.299-1.921,1.251c-0.348,0.952-0.051,1.934,0.662,2.195C407.464,250.599,408.324,250.039,408.672,249.088
						z"/>
					
						<line style="fill:none;stroke:#263238;stroke-linecap:round;stroke-linejoin:round;stroke-miterlimit:10;" x1="407.78" y1="247.521" x2="409.153" y2="243.764"/>
					<path style="fill:none;stroke:#263238;stroke-miterlimit:10;" d="M410.731,243.452c0.348-0.951,0.052-1.934-0.662-2.195
						c-0.713-0.261-1.573,0.299-1.921,1.251c-0.348,0.952-0.052,1.934,0.662,2.195C409.523,244.964,410.384,244.404,410.731,243.452
						z"/>
					
						<line style="fill:none;stroke:#263238;stroke-linecap:round;stroke-linejoin:round;stroke-miterlimit:10;" x1="409.84" y1="241.885" x2="411.213" y2="238.128"/>
					<path style="fill:none;stroke:#263238;stroke-miterlimit:10;" d="M412.791,237.816c0.348-0.951,0.051-1.934-0.662-2.195
						c-0.713-0.261-1.573,0.3-1.921,1.251c-0.348,0.952-0.051,1.934,0.662,2.195C411.583,239.328,412.443,238.768,412.791,237.816z"
						/>
					
						<line style="fill:none;stroke:#263238;stroke-linecap:round;stroke-linejoin:round;stroke-miterlimit:10;" x1="411.899" y1="236.25" x2="413.272" y2="232.493"/>
				</g>
			</g>
			<g>
				<path style="fill:none;stroke:#263238;stroke-miterlimit:10;" d="M412.125,337.165c0-1.013,0.616-1.835,1.375-1.835
					s1.375,0.821,1.375,1.835c0,1.013-0.616,1.835-1.375,1.835S412.125,338.179,412.125,337.165z"/>
				
					<line style="fill:none;stroke:#263238;stroke-linecap:round;stroke-linejoin:round;stroke-miterlimit:10;" x1="413.5" y1="336" x2="413.5" y2="332"/>
				<path style="fill:none;stroke:#263238;stroke-miterlimit:10;" d="M412.125,331.165c0-1.013,0.616-1.835,1.375-1.835
					s1.375,0.821,1.375,1.835c0,1.013-0.616,1.835-1.375,1.835S412.125,332.179,412.125,331.165z"/>
				
					<line style="fill:none;stroke:#263238;stroke-linecap:round;stroke-linejoin:round;stroke-miterlimit:10;" x1="413.5" y1="330" x2="413.5" y2="326"/>
				<path style="fill:none;stroke:#263238;stroke-miterlimit:10;" d="M412.125,325.165c0-1.013,0.616-1.835,1.375-1.835
					s1.375,0.821,1.375,1.835c0,1.013-0.616,1.835-1.375,1.835S412.125,326.179,412.125,325.165z"/>
				
					<line style="fill:none;stroke:#263238;stroke-linecap:round;stroke-linejoin:round;stroke-miterlimit:10;" x1="413.5" y1="324" x2="413.5" y2="320"/>
				<path style="fill:none;stroke:#263238;stroke-miterlimit:10;" d="M412.125,319.165c0-1.013,0.616-1.835,1.375-1.835
					s1.375,0.821,1.375,1.835c0,1.013-0.616,1.835-1.375,1.835S412.125,320.179,412.125,319.165z"/>
				
					<line style="fill:none;stroke:#263238;stroke-linecap:round;stroke-linejoin:round;stroke-miterlimit:10;" x1="413.5" y1="318" x2="413.5" y2="314"/>
				<path style="fill:none;stroke:#263238;stroke-miterlimit:10;" d="M412.125,313.165c0-1.013,0.616-1.835,1.375-1.835
					s1.375,0.821,1.375,1.835c0,1.013-0.616,1.835-1.375,1.835S412.125,314.179,412.125,313.165z"/>
				
					<line style="fill:none;stroke:#263238;stroke-linecap:round;stroke-linejoin:round;stroke-miterlimit:10;" x1="413.5" y1="312" x2="413.5" y2="308"/>
				<path style="fill:none;stroke:#263238;stroke-miterlimit:10;" d="M412.125,307.165c0-1.013,0.616-1.835,1.375-1.835
					s1.375,0.821,1.375,1.835c0,1.013-0.616,1.835-1.375,1.835S412.125,308.179,412.125,307.165z"/>
				
					<line style="fill:none;stroke:#263238;stroke-linecap:round;stroke-linejoin:round;stroke-miterlimit:10;" x1="413.5" y1="306" x2="413.5" y2="302"/>
				<path style="fill:none;stroke:#263238;stroke-miterlimit:10;" d="M412.125,301.165c0-1.013,0.616-1.835,1.375-1.835
					s1.375,0.821,1.375,1.835c0,1.013-0.616,1.835-1.375,1.835S412.125,302.179,412.125,301.165z"/>
				
					<line style="fill:none;stroke:#263238;stroke-linecap:round;stroke-linejoin:round;stroke-miterlimit:10;" x1="413.5" y1="300" x2="413.5" y2="296"/>
				<path style="fill:none;stroke:#263238;stroke-miterlimit:10;" d="M412.125,295.165c0-1.013,0.616-1.835,1.375-1.835
					s1.375,0.821,1.375,1.835c0,1.013-0.616,1.835-1.375,1.835S412.125,296.179,412.125,295.165z"/>
				
					<line style="fill:none;stroke:#263238;stroke-linecap:round;stroke-linejoin:round;stroke-miterlimit:10;" x1="413.5" y1="294" x2="413.5" y2="290"/>
				<path style="fill:none;stroke:#263238;stroke-miterlimit:10;" d="M412.125,289.165c0-1.013,0.616-1.835,1.375-1.835
					s1.375,0.821,1.375,1.835c0,1.013-0.616,1.835-1.375,1.835S412.125,290.179,412.125,289.165z"/>
				
					<line style="fill:none;stroke:#263238;stroke-linecap:round;stroke-linejoin:round;stroke-miterlimit:10;" x1="413.5" y1="288" x2="413.5" y2="284"/>
				<path style="fill:none;stroke:#263238;stroke-miterlimit:10;" d="M412.125,283.165c0-1.013,0.616-1.835,1.375-1.835
					s1.375,0.821,1.375,1.835c0,1.013-0.616,1.835-1.375,1.835S412.125,284.179,412.125,283.165z"/>
				
					<line style="fill:none;stroke:#263238;stroke-linecap:round;stroke-linejoin:round;stroke-miterlimit:10;" x1="413.5" y1="282" x2="413.5" y2="278"/>
				<path style="fill:none;stroke:#263238;stroke-miterlimit:10;" d="M412.125,277.165c0-1.013,0.616-1.835,1.375-1.835
					s1.375,0.821,1.375,1.835c0,1.013-0.616,1.835-1.375,1.835S412.125,278.179,412.125,277.165z"/>
				
					<line style="fill:none;stroke:#263238;stroke-linecap:round;stroke-linejoin:round;stroke-miterlimit:10;" x1="413.5" y1="276" x2="413.5" y2="272"/>
				<path style="fill:none;stroke:#263238;stroke-miterlimit:10;" d="M412.125,271.165c0-1.013,0.616-1.835,1.375-1.835
					s1.375,0.821,1.375,1.835c0,1.013-0.616,1.835-1.375,1.835S412.125,272.179,412.125,271.165z"/>
				
					<line style="fill:none;stroke:#263238;stroke-linecap:round;stroke-linejoin:round;stroke-miterlimit:10;" x1="413.5" y1="270" x2="413.5" y2="266"/>
				<path style="fill:none;stroke:#263238;stroke-miterlimit:10;" d="M412.125,265.165c0-1.013,0.616-1.835,1.375-1.835
					s1.375,0.821,1.375,1.835c0,1.013-0.616,1.835-1.375,1.835S412.125,266.179,412.125,265.165z"/>
				
					<line style="fill:none;stroke:#263238;stroke-linecap:round;stroke-linejoin:round;stroke-miterlimit:10;" x1="413.5" y1="264" x2="413.5" y2="260"/>
				<path style="fill:none;stroke:#263238;stroke-miterlimit:10;" d="M412.125,259.165c0-1.013,0.616-1.835,1.375-1.835
					s1.375,0.821,1.375,1.835c0,1.013-0.616,1.835-1.375,1.835S412.125,260.179,412.125,259.165z"/>
				
					<line style="fill:none;stroke:#263238;stroke-linecap:round;stroke-linejoin:round;stroke-miterlimit:10;" x1="413.5" y1="258" x2="413.5" y2="254"/>
				<path style="fill:none;stroke:#263238;stroke-miterlimit:10;" d="M412.125,253.165c0-1.013,0.616-1.835,1.375-1.835
					s1.375,0.821,1.375,1.835c0,1.013-0.616,1.835-1.375,1.835S412.125,254.179,412.125,253.165z"/>
				
					<line style="fill:none;stroke:#263238;stroke-linecap:round;stroke-linejoin:round;stroke-miterlimit:10;" x1="413.5" y1="252" x2="413.5" y2="248"/>
				<path style="fill:none;stroke:#263238;stroke-miterlimit:10;" d="M412.125,247.165c0-1.013,0.616-1.835,1.375-1.835
					s1.375,0.821,1.375,1.835c0,1.013-0.616,1.835-1.375,1.835S412.125,248.179,412.125,247.165z"/>
				
					<line style="fill:none;stroke:#263238;stroke-linecap:round;stroke-linejoin:round;stroke-miterlimit:10;" x1="413.5" y1="246" x2="413.5" y2="242"/>
				<path style="fill:none;stroke:#263238;stroke-miterlimit:10;" d="M412.125,241.165c0-1.013,0.616-1.835,1.375-1.835
					s1.375,0.821,1.375,1.835c0,1.013-0.616,1.835-1.375,1.835S412.125,242.179,412.125,241.165z"/>
				
					<line style="fill:none;stroke:#263238;stroke-linecap:round;stroke-linejoin:round;stroke-miterlimit:10;" x1="413.5" y1="240" x2="413.5" y2="236"/>
				<path style="fill:none;stroke:#263238;stroke-miterlimit:10;" d="M412.125,235.165c0-1.013,0.616-1.835,1.375-1.835
					s1.375,0.821,1.375,1.835c0,1.013-0.616,1.835-1.375,1.835S412.125,236.179,412.125,235.165z"/>
				
					<line style="fill:none;stroke:#263238;stroke-linecap:round;stroke-linejoin:round;stroke-miterlimit:10;" x1="413.5" y1="234" x2="413.5" y2="230"/>
				<path style="fill:none;stroke:#263238;stroke-miterlimit:10;" d="M412.125,229.165c0-1.013,0.616-1.835,1.375-1.835
					s1.375,0.821,1.375,1.835c0,1.013-0.616,1.835-1.375,1.835S412.125,230.179,412.125,229.165z"/>
				
					<line style="fill:none;stroke:#263238;stroke-linecap:round;stroke-linejoin:round;stroke-miterlimit:10;" x1="413.5" y1="228" x2="413.5" y2="224"/>
			</g>
			<g>
				<path style="fill:#407BFF;" d="M372.299,333c0,3,18.446,7.622,41.201,7.622S454.7,336,454.7,333H372.299z"/>
				<path style="opacity:0.2;enable-background:new    ;" d="M454.7,333c0,3-18.446,7.622-41.201,7.622S372.299,336,372.299,333
					H454.7z"/>
			</g>
			<g>
				<g>
					<path style="fill:none;stroke:#263238;stroke-miterlimit:10;" d="M280.218,333.62c-0.348-0.952-0.051-1.934,0.662-2.195
						c0.713-0.261,1.573,0.3,1.921,1.251c0.348,0.952,0.051,1.935-0.662,2.195C281.426,335.132,280.566,334.572,280.218,333.62z"/>
					
						<line style="fill:none;stroke:#263238;stroke-linecap:round;stroke-linejoin:round;stroke-miterlimit:10;" x1="281.11" y1="332.054" x2="279.737" y2="328.297"/>
					<path style="fill:none;stroke:#263238;stroke-miterlimit:10;" d="M278.159,327.985c-0.348-0.952-0.052-1.934,0.662-2.195
						c0.713-0.261,1.573,0.299,1.921,1.251c0.348,0.952,0.052,1.934-0.662,2.195C279.367,329.497,278.507,328.936,278.159,327.985z"
						/>
					
						<line style="fill:none;stroke:#263238;stroke-linecap:round;stroke-linejoin:round;stroke-miterlimit:10;" x1="279.051" y1="326.418" x2="277.677" y2="322.661"/>
					<path style="fill:none;stroke:#263238;stroke-miterlimit:10;" d="M276.099,322.349c-0.348-0.952-0.051-1.934,0.662-2.195
						c0.713-0.261,1.573,0.299,1.921,1.251c0.348,0.952,0.051,1.934-0.662,2.195C277.307,323.861,276.447,323.301,276.099,322.349z"
						/>
					
						<line style="fill:none;stroke:#263238;stroke-linecap:round;stroke-linejoin:round;stroke-miterlimit:10;" x1="276.991" y1="320.783" x2="275.618" y2="317.026"/>
					<path style="fill:none;stroke:#263238;stroke-miterlimit:10;" d="M274.04,316.714c-0.348-0.952-0.051-1.934,0.662-2.195
						c0.713-0.261,1.573,0.3,1.921,1.251c0.348,0.952,0.051,1.934-0.662,2.195C275.248,318.226,274.388,317.665,274.04,316.714z"/>
					
						<line style="fill:none;stroke:#263238;stroke-linecap:round;stroke-linejoin:round;stroke-miterlimit:10;" x1="274.932" y1="315.147" x2="273.559" y2="311.39"/>
					<path style="fill:none;stroke:#263238;stroke-miterlimit:10;" d="M271.981,311.078c-0.348-0.951-0.051-1.934,0.662-2.195
						c0.713-0.261,1.573,0.3,1.921,1.251c0.348,0.952,0.052,1.934-0.662,2.195C273.189,312.59,272.329,312.03,271.981,311.078z"/>
					
						<line style="fill:none;stroke:#263238;stroke-linecap:round;stroke-linejoin:round;stroke-miterlimit:10;" x1="272.872" y1="309.512" x2="271.5" y2="305.755"/>
					<path style="fill:none;stroke:#263238;stroke-miterlimit:10;" d="M269.921,305.443c-0.348-0.951-0.051-1.934,0.662-2.195
						c0.713-0.261,1.573,0.3,1.921,1.251c0.348,0.952,0.052,1.934-0.662,2.195C271.129,306.955,270.269,306.394,269.921,305.443z"/>
					
						<line style="fill:none;stroke:#263238;stroke-linecap:round;stroke-linejoin:round;stroke-miterlimit:10;" x1="270.813" y1="303.876" x2="269.44" y2="300.119"/>
					<path style="fill:none;stroke:#263238;stroke-miterlimit:10;" d="M267.862,299.807c-0.348-0.952-0.051-1.934,0.662-2.195
						c0.713-0.261,1.573,0.3,1.921,1.251c0.348,0.952,0.051,1.934-0.662,2.195C269.07,301.319,268.21,300.759,267.862,299.807z"/>
					
						<line style="fill:none;stroke:#263238;stroke-linecap:round;stroke-linejoin:round;stroke-miterlimit:10;" x1="268.754" y1="298.241" x2="267.381" y2="294.484"/>
					<path style="fill:none;stroke:#263238;stroke-miterlimit:10;" d="M265.803,294.172c-0.348-0.952-0.051-1.934,0.662-2.195
						c0.713-0.261,1.573,0.3,1.921,1.251c0.348,0.952,0.051,1.934-0.662,2.195C267.011,295.684,266.151,295.123,265.803,294.172z"/>
					
						<line style="fill:none;stroke:#263238;stroke-linecap:round;stroke-linejoin:round;stroke-miterlimit:10;" x1="266.694" y1="292.605" x2="265.321" y2="288.848"/>
					<path style="fill:none;stroke:#263238;stroke-miterlimit:10;" d="M263.743,288.536c-0.348-0.952-0.052-1.934,0.662-2.195
						c0.713-0.261,1.573,0.299,1.921,1.251c0.348,0.952,0.052,1.934-0.662,2.195C264.951,290.048,264.091,289.488,263.743,288.536z"
						/>
					
						<line style="fill:none;stroke:#263238;stroke-linecap:round;stroke-linejoin:round;stroke-miterlimit:10;" x1="264.635" y1="286.97" x2="263.262" y2="283.213"/>
					<path style="fill:none;stroke:#263238;stroke-miterlimit:10;" d="M261.684,282.901c-0.348-0.952-0.051-1.934,0.662-2.195
						c0.713-0.261,1.573,0.299,1.921,1.251c0.348,0.952,0.051,1.934-0.662,2.195C262.892,284.413,262.032,283.852,261.684,282.901z"
						/>
					
						<line style="fill:none;stroke:#263238;stroke-linecap:round;stroke-linejoin:round;stroke-miterlimit:10;" x1="262.576" y1="281.334" x2="261.203" y2="277.577"/>
					<path style="fill:none;stroke:#263238;stroke-miterlimit:10;" d="M259.625,277.265c-0.348-0.952-0.051-1.934,0.662-2.195
						c0.713-0.261,1.573,0.3,1.921,1.251c0.348,0.952,0.051,1.934-0.662,2.195C260.832,278.777,259.972,278.217,259.625,277.265z"/>
					
						<line style="fill:none;stroke:#263238;stroke-linecap:round;stroke-linejoin:round;stroke-miterlimit:10;" x1="260.516" y1="275.699" x2="259.143" y2="271.942"/>
					<path style="fill:none;stroke:#263238;stroke-miterlimit:10;" d="M257.565,271.63c-0.348-0.952-0.052-1.934,0.662-2.195
						c0.713-0.261,1.573,0.3,1.921,1.251c0.348,0.952,0.052,1.935-0.662,2.195C258.773,273.142,257.913,272.581,257.565,271.63z"/>
					
						<line style="fill:none;stroke:#263238;stroke-linecap:round;stroke-linejoin:round;stroke-miterlimit:10;" x1="258.457" y1="270.063" x2="257.084" y2="266.306"/>
					<path style="fill:none;stroke:#263238;stroke-miterlimit:10;" d="M255.506,265.994c-0.348-0.952-0.051-1.934,0.662-2.195
						c0.713-0.261,1.573,0.3,1.921,1.251c0.348,0.952,0.051,1.935-0.662,2.195C256.714,267.506,255.854,266.946,255.506,265.994z"/>
					
						<line style="fill:none;stroke:#263238;stroke-linecap:round;stroke-linejoin:round;stroke-miterlimit:10;" x1="256.397" y1="264.427" x2="255.025" y2="260.671"/>
					<path style="fill:none;stroke:#263238;stroke-miterlimit:10;" d="M253.447,260.359c-0.348-0.952-0.051-1.934,0.662-2.195
						c0.713-0.261,1.573,0.3,1.921,1.251c0.348,0.952,0.051,1.935-0.662,2.195C254.654,261.871,253.794,261.31,253.447,260.359z"/>
					
						<line style="fill:none;stroke:#263238;stroke-linecap:round;stroke-linejoin:round;stroke-miterlimit:10;" x1="254.338" y1="258.792" x2="252.965" y2="255.035"/>
					<path style="fill:none;stroke:#263238;stroke-miterlimit:10;" d="M251.387,254.723c-0.348-0.952-0.052-1.934,0.662-2.195
						c0.713-0.261,1.573,0.299,1.921,1.251c0.348,0.952,0.052,1.934-0.662,2.195C252.595,256.235,251.735,255.675,251.387,254.723z"
						/>
					
						<line style="fill:none;stroke:#263238;stroke-linecap:round;stroke-linejoin:round;stroke-miterlimit:10;" x1="252.279" y1="253.156" x2="250.906" y2="249.4"/>
					<path style="fill:none;stroke:#263238;stroke-miterlimit:10;" d="M249.328,249.088c-0.348-0.952-0.051-1.934,0.662-2.195
						c0.713-0.261,1.573,0.299,1.921,1.251c0.348,0.952,0.051,1.934-0.662,2.195C250.536,250.599,249.676,250.039,249.328,249.088z"
						/>
					
						<line style="fill:none;stroke:#263238;stroke-linecap:round;stroke-linejoin:round;stroke-miterlimit:10;" x1="250.219" y1="247.521" x2="248.846" y2="243.764"/>
					<path style="fill:none;stroke:#263238;stroke-miterlimit:10;" d="M247.268,243.452c-0.348-0.951-0.051-1.934,0.662-2.195
						c0.713-0.261,1.573,0.299,1.921,1.251c0.348,0.952,0.051,1.934-0.662,2.195C248.476,244.964,247.616,244.404,247.268,243.452z"
						/>
					
						<line style="fill:none;stroke:#263238;stroke-linecap:round;stroke-linejoin:round;stroke-miterlimit:10;" x1="248.16" y1="241.885" x2="246.787" y2="238.128"/>
					<path style="fill:none;stroke:#263238;stroke-miterlimit:10;" d="M245.209,237.816c-0.348-0.951-0.051-1.934,0.662-2.195
						c0.713-0.261,1.573,0.3,1.921,1.251c0.348,0.952,0.051,1.934-0.662,2.195C246.417,239.328,245.557,238.768,245.209,237.816z"/>
					
						<line style="fill:none;stroke:#263238;stroke-linecap:round;stroke-linejoin:round;stroke-miterlimit:10;" x1="246.101" y1="236.25" x2="244.728" y2="232.493"/>
				</g>
				<g>
					<path style="fill:none;stroke:#263238;stroke-miterlimit:10;" d="M208.782,333.62c0.348-0.952,0.051-1.934-0.662-2.195
						c-0.713-0.261-1.573,0.3-1.921,1.251c-0.348,0.952-0.051,1.935,0.662,2.195C207.574,335.132,208.434,334.572,208.782,333.62z"
						/>
					
						<line style="fill:none;stroke:#263238;stroke-linecap:round;stroke-linejoin:round;stroke-miterlimit:10;" x1="207.89" y1="332.054" x2="209.263" y2="328.297"/>
					<path style="fill:none;stroke:#263238;stroke-miterlimit:10;" d="M210.841,327.985c0.348-0.952,0.051-1.934-0.662-2.195
						c-0.713-0.261-1.573,0.299-1.921,1.251c-0.348,0.952-0.051,1.934,0.662,2.195C209.633,329.497,210.493,328.936,210.841,327.985
						z"/>
					
						<line style="fill:none;stroke:#263238;stroke-linecap:round;stroke-linejoin:round;stroke-miterlimit:10;" x1="209.949" y1="326.418" x2="211.322" y2="322.661"/>
					<path style="fill:none;stroke:#263238;stroke-miterlimit:10;" d="M212.9,322.349c0.348-0.952,0.051-1.934-0.662-2.195
						c-0.713-0.261-1.573,0.299-1.921,1.251c-0.348,0.952-0.051,1.934,0.662,2.195C211.692,323.861,212.553,323.301,212.9,322.349z"
						/>
					
						<line style="fill:none;stroke:#263238;stroke-linecap:round;stroke-linejoin:round;stroke-miterlimit:10;" x1="212.009" y1="320.783" x2="213.382" y2="317.026"/>
					<path style="fill:none;stroke:#263238;stroke-miterlimit:10;" d="M214.96,316.714c0.348-0.952,0.051-1.934-0.662-2.195
						c-0.713-0.261-1.573,0.3-1.921,1.251c-0.348,0.952-0.051,1.934,0.662,2.195C213.752,318.226,214.612,317.665,214.96,316.714z"
						/>
					
						<line style="fill:none;stroke:#263238;stroke-linecap:round;stroke-linejoin:round;stroke-miterlimit:10;" x1="214.068" y1="315.147" x2="215.441" y2="311.39"/>
					<path style="fill:none;stroke:#263238;stroke-miterlimit:10;" d="M217.019,311.078c0.348-0.951,0.051-1.934-0.662-2.195
						c-0.713-0.261-1.573,0.3-1.921,1.251c-0.348,0.952-0.051,1.934,0.662,2.195C215.811,312.59,216.671,312.03,217.019,311.078z"/>
					
						<line style="fill:none;stroke:#263238;stroke-linecap:round;stroke-linejoin:round;stroke-miterlimit:10;" x1="216.127" y1="309.512" x2="217.5" y2="305.755"/>
					<path style="fill:none;stroke:#263238;stroke-miterlimit:10;" d="M219.078,305.443c0.348-0.951,0.051-1.934-0.662-2.195
						c-0.713-0.261-1.573,0.3-1.921,1.251c-0.348,0.952-0.052,1.934,0.662,2.195C217.87,306.955,218.731,306.394,219.078,305.443z"
						/>
					
						<line style="fill:none;stroke:#263238;stroke-linecap:round;stroke-linejoin:round;stroke-miterlimit:10;" x1="218.187" y1="303.876" x2="219.56" y2="300.119"/>
					<path style="fill:none;stroke:#263238;stroke-miterlimit:10;" d="M221.138,299.807c0.348-0.952,0.051-1.934-0.662-2.195
						c-0.713-0.261-1.573,0.3-1.921,1.251c-0.348,0.952-0.051,1.934,0.662,2.195C219.93,301.319,220.79,300.759,221.138,299.807z"/>
					
						<line style="fill:none;stroke:#263238;stroke-linecap:round;stroke-linejoin:round;stroke-miterlimit:10;" x1="220.246" y1="298.241" x2="221.619" y2="294.484"/>
					<path style="fill:none;stroke:#263238;stroke-miterlimit:10;" d="M223.197,294.172c0.348-0.952,0.051-1.934-0.662-2.195
						c-0.713-0.261-1.573,0.3-1.921,1.251c-0.348,0.952-0.051,1.934,0.662,2.195C221.989,295.684,222.849,295.123,223.197,294.172z"
						/>
					
						<line style="fill:none;stroke:#263238;stroke-linecap:round;stroke-linejoin:round;stroke-miterlimit:10;" x1="222.305" y1="292.605" x2="223.678" y2="288.848"/>
					<path style="fill:none;stroke:#263238;stroke-miterlimit:10;" d="M225.256,288.536c0.348-0.952,0.052-1.934-0.662-2.195
						c-0.713-0.261-1.573,0.299-1.921,1.251c-0.348,0.952-0.051,1.934,0.662,2.195C224.049,290.048,224.909,289.488,225.256,288.536
						z"/>
					
						<line style="fill:none;stroke:#263238;stroke-linecap:round;stroke-linejoin:round;stroke-miterlimit:10;" x1="224.365" y1="286.97" x2="225.738" y2="283.213"/>
					<path style="fill:none;stroke:#263238;stroke-miterlimit:10;" d="M227.316,282.901c0.348-0.952,0.051-1.934-0.662-2.195
						c-0.713-0.261-1.573,0.299-1.921,1.251c-0.348,0.952-0.051,1.934,0.662,2.195C226.108,284.413,226.968,283.852,227.316,282.901
						z"/>
					
						<line style="fill:none;stroke:#263238;stroke-linecap:round;stroke-linejoin:round;stroke-miterlimit:10;" x1="226.424" y1="281.334" x2="227.797" y2="277.577"/>
					<path style="fill:none;stroke:#263238;stroke-miterlimit:10;" d="M229.375,277.265c0.348-0.952,0.051-1.934-0.662-2.195
						c-0.713-0.261-1.573,0.3-1.921,1.251c-0.348,0.952-0.051,1.934,0.662,2.195C228.167,278.777,229.027,278.217,229.375,277.265z"
						/>
					
						<line style="fill:none;stroke:#263238;stroke-linecap:round;stroke-linejoin:round;stroke-miterlimit:10;" x1="228.484" y1="275.699" x2="229.857" y2="271.942"/>
					<path style="fill:none;stroke:#263238;stroke-miterlimit:10;" d="M231.434,271.63c0.348-0.952,0.051-1.934-0.662-2.195
						c-0.713-0.261-1.573,0.3-1.921,1.251c-0.348,0.952-0.051,1.935,0.662,2.195C230.227,273.142,231.087,272.581,231.434,271.63z"
						/>
					
						<line style="fill:none;stroke:#263238;stroke-linecap:round;stroke-linejoin:round;stroke-miterlimit:10;" x1="230.543" y1="270.063" x2="231.916" y2="266.306"/>
					<path style="fill:none;stroke:#263238;stroke-miterlimit:10;" d="M233.494,265.994c0.348-0.952,0.051-1.934-0.662-2.195
						c-0.713-0.261-1.573,0.3-1.921,1.251c-0.348,0.952-0.051,1.935,0.662,2.195C232.286,267.506,233.146,266.946,233.494,265.994z"
						/>
					
						<line style="fill:none;stroke:#263238;stroke-linecap:round;stroke-linejoin:round;stroke-miterlimit:10;" x1="232.602" y1="264.427" x2="233.975" y2="260.671"/>
					<path style="fill:none;stroke:#263238;stroke-miterlimit:10;" d="M235.553,260.359c0.348-0.952,0.051-1.934-0.662-2.195
						c-0.713-0.261-1.573,0.3-1.921,1.251c-0.348,0.952-0.052,1.935,0.662,2.195C234.345,261.871,235.206,261.31,235.553,260.359z"
						/>
					
						<line style="fill:none;stroke:#263238;stroke-linecap:round;stroke-linejoin:round;stroke-miterlimit:10;" x1="234.662" y1="258.792" x2="236.035" y2="255.035"/>
					<path style="fill:none;stroke:#263238;stroke-miterlimit:10;" d="M237.613,254.723c0.348-0.952,0.051-1.934-0.662-2.195
						c-0.713-0.261-1.573,0.299-1.921,1.251c-0.348,0.952-0.051,1.934,0.662,2.195C236.405,256.235,237.265,255.675,237.613,254.723
						z"/>
					
						<line style="fill:none;stroke:#263238;stroke-linecap:round;stroke-linejoin:round;stroke-miterlimit:10;" x1="236.721" y1="253.156" x2="238.094" y2="249.4"/>
					<path style="fill:none;stroke:#263238;stroke-miterlimit:10;" d="M239.672,249.088c0.348-0.952,0.051-1.934-0.662-2.195
						c-0.713-0.261-1.573,0.299-1.921,1.251c-0.348,0.952-0.051,1.934,0.662,2.195C238.464,250.599,239.324,250.039,239.672,249.088
						z"/>
					
						<line style="fill:none;stroke:#263238;stroke-linecap:round;stroke-linejoin:round;stroke-miterlimit:10;" x1="238.78" y1="247.521" x2="240.153" y2="243.764"/>
					<path style="fill:none;stroke:#263238;stroke-miterlimit:10;" d="M241.731,243.452c0.348-0.951,0.052-1.934-0.662-2.195
						c-0.713-0.261-1.573,0.299-1.921,1.251c-0.348,0.952-0.052,1.934,0.662,2.195C240.523,244.964,241.384,244.404,241.731,243.452
						z"/>
					
						<line style="fill:none;stroke:#263238;stroke-linecap:round;stroke-linejoin:round;stroke-miterlimit:10;" x1="240.84" y1="241.885" x2="242.213" y2="238.128"/>
					<path style="fill:none;stroke:#263238;stroke-miterlimit:10;" d="M243.791,237.816c0.348-0.951,0.051-1.934-0.662-2.195
						c-0.713-0.261-1.573,0.3-1.921,1.251c-0.348,0.952-0.051,1.934,0.662,2.195C242.583,239.328,243.443,238.768,243.791,237.816z"
						/>
					
						<line style="fill:none;stroke:#263238;stroke-linecap:round;stroke-linejoin:round;stroke-miterlimit:10;" x1="242.899" y1="236.25" x2="244.272" y2="232.493"/>
				</g>
			</g>
			<g>
				<path style="fill:none;stroke:#263238;stroke-miterlimit:10;" d="M243.125,337.165c0-1.013,0.616-1.835,1.375-1.835
					s1.375,0.821,1.375,1.835c0,1.013-0.616,1.835-1.375,1.835S243.125,338.179,243.125,337.165z"/>
				
					<line style="fill:none;stroke:#263238;stroke-linecap:round;stroke-linejoin:round;stroke-miterlimit:10;" x1="244.5" y1="336" x2="244.5" y2="332"/>
				<path style="fill:none;stroke:#263238;stroke-miterlimit:10;" d="M243.125,331.165c0-1.013,0.616-1.835,1.375-1.835
					s1.375,0.821,1.375,1.835c0,1.013-0.616,1.835-1.375,1.835S243.125,332.179,243.125,331.165z"/>
				
					<line style="fill:none;stroke:#263238;stroke-linecap:round;stroke-linejoin:round;stroke-miterlimit:10;" x1="244.5" y1="330" x2="244.5" y2="326"/>
				<path style="fill:none;stroke:#263238;stroke-miterlimit:10;" d="M243.125,325.165c0-1.013,0.616-1.835,1.375-1.835
					s1.375,0.821,1.375,1.835c0,1.013-0.616,1.835-1.375,1.835S243.125,326.179,243.125,325.165z"/>
				
					<line style="fill:none;stroke:#263238;stroke-linecap:round;stroke-linejoin:round;stroke-miterlimit:10;" x1="244.5" y1="324" x2="244.5" y2="320"/>
				<path style="fill:none;stroke:#263238;stroke-miterlimit:10;" d="M243.125,319.165c0-1.013,0.616-1.835,1.375-1.835
					s1.375,0.821,1.375,1.835c0,1.013-0.616,1.835-1.375,1.835S243.125,320.179,243.125,319.165z"/>
				
					<line style="fill:none;stroke:#263238;stroke-linecap:round;stroke-linejoin:round;stroke-miterlimit:10;" x1="244.5" y1="318" x2="244.5" y2="314"/>
				<path style="fill:none;stroke:#263238;stroke-miterlimit:10;" d="M243.125,313.165c0-1.013,0.616-1.835,1.375-1.835
					s1.375,0.821,1.375,1.835c0,1.013-0.616,1.835-1.375,1.835S243.125,314.179,243.125,313.165z"/>
				
					<line style="fill:none;stroke:#263238;stroke-linecap:round;stroke-linejoin:round;stroke-miterlimit:10;" x1="244.5" y1="312" x2="244.5" y2="308"/>
				<path style="fill:none;stroke:#263238;stroke-miterlimit:10;" d="M243.125,307.165c0-1.013,0.616-1.835,1.375-1.835
					s1.375,0.821,1.375,1.835c0,1.013-0.616,1.835-1.375,1.835S243.125,308.179,243.125,307.165z"/>
				
					<line style="fill:none;stroke:#263238;stroke-linecap:round;stroke-linejoin:round;stroke-miterlimit:10;" x1="244.5" y1="306" x2="244.5" y2="302"/>
				<path style="fill:none;stroke:#263238;stroke-miterlimit:10;" d="M243.125,301.165c0-1.013,0.616-1.835,1.375-1.835
					s1.375,0.821,1.375,1.835c0,1.013-0.616,1.835-1.375,1.835S243.125,302.179,243.125,301.165z"/>
				
					<line style="fill:none;stroke:#263238;stroke-linecap:round;stroke-linejoin:round;stroke-miterlimit:10;" x1="244.5" y1="300" x2="244.5" y2="296"/>
				<path style="fill:none;stroke:#263238;stroke-miterlimit:10;" d="M243.125,295.165c0-1.013,0.616-1.835,1.375-1.835
					s1.375,0.821,1.375,1.835c0,1.013-0.616,1.835-1.375,1.835S243.125,296.179,243.125,295.165z"/>
				
					<line style="fill:none;stroke:#263238;stroke-linecap:round;stroke-linejoin:round;stroke-miterlimit:10;" x1="244.5" y1="294" x2="244.5" y2="290"/>
				<path style="fill:none;stroke:#263238;stroke-miterlimit:10;" d="M243.125,289.165c0-1.013,0.616-1.835,1.375-1.835
					s1.375,0.821,1.375,1.835c0,1.013-0.616,1.835-1.375,1.835S243.125,290.179,243.125,289.165z"/>
				
					<line style="fill:none;stroke:#263238;stroke-linecap:round;stroke-linejoin:round;stroke-miterlimit:10;" x1="244.5" y1="288" x2="244.5" y2="284"/>
				<path style="fill:none;stroke:#263238;stroke-miterlimit:10;" d="M243.125,283.165c0-1.013,0.616-1.835,1.375-1.835
					s1.375,0.821,1.375,1.835c0,1.013-0.616,1.835-1.375,1.835S243.125,284.179,243.125,283.165z"/>
				
					<line style="fill:none;stroke:#263238;stroke-linecap:round;stroke-linejoin:round;stroke-miterlimit:10;" x1="244.5" y1="282" x2="244.5" y2="278"/>
				<path style="fill:none;stroke:#263238;stroke-miterlimit:10;" d="M243.125,277.165c0-1.013,0.616-1.835,1.375-1.835
					s1.375,0.821,1.375,1.835c0,1.013-0.616,1.835-1.375,1.835S243.125,278.179,243.125,277.165z"/>
				
					<line style="fill:none;stroke:#263238;stroke-linecap:round;stroke-linejoin:round;stroke-miterlimit:10;" x1="244.5" y1="276" x2="244.5" y2="272"/>
				<path style="fill:none;stroke:#263238;stroke-miterlimit:10;" d="M243.125,271.165c0-1.013,0.616-1.835,1.375-1.835
					s1.375,0.821,1.375,1.835c0,1.013-0.616,1.835-1.375,1.835S243.125,272.179,243.125,271.165z"/>
				
					<line style="fill:none;stroke:#263238;stroke-linecap:round;stroke-linejoin:round;stroke-miterlimit:10;" x1="244.5" y1="270" x2="244.5" y2="266"/>
				<path style="fill:none;stroke:#263238;stroke-miterlimit:10;" d="M243.125,265.165c0-1.013,0.616-1.835,1.375-1.835
					s1.375,0.821,1.375,1.835c0,1.013-0.616,1.835-1.375,1.835S243.125,266.179,243.125,265.165z"/>
				
					<line style="fill:none;stroke:#263238;stroke-linecap:round;stroke-linejoin:round;stroke-miterlimit:10;" x1="244.5" y1="264" x2="244.5" y2="260"/>
				<path style="fill:none;stroke:#263238;stroke-miterlimit:10;" d="M243.125,259.165c0-1.013,0.616-1.835,1.375-1.835
					s1.375,0.821,1.375,1.835c0,1.013-0.616,1.835-1.375,1.835S243.125,260.179,243.125,259.165z"/>
				
					<line style="fill:none;stroke:#263238;stroke-linecap:round;stroke-linejoin:round;stroke-miterlimit:10;" x1="244.5" y1="258" x2="244.5" y2="254"/>
				<path style="fill:none;stroke:#263238;stroke-miterlimit:10;" d="M243.125,253.165c0-1.013,0.616-1.835,1.375-1.835
					s1.375,0.821,1.375,1.835c0,1.013-0.616,1.835-1.375,1.835S243.125,254.179,243.125,253.165z"/>
				
					<line style="fill:none;stroke:#263238;stroke-linecap:round;stroke-linejoin:round;stroke-miterlimit:10;" x1="244.5" y1="252" x2="244.5" y2="248"/>
				<path style="fill:none;stroke:#263238;stroke-miterlimit:10;" d="M243.125,247.165c0-1.013,0.616-1.835,1.375-1.835
					s1.375,0.821,1.375,1.835c0,1.013-0.616,1.835-1.375,1.835S243.125,248.179,243.125,247.165z"/>
				
					<line style="fill:none;stroke:#263238;stroke-linecap:round;stroke-linejoin:round;stroke-miterlimit:10;" x1="244.5" y1="246" x2="244.5" y2="242"/>
				<path style="fill:none;stroke:#263238;stroke-miterlimit:10;" d="M243.125,241.165c0-1.013,0.616-1.835,1.375-1.835
					s1.375,0.821,1.375,1.835c0,1.013-0.616,1.835-1.375,1.835S243.125,242.179,243.125,241.165z"/>
				
					<line style="fill:none;stroke:#263238;stroke-linecap:round;stroke-linejoin:round;stroke-miterlimit:10;" x1="244.5" y1="240" x2="244.5" y2="236"/>
				<path style="fill:none;stroke:#263238;stroke-miterlimit:10;" d="M243.125,235.165c0-1.013,0.616-1.835,1.375-1.835
					s1.375,0.821,1.375,1.835c0,1.013-0.616,1.835-1.375,1.835S243.125,236.179,243.125,235.165z"/>
				
					<line style="fill:none;stroke:#263238;stroke-linecap:round;stroke-linejoin:round;stroke-miterlimit:10;" x1="244.5" y1="234" x2="244.5" y2="230"/>
				<path style="fill:none;stroke:#263238;stroke-miterlimit:10;" d="M243.125,229.165c0-1.013,0.616-1.835,1.375-1.835
					s1.375,0.821,1.375,1.835c0,1.013-0.616,1.835-1.375,1.835S243.125,230.179,243.125,229.165z"/>
				
					<line style="fill:none;stroke:#263238;stroke-linecap:round;stroke-linejoin:round;stroke-miterlimit:10;" x1="244.5" y1="228" x2="244.5" y2="224"/>
			</g>
			<g>
				<path style="fill:#407BFF;" d="M203.299,333c0,3,18.446,7.622,41.201,7.622S285.7,336,285.7,333H203.299z"/>
				<path style="opacity:0.2;enable-background:new    ;" d="M285.7,333c0,3-18.446,7.622-41.201,7.622S203.299,336,203.299,333
					H285.7z"/>
			</g>
			<path style="fill:#407BFF;" d="M328.684,207.904c0,0,1.414,0.067,3.887,0.185c0.604,0.014,1.329,0.089,2.116,0.171
				c0.784,0.08,1.631,0.166,2.537,0.258c0.915,0.07,1.838,0.258,2.833,0.403c0.988,0.173,2.038,0.282,3.11,0.537
				c1.075,0.23,2.195,0.47,3.354,0.718c1.144,0.305,2.326,0.62,3.542,0.943c1.205,0.355,2.429,0.763,3.685,1.157
				c1.243,0.429,2.499,0.906,3.781,1.372c2.527,1.015,5.113,2.113,7.66,3.346c2.567,1.207,5.093,2.529,7.616,3.825
				c2.512,1.304,5.004,2.582,7.469,3.744c2.457,1.142,4.946,2.104,7.347,2.747c2.447,0.664,4.877,1.117,7.192,1.279
				c2.313,0.169,4.51,0.14,6.496-0.122c0.499-0.055,0.972-0.167,1.444-0.244c0.235-0.042,0.468-0.084,0.697-0.125
				c0.223-0.06,0.444-0.12,0.662-0.179c0.434-0.121,0.864-0.226,1.272-0.35c0.397-0.15,0.783-0.295,1.156-0.436
				c0.186-0.072,0.374-0.135,0.552-0.21c0.171-0.086,0.339-0.171,0.504-0.255c0.332-0.166,0.651-0.326,0.958-0.479
				c0.585-0.35,1.095-0.713,1.575-1.015c0.428-0.365,0.811-0.691,1.143-0.974c0.346-0.272,0.55-0.589,0.764-0.801
				c0.404-0.448,0.619-0.687,0.619-0.687l2.066,1.537c0,0-0.245,0.298-0.704,0.858c-0.243,0.267-0.488,0.652-0.882,0.999
				c-0.386,0.356-0.829,0.764-1.326,1.222c-0.547,0.387-1.142,0.843-1.82,1.283c-0.352,0.196-0.719,0.399-1.099,0.61
				c-0.191,0.105-0.385,0.212-0.583,0.321c-0.203,0.096-0.414,0.179-0.626,0.271c-0.427,0.18-0.867,0.366-1.32,0.557
				c-0.461,0.162-0.943,0.303-1.434,0.461c-0.247,0.076-0.496,0.154-0.749,0.232c-0.256,0.057-0.516,0.116-0.778,0.174
				c-0.526,0.109-1.062,0.255-1.616,0.339c-2.212,0.383-4.631,0.513-7.173,0.429c-2.544-0.078-5.201-0.461-7.899-1.077
				c-2.753-0.625-5.43-1.55-8.073-2.648c-2.622-1.109-5.218-2.312-7.781-3.514c-2.562-1.188-5.104-2.389-7.625-3.452
				c-2.515-1.095-5.02-2.038-7.453-2.905c-1.229-0.39-2.431-0.793-3.616-1.149c-1.195-0.321-2.356-0.658-3.496-0.945
				c-1.146-0.256-2.261-0.506-3.339-0.747c-1.087-0.187-2.138-0.367-3.146-0.541c-1.004-0.199-1.987-0.256-2.91-0.381
				c-0.923-0.096-1.809-0.242-2.618-0.267c-0.813-0.05-1.574-0.097-2.277-0.141c-0.7-0.047-1.341-0.092-1.976-0.082
				c-2.477-0.018-3.892-0.028-3.892-0.028L328.684,207.904z"/>
			<path style="fill:#407BFF;" d="M329.542,207.904c0,0-1.414,0.067-3.887,0.185c-0.604,0.014-1.329,0.089-2.116,0.171
				c-0.784,0.08-1.631,0.166-2.537,0.258c-0.915,0.07-1.837,0.258-2.833,0.403c-0.988,0.173-2.038,0.282-3.11,0.537
				c-1.075,0.23-2.195,0.47-3.354,0.718c-1.144,0.305-2.327,0.62-3.542,0.943c-1.205,0.355-2.429,0.763-3.685,1.157
				c-1.244,0.429-2.499,0.906-3.781,1.372c-2.527,1.015-5.113,2.113-7.66,3.346c-2.567,1.207-5.093,2.529-7.616,3.825
				c-2.512,1.304-5.004,2.582-7.469,3.744c-2.457,1.142-4.946,2.104-7.347,2.747c-2.447,0.664-4.877,1.117-7.192,1.279
				c-2.313,0.169-4.51,0.14-6.496-0.122c-0.499-0.055-0.972-0.167-1.444-0.244c-0.235-0.042-0.468-0.084-0.697-0.125
				c-0.223-0.06-0.444-0.12-0.662-0.179c-0.434-0.121-0.863-0.226-1.272-0.35c-0.397-0.15-0.783-0.295-1.156-0.436
				c-0.186-0.072-0.374-0.135-0.551-0.21c-0.171-0.086-0.339-0.171-0.504-0.255c-0.332-0.166-0.651-0.326-0.958-0.479
				c-0.585-0.35-1.095-0.713-1.575-1.015c-0.428-0.365-0.811-0.691-1.143-0.974c-0.346-0.272-0.55-0.589-0.764-0.801
				c-0.404-0.448-0.619-0.687-0.619-0.687l-2.066,1.537c0,0,0.245,0.298,0.704,0.858c0.243,0.267,0.488,0.652,0.882,0.999
				c0.386,0.356,0.829,0.764,1.326,1.222c0.547,0.387,1.142,0.843,1.82,1.283c0.352,0.196,0.719,0.399,1.099,0.61
				c0.191,0.105,0.385,0.212,0.583,0.321c0.203,0.096,0.414,0.179,0.626,0.271c0.426,0.18,0.867,0.366,1.32,0.557
				c0.461,0.162,0.943,0.303,1.434,0.461c0.247,0.076,0.496,0.154,0.749,0.232c0.256,0.057,0.516,0.116,0.778,0.174
				c0.526,0.109,1.062,0.255,1.616,0.339c2.212,0.383,4.631,0.513,7.173,0.429c2.544-0.078,5.201-0.461,7.899-1.077
				c2.753-0.625,5.43-1.55,8.073-2.648c2.622-1.109,5.218-2.312,7.781-3.514c2.562-1.188,5.104-2.389,7.625-3.452
				c2.515-1.095,5.02-2.038,7.453-2.905c1.229-0.39,2.431-0.793,3.616-1.149c1.195-0.321,2.356-0.658,3.496-0.945
				c1.146-0.256,2.261-0.506,3.339-0.747c1.087-0.187,2.138-0.367,3.146-0.541c1.004-0.199,1.987-0.256,2.91-0.381
				c0.923-0.096,1.809-0.242,2.618-0.267c0.813-0.05,1.574-0.097,2.277-0.141c0.7-0.047,1.341-0.092,1.976-0.082
				c2.477-0.018,3.892-0.028,3.892-0.028L329.542,207.904z"/>
			<path style="opacity:0.1;fill:#FFFFFF;enable-background:new    ;" d="M328.684,207.904c0,0,1.414,0.067,3.887,0.185
				c0.604,0.014,1.329,0.089,2.116,0.171c0.784,0.08,1.631,0.166,2.537,0.258c0.915,0.07,1.838,0.258,2.833,0.403
				c0.988,0.173,2.038,0.282,3.11,0.537c1.075,0.23,2.195,0.47,3.354,0.718c1.144,0.305,2.326,0.62,3.542,0.943
				c1.205,0.355,2.429,0.763,3.685,1.157c1.243,0.429,2.499,0.906,3.781,1.372c2.527,1.015,5.113,2.113,7.66,3.346
				c2.567,1.207,5.093,2.529,7.616,3.825c2.512,1.304,5.004,2.582,7.469,3.744c2.457,1.142,4.946,2.104,7.347,2.747
				c2.447,0.664,4.877,1.117,7.192,1.279c2.313,0.169,4.51,0.14,6.496-0.122c0.499-0.055,0.972-0.167,1.444-0.244
				c0.235-0.042,0.468-0.084,0.697-0.125c0.223-0.06,0.444-0.12,0.662-0.179c0.434-0.121,0.864-0.226,1.272-0.35
				c0.397-0.15,0.783-0.295,1.156-0.436c0.186-0.072,0.374-0.135,0.552-0.21c0.171-0.086,0.339-0.171,0.504-0.255
				c0.332-0.166,0.651-0.326,0.958-0.479c0.585-0.35,1.095-0.713,1.575-1.015c0.428-0.365,0.811-0.691,1.143-0.974
				c0.346-0.272,0.55-0.589,0.764-0.801c0.404-0.448,0.619-0.687,0.619-0.687l2.066,1.537c0,0-0.245,0.298-0.704,0.858
				c-0.243,0.267-0.488,0.652-0.882,0.999c-0.386,0.356-0.829,0.764-1.326,1.222c-0.547,0.387-1.142,0.843-1.82,1.283
				c-0.352,0.196-0.719,0.399-1.099,0.61c-0.191,0.105-0.385,0.212-0.583,0.321c-0.203,0.096-0.414,0.179-0.626,0.271
				c-0.427,0.18-0.867,0.366-1.32,0.557c-0.461,0.162-0.943,0.303-1.434,0.461c-0.247,0.076-0.496,0.154-0.749,0.232
				c-0.256,0.057-0.516,0.116-0.778,0.174c-0.526,0.109-1.062,0.255-1.616,0.339c-2.212,0.383-4.631,0.513-7.173,0.429
				c-2.544-0.078-5.201-0.461-7.899-1.077c-2.753-0.625-5.43-1.55-8.073-2.648c-2.622-1.109-5.218-2.312-7.781-3.514
				c-2.562-1.188-5.104-2.389-7.625-3.452c-2.515-1.095-5.02-2.038-7.453-2.905c-1.229-0.39-2.431-0.793-3.616-1.149
				c-1.195-0.321-2.356-0.658-3.496-0.945c-1.146-0.256-2.261-0.506-3.339-0.747c-1.087-0.187-2.138-0.367-3.146-0.541
				c-1.004-0.199-1.987-0.256-2.91-0.381c-0.923-0.096-1.809-0.242-2.618-0.267c-0.813-0.05-1.574-0.097-2.277-0.141
				c-0.7-0.047-1.341-0.092-1.976-0.082c-2.477-0.018-3.892-0.028-3.892-0.028L328.684,207.904z"/>
			<path style="opacity:0.1;fill:#FFFFFF;enable-background:new    ;" d="M329.542,207.904c0,0-1.414,0.067-3.887,0.185
				c-0.604,0.014-1.329,0.089-2.116,0.171c-0.784,0.08-1.631,0.166-2.537,0.258c-0.915,0.07-1.837,0.258-2.833,0.403
				c-0.988,0.173-2.038,0.282-3.11,0.537c-1.075,0.23-2.195,0.47-3.354,0.718c-1.144,0.305-2.327,0.62-3.542,0.943
				c-1.205,0.355-2.429,0.763-3.685,1.157c-1.244,0.429-2.499,0.906-3.781,1.372c-2.527,1.015-5.113,2.113-7.66,3.346
				c-2.567,1.207-5.093,2.529-7.616,3.825c-2.512,1.304-5.004,2.582-7.469,3.744c-2.457,1.142-4.946,2.104-7.347,2.747
				c-2.447,0.664-4.877,1.117-7.192,1.279c-2.313,0.169-4.51,0.14-6.496-0.122c-0.499-0.055-0.972-0.167-1.444-0.244
				c-0.235-0.042-0.468-0.084-0.697-0.125c-0.223-0.06-0.444-0.12-0.662-0.179c-0.434-0.121-0.863-0.226-1.272-0.35
				c-0.397-0.15-0.783-0.295-1.156-0.436c-0.186-0.072-0.374-0.135-0.551-0.21c-0.171-0.086-0.339-0.171-0.504-0.255
				c-0.332-0.166-0.651-0.326-0.958-0.479c-0.585-0.35-1.095-0.713-1.575-1.015c-0.428-0.365-0.811-0.691-1.143-0.974
				c-0.346-0.272-0.55-0.589-0.764-0.801c-0.404-0.448-0.619-0.687-0.619-0.687l-2.066,1.537c0,0,0.245,0.298,0.704,0.858
				c0.243,0.267,0.488,0.652,0.882,0.999c0.386,0.356,0.829,0.764,1.326,1.222c0.547,0.387,1.142,0.843,1.82,1.283
				c0.352,0.196,0.719,0.399,1.099,0.61c0.191,0.105,0.385,0.212,0.583,0.321c0.203,0.096,0.414,0.179,0.626,0.271
				c0.426,0.18,0.867,0.366,1.32,0.557c0.461,0.162,0.943,0.303,1.434,0.461c0.247,0.076,0.496,0.154,0.749,0.232
				c0.256,0.057,0.516,0.116,0.778,0.174c0.526,0.109,1.062,0.255,1.616,0.339c2.212,0.383,4.631,0.513,7.173,0.429
				c2.544-0.078,5.201-0.461,7.899-1.077c2.753-0.625,5.43-1.55,8.073-2.648c2.622-1.109,5.218-2.312,7.781-3.514
				c2.562-1.188,5.104-2.389,7.625-3.452c2.515-1.095,5.02-2.038,7.453-2.905c1.229-0.39,2.431-0.793,3.616-1.149
				c1.195-0.321,2.356-0.658,3.496-0.945c1.146-0.256,2.261-0.506,3.339-0.747c1.087-0.187,2.138-0.367,3.146-0.541
				c1.004-0.199,1.987-0.256,2.91-0.381c0.923-0.096,1.809-0.242,2.618-0.267c0.813-0.05,1.574-0.097,2.277-0.141
				c0.7-0.047,1.341-0.092,1.976-0.082c2.477-0.018,3.892-0.028,3.892-0.028L329.542,207.904z"/>
			<g>
				<circle style="fill:#407BFF;" cx="413.267" cy="223.479" r="2.579"/>
				<path style="fill:#407BFF;" d="M244.115,220.901c-1.424,0-2.579,1.154-2.579,2.579c0,1.424,1.154,2.579,2.579,2.579
					c1.424,0,2.579-1.154,2.579-2.579C246.694,222.055,245.54,220.901,244.115,220.901z"/>
			</g>
		</g>
		<path style="fill:#407BFF;" d="M336.799,203.025c0-4.414-3.578-7.992-7.991-7.992c-4.414,0-7.992,3.578-7.992,7.992
			c0,1.812,0.61,3.238,1.627,4.579L323.123,223h11.369l0.68-15.397C336.189,206.263,336.799,204.837,336.799,203.025z"/>
		<path style="opacity:0.1;fill:#FFFFFF;enable-background:new    ;" d="M322.443,208.16h12.729l0-0.011
			c1.017-1.34,1.627-2.835,1.627-4.647c0-4.414-3.578-7.992-7.991-7.992c-4.414,0-7.992,3.578-7.992,7.992
			c0,1.812,0.61,3.306,1.627,4.647L322.443,208.16z"/>
	</g>
</g>
</svg>
