<?xml version="1.0" encoding="utf-8"?>
<!-- Generator: Adobe Illustrator 27.5.0, SVG Export Plug-In . SVG Version: 6.00 Build 0)  -->
<svg version="1.1" xmlns="http://www.w3.org/2000/svg" xmlns:xlink="http://www.w3.org/1999/xlink" x="0px" y="0px"
	 viewBox="0 0 500 500" style="enable-background:new 0 0 500 500;" xml:space="preserve">
<g id="Background_Complete">
	<g>
		<path style="fill:#F5F5F5;" d="M383.838,178.062h79.439c0,0-7.025-12.784-27.473-10.923c-19.529,1.777-20.522-6.289-30.452-7.282
			C395.423,158.864,387.148,166.477,383.838,178.062z"/>
	</g>
	<g>
		<path style="fill:#F5F5F5;" d="M42.58,134.805h79.439c0,0-7.025-12.784-27.473-10.923c-19.529,1.777-20.522-6.289-30.452-7.282
			C54.165,115.607,45.89,123.22,42.58,134.805z"/>
	</g>
	<g>
		<path style="fill:#E0E0E0;" d="M185.943,75.568h100.254c0,0-8.865-16.133-34.671-13.785c-24.646,2.243-25.899-7.937-38.431-9.19
			C200.563,51.34,190.12,60.948,185.943,75.568z"/>
	</g>
</g>
<g id="Background_Simple" style="display:none;">
	<path style="display:inline;fill:#EBEBEB;" d="M69.479,156.742c11.88-30.638,42.81-52.914,75.633-54.471
		c32.824-1.557,65.724,17.691,80.45,47.067c6.727,13.419,9.802,28.346,15.338,42.298c5.536,13.952,13.336,23.953,27.161,29.8
		c16.513,6.983,30.521,7.297,46.959,0.139c16.438-7.158,39.477-18.254,57.313-16.423c14.415,1.48,33.495,1.422,42.674,12.635
		c9.18,11.212,16.398,24.318,19.813,38.401c4.061,16.749,3.845,43.571-2.381,59.641c-6.707,17.31-23.997,32.004-38.653,43.397
		c-16.632,12.929-39.343,17.942-57.785,20.064c-50.429,5.802-104.076,2.205-153.102-10.956
		c-28.248-7.583-56.366-29.727-75.499-51.849c-18.601-21.507-34.251-46.786-41.002-74.408c-6.655-27.229-4.879-59.973,5.175-86.138"
		/>
</g>
<g id="Plants">
	<g>
		<g>
			<g>
				<path style="fill:#E8505B;" d="M423.27,449.339c-13.659-8.697-17.404-25.766-17.542-41.248
					c-0.023-2.584-0.423-5.292,0.707-7.609c1.131-2.316,3.929-3.986,6.286-2.998c1.955,0.82,2.886,3.013,4.037,4.811
					c1.531,2.392,3.743,4.331,6.3,5.521c1.68,0.782,3.735,1.217,5.319,0.253c2.173-1.324,2.304-4.41,2.178-6.976
					c-0.235-4.782-0.469-9.565-0.704-14.346c-0.126-2.566-0.246-5.186,0.448-7.656c0.694-2.47,2.361-4.808,4.773-5.597
					c2.413-0.788,5.492,0.49,6.115,2.98c0.259,1.036,0.093,2.131,0.21,3.193c0.117,1.063,0.664,2.22,1.688,2.473
					c1.037,0.257,2.033-0.515,2.768-1.299c2.538-2.705,4.193-6.12,5.73-9.512c1.538-3.392,3.023-6.86,5.305-9.79
					c2.282-2.93,5.511-5.312,9.178-5.677c3.667-0.365,7.68,1.735,8.764,5.304c1.086,3.578-0.867,7.34-3.039,10.367
					c-3.222,4.492-7.089,8.507-11.441,11.881c-0.784,0.609-1.635,1.267-1.903,2.231c-0.484,1.735,1.21,3.365,2.923,3.855
					c1.94,0.555,4.008,0.268,6.019,0.418c2.011,0.15,4.217,0.94,5.055,2.799c1.164,2.578-0.912,5.422-2.994,7.315
					c-4.168,3.792-8.982,6.852-14.165,9.007c-1.858,0.772-3.819,1.463-5.285,2.854c-1.466,1.392-2.286,3.738-1.288,5.506
					c0.998,1.771,3.384,2.248,5.345,1.796c1.961-0.451,3.686-1.601,5.54-2.392c3.47-1.482,8.035-1.434,10.425,1.517
					c1.571,1.94,1.821,4.724,1.172,7.145c-0.648,2.421-2.083,4.543-3.619,6.51c-5.369,6.874-12.377,12.524-20.438,15.711
					C439.076,450.871,431.528,451.964,423.27,449.339"/>
			</g>
		</g>
		<g>
			<g>
				<g>
					<path style="fill:#263238;" d="M423.558,460.809c0.298-6.148,1.331-13.438,3.287-21.332c1.941-7.899,4.787-16.381,8.068-25.151
						c0.828-2.189,1.647-4.352,2.453-6.484c0.81-2.126,1.613-4.235,2.527-6.249c1.809-4.037,3.856-7.779,5.91-11.271
						c2.053-3.495,4.129-6.736,6.092-9.752c1.971-3.013,3.86-5.788,5.69-8.242c3.646-4.925,7.05-8.543,9.489-10.93
						c1.217-1.199,2.191-2.097,2.86-2.697c0.322-0.285,0.574-0.509,0.765-0.678c0.174-0.15,0.266-0.224,0.271-0.218
						c0.006,0.006-0.075,0.092-0.238,0.255c-0.182,0.177-0.425,0.413-0.733,0.712c-0.647,0.623-1.6,1.542-2.796,2.759
						c-2.395,2.425-5.749,6.065-9.35,11.001c-1.808,2.461-3.677,5.239-5.63,8.257c-1.947,3.024-4.008,6.268-6.047,9.759
						c-2.038,3.49-4.069,7.223-5.862,11.24c-0.905,2.004-1.699,4.095-2.51,6.227c-0.806,2.131-1.623,4.293-2.45,6.481
						c-3.278,8.763-6.129,17.22-8.088,25.089c-1.973,7.864-3.036,15.119-3.375,21.242"/>
				</g>
			</g>
		</g>
		<g>
			<g>
				<g>
					<path style="fill:#263238;" d="M440.028,401.569c-0.032,0.006-0.135-0.38-0.297-1.084c-0.165-0.703-0.371-1.729-0.606-2.999
						c-0.472-2.54-1.005-6.07-1.577-9.963c-0.573-3.896-1.154-7.408-1.664-9.933c-0.251-1.263-0.465-2.284-0.622-2.988
						c-0.153-0.705-0.223-1.099-0.191-1.108c0.032-0.008,0.161,0.369,0.369,1.062c0.212,0.691,0.476,1.703,0.769,2.962
						c0.596,2.516,1.232,6.035,1.805,9.934c0.555,3.844,1.057,7.321,1.44,9.978c0.181,1.199,0.334,2.21,0.457,3.021
						C440.016,401.164,440.06,401.563,440.028,401.569z"/>
				</g>
			</g>
		</g>
		<g>
			<g>
				<g>
					<path style="fill:#263238;" d="M472.761,393.989c0.002,0.033-0.465,0.107-1.31,0.214c-0.843,0.112-2.065,0.267-3.567,0.507
						c-3.008,0.456-7.142,1.231-11.665,2.285c-4.523,1.063-8.574,2.199-11.481,3.106c-1.457,0.443-2.627,0.833-3.437,1.098
						c-0.809,0.268-1.262,0.402-1.274,0.371c-0.011-0.031,0.421-0.224,1.212-0.547c0.793-0.319,1.949-0.759,3.397-1.245
						c2.889-0.991,6.94-2.183,11.476-3.25c4.536-1.057,8.695-1.783,11.725-2.153c1.513-0.197,2.744-0.302,3.596-0.356
						C472.286,393.968,472.757,393.955,472.761,393.989z"/>
				</g>
			</g>
		</g>
		<g>
			<g>
				<g>
					<path style="fill:#263238;" d="M427.225,438.852c-0.015,0.007-0.098-0.128-0.243-0.393c-0.167-0.316-0.37-0.702-0.615-1.17
						c-0.53-1.018-1.258-2.511-2.134-4.368c-1.754-3.712-4.015-8.915-6.433-14.691c-2.419-5.778-4.629-10.996-6.303-14.739
						c-0.82-1.819-1.494-3.316-1.995-4.428c-0.215-0.483-0.391-0.881-0.536-1.208c-0.118-0.278-0.173-0.428-0.158-0.436
						c0.015-0.007,0.098,0.128,0.244,0.394c0.166,0.316,0.369,0.701,0.615,1.169c0.53,1.018,1.258,2.511,2.134,4.368
						c1.754,3.712,4.015,8.915,6.434,14.694c2.419,5.776,4.628,10.993,6.302,14.737c0.82,1.818,1.494,3.316,1.995,4.427
						c0.215,0.483,0.391,0.882,0.536,1.208C427.185,438.695,427.24,438.845,427.225,438.852z"/>
				</g>
			</g>
		</g>
		<g>
			<g>
				<g>
					<path style="fill:#263238;" d="M470.467,422.842c0.005,0.016-0.143,0.083-0.427,0.198c-0.338,0.13-0.753,0.289-1.255,0.481
						c-1.16,0.432-2.726,1.015-4.63,1.723c-3.909,1.456-9.286,3.528-15.224,5.826c-5.939,2.299-11.34,4.324-15.281,5.699
						c-1.97,0.688-3.57,1.229-4.683,1.58c-0.515,0.159-0.939,0.29-1.284,0.397c-0.295,0.086-0.453,0.123-0.458,0.107
						c-0.005-0.016,0.143-0.083,0.427-0.199c0.337-0.129,0.752-0.288,1.255-0.48c1.16-0.432,2.725-1.014,4.629-1.723
						c3.91-1.455,9.287-3.528,15.226-5.827c5.938-2.299,11.338-4.323,15.279-5.698c1.97-0.688,3.57-1.229,4.684-1.58
						c0.515-0.159,0.938-0.29,1.284-0.397C470.305,422.863,470.462,422.826,470.467,422.842z"/>
				</g>
			</g>
		</g>
	</g>
	<g>
		<path style="fill:#E8505B;" d="M21.948,429.792c2.32-0.622,4.857-0.036,6.899,1.228c2.043,1.264,3.637,3.151,4.91,5.189
			c2.463,3.941,3.309,9.224,3.392,13.871c-5.156-0.238-9.54-4.317-11.634-6.526C22.206,440.062,18.344,431.742,21.948,429.792"/>
		<path style="fill:#E8505B;" d="M45.431,453.235c-2.111-1.656-3.042-4.574-2.584-7.218c0.458-2.644,2.18-4.977,4.402-6.482
			c1.028-0.696,2.299-1.245,3.487-0.888c1.111,0.334,1.879,1.42,2.098,2.56c0.219,1.139-0.031,2.319-0.417,3.413
			C51.094,448.373,49.125,451.76,45.431,453.235"/>
		<g>
			<path style="fill:#263238;" d="M50.116,467.944c-0.032,0.016-0.214-0.281-0.513-0.831c-0.299-0.551-0.717-1.355-1.203-2.366
				c-0.957-2.018-2.245-4.888-2.857-8.298c-0.61-3.415-0.165-6.632,0.694-8.731c0.419-1.055,0.886-1.852,1.261-2.36
				c0.372-0.511,0.618-0.76,0.642-0.741c0.089,0.058-0.83,1.135-1.557,3.229c-0.747,2.072-1.12,5.186-0.527,8.514
				c0.597,3.329,1.811,6.186,2.68,8.236C49.622,466.643,50.186,467.91,50.116,467.944z"/>
		</g>
		<g>
			<path style="fill:#263238;" d="M25.448,435.868c0.027-0.023,0.424,0.391,1.118,1.16c0.695,0.768,1.682,1.896,2.886,3.302
				c2.409,2.813,5.673,6.753,9.17,11.192c3.497,4.441,6.562,8.539,8.732,11.54c1.085,1.5,1.95,2.724,2.534,3.579
				c0.585,0.855,0.894,1.337,0.865,1.358c-0.029,0.021-0.394-0.421-1.029-1.239c-0.685-0.894-1.583-2.066-2.666-3.479
				c-2.243-2.943-5.352-7-8.845-11.437c-3.493-4.434-6.708-8.407-9.044-11.278c-1.12-1.384-2.049-2.531-2.757-3.407
				C25.765,436.349,25.42,435.891,25.448,435.868z"/>
		</g>
		<path style="fill:#E8505B;" d="M41.949,458.966c-4.417-3.536-10.602-4.736-16.021-3.107c-1.38,0.415-2.908,1.257-3.047,2.691
			c-0.139,1.436,1.208,2.56,2.501,3.202c5.378,2.671,12.364,1.652,16.755-2.442"/>
		<g>
			<path style="fill:#263238;" d="M29.354,458.484c-0.008-0.035,0.31-0.129,0.896-0.268c0.292-0.076,0.653-0.153,1.079-0.2
				c0.425-0.052,0.908-0.139,1.448-0.147c1.078-0.078,2.37-0.026,3.788,0.166c1.413,0.221,2.948,0.6,4.49,1.198
				c1.534,0.618,2.914,1.393,4.096,2.198c1.165,0.831,2.144,1.677,2.876,2.471c0.389,0.375,0.681,0.77,0.956,1.098
				c0.279,0.325,0.489,0.629,0.65,0.884c0.332,0.503,0.5,0.789,0.47,0.809c-0.083,0.059-0.819-1.051-2.337-2.531
				c-0.752-0.746-1.733-1.544-2.886-2.334c-1.169-0.765-2.52-1.507-4.017-2.111c-1.504-0.583-2.996-0.966-4.372-1.208
				c-1.381-0.212-2.642-0.302-3.701-0.272C30.671,458.277,29.374,458.584,29.354,458.484z"/>
		</g>
	</g>
</g>
<g id="Arrow">
	<polygon style="fill:#E8505B;" points="80.503,248.459 352.353,108.369 334.907,83.749 423.708,75.764 383.661,147.658 
		365.04,124.361 89.582,275.656 	"/>
</g>
<g id="Graphic">
	<g>
		<rect x="65.037" y="348.014" style="fill:#263238;" width="62.617" height="120.62"/>
		<rect x="47.97" y="348.014" style="fill:#455A64;" width="62.617" height="120.62"/>
	</g>
	<g>
		<rect x="162.75" y="307.78" style="fill:#263238;" width="62.617" height="160.854"/>
		<rect x="143.833" y="307.78" style="fill:#455A64;" width="62.617" height="160.854"/>
	</g>
	<g>
		<rect x="263.256" y="256.82" style="fill:#263238;" width="62.617" height="211.814"/>
		<rect x="244.446" y="256.82" style="fill:#455A64;" width="62.617" height="211.814"/>
	</g>
	<g>
		<rect x="364.189" y="212.191" style="fill:#263238;" width="62.617" height="256.443"/>
		<rect x="339.247" y="212.191" style="fill:#455A64;" width="62.617" height="256.443"/>
	</g>
</g>
<g id="Character">
	<g>
		<g>
			<g>
				<g>
					<g>
						<g>
							<path style="fill:#E8505B;" d="M82.166,328.9l5.836-4.798l-8.918-10.989l-8.612,6.929l0.509,0.717
								c2.292,3.169,11.879,15.951,14.138,17.479C87.64,339.943,82.166,328.9,82.166,328.9z"/>
						</g>
					</g>
					<g style="opacity:0.5;">
						<g>
							<path style="fill:#FFFFFF;" d="M73.792,323.956c0.791-0.901,1.23-2.104,1.205-3.303c-0.025-1.199-0.458-2.349-1.286-3.217
								l-3.073,2.49L73.792,323.956z"/>
						</g>
					</g>
				</g>
				<g style="opacity:0.4;">
					<g>
						<path style="fill:#FFFFFF;" d="M84.678,334.427c0,0,1.712,4.038,0.841,4.068c-0.87,0.029-11.044-12.523-15.047-18.453
							l0.26-0.182l11.742,14.743C82.475,334.603,84.132,333.809,84.678,334.427z"/>
					</g>
				</g>
				<g>
					<g>
						<g>
							<path style="fill:#263238;" d="M70.599,319.682c-0.005,0.004,0.041,0.074,0.133,0.206c0.122,0.171,0.256,0.358,0.407,0.569
								c0.417,0.562,0.929,1.253,1.534,2.068c1.307,1.737,3.145,4.113,5.231,6.691c2.088,2.579,4.028,4.872,5.454,6.513
								c0.671,0.761,1.24,1.406,1.703,1.931c0.175,0.192,0.33,0.362,0.472,0.517c0.109,0.117,0.169,0.176,0.173,0.173
								c0.004-0.004-0.046-0.071-0.147-0.195c-0.134-0.162-0.282-0.339-0.448-0.538c-0.451-0.534-1.006-1.191-1.661-1.966
								c-1.402-1.66-3.327-3.964-5.413-6.542c-2.085-2.577-3.937-4.94-5.268-6.657c-0.621-0.802-1.148-1.482-1.576-2.034
								c-0.161-0.204-0.303-0.385-0.433-0.55C70.659,319.743,70.604,319.679,70.599,319.682z"/>
						</g>
					</g>
				</g>
				<g>
					<g>
						<g>
							<path style="fill:#263238;" d="M82.301,334.739c0.028,0.045,0.53-0.311,1.256-0.4c0.725-0.102,1.302,0.112,1.317,0.061
								c0.027-0.035-0.562-0.338-1.339-0.231C82.757,334.267,82.267,334.712,82.301,334.739z"/>
						</g>
					</g>
				</g>
				<g>
					<g>
						<g>
							<path style="fill:#263238;" d="M81.318,330.161c0.005,0.047,0.32,0.049,0.703,0.005c0.383-0.044,0.688-0.118,0.683-0.166
								c-0.005-0.047-0.32-0.049-0.703-0.005C81.618,330.04,81.313,330.114,81.318,330.161z"/>
						</g>
					</g>
				</g>
				<g>
					<g>
						<g>
							<path style="fill:#263238;" d="M81.067,328.889c-0.007,0.047,0.249,0.126,0.573,0.178c0.324,0.051,0.592,0.055,0.6,0.008
								c0.007-0.047-0.249-0.126-0.573-0.178C81.343,328.846,81.075,328.842,81.067,328.889z"/>
						</g>
					</g>
				</g>
				<g>
					<g>
						<g>
							<path style="fill:#263238;" d="M81.649,327.485c-0.037,0.029,0.138,0.313,0.392,0.633c0.254,0.32,0.489,0.556,0.526,0.526
								c0.037-0.029-0.138-0.313-0.392-0.633C81.921,327.692,81.686,327.456,81.649,327.485z"/>
						</g>
					</g>
				</g>
				<g>
					<g>
						<g>
							<path style="fill:#263238;" d="M82.224,326.699c-0.043,0.014,0.058,0.396,0.333,0.791c0.273,0.396,0.596,0.625,0.624,0.59
								c0.033-0.037-0.224-0.31-0.483-0.687C82.436,327.018,82.27,326.681,82.224,326.699z"/>
						</g>
					</g>
				</g>
				<g>
					<g>
						<g>
							<path style="fill:#263238;" d="M82.579,329.757c-0.016,0.011,0.171,0.309,0.577,0.703c0.202,0.196,0.463,0.412,0.775,0.618
								c0.161,0.098,0.314,0.212,0.526,0.287c0.103,0.032,0.232,0.057,0.361-0.003c0.13-0.057,0.202-0.21,0.196-0.336
								c-0.198-0.959-1.125-1.327-1.678-1.295c-0.29,0.006-0.515,0.084-0.658,0.152c-0.144,0.07-0.211,0.128-0.206,0.137
								c0.011,0.032,0.317-0.178,0.864-0.167c0.269,0.006,0.589,0.085,0.881,0.286c0.276,0.189,0.584,0.529,0.625,0.888
								c0.008,0.18-0.16,0.243-0.335,0.178c-0.169-0.056-0.337-0.169-0.492-0.26c-0.309-0.193-0.57-0.393-0.779-0.574
								C82.82,330.008,82.601,329.739,82.579,329.757z"/>
						</g>
					</g>
				</g>
				<g>
					<g>
						<g>
							<path style="fill:#263238;" d="M82.693,329.968c0,0.016,0.265-0.026,0.557-0.316c0.142-0.143,0.281-0.351,0.36-0.611
								c0.056-0.252,0.142-0.587-0.117-0.88c-0.154-0.147-0.405-0.076-0.503,0.047c-0.113,0.113-0.175,0.255-0.218,0.376
								c-0.091,0.248-0.138,0.483-0.157,0.68c-0.037,0.397,0.022,0.639,0.042,0.636c0.027-0.002,0.013-0.243,0.078-0.62
								c0.033-0.187,0.09-0.408,0.184-0.639c0.071-0.218,0.285-0.502,0.461-0.351c0.16,0.163,0.131,0.486,0.077,0.708
								c-0.063,0.235-0.177,0.43-0.297,0.572C82.916,329.857,82.679,329.94,82.693,329.968z"/>
						</g>
					</g>
				</g>
				<g>
					<g>
						<g>
							<path style="fill:#263238;" d="M73.789,317.469c-0.023,0.023,0.285,0.291,0.629,0.835c0.344,0.536,0.697,1.385,0.706,2.364
								c0.007,0.98-0.332,1.834-0.667,2.376c-0.335,0.55-0.639,0.823-0.616,0.845c0.007,0.008,0.089-0.052,0.222-0.179
								c0.133-0.127,0.311-0.327,0.496-0.6c0.371-0.539,0.744-1.421,0.737-2.443c-0.009-1.021-0.397-1.896-0.776-2.43
								c-0.189-0.27-0.37-0.468-0.506-0.592C73.879,317.52,73.796,317.461,73.789,317.469z"/>
						</g>
					</g>
				</g>
				<g>
					<g>
						<g>
							<path style="fill:#263238;" d="M79.288,314.9c-0.029-0.037-1.075,0.74-2.335,1.735c-1.261,0.996-2.259,1.833-2.229,1.87
								c0.029,0.037,1.075-0.74,2.336-1.735C78.319,315.774,79.317,314.937,79.288,314.9z"/>
						</g>
					</g>
				</g>
				<g>
					<g>
						<g>
							<path style="fill:#263238;" d="M75.985,324.471c-0.038,0.023,0.425,0.835,1.141,1.734c0.715,0.902,1.401,1.536,1.432,1.504
								c0.036-0.035-0.59-0.717-1.298-1.61C76.551,325.208,76.027,324.444,75.985,324.471z"/>
						</g>
					</g>
				</g>
				<g>
					<g>
						<g>
							<path style="fill:#263238;" d="M74.242,322.314c-0.049-0.005-0.105,0.182-0.21,0.389c-0.103,0.208-0.219,0.365-0.186,0.401
								c0.029,0.035,0.22-0.084,0.339-0.324C74.306,322.54,74.288,322.316,74.242,322.314z"/>
						</g>
					</g>
				</g>
				<g>
					<g>
						<g>
							<path style="fill:#263238;" d="M74.594,320.683c-0.047-0.005-0.104,0.159-0.127,0.366c-0.023,0.207-0.004,0.379,0.043,0.385
								c0.047,0.005,0.104-0.158,0.127-0.366C74.661,320.86,74.641,320.688,74.594,320.683z"/>
						</g>
					</g>
				</g>
				<g>
					<g>
						<g>
							<path style="fill:#263238;" d="M74.114,319.146c-0.031,0.038,0.089,0.183,0.163,0.391c0.079,0.206,0.082,0.394,0.131,0.402
								c0.044,0.013,0.126-0.206,0.03-0.462C74.344,319.221,74.139,319.108,74.114,319.146z"/>
						</g>
					</g>
				</g>
				<g>
					<g>
						<g>
							<path style="fill:#263238;" d="M73.662,318.143c-0.045,0.015-0.05,0.124-0.012,0.243c0.039,0.12,0.106,0.205,0.151,0.191
								c0.045-0.015,0.05-0.123,0.012-0.243C73.775,318.214,73.707,318.128,73.662,318.143z"/>
						</g>
					</g>
				</g>
			</g>
		</g>
		<g>
			<g>
				<g>
					<g>
						<g>
							<path style="fill:#E8505B;" d="M193.349,303.89l0.243-7.551l-14.141-0.547l-0.473,11.043l0.875,0.09
								c3.894,0.367,19.824,1.594,22.463,0.904C205.259,307.06,193.349,303.89,193.349,303.89z"/>
						</g>
					</g>
					<g style="opacity:0.5;">
						<g>
							<path style="fill:#FFFFFF;" d="M184.109,306.923c-0.156-1.189-0.77-2.313-1.688-3.085c-0.918-0.772-2.067-1.205-3.266-1.156
								L179,306.634L184.109,306.923z"/>
						</g>
					</g>
				</g>
				<g style="opacity:0.4;">
					<g>
						<path style="fill:#FFFFFF;" d="M199.16,305.648c0,0,4.164,1.378,3.612,2.051c-0.552,0.673-16.697,0.039-23.795-0.864
							l0.035-0.315l18.826,0.9C197.839,307.42,198.335,305.651,199.16,305.648z"/>
					</g>
				</g>
				<g>
					<g>
						<g>
							<path style="fill:#263238;" d="M178.791,306.503c0,0.006,0.083,0.018,0.242,0.036c0.209,0.021,0.438,0.044,0.697,0.07
								c0.697,0.058,1.554,0.128,2.566,0.212c2.168,0.163,5.166,0.349,8.48,0.482c3.315,0.132,6.319,0.187,8.493,0.197
								c1.015-0.002,1.875-0.004,2.574-0.006c0.26-0.005,0.49-0.009,0.7-0.014c0.16-0.005,0.244-0.011,0.244-0.016
								c0-0.006-0.084-0.012-0.244-0.018c-0.21-0.006-0.44-0.012-0.7-0.018c-0.699-0.013-1.559-0.029-2.573-0.049
								c-2.173-0.041-5.174-0.115-8.487-0.247c-3.313-0.133-6.31-0.3-8.479-0.432c-1.013-0.062-1.871-0.115-2.569-0.157
								c-0.259-0.014-0.489-0.026-0.699-0.037C178.876,306.498,178.791,306.497,178.791,306.503z"/>
						</g>
					</g>
				</g>
				<g>
					<g>
						<g>
							<path style="fill:#263238;" d="M197.826,307.64c0.052,0.009,0.116-0.604,0.528-1.208c0.401-0.612,0.943-0.905,0.915-0.95
								c-0.008-0.043-0.625,0.2-1.057,0.854C197.772,306.986,197.783,307.648,197.826,307.64z"/>
						</g>
					</g>
				</g>
				<g>
					<g>
						<g>
							<path style="fill:#263238;" d="M193.737,305.359c0.039,0.027,0.248-0.208,0.467-0.525c0.219-0.317,0.365-0.596,0.326-0.623
								c-0.039-0.027-0.248,0.208-0.467,0.525C193.844,305.053,193.698,305.332,193.737,305.359z"/>
						</g>
					</g>
				</g>
				<g>
					<g>
						<g>
							<path style="fill:#263238;" d="M192.616,304.709c0.03,0.036,0.259-0.104,0.511-0.313c0.252-0.209,0.432-0.409,0.402-0.445
								c-0.03-0.036-0.259,0.104-0.512,0.313C192.765,304.473,192.585,304.672,192.616,304.709z"/>
						</g>
					</g>
				</g>
				<g>
					<g>
						<g>
							<path style="fill:#263238;" d="M191.944,303.346c-0.003,0.047,0.326,0.102,0.734,0.123c0.408,0.021,0.74-0.001,0.743-0.048
								c0.002-0.047-0.326-0.102-0.734-0.123C192.279,303.277,191.947,303.298,191.944,303.346z"/>
						</g>
					</g>
				</g>
				<g>
					<g>
						<g>
							<path style="fill:#263238;" d="M191.733,302.395c-0.018,0.042,0.336,0.218,0.814,0.272c0.478,0.056,0.862-0.036,0.855-0.08
								c-0.006-0.049-0.381-0.036-0.835-0.09C192.112,302.446,191.75,302.348,191.733,302.395z"/>
						</g>
					</g>
				</g>
				<g>
					<g>
						<g>
							<path style="fill:#263238;" d="M194.265,304.144c-0.002,0.019,0.345,0.076,0.909,0.03c0.281-0.023,0.615-0.076,0.976-0.175
								c0.18-0.056,0.367-0.096,0.563-0.206c0.092-0.057,0.195-0.137,0.236-0.273c0.043-0.135-0.024-0.29-0.123-0.369
								c-0.851-0.484-1.74-0.03-2.08,0.406c-0.187,0.222-0.276,0.442-0.32,0.595c-0.042,0.154-0.043,0.243-0.033,0.245
								c0.032,0.013,0.076-0.355,0.444-0.759c0.182-0.198,0.453-0.387,0.796-0.474c0.325-0.082,0.782-0.09,1.08,0.116
								c0.14,0.113,0.077,0.28-0.087,0.369c-0.153,0.091-0.349,0.142-0.519,0.198c-0.349,0.105-0.672,0.169-0.945,0.207
								C194.612,304.129,194.266,304.116,194.265,304.144z"/>
						</g>
					</g>
				</g>
				<g>
					<g>
						<g>
							<path style="fill:#263238;" d="M194.499,304.199c0.013,0.01,0.156-0.216,0.13-0.627c-0.014-0.201-0.078-0.442-0.222-0.674
								c-0.152-0.208-0.348-0.494-0.738-0.493c-0.212,0.019-0.324,0.254-0.297,0.409c0.01,0.16,0.077,0.299,0.139,0.412
								c0.126,0.232,0.272,0.422,0.408,0.567c0.274,0.289,0.495,0.405,0.506,0.388c0.017-0.021-0.175-0.17-0.414-0.468
								c-0.119-0.149-0.247-0.336-0.359-0.56c-0.117-0.197-0.189-0.545,0.04-0.578c0.228-0.013,0.452,0.222,0.583,0.409
								c0.135,0.202,0.206,0.417,0.234,0.601C194.563,303.958,194.469,304.191,194.499,304.199z"/>
						</g>
					</g>
				</g>
				<g>
					<g>
						<g>
							<path style="fill:#263238;" d="M179.231,302.645c0.002,0.032,0.406-0.023,1.043,0.078c0.63,0.095,1.501,0.389,2.243,1.029
								c0.741,0.641,1.159,1.459,1.345,2.069c0.192,0.615,0.197,1.023,0.229,1.02c0.01,0,0.019-0.102,0.012-0.285
								c-0.008-0.184-0.041-0.449-0.124-0.769c-0.161-0.635-0.577-1.497-1.35-2.165c-0.774-0.667-1.687-0.953-2.338-1.019
								c-0.328-0.036-0.596-0.03-0.779-0.011C179.329,302.611,179.23,302.635,179.231,302.645z"/>
						</g>
					</g>
				</g>
				<g>
					<g>
						<g>
							<path style="fill:#263238;" d="M180.928,296.818c-0.047-0.003-0.153,1.296-0.236,2.899c-0.083,1.604-0.113,2.906-0.065,2.909
								c0.047,0.002,0.153-1.296,0.237-2.9C180.946,298.123,180.975,296.82,180.928,296.818z"/>
						</g>
					</g>
				</g>
				<g>
					<g>
						<g>
							<path style="fill:#263238;" d="M185.943,305.614c-0.008,0.044,0.908,0.232,2.056,0.286c1.149,0.058,2.078-0.04,2.075-0.085
								c-0.003-0.05-0.928-0.03-2.066-0.087C186.87,305.675,185.95,305.565,185.943,305.614z"/>
						</g>
					</g>
				</g>
				<g>
					<g>
						<g>
							<path style="fill:#263238;" d="M183.171,305.501c-0.036,0.033,0.068,0.199,0.154,0.414c0.089,0.215,0.13,0.405,0.179,0.404
								c0.046,0.001,0.082-0.221-0.02-0.469C183.384,305.602,183.203,305.468,183.171,305.501z"/>
						</g>
					</g>
				</g>
				<g>
					<g>
						<g>
							<path style="fill:#263238;" d="M182.178,304.16c-0.035,0.032,0.05,0.183,0.191,0.337c0.14,0.154,0.283,0.253,0.318,0.221
								c0.035-0.032-0.051-0.183-0.191-0.337C182.355,304.227,182.213,304.128,182.178,304.16z"/>
						</g>
					</g>
				</g>
				<g>
					<g>
						<g>
							<path style="fill:#263238;" d="M180.707,303.507c0.008,0.048,0.196,0.054,0.401,0.135c0.207,0.076,0.35,0.198,0.389,0.167
								c0.039-0.024-0.072-0.23-0.327-0.327C180.915,303.384,180.694,303.463,180.707,303.507z"/>
						</g>
					</g>
				</g>
				<g>
					<g>
						<g>
							<path style="fill:#263238;" d="M179.654,303.185c-0.019,0.044,0.06,0.119,0.175,0.169c0.116,0.05,0.225,0.055,0.243,0.012
								c0.019-0.043-0.06-0.119-0.175-0.169C179.782,303.147,179.673,303.142,179.654,303.185z"/>
						</g>
					</g>
				</g>
			</g>
		</g>
		<path style="fill:#B78876;" d="M199.805,114.354c-1.265-0.361-3.401,6.455-3.792,4.724c-0.39-1.731,3.582-8.032,2.245-8.355
			c-1.743-0.421-3.849,6.755-4.072,7.349c-0.217,0.577-1.089,0.292-0.859-0.233c0.331-0.756,3.61-8.778,1.902-9.208
			c-0.947-0.238-1.217,1.501-1.217,1.501s-2.515,7.732-3.314,7.502c-0.812-0.233,0.512-4.823,1.068-6.339
			c0.549-1.498,0.06-2.368-0.806-2.06c-0.59,0.21-2.402,4.813-2.916,6.325c-0.515,1.512-1.852,5.684-2.866,3.091
			c-1.014-2.593-2.77-4.204-3.549-4.31c-0.778-0.105-1.209,0.94-0.586,1.54c0.503,0.484,1.091,1.552,1.5,2.373
			c0.337,0.677,0.563,1.404,0.654,2.155c0.352,2.892,0.19,4.539,0.19,4.539l-13.66,28.413l-25.074-7.795l-2.531,14.209
			c0,0,33.052,12.264,35.001,11.047c4.398-2.744,16.294-43.604,16.294-43.604h-0.001c2-3.006,4.405-6.753,5.399-8.826
			C200.608,114.653,200.276,114.488,199.805,114.354z"/>
		<path style="fill:#B78876;" d="M71.398,210.366c-0.565-0.411-1.294-1.388-1.812-2.144c-0.427-0.624-0.751-1.313-0.944-2.044
			c-0.376-1.421-0.579-2.543-0.688-3.309c0.001-0.004,8.625-25.746,10.912-29.73c2.286-3.984,33.74-15.31,33.74-15.31l-3.947-15.685
			c0,0-28.793,11.569-39.757,20.245c-6.974,5.519-11.955,39.758-11.959,39.788c-1.405,2.96-2.888,6.251-3.494,8.147
			c-1.261,3.948-0.909,4.066-0.424,4.135c1.302,0.184,2.482-6.861,3.106-5.2c0.625,1.661-2.444,8.449-1.075,8.585
			c1.784,0.177,2.883-7.22,3.023-7.84c0.135-0.601,1.039-0.439,0.883,0.113c-0.224,0.794-2.368,9.191-0.618,9.382
			c0.971,0.106,0.999-1.654,0.999-1.654s1.428-8.004,2.251-7.886c0.836,0.119,0.156,4.847-0.186,6.425
			c-0.338,1.559,0.266,2.354,1.081,1.93c0.556-0.289,1.717-5.097,2.019-6.665c0.302-1.568,1.053-5.885,2.414-3.456
			c1.361,2.429,3.322,3.783,4.108,3.781C71.815,211.969,72.097,210.874,71.398,210.366z"/>
		<g>
			<path style="fill:#263238;" d="M72.789,314.739l14.205,15.894l44.846-45.257c5.503-5.553,8.776-12.933,9.198-20.74l1.916-35.4
				l-29.125-17.783l2.334,49.583c0.254,5.39-1.729,10.645-5.481,14.524L72.789,314.739z"/>
			<g>
				<g>
					<path style="fill:#263238;" d="M107.976,212.819c-0.27,0.362-1.266,22.898,16.766,25.721c1.079,0.169,7.594,0.826,7.594,0.826
						c20.462-0.158,48.07-0.942,48.07-0.942l-4.584,62.912l21.725,0.079l6.613-67.171c1.454-18.605-14.253-21.812-22.897-21.981
						l-41.612-0.421L107.976,212.819z"/>
					<g>
						<path style="fill:#455A64;" d="M129.164,212.824c0.054,0.005,0.011,0.833-0.544,2.028c-0.539,1.182-1.695,2.711-3.497,3.663
							c-1.805,0.949-3.72,1.037-4.999,0.813c-1.299-0.218-2.006-0.651-1.98-0.698c0.031-0.084,0.774,0.218,2.026,0.333
							c1.237,0.122,3.026-0.023,4.711-0.909c1.682-0.889,2.814-2.281,3.413-3.371C128.906,213.585,129.078,212.802,129.164,212.824z
							"/>
					</g>
				</g>
				<g>
					<path style="fill:#455A64;" d="M186.119,234.244c0.084,0.116-1.077,1.102-2.593,2.202c-1.517,1.1-2.814,1.897-2.899,1.781
						c-0.084-0.116,1.076-1.102,2.593-2.202C184.737,234.925,186.035,234.127,186.119,234.244z"/>
				</g>
				<g>
					<path style="fill:#455A64;" d="M187.02,237.957c0.016,0.143-1.45,0.421-3.273,0.62c-1.824,0.2-3.314,0.246-3.33,0.103
						c-0.016-0.143,1.45-0.421,3.273-0.62C185.514,237.861,187.005,237.814,187.02,237.957z"/>
				</g>
			</g>
		</g>
		<g>
			<g>
				<g>
					<g>
						<path style="fill:#B78876;" d="M118.159,147.452L118.159,147.452c4.308,0.023,7.771-3.539,7.63-7.845
							c-0.136-4.135-0.295-8.313-0.295-8.313s6.206-1.031,6.218-7.247c0.012-6.216-1.214-20.477-1.214-20.477l0,0
							c-7.227-3.017-15.521-1.887-21.677,2.954l-0.914,0.719l2.724,33.236C110.954,144.404,114.222,147.431,118.159,147.452z"/>
					</g>
					<g>
						<g>
							<path style="fill:#263238;" d="M128.333,114.662c-0.373-0.331-0.407-0.901-0.076-1.274c0.331-0.373,0.902-0.407,1.274-0.076
								c0.373,0.331,0.407,0.901,0.076,1.274C129.277,114.959,128.706,114.993,128.333,114.662z"/>
						</g>
						<g>
							<g>
								<path style="fill:#263238;" d="M130.67,113.446c-0.096,0.109-0.712-0.355-1.567-0.35c-0.856-0.008-1.473,0.453-1.569,0.344
									c-0.047-0.048,0.048-0.243,0.317-0.452c0.264-0.208,0.719-0.41,1.252-0.409c0.534,0.001,0.988,0.205,1.251,0.413
									C130.622,113.202,130.717,113.397,130.67,113.446z"/>
							</g>
						</g>
					</g>
					<g>
						<g>
							<path style="fill:#263238;" d="M120.17,114.074c0.427,0.257,0.566,0.811,0.309,1.238c-0.257,0.427-0.811,0.566-1.239,0.309
								c-0.427-0.257-0.566-0.811-0.309-1.238C119.188,113.955,119.743,113.817,120.17,114.074z"/>
						</g>
						<g>
							<g>
								<path style="fill:#263238;" d="M121.386,114.307c-0.096,0.109-0.712-0.355-1.567-0.35c-0.856-0.008-1.473,0.454-1.569,0.344
									c-0.047-0.048,0.048-0.243,0.317-0.452c0.264-0.208,0.719-0.41,1.252-0.409c0.534,0.001,0.987,0.205,1.251,0.413
									C121.338,114.063,121.433,114.259,121.386,114.307z"/>
							</g>
						</g>
					</g>
					<g>
						<g>
							<path style="fill:#263238;" d="M124.887,120.71c-0.007-0.067,0.522-0.18,1.381-0.308c0.224-0.027,0.399-0.079,0.414-0.2
								c0.039-0.136-0.05-0.374-0.167-0.64c-0.226-0.564-0.455-1.134-0.695-1.732c-0.961-2.468-1.638-4.508-1.513-4.557
								c0.125-0.049,1.006,1.912,1.967,4.381c0.228,0.603,0.445,1.178,0.659,1.746c0.085,0.258,0.244,0.559,0.132,0.929
								c-0.06,0.186-0.235,0.321-0.382,0.362c-0.148,0.046-0.274,0.048-0.381,0.054C125.434,120.785,124.894,120.776,124.887,120.71
								z"/>
						</g>
					</g>
					<g>
						<path style="fill:#FFFFFF;" d="M122.116,121.684c0.527,0.191,2.469,1.279,4.211,1.176c0,0-0.983,1.608-2.782,0.971
							C121.678,123.169,122.116,121.684,122.116,121.684z"/>
					</g>
					<g>
						<path style="fill:#A36957;" d="M125.503,131.205c0,0-3.925,0.361-8.127-2.218c0,0,1.962,4.453,8.158,3.829L125.503,131.205z"
							/>
					</g>
				</g>
			</g>
			<path style="fill:#263238;" d="M107.199,112.853c0.377-1.183,0.136-2.468-0.183-3.668c-0.32-1.2-0.72-2.409-0.655-3.649
				s0.726-2.548,1.902-2.945c0.84-0.283,1.779-0.061,2.631-0.305c0.871-0.25,1.527-0.944,2.19-1.562
				c2.469-2.304,5.613-3.876,8.938-4.469c0.97-0.173,2.01-0.257,2.906,0.154c0.896,0.411,1.563,1.465,1.231,2.393
				c1.247-0.712,2.532-1.437,3.954-1.637c1.422-0.2,3.031,0.246,3.81,1.452c0.779,1.206,0.277,3.163-1.114,3.517
				c1.631,0.215,2.681,2.128,2.29,3.726c-0.392,1.598-1.904,2.751-3.514,3.088c-1.61,0.337-3.292-0.021-4.83-0.603
				c-1.539-0.582-2.986-1.383-4.518-1.983c-0.942,1.433-2.798,2.044-4.511,1.95c-1.713-0.094-3.331-0.776-4.91-1.449
				c0.148,1.783,0.282,3.653-0.441,5.29c-0.297,0.672-0.732,1.285-0.93,1.993c-0.266,0.952-0.073,1.968-0.161,2.954
				c-0.087,0.985-0.625,2.081-1.602,2.235c-0.883,0.139-1.709-0.599-2.007-1.442c-0.299-0.843-0.21-1.766-0.163-2.659
				C107.558,114.34,106.76,113.65,107.199,112.853"/>
			<g>
				<g>
					<path style="fill:#B78876;" d="M108.803,114.865c-0.039-0.499-0.46-0.894-0.96-0.872c-1.157,0.051-3.012,0.646-2.96,3.845
						c0.075,4.57,4.371,3.119,4.377,2.987C109.264,120.722,108.942,116.633,108.803,114.865z"/>
				</g>
				<g>
					<g>
						<path style="fill:#A36957;" d="M108.128,119.108c-0.02-0.014-0.079,0.057-0.212,0.121c-0.13,0.062-0.355,0.107-0.595,0.022
							c-0.486-0.169-0.905-0.929-0.94-1.753c-0.019-0.416,0.062-0.813,0.204-1.144c0.134-0.337,0.346-0.574,0.589-0.621
							c0.241-0.06,0.415,0.083,0.473,0.211c0.063,0.127,0.036,0.218,0.06,0.226c0.013,0.011,0.097-0.078,0.057-0.266
							c-0.021-0.09-0.076-0.197-0.185-0.283c-0.111-0.087-0.273-0.13-0.442-0.109c-0.352,0.03-0.664,0.36-0.82,0.722
							c-0.175,0.365-0.276,0.812-0.255,1.278c0.044,0.92,0.53,1.774,1.194,1.955c0.323,0.078,0.589-0.023,0.726-0.133
							C108.121,119.219,108.144,119.116,108.128,119.108z"/>
					</g>
				</g>
			</g>
			<g>
				<path style="fill:#263238;" d="M121.214,111.004c-0.024,0.15-0.993,0.083-2.126,0.359c-1.137,0.259-1.974,0.752-2.063,0.628
					c-0.091-0.101,0.687-0.844,1.943-1.135C120.222,110.556,121.251,110.873,121.214,111.004z"/>
			</g>
			<g>
				<path style="fill:#263238;" d="M123.731,128.455c-0.144-0.004-0.241-0.634-0.218-1.406c0.024-0.772,0.159-1.394,0.303-1.39
					c0.144,0.004,0.241,0.634,0.218,1.406C124.01,127.837,123.874,128.459,123.731,128.455z"/>
			</g>
			<g>
				<path style="fill:#263238;" d="M124.971,128.017c-0.144,0-0.26-0.528-0.26-1.18c0-0.651,0.118-1.179,0.261-1.179
					c0.144,0,0.26,0.528,0.259,1.18C125.231,127.489,125.114,128.017,124.971,128.017z"/>
			</g>
			<g>
				<path style="fill:#263238;" d="M126.335,127.668c-0.143,0.012-0.299-0.448-0.347-1.027c-0.048-0.579,0.029-1.058,0.172-1.07
					c0.143-0.012,0.299,0.448,0.347,1.027C126.555,127.177,126.478,127.656,126.335,127.668z"/>
			</g>
		</g>
		<g>
			<g>
				<g>
					<path style="fill:#E8505B;" d="M159.828,149.504c-7.016-2.991-11.957-4.714-15.822-6.818
						c-12.018-6.544-14.927-4.693-17.654-4.836c-5.16,2.005-10.438,2.383-15.832,1.133l0,0c-6.97,0.801-11.039,4.081-18.822,7.204
						l-15.563,8.352l11.228,15.633l14.404-4.809c1.194,6.003,1.48,10.789,2.282,18.078l1.526,29.415l43.638-0.67l-4.425-27.958
						l-2.649-22.054l12.835,5.292L159.828,149.504"/>
				</g>
			</g>
			<g style="opacity:0.4;">
				<path d="M144.599,142.906c0.007-0.006,0.046,0.03,0.118,0.108c0.08,0.073,0.171,0.202,0.268,0.391
					c0.194,0.37,0.249,1.068-0.123,1.785c-0.357,0.708-1.057,1.476-2.128,1.898c-1.075,0.399-2.363,0.439-3.732,0.538
					c-0.685,0.055-1.4,0.131-2.1,0.345c-0.695,0.227-1.382,0.571-2.031,1.034c-1.301,0.934-2.442,2.251-3.835,3.48
					c-0.702,0.605-1.492,1.186-2.425,1.558c-0.928,0.38-1.994,0.487-3.016,0.307c-2.071-0.363-3.808-1.633-5.697-2.475
					c-1.881-0.89-3.954-1.018-5.905-0.805c-1.959,0.212-3.817,0.697-5.607,1.108c-1.791,0.409-3.532,0.718-5.189,0.733
					c-1.651,0.016-3.216-0.261-4.494-0.906c-1.278-0.658-2.162-1.663-2.701-2.646c-0.543-0.99-0.715-1.989-0.649-2.778
					c0.065-0.799,0.373-1.358,0.595-1.702c0.26-0.323,0.412-0.475,0.423-0.465c0.088,0.035-0.713,0.639-0.816,2.18
					c-0.032,0.751,0.159,1.692,0.701,2.623c0.537,0.925,1.403,1.864,2.612,2.459c1.213,0.588,2.725,0.839,4.323,0.804
					c1.607-0.033,3.312-0.35,5.087-0.769c1.775-0.421,3.651-0.923,5.661-1.148c1.993-0.229,4.199-0.097,6.172,0.837
					c1.951,0.88,3.662,2.115,5.57,2.447c0.94,0.168,1.896,0.076,2.749-0.266c0.857-0.335,1.609-0.876,2.294-1.459
					c1.363-1.183,2.533-2.508,3.898-3.468c0.684-0.476,1.421-0.836,2.167-1.067c0.752-0.218,1.494-0.283,2.188-0.327
					c1.387-0.075,2.643-0.094,3.657-0.443c0.999-0.363,1.691-1.071,2.049-1.719c0.373-0.657,0.356-1.29,0.206-1.651
					C144.744,143.074,144.569,142.928,144.599,142.906z"/>
			</g>
			<g style="opacity:0.4;">
				<path d="M141.267,163.406c0.012,0.008-0.116,0.22-0.405,0.593c-0.298,0.365-0.778,0.88-1.513,1.403
					c-0.732,0.519-1.727,1.047-2.982,1.341c-1.244,0.3-2.767,0.356-4.328-0.134c-1.554-0.468-3.06-1.432-4.839-1.838
					c-1.79-0.426-3.746,0.193-5.578,1.155c-1.846,0.938-3.767,2.186-6.079,2.67c-2.277,0.513-4.772,0.412-7.132-0.336
					c-1.177-0.382-2.287-0.93-3.29-1.596c-0.999-0.668-1.898-1.421-2.803-2.108c-0.904-0.687-1.824-1.311-2.809-1.736
					c-0.983-0.431-2.022-0.673-3.047-0.814c-2.06-0.279-4.061-0.191-5.94-0.259c-1.877-0.063-3.652-0.287-5.176-0.855
					c-1.521-0.556-2.756-1.489-3.48-2.564c-0.747-1.057-1.072-2.167-1.121-3.07c-0.058-0.91,0.156-1.609,0.365-2.031
					c0.205-0.428,0.382-0.609,0.382-0.609c0.026,0.015-0.117,0.221-0.286,0.651c-0.173,0.424-0.346,1.104-0.26,1.974
					c0.077,0.863,0.418,1.919,1.156,2.915c0.717,1.013,1.892,1.869,3.37,2.388c1.476,0.525,3.206,0.726,5.063,0.769
					c1.858,0.05,3.871-0.057,5.992,0.215c1.056,0.139,2.142,0.383,3.181,0.833c1.043,0.445,2.001,1.093,2.919,1.786
					c0.92,0.694,1.814,1.438,2.783,2.084c0.969,0.64,2.029,1.163,3.162,1.531c2.269,0.719,4.672,0.821,6.863,0.333
					c2.212-0.453,4.082-1.651,5.973-2.601c0.949-0.47,1.911-0.896,2.915-1.118c0.997-0.232,2.029-0.253,2.972-0.031
					c1.883,0.456,3.366,1.441,4.858,1.909c1.482,0.49,2.942,0.464,4.152,0.2c1.219-0.257,2.199-0.743,2.931-1.224
					C140.703,164.249,141.216,163.357,141.267,163.406z"/>
			</g>
			<g style="opacity:0.4;">
				<path d="M157.223,156.816c0.018,0.09-0.832,0.219-2.008,0.88c-1.193,0.634-2.598,1.876-4.192,3.246
					c-1.606,1.371-3.364,2.328-4.775,2.547c-1.415,0.241-2.267-0.147-2.24-0.183c0.014-0.099,0.862,0.141,2.165-0.177
					c1.304-0.295,2.941-1.244,4.515-2.585c1.575-1.353,3.07-2.598,4.358-3.174C156.324,156.764,157.225,156.763,157.223,156.816z"/>
			</g>
			<g style="opacity:0.4;">
				<path d="M142.734,181.213c0.012,0.004-0.021,0.153-0.154,0.407c-0.13,0.254-0.388,0.611-0.838,0.932
					c-0.873,0.655-2.578,1.094-4.468,0.514c-1.882-0.509-3.854-1.768-6.354-1.913c-2.48-0.215-5.217,0.355-7.985,1.197
					c-2.775,0.848-5.431,1.77-7.975,2.105c-2.533,0.382-4.92,0.054-6.699-0.73c-1.797-0.76-2.995-1.882-3.593-2.781
					c-0.314-0.441-0.5-0.823-0.602-1.087c-0.104-0.265-0.15-0.405-0.133-0.412c0.051-0.024,0.254,0.543,0.899,1.378
					c0.63,0.837,1.818,1.87,3.569,2.561c1.743,0.713,4.023,0.992,6.493,0.595c2.478-0.352,5.097-1.274,7.892-2.128
					c2.792-0.848,5.6-1.426,8.178-1.176c1.283,0.103,2.483,0.461,3.527,0.894c1.047,0.43,1.988,0.874,2.888,1.143
					c1.788,0.597,3.392,0.236,4.252-0.328C142.512,181.811,142.677,181.171,142.734,181.213z"/>
			</g>
			<g style="opacity:0.4;">
				<path d="M147.058,198.965c0.014,0,0.023,0.164-0.016,0.474c-0.054,0.306-0.199,0.764-0.572,1.239
					c-0.719,0.949-2.427,1.875-4.59,1.654c-1.062-0.12-2.172-0.484-3.324-0.9c-1.154-0.405-2.371-0.886-3.71-1.02
					c-2.7-0.361-5.638,0.583-8.607,1.645c-1.498,0.53-2.971,1.051-4.443,1.419c-1.473,0.366-2.946,0.535-4.341,0.522
					c-2.801-0.022-5.268-0.721-7.186-1.573c-1.926-0.858-3.304-1.891-4.188-2.654c-0.446-0.381-0.765-0.705-0.971-0.935
					c-0.21-0.225-0.314-0.349-0.301-0.362c0.081-0.119,1.788,1.968,5.606,3.613c1.897,0.792,4.315,1.436,7.04,1.431
					c1.36-0.001,2.78-0.174,4.217-0.537c1.438-0.366,2.894-0.884,4.393-1.415c2.969-1.06,6.002-2.033,8.84-1.63
					c1.413,0.158,2.657,0.672,3.8,1.091c1.143,0.433,2.212,0.803,3.223,0.941c2.017,0.254,3.674-0.568,4.387-1.419
					C147.06,199.672,146.987,198.94,147.058,198.965z"/>
			</g>
			<g style="opacity:0.4;">
				<path d="M112.744,162.654c-0.126,0.078-0.899-0.97-1.908-2.206c-1.004-1.24-1.871-2.211-1.77-2.318
					c0.094-0.103,1.144,0.719,2.174,1.99C112.274,161.387,112.864,162.583,112.744,162.654z"/>
			</g>
			<g style="opacity:0.4;">
				<path d="M137.936,156.141c0.104,0.099-0.741,1.16-1.889,2.37c-1.148,1.21-2.162,2.111-2.267,2.012
					c-0.104-0.099,0.741-1.16,1.889-2.37C136.817,156.943,137.832,156.042,137.936,156.141z"/>
			</g>
			<g style="opacity:0.4;">
				<path d="M151.988,154.761c-0.086,0.115-1.038-0.454-2.124-1.271c-1.087-0.817-1.898-1.572-1.812-1.687
					c0.086-0.115,1.037,0.454,2.124,1.271C151.263,153.891,152.074,154.646,151.988,154.761z"/>
			</g>
			<g style="opacity:0.4;">
				<path d="M89.313,151.65c0.138,0.006,0.172,1.077-0.271,2.3c-0.436,1.226-1.143,2.03-1.253,1.948
					c-0.124-0.084,0.354-0.97,0.763-2.123C88.97,152.625,89.164,151.636,89.313,151.65z"/>
			</g>
			<g style="opacity:0.4;">
				<path d="M113.506,196.839c-0.113,0.09-0.968-0.799-1.91-1.985c-0.942-1.186-1.615-2.22-1.502-2.309
					c0.113-0.089,0.968,0.799,1.91,1.985C112.946,195.716,113.618,196.75,113.506,196.839z"/>
			</g>
			<g style="opacity:0.4;">
				<path d="M125.998,191.14c0.1,0.104-0.812,1.142-2.036,2.32c-1.225,1.178-2.298,2.048-2.397,1.944
					c-0.1-0.104,0.812-1.142,2.036-2.32C124.825,191.906,125.898,191.036,125.998,191.14z"/>
			</g>
			<g style="opacity:0.4;">
				<path d="M141.49,195.289c-0.085,0.116-1.175-0.534-2.435-1.452c-1.26-0.919-2.213-1.757-2.129-1.873
					c0.085-0.116,1.175,0.534,2.435,1.452C140.622,194.334,141.575,195.173,141.49,195.289z"/>
			</g>
			<g style="opacity:0.4;">
				<path d="M116.92,173.707c0.072,0.125-1.175,0.978-2.785,1.906c-1.61,0.928-2.973,1.579-3.045,1.455
					c-0.072-0.125,1.175-0.978,2.785-1.906C115.485,174.234,116.849,173.583,116.92,173.707z"/>
			</g>
			<g style="opacity:0.4;">
				<path d="M130.577,174.867c-0.022,0.133-1.24-0.073-2.366-1.032c-1.134-0.95-1.541-2.117-1.413-2.16
					c0.136-0.07,0.711,0.898,1.749,1.763C129.572,174.316,130.623,174.721,130.577,174.867z"/>
			</g>
			<g style="opacity:0.4;">
				<path d="M111.823,144.022c0.06,0.131-0.853,0.674-2.037,1.213c-1.185,0.539-2.193,0.87-2.253,0.739
					c-0.06-0.131,0.852-0.674,2.037-1.213C110.755,144.222,111.763,143.891,111.823,144.022z"/>
			</g>
			<g style="opacity:0.4;">
				<path d="M125.891,146.338c-0.067,0.127-1.174-0.323-2.473-1.006c-1.299-0.683-2.298-1.34-2.231-1.467
					c0.067-0.127,1.174,0.323,2.473,1.006C124.959,145.554,125.958,146.21,125.891,146.338z"/>
			</g>
			<g style="opacity:0.4;">
				<path d="M137.769,142.351c0.014,0.143-1.029,0.362-2.328,0.488c-1.3,0.126-2.365,0.113-2.379-0.03
					c-0.014-0.143,1.028-0.362,2.328-0.488C136.69,142.194,137.755,142.208,137.769,142.351z"/>
			</g>
			<g style="opacity:0.4;">
				<path d="M114.47,209.993c-0.087,0.115-1.013-0.443-2.067-1.244c-1.055-0.802-1.839-1.544-1.752-1.659
					c0.087-0.115,1.012,0.442,2.067,1.244C113.772,209.136,114.557,209.879,114.47,209.993z"/>
			</g>
			<g style="opacity:0.4;">
				<path d="M133.057,206.879c0.104,0.09-0.623,1.054-1.839,1.881c-1.213,0.834-2.373,1.163-2.42,1.033
					c-0.057-0.139,0.969-0.665,2.126-1.463C132.086,207.541,132.949,206.776,133.057,206.879z"/>
			</g>
			<g style="opacity:0.4;">
				<path d="M145.19,210.636c-0.064,0.129-1.122-0.263-2.363-0.875c-1.242-0.613-2.196-1.214-2.132-1.343
					c0.064-0.129,1.121,0.263,2.363,0.876C144.299,209.906,145.253,210.507,145.19,210.636z"/>
			</g>
		</g>
		<g>
			<path style="fill:#455A64;" d="M188.914,233.077c0.001,0.018-0.264,0.052-0.772,0.099c-0.508,0.051-1.258,0.106-2.224,0.161
				c-1.933,0.118-4.731,0.237-8.189,0.356c-6.917,0.23-16.474,0.461-27.034,0.517c-5.283,0.015-10.313,0.02-14.897-0.2
				c-4.621-0.24-8.652-1.79-11.508-3.789c-2.88-2.011-4.55-4.4-5.443-6.112c-0.87-1.745-1.093-2.806-1.093-2.806
				c0.066-0.025,0.358,1.016,1.272,2.71c0.937,1.663,2.623,3.972,5.473,5.905c2.828,1.922,6.789,3.404,11.327,3.614
				c4.557,0.193,9.591,0.173,14.868,0.159c10.554-0.056,20.11-0.228,27.027-0.364c3.417-0.08,6.201-0.145,8.19-0.191
				c0.927-0.026,1.668-0.047,2.226-0.063C188.644,233.058,188.913,233.059,188.914,233.077z"/>
		</g>
	</g>
</g>
</svg>
