<?xml version="1.0" encoding="utf-8"?>
<!-- Generator: Adobe Illustrator 27.5.0, SVG Export Plug-In . SVG Version: 6.00 Build 0)  -->
<svg version="1.1" xmlns="http://www.w3.org/2000/svg" xmlns:xlink="http://www.w3.org/1999/xlink" x="0px" y="0px"
	 viewBox="0 0 500 500" style="enable-background:new 0 0 500 500;" xml:space="preserve">
<g id="Background_Complete">
	<g>
		<rect x="416.779" y="398.494" style="fill:#EBEBEB;" width="33.122" height="0.25"/>
		<rect x="322.527" y="401.208" style="fill:#EBEBEB;" width="8.693" height="0.25"/>
		<rect x="396.586" y="389.208" style="fill:#EBEBEB;" width="19.192" height="0.25"/>
		<rect x="52.459" y="390.888" style="fill:#EBEBEB;" width="43.193" height="0.25"/>
		<rect x="104.556" y="390.888" style="fill:#EBEBEB;" width="6.333" height="0.25"/>
		<rect x="131.471" y="395.111" style="fill:#EBEBEB;" width="93.676" height="0.25"/>
		<g>
			<path style="fill:#EBEBEB;" d="M238.401,337.8H45.302c-3.147,0-5.708-2.561-5.708-5.708V60.66c0-3.147,2.561-5.708,5.708-5.708
				h193.099c3.146,0,5.707,2.561,5.707,5.708v271.432C244.108,335.239,241.547,337.8,238.401,337.8z M45.302,55.203
				c-3.01,0-5.458,2.448-5.458,5.458v271.432c0,3.01,2.448,5.458,5.458,5.458h193.099c3.009,0,5.457-2.448,5.457-5.458V60.66
				c0-3.009-2.448-5.458-5.457-5.458H45.302z"/>
			<path style="fill:#EBEBEB;" d="M454.698,337.8H261.599c-3.146,0-5.707-2.561-5.707-5.708V60.66c0-3.147,2.561-5.708,5.707-5.708
				h193.099c3.148,0,5.708,2.561,5.708,5.708v271.432C460.406,335.239,457.845,337.8,454.698,337.8z M261.599,55.203
				c-3.009,0-5.457,2.448-5.457,5.458v271.432c0,3.01,2.448,5.458,5.457,5.458h193.099c3.01,0,5.458-2.448,5.458-5.458V60.66
				c0-3.009-2.448-5.458-5.458-5.458H261.599z"/>
		</g>
		<rect y="382.398" style="fill:#EBEBEB;" width="500" height="0.25"/>
	</g>
	<g>
		<g>
			<path style="fill:#E0E0E0;" d="M73.668,273.884c2.217-2.471,5.413-5.163,8.776-5.699c10.313-1.642,9.161,19.512,9.061,24.924
				c-0.018,0.966,1.482,0.966,1.5,0c0.117-6.381,1.251-26.393-9.438-26.523c-4.177-0.05-8.302,3.274-10.959,6.237
				C71.965,273.54,73.022,274.604,73.668,273.884L73.668,273.884z"/>
		</g>
		<g>
			<path style="fill:#E0E0E0;" d="M105.743,260.878c-2.128,0.336-3.804,2.815-4.788,4.476c-4.741,8-5.056,18.774-5.359,27.755
				c-0.033,0.965,1.467,0.964,1.5,0c0.29-8.612,0.562-18.722,4.867-26.488c0.822-1.482,2.255-3.994,4.178-4.297
				C107.092,262.174,106.688,260.729,105.743,260.878L105.743,260.878z"/>
		</g>
		<path style="fill:#EBEBEB;" d="M73.138,273.353c0,0-9.289-15.354-16.106-1.514c-1.109,2.252-1.779,4.598-2.133,6.949
			c2.852-1.252,8.932-3.552,9.017-0.43c0.068,2.514-3.485,6.656-6.224,9.466c-1.55,1.591-2.126,3.893-1.528,6.032
			c1.527,5.455,3.606,9.251,3.606,9.251s2.043-0.775,5.043-2.203c1.895-0.903,3.241-2.664,3.63-4.727
			c0.424-2.254,1.15-4.643,2.364-5.351c1.222-0.713,2.189,0.616,2.855,2.147c0.549,1.261,2.101,1.704,3.215,0.898
			c1.491-1.078,2.944-2.238,4.293-3.473c0.81-0.741,0.923-1.989,0.247-2.853c-1.478-1.89-2.853-4.141-2.289-5.44
			c0.541-1.246,3.064-1.268,5.494-0.968c2.014,0.249,3.844-1.19,4.081-3.206l0.005-0.039
			C90.438,262.973,73.138,273.353,73.138,273.353z"/>
		<path style="fill:#E6E6E6;" d="M109.269,257.582c0,0,9.289-15.354,16.106-1.514c1.109,2.252,1.779,4.598,2.133,6.949
			c-2.852-1.252-8.932-3.552-9.017-0.43c-0.068,2.514,3.485,6.656,6.224,9.466c1.55,1.591,2.126,3.893,1.528,6.032
			c-1.527,5.455-3.606,9.251-3.606,9.251s-2.043-0.775-5.043-2.203c-1.895-0.903-3.241-2.664-3.63-4.727
			c-0.424-2.254-1.15-4.643-2.364-5.351c-1.222-0.713-2.189,0.616-2.855,2.147c-0.549,1.261-2.101,1.704-3.215,0.898
			c-1.491-1.079-2.944-2.238-4.293-3.473c-0.81-0.741-0.923-1.989-0.247-2.853c1.478-1.89,2.854-4.141,2.289-5.44
			c-0.542-1.246-3.064-1.268-5.494-0.968c-2.014,0.249-3.844-1.19-4.081-3.206l-0.005-0.039
			C91.969,247.202,109.269,257.582,109.269,257.582z"/>
		<g>
			<path style="fill:#F0F0F0;" d="M70.327,326.139c0-8.513,13.346-4.979,16.71-18.186c1.275-5.005-9.58-16.332-9.58-16.332h33.845
				c0,0-10.855,11.327-9.58,16.332c3.364,13.207,16.71,9.673,16.71,18.186c0,9.376-18.827,28.903-19.734,50.882
				c-0.081,1.965,3.541,6.037,3.541,6.037H86.521c0,0,3.622-4.072,3.541-6.037C89.154,355.043,70.327,335.515,70.327,326.139z"/>
		</g>
		<path style="fill:#E0E0E0;" d="M101.209,287.465c0,0,9.636-7.268,11.352,2.882c0.279,1.651,0.237,3.257-0.022,4.791
			c-1.686-1.448-5.359-4.307-6.083-2.401c-0.583,1.534,0.967,4.93,2.242,7.312c0.722,1.348,0.625,2.904-0.241,4.081
			c-2.209,3.002-4.443,4.85-4.443,4.85s-1.234-0.962-2.983-2.553c-1.105-1.006-1.651-2.41-1.477-3.775
			c0.19-1.491,0.203-3.136-0.477-3.859c-0.685-0.729-1.63-0.138-2.413,0.648c-0.645,0.648-1.802,0.553-2.393-0.208
			c-0.791-1.018-1.538-2.078-2.199-3.159c-0.396-0.648-0.208-1.445,0.44-1.818c1.415-0.815,2.837-1.878,2.728-2.812
			c-0.105-0.897-1.828-1.508-3.555-1.899c-1.432-0.324-2.379-1.645-2.111-2.944l0.005-0.025
			C91.576,276.965,101.209,287.465,101.209,287.465z"/>
	</g>
	<g>
		<rect x="266.77" y="284.398" style="fill:#E6E6E6;" width="161.592" height="86.965"/>
		<rect x="269.569" y="374.974" style="fill:#E6E6E6;" width="10.156" height="7.673"/>
		<rect x="430.542" y="277.929" style="fill:#E6E6E6;" width="10.156" height="104.718"/>
		<path style="fill:#F0F0F0;" d="M427.955,277.929h-2.708H269.569h-2.708h-2.708v104.719h5.416v-5.868h155.678v5.868h5.417V277.929
			H427.955z M425.246,323.779h-75.131v-36.371h75.131V323.779z M269.569,287.408h75.13v79.893h-75.13V287.408z M350.116,367.301
			v-38.105h75.131v38.105H350.116z"/>
		<rect x="274.647" y="291.319" style="fill:#F5F5F5;" width="70.053" height="75.981"/>
		<path style="fill:#FAFAFA;" d="M341.527,327.033c0,1.798-1.457,3.255-3.255,3.255c-1.797,0-3.255-1.457-3.255-3.255
			c0-1.797,1.457-3.255,3.255-3.255C340.07,323.779,341.527,325.236,341.527,327.033z"/>
		<path style="fill:#E0E0E0;" d="M338.272,330.288c-1.313,0-2.437-0.781-2.951-1.9c-0.19,0.413-0.303,0.869-0.303,1.354
			c0,1.797,1.457,3.255,3.255,3.255c1.798,0,3.255-1.457,3.255-3.255c0-0.485-0.113-0.941-0.303-1.354
			C340.709,329.507,339.585,330.288,338.272,330.288z"/>
		<polygon style="fill:#FAFAFA;" points="301.815,367.301 318.527,367.301 326.513,291.319 309.801,291.319 		"/>
		<polygon style="fill:#FAFAFA;" points="322.808,367.301 326.135,367.301 334.121,291.319 330.794,291.319 		"/>
		<rect x="360.428" y="291.244" style="fill:#FAFAFA;" width="6.62" height="32.499"/>
		<rect x="387.876" y="291.244" style="fill:#F5F5F5;" width="6.62" height="32.499"/>
		<rect x="367.048" y="293.528" style="fill:#F5F5F5;" width="6.62" height="30.215"/>
		<rect x="381.256" y="293.528" style="fill:#FAFAFA;" width="6.62" height="30.215"/>
		<rect x="376.978" y="291.244" style="fill:#EBEBEB;" width="4.278" height="32.499"/>
		<rect x="373.668" y="293.528" style="fill:#FAFAFA;" width="3.31" height="30.215"/>
		<rect x="394.496" y="291.244" style="fill:#EBEBEB;" width="6.62" height="32.499"/>
		<rect x="401.116" y="293.528" style="fill:#E6E6E6;" width="6.62" height="30.215"/>
		<rect x="415.325" y="293.528" style="fill:#E6E6E6;" width="6.62" height="30.215"/>
		<rect x="411.047" y="291.244" style="fill:#FAFAFA;" width="4.278" height="32.499"/>
		<rect x="407.737" y="293.528" style="fill:#EBEBEB;" width="3.31" height="30.215"/>
		<rect x="421.945" y="292.014" style="fill:#EBEBEB;" width="3.31" height="31.729"/>
		
			<rect x="418.635" y="334.802" transform="matrix(-1 -1.224647e-16 1.224647e-16 -1 843.8897 702.1024)" style="fill:#EBEBEB;" width="6.62" height="32.499"/>
		
			<rect x="391.186" y="334.802" transform="matrix(-1 -1.224647e-16 1.224647e-16 -1 788.9926 702.1024)" style="fill:#FAFAFA;" width="6.62" height="32.499"/>
		
			<rect x="412.015" y="337.086" transform="matrix(-1 -1.224647e-16 1.224647e-16 -1 830.6494 704.3862)" style="fill:#FAFAFA;" width="6.62" height="30.215"/>
		
			<rect x="397.806" y="337.086" transform="matrix(-1 -1.224647e-16 1.224647e-16 -1 802.2329 704.3862)" style="fill:#EBEBEB;" width="6.62" height="30.215"/>
		
			<rect x="404.427" y="334.802" transform="matrix(-1 -1.224647e-16 1.224647e-16 -1 813.1311 702.1024)" style="fill:#FAFAFA;" width="4.278" height="32.499"/>
		
			<rect x="408.705" y="337.086" transform="matrix(-1 -1.224647e-16 1.224647e-16 -1 820.7192 704.3862)" style="fill:#F5F5F5;" width="3.31" height="30.215"/>
		
			<rect x="384.566" y="334.802" transform="matrix(-1 -1.224647e-16 1.224647e-16 -1 775.7523 702.1024)" style="fill:#EBEBEB;" width="6.62" height="32.499"/>
		
			<rect x="377.946" y="337.086" transform="matrix(-1 -1.224647e-16 1.224647e-16 -1 762.512 704.3862)" style="fill:#F5F5F5;" width="6.62" height="30.215"/>
		
			<rect x="363.738" y="337.086" transform="matrix(-1 -1.224647e-16 1.224647e-16 -1 734.0954 704.3862)" style="fill:#E6E6E6;" width="6.62" height="30.215"/>
		
			<rect x="370.358" y="334.802" transform="matrix(-1 -1.224647e-16 1.224647e-16 -1 744.9936 702.1024)" style="fill:#FAFAFA;" width="4.278" height="32.499"/>
		
			<rect x="356.15" y="334.802" transform="matrix(-1 -1.224647e-16 1.224647e-16 -1 716.5772 702.1024)" style="fill:#FAFAFA;" width="4.278" height="32.499"/>
		
			<rect x="374.636" y="337.086" transform="matrix(-1 -1.224647e-16 1.224647e-16 -1 752.5817 704.3862)" style="fill:#EBEBEB;" width="3.31" height="30.215"/>
		
			<rect x="360.428" y="335.572" transform="matrix(-1 -1.224647e-16 1.224647e-16 -1 724.1652 702.8722)" style="fill:#EBEBEB;" width="3.31" height="31.729"/>
	</g>
	<polygon style="fill:#F0F0F0;" points="165.714,106.31 181.978,80.034 171.575,109.133 202.259,105.466 173.023,115.475 
		195.021,137.179 168.966,120.562 165.714,151.293 162.461,120.562 136.406,137.179 158.404,115.475 129.168,105.466 
		159.852,109.133 149.449,80.034 	"/>
	<polygon style="fill:#F0F0F0;" points="203.981,288.411 218.221,265.407 209.113,290.882 235.976,287.672 210.38,296.435 
		229.639,315.436 206.829,300.888 203.981,327.792 201.134,300.888 178.324,315.436 197.582,296.435 171.986,287.672 
		198.85,290.882 189.742,265.407 	"/>
	<polygon style="fill:#F0F0F0;" points="302.469,121.647 313.91,103.163 306.592,123.633 328.177,121.054 307.611,128.095 
		323.086,143.362 304.757,131.673 302.469,153.291 300.181,131.673 281.853,143.362 297.328,128.095 276.761,121.054 
		298.346,123.633 291.028,103.163 	"/>
</g>
<g id="Background_Simple" style="display:none;">
	<g style="display:inline;">
		<path style="fill:#407BFF;" d="M390.746,257.657c1.823,34.093,42.833,63.232,4.6,90.437
			c-51.061,36.332-109.111-3.592-157.088-5.488c-36.649-1.449-89.198,47.738-140.953,16.64
			c-51.807-31.129,15.423-74.521,11.356-107.781c-4.023-32.908-56.395-63.58-15-108.053c40.592-43.61,88.259-3.616,135.851-1.007
			c42.221,2.314,107.618-36.223,146.876,7.43C413.576,191.184,388.986,224.743,390.746,257.657z"/>
		<path style="opacity:0.9;fill:#FFFFFF;" d="M390.746,257.657c1.823,34.093,42.833,63.232,4.6,90.437
			c-51.061,36.332-109.111-3.592-157.088-5.488c-36.649-1.449-89.198,47.738-140.953,16.64
			c-51.807-31.129,15.423-74.521,11.356-107.781c-4.023-32.908-56.395-63.58-15-108.053c40.592-43.61,88.259-3.616,135.851-1.007
			c42.221,2.314,107.618-36.223,146.876,7.43C413.576,191.184,388.986,224.743,390.746,257.657z"/>
	</g>
</g>
<g id="Shadow">
	<ellipse id="_x3C_Path_x3E__1_" style="fill:#F5F5F5;" cx="245.178" cy="412.391" rx="193.889" ry="11.323"/>
</g>
<g id="Icons">
	<g>
		<g>
			<path style="fill:#407BFF;" d="M243.948,187.592l-27.677,10.085c-0.478,0.174-1.006-0.072-1.181-0.55l-13.486-37.011
				c-0.174-0.478,0.072-1.006,0.55-1.18l17.049-6.212l15.716,7.4l9.579,26.288C244.672,186.889,244.426,187.418,243.948,187.592z"/>
			<path style="opacity:0.5;fill:#FFFFFF;" d="M243.948,187.592l-27.677,10.085c-0.478,0.174-1.006-0.072-1.181-0.55l-13.486-37.011
				c-0.174-0.478,0.072-1.006,0.55-1.18l17.049-6.212l15.716,7.4l9.579,26.288C244.672,186.889,244.426,187.418,243.948,187.592z"/>
			<g>
				<polygon style="fill:none;" points="234.885,160.029 223.391,164.217 219.204,152.724 				"/>
				<polygon style="opacity:0.1;" points="234.885,160.029 223.391,164.217 219.204,152.724 				"/>
			</g>
		</g>
		<g>
			
				<rect x="212.282" y="166.7" transform="matrix(0.9396 -0.3424 0.3424 0.9396 -45.9484 86.8979)" style="fill:#407BFF;" width="21.786" height="13.808"/>
			
				<rect x="212.282" y="166.7" transform="matrix(0.9396 -0.3424 0.3424 0.9396 -45.9484 86.8979)" style="opacity:0.7;fill:#FFFFFF;" width="21.786" height="13.808"/>
		</g>
		<g>
			<polygon style="fill:#407BFF;" points="219.42,177.272 216.587,183.352 225.5,180.105 			"/>
			<polygon style="opacity:0.2;fill:#FFFFFF;" points="219.42,177.272 216.587,183.352 225.5,180.105 			"/>
		</g>
		<g>
			<polygon style="fill:#407BFF;" points="223.496,180.835 235.774,176.361 235.343,175.178 227.774,171.652 			"/>
			<polygon style="opacity:0.4;fill:#FFFFFF;" points="223.496,180.835 235.774,176.361 235.343,175.178 227.774,171.652 			"/>
		</g>
		<path style="fill:#FFFFFF;" d="M222.637,171.677c0.44,1.208-0.182,2.544-1.39,2.984c-1.208,0.44-2.544-0.182-2.984-1.39
			c-0.44-1.208,0.182-2.544,1.39-2.984C220.861,169.847,222.196,170.469,222.637,171.677z"/>
	</g>
	<g>
		<g>
			<path style="fill:#407BFF;" d="M265.626,210.466c-5.757-8.865-17.653-11.392-26.517-5.636l-1.305-2.009
				c9.973-6.477,23.356-3.631,29.831,6.341L265.626,210.466z"/>
		</g>
		<g>
			<path style="fill:#407BFF;" d="M242.258,209.68l-1.305-2.009c7.298-4.74,17.092-2.658,21.832,4.641l-2.009,1.305
				C256.757,207.427,248.449,205.66,242.258,209.68z"/>
		</g>
		<g style="opacity:0.6;">
			<path style="fill:#FFFFFF;" d="M265.626,210.466c-5.757-8.865-17.653-11.392-26.517-5.636l-1.305-2.009
				c9.973-6.477,23.356-3.631,29.831,6.341L265.626,210.466z"/>
		</g>
		<g style="opacity:0.6;">
			<path style="fill:#FFFFFF;" d="M242.258,209.68l-1.305-2.009c7.298-4.74,17.092-2.658,21.832,4.641l-2.009,1.305
				C256.757,207.427,248.449,205.66,242.258,209.68z"/>
		</g>
		<g>
			<path style="fill:#407BFF;" d="M256.35,216.49c-2.436-3.749-7.467-4.82-11.218-2.385l-1.305-2.009
				c4.858-3.154,11.377-1.77,14.532,3.089L256.35,216.49z"/>
		</g>
		<path style="fill:#407BFF;" d="M253.891,218.087c-1.555-2.393-4.768-3.077-7.162-1.522l-0.502,0.326l3.146,4.845l4.845-3.146
			L253.891,218.087z"/>
		<g>
			<path style="fill:#407BFF;" d="M271.396,208.613c-0.573,2.694-3.221,4.414-5.916,3.842c-2.694-0.573-4.414-3.221-3.842-5.916
				c0.573-2.695,3.221-4.415,5.916-3.842C270.248,203.27,271.968,205.919,271.396,208.613z"/>
			<polygon style="opacity:0.8;fill:#FFFFFF;" points="269.846,206.172 269.154,205.106 266.703,206.697 265.112,204.247 
				264.047,204.939 265.638,207.389 263.188,208.98 263.88,210.046 266.33,208.455 267.921,210.905 268.987,210.213 
				267.396,207.763 			"/>
		</g>
	</g>
	<g>
		<g>
			<path style="fill:#407BFF;" d="M249.456,263.71L249.456,263.71c-0.604,0-1.094-0.49-1.094-1.094v-9.381
				c0-0.604,0.49-1.094,1.094-1.094l0,0c0.604,0,1.094,0.49,1.094,1.094v9.381C250.55,263.22,250.06,263.71,249.456,263.71z"/>
		</g>
		<g>
			<path style="fill:#407BFF;" d="M249.456,283.722L249.456,283.722c-0.604,0-1.094-0.49-1.094-1.094v-9.381
				c0-0.604,0.49-1.094,1.094-1.094l0,0c0.604,0,1.094,0.49,1.094,1.094v9.381C250.55,283.232,250.06,283.722,249.456,283.722z"/>
		</g>
		<g>
			<path style="fill:#407BFF;" d="M264.152,269.026h-9.381c-0.604,0-1.094-0.49-1.094-1.094l0,0c0-0.604,0.49-1.094,1.094-1.094
				h9.381c0.604,0,1.094,0.49,1.094,1.094l0,0C265.247,268.535,264.757,269.026,264.152,269.026z"/>
		</g>
		<g>
			<path style="fill:#407BFF;" d="M244.14,269.026h-9.381c-0.605,0-1.094-0.49-1.094-1.094l0,0c0-0.604,0.49-1.094,1.094-1.094
				h9.381c0.604,0,1.094,0.49,1.094,1.094l0,0C245.235,268.535,244.745,269.026,244.14,269.026z"/>
		</g>
		<g>
			<path style="fill:#407BFF;" d="M252.441,264.946L252.441,264.946c-0.427-0.427-0.427-1.12,0-1.548l6.633-6.633
				c0.427-0.427,1.12-0.427,1.548,0l0,0c0.427,0.427,0.427,1.12,0,1.548l-6.633,6.633
				C253.561,265.374,252.868,265.374,252.441,264.946z"/>
		</g>
		<g style="opacity:0.5;">
			<path style="fill:#FFFFFF;" d="M264.152,269.026h-9.381c-0.604,0-1.094-0.49-1.094-1.094l0,0c0-0.604,0.49-1.094,1.094-1.094
				h9.381c0.604,0,1.094,0.49,1.094,1.094l0,0C265.247,268.535,264.757,269.026,264.152,269.026z"/>
		</g>
		<g style="opacity:0.5;">
			<path style="fill:#FFFFFF;" d="M252.441,264.946L252.441,264.946c-0.427-0.427-0.427-1.12,0-1.548l6.633-6.633
				c0.427-0.427,1.12-0.427,1.548,0l0,0c0.427,0.427,0.427,1.12,0,1.548l-6.633,6.633
				C253.561,265.374,252.868,265.374,252.441,264.946z"/>
		</g>
		<g>
			<path style="fill:#407BFF;" d="M238.29,279.097L238.29,279.097c-0.428-0.428-0.428-1.12,0-1.548l6.633-6.633
				c0.427-0.427,1.12-0.427,1.548,0l0,0c0.427,0.427,0.427,1.12,0,1.548l-6.633,6.633
				C239.411,279.524,238.718,279.524,238.29,279.097z"/>
		</g>
		<g>
			<path style="fill:#407BFF;" d="M259.074,279.097l-6.633-6.633c-0.427-0.427-0.427-1.12,0-1.548l0,0
				c0.427-0.427,1.12-0.427,1.548,0l6.633,6.633c0.427,0.427,0.427,1.12,0,1.548l0,0
				C260.194,279.524,259.501,279.524,259.074,279.097z"/>
		</g>
		<g style="opacity:0.3;">
			<path style="fill:#FFFFFF;" d="M249.456,283.722L249.456,283.722c-0.604,0-1.094-0.49-1.094-1.094v-9.381
				c0-0.604,0.49-1.094,1.094-1.094l0,0c0.604,0,1.094,0.49,1.094,1.094v9.381C250.55,283.232,250.06,283.722,249.456,283.722z"/>
		</g>
		<g style="opacity:0.3;">
			<path style="fill:#FFFFFF;" d="M259.074,279.097l-6.633-6.633c-0.427-0.427-0.427-1.12,0-1.548l0,0
				c0.427-0.427,1.12-0.427,1.548,0l6.633,6.633c0.427,0.427,0.427,1.12,0,1.548l0,0
				C260.194,279.524,259.501,279.524,259.074,279.097z"/>
		</g>
		<g>
			<path style="fill:#407BFF;" d="M244.923,264.946l-6.633-6.633c-0.427-0.427-0.427-1.12,0-1.548l0,0
				c0.427-0.427,1.12-0.427,1.548,0l6.633,6.633c0.427,0.427,0.427,1.12,0,1.548l0,0
				C246.044,265.374,245.351,265.374,244.923,264.946z"/>
		</g>
		<g style="opacity:0.7;">
			<path style="fill:#FFFFFF;" d="M249.456,263.71L249.456,263.71c-0.604,0-1.094-0.49-1.094-1.094v-9.381
				c0-0.604,0.49-1.094,1.094-1.094l0,0c0.604,0,1.094,0.49,1.094,1.094v9.381C250.55,263.22,250.06,263.71,249.456,263.71z"/>
		</g>
		<g style="opacity:0.7;">
			<path style="fill:#FFFFFF;" d="M244.923,264.946l-6.633-6.633c-0.427-0.427-0.427-1.12,0-1.548l0,0
				c0.427-0.427,1.12-0.427,1.548,0l6.633,6.633c0.427,0.427,0.427,1.12,0,1.548l0,0
				C246.044,265.374,245.351,265.374,244.923,264.946z"/>
		</g>
	</g>
	<g>
		<path style="fill:#407BFF;" d="M200.515,198.883c-1.296,6.099-7.291,9.992-13.39,8.695c-6.099-1.296-9.992-7.291-8.695-13.39
			c1.296-6.099,7.291-9.992,13.39-8.695C197.918,186.79,201.811,192.784,200.515,198.883z"/>
		<path style="opacity:0.6;fill:#FFFFFF;" d="M200.515,198.883c-1.296,6.099-7.291,9.992-13.39,8.695
			c-6.099-1.296-9.992-7.291-8.695-13.39c1.296-6.099,7.291-9.992,13.39-8.695C197.918,186.79,201.811,192.784,200.515,198.883z"/>
		<polygon style="opacity:0.8;fill:#FFFFFF;" points="197.007,193.357 195.44,190.945 189.895,194.547 186.294,189.001 
			183.882,190.568 187.483,196.113 181.938,199.714 183.504,202.126 189.049,198.525 192.651,204.07 195.062,202.504 
			191.461,196.958 		"/>
	</g>
	<g>
		<path style="fill:#407BFF;" d="M222.451,286.495c-5.347,1.137-8.76,6.392-7.624,11.739c1.137,5.347,13.948,18.015,13.948,18.015
			s6.551-16.784,5.415-22.131C233.054,288.772,227.798,285.358,222.451,286.495z M225.235,299.593
			c-1.887,0.401-3.742-0.804-4.143-2.691c-0.401-1.887,0.803-3.742,2.691-4.143c1.887-0.401,3.742,0.804,4.143,2.691
			C228.327,297.337,227.122,299.192,225.235,299.593z"/>
		<path style="opacity:0.5;fill:#FFFFFF;" d="M222.451,286.495c-5.347,1.137-8.76,6.392-7.624,11.739
			c1.137,5.347,13.948,18.015,13.948,18.015s6.551-16.784,5.415-22.131C233.054,288.772,227.798,285.358,222.451,286.495z
			 M225.235,299.593c-1.887,0.401-3.742-0.804-4.143-2.691c-0.401-1.887,0.803-3.742,2.691-4.143
			c1.887-0.401,3.742,0.804,4.143,2.691C228.327,297.337,227.122,299.192,225.235,299.593z"/>
	</g>
	<g>
		<path style="fill:#407BFF;" d="M305.58,202.165c-5.878,3.305-22.133,0.557-26.598-4.496c-2.478-2.804-0.555-12.592,2.495-14.76
			c5.497-3.907,22.691-1.001,26.598,4.496C310.243,190.455,308.842,200.331,305.58,202.165z"/>
		<path style="opacity:0.4;fill:#FFFFFF;" d="M305.58,202.165c-5.878,3.305-22.133,0.557-26.598-4.496
			c-2.478-2.804-0.555-12.592,2.495-14.76c5.497-3.907,22.691-1.001,26.598,4.496C310.243,190.455,308.842,200.331,305.58,202.165z"
			/>
		<polygon style="fill:#FFFFFF;" points="300.046,193.437 288.38,197.566 290.385,185.703 		"/>
	</g>
</g>
<g id="Character_2_1_">
	<g>
		<g>
			<polygon style="fill:#B55B52;" points="314.591,379.771 304.248,394.155 297.505,390.249 304.716,374.152 			"/>
			<g>
				<g>
					<path style="fill:#263238;" d="M300.257,384.564l6.716,6.135c0.244,0.223,0.301,0.586,0.136,0.873l-3.673,6.392
						c-0.381,0.663-1.291,0.789-1.846,0.264c-2.308-2.182-3.322-3.36-6.275-6.058c-1.817-1.66-8.372-7.301-10.881-9.593
						c-2.454-2.242-0.571-5.073,0.662-4.359c5.526,3.2,11.169,5.806,13.855,5.827C299.435,384.049,299.9,384.237,300.257,384.564z"
						/>
					<path style="fill:#407BFF;" d="M296.417,382.451c0.142,1.067,1.722,2.085,2.651,2.597c0.081,0.044,0.179,0.036,0.251-0.021
						c0.073-0.058,0.102-0.151,0.078-0.24c-0.153-0.551-0.966-3.307-1.936-3.571c-0.16-0.043-0.401-0.046-0.643,0.188
						c-0.047,0.046-0.09,0.092-0.129,0.139C296.465,381.817,296.373,382.121,296.417,382.451z M296.869,382.391
						c-0.032-0.239,0.058-0.458,0.266-0.659c0.094-0.091,0.158-0.09,0.207-0.076c0.457,0.125,1.066,1.514,1.451,2.706
						C297.651,383.659,296.942,382.94,296.869,382.391z"/>
				</g>
				<path style="fill:#407BFF;" d="M298.963,384.923c0.027,0.079,0.096,0.136,0.178,0.151c0.083,0.013,0.165-0.014,0.217-0.085
					c0.061-0.079,1.503-1.947,1.326-3.164c-0.047-0.323-0.199-0.577-0.452-0.756c-0.395-0.281-0.691-0.146-0.832-0.04
					c-0.049,0.037-0.095,0.081-0.138,0.133C298.654,381.9,298.669,384.074,298.963,384.923z M299.673,381.393
					c0.036-0.027,0.112-0.084,0.295,0.046c0.148,0.107,0.235,0.254,0.265,0.452c0.1,0.682-0.505,1.762-0.947,2.419
					C299.127,383.295,299.273,381.689,299.673,381.393z"/>
			</g>
			<path style="fill:#407BFF;" d="M303.345,377.001c8.119-18.863,15.844-42.411,22.71-59.36c9.277-22.9,41.967-66.086,41.967-66.086
				l2.374-2.873l28.121-1.567v10.362c0,0-49.772,57.967-55.358,73.5c-6.108,16.983-19.11,36.48-30.868,52.489L303.345,377.001z"/>
			<g>
				<path style="fill:#407BFF;" d="M312.917,383.071l-1.686,1.744c0,0-9.168-6.412-9.094-6.519c0.075-0.107,1.189-2.249,1.189-2.249
					L312.917,383.071z"/>
				<path style="opacity:0.4;fill:#FFFFFF;" d="M312.917,383.071l-1.686,1.744c0,0-9.168-6.412-9.094-6.519
					c0.075-0.107,1.189-2.249,1.189-2.249L312.917,383.071z"/>
			</g>
			<path style="opacity:0.2;" d="M366.958,295.954c5.292-24.874,14.832-38.653,14.832-38.653l5.048,3.657l1.612,8.455
				C382.436,276.633,374.519,286.284,366.958,295.954z"/>
			<polygon style="fill:#B55B52;" points="396.254,389.857 394.513,407.488 386.72,407.488 384.892,389.944 			"/>
			<g>
				<path style="fill:#263238;" d="M385.902,405.3l9.095-0.18c0.331-0.007,0.622,0.218,0.7,0.539l1.742,7.164
					c0.181,0.743-0.392,1.461-1.157,1.463c-3.176,0.009-4.722-0.147-8.722-0.068c-2.46,0.049-11.098,0.476-14.496,0.543
					c-3.323,0.066-3.908-3.284-2.523-3.616c6.21-1.488,12.095-3.487,14.057-5.322C384.952,405.493,385.418,405.31,385.902,405.3z"/>
				<path style="fill:#407BFF;" d="M381.664,406.414c0.838,0.675,2.685,0.325,3.711,0.056c0.089-0.023,0.155-0.097,0.168-0.188
					c0.013-0.092-0.03-0.18-0.109-0.228c-0.49-0.294-2.979-1.731-3.863-1.255c-0.146,0.079-0.322,0.243-0.337,0.579
					c-0.003,0.066-0.002,0.129,0.003,0.19C381.261,405.922,381.404,406.206,381.664,406.414z M381.95,406.06
					c-0.188-0.151-0.273-0.372-0.261-0.661c0.005-0.131,0.052-0.173,0.098-0.198c0.417-0.225,1.816,0.363,2.916,0.961
					C383.39,406.44,382.381,406.407,381.95,406.06z"/>
				<path style="fill:#407BFF;" d="M385.212,406.452c0.074,0.038,0.163,0.033,0.233-0.013c0.069-0.047,0.109-0.124,0.099-0.211
					c-0.01-0.099-0.251-2.447-1.219-3.207c-0.257-0.201-0.542-0.281-0.849-0.237c-0.48,0.068-0.601,0.37-0.631,0.544
					c-0.01,0.06-0.013,0.124-0.008,0.192C382.905,404.473,384.414,406.039,385.212,406.452z M383.294,403.405
					c0.008-0.045,0.023-0.138,0.246-0.17c0.181-0.025,0.346,0.022,0.503,0.145c0.542,0.425,0.848,1.625,0.98,2.406
					C384.209,405.159,383.208,403.895,383.294,403.405z"/>
			</g>
			<path style="fill:#407BFF;" d="M398.463,333.09c2.293,14.471-0.014,43.172-2.352,63.873l-10.697-0.265
				c-2.571-21.498-6.577-51.934-8.363-67.059c-2.897-24.536,3.57-81.512,3.57-81.512l29.228-0.612c0,0,0.029,4.836-1.443,12.316
				C404.088,281.765,396.536,320.932,398.463,333.09z"/>
			<g>
				<path style="fill:#407BFF;" d="M396.689,396.533l-0.392,2.394c0,0-11.188-0.043-11.188-0.174c0-0.131-0.305-2.525-0.305-2.525
					L396.689,396.533z"/>
				<path style="opacity:0.4;fill:#FFFFFF;" d="M396.689,396.533l-0.392,2.394c0,0-11.188-0.043-11.188-0.174
					c0-0.131-0.305-2.525-0.305-2.525L396.689,396.533z"/>
			</g>
			<path style="fill:#B55B52;" d="M370.979,192.418l-6.565,13.802c-1.116,2.277-2.216,4.565-3.369,6.774
				c-0.581,1.096-1.158,2.204-1.747,3.252c-0.292,0.541-0.589,1.053-0.89,1.545l-0.434,0.723c-0.089,0.099-0.096,0.188-0.224,0.322
				c-0.404,0.51-1.156,1.174-2.003,1.794c-0.851,0.628-1.846,1.225-2.866,1.799c-2.049,1.16-4.288,2.214-6.569,3.213
				c-4.571,1.973-9.383,3.814-14.145,5.507l1.13,4.976c5.305-0.705,10.452-1.738,15.625-3.257c2.582-0.766,5.158-1.633,7.749-2.767
				c1.294-0.58,2.59-1.197,3.908-1.983c1.317-0.79,2.657-1.688,4.006-3.085c0.333-0.322,0.677-0.783,1-1.182l0.64-0.893
				c0.42-0.582,0.818-1.161,1.188-1.732c0.778-1.149,1.473-2.296,2.168-3.45c1.384-2.302,2.668-4.609,3.908-6.938
				c2.491-4.658,4.753-9.34,6.881-14.184L370.979,192.418z"/>
			<path style="fill:#263238;" d="M386.261,191.705c1.36,6.835-15.379,26.874-15.379,26.874l-11.905-6.734
				c0,0,3.519-10.068,9.37-18.469C374.509,184.529,384.749,184.106,386.261,191.705z"/>
			<path style="opacity:0.2;" d="M386.354,192.564c-2.865-1.393-8.543-0.193-12.986,5.44c-4.388,5.576-6.851,15.033-7.552,17.71
				l5.069,2.865C370.884,218.579,386.484,200.027,386.354,192.564z"/>
			<path style="fill:#B55B52;" d="M332.784,231.014l-4.749-0.425c-2.493-0.223-4.652,1.715-4.699,4.217l0,0
				c-0.062,3.33,3.509,5.47,6.419,3.851c1.458-0.811,2.915-1.771,4.077-2.848L332.784,231.014z"/>
			<path style="fill:#263238;" d="M377.744,186.559c0,0-9.479,20.919-7.834,63.592c12.753-0.072,33.378-2.129,39.584-2.164
				c1.277-5.919,1.301-29.589,10.998-57.538c0.833-2.401-0.713-4.967-3.23-5.317c-2.544-0.353-5.788-0.72-8.998-0.852
				c-5.366-0.22-13.167-0.342-17.992,0.102C383.911,184.967,377.744,186.559,377.744,186.559z"/>
			<path style="fill:#B55B52;" d="M413.167,165.226c-3.085,5.45-7.77,15.432-4.921,19.053c-6.446,2.236-8.38,7.755-15.88,6.723
				c-3.349-0.461-3.875-3.689-2.572-6.469c7.102-1.471,8.612-6.17,8.961-10.398L413.167,165.226z"/>
			<path style="opacity:0.2;" d="M397.063,179.958c1.108-1.797,1.531-3.86,1.693-5.825l7.348-4.542l2.751,4.644
				C408.855,174.235,404.767,180.878,397.063,179.958z"/>
			<path style="fill:#263238;" d="M398.135,146.095c-6.173,1.374-6.251,14.816-3.922,16.578
				C398.569,165.969,405.791,144.391,398.135,146.095z"/>
			<path style="fill:#B55B52;" d="M414.647,160.467c-1.848,7.466-2.551,11.929-7.075,15.106c-6.806,4.778-15.492-0.389-15.911-8.257
				c-0.378-7.082,2.709-18.101,10.651-19.751C410.136,145.939,416.495,153.001,414.647,160.467z"/>
			<path style="fill:#263238;" d="M421.854,155.655c-0.624,4.475-7.808,15.384-10.926,14.521c-3.118-0.862-1.787-10.924,0.95-16.86
				c-2.775-1.408-25.539-2.707-17.766-8.592c0,0-4.974-8.865,4.162-4.49c0,0,2.878-11.375,7.47-1.125c0,0,5.996-8,7.996,2.375
				c0,0,5.946-3.07,5.625,4.514c0,0,7.333,0.111,2.25,5.111C421.616,151.11,428.116,154.12,421.854,155.655z"/>
			<path style="fill:#B55B52;" d="M416.531,169.415c-1.39,1.54-3.36,2.294-5.064,2.354c-2.562,0.09-3.242-2.347-2.027-4.45
				c1.094-1.893,3.744-4.221,6.074-3.311C417.809,164.903,418.12,167.655,416.531,169.415z"/>
			<path style="fill:#263238;" d="M401.618,161.071c-0.113,0.615-0.53,1.053-0.932,0.98c-0.402-0.074-0.636-0.632-0.523-1.247
				c0.113-0.615,0.53-1.053,0.932-0.98C401.497,159.898,401.731,160.456,401.618,161.071z"/>
			<path style="fill:#263238;" d="M394.669,159.796c-0.113,0.615-0.53,1.053-0.932,0.98c-0.402-0.074-0.636-0.632-0.523-1.247
				c0.113-0.615,0.53-1.053,0.932-0.98C394.547,158.623,394.781,159.182,394.669,159.796z"/>
			<path style="fill:#A02724;" d="M397.891,160.745c0,0-2.049,3.291-3.901,4.72c0.901,1.215,2.836,1.09,2.836,1.09L397.891,160.745z
				"/>
			<path style="fill:#263238;" d="M397.928,169.407c-0.087-0.027-0.142-0.116-0.126-0.208c0.018-0.1,0.114-0.166,0.214-0.148
				c2.699,0.495,4.304-1.159,4.32-1.176c0.07-0.074,0.185-0.077,0.26-0.007c0.074,0.07,0.077,0.186,0.007,0.26
				c-0.071,0.074-1.76,1.815-4.653,1.284C397.942,169.411,397.935,169.41,397.928,169.407z"/>
			<path style="fill:#263238;" d="M404.912,158.847c-0.092-0.029-0.172-0.093-0.219-0.186c-0.728-1.447-2.039-1.623-2.094-1.63
				c-0.199-0.023-0.345-0.206-0.321-0.407c0.023-0.201,0.203-0.345,0.404-0.322c0.072,0.008,1.753,0.216,2.666,2.029
				c0.091,0.181,0.018,0.402-0.163,0.493C405.098,158.868,405,158.874,404.912,158.847z"/>
			<path style="fill:#263238;" d="M393.328,156.841c-0.038-0.012-0.074-0.03-0.108-0.055c-0.163-0.12-0.198-0.35-0.078-0.513
				c1.202-1.636,2.896-1.561,2.967-1.557c0.203,0.013,0.357,0.185,0.346,0.387c-0.011,0.202-0.184,0.357-0.386,0.346
				c-0.061-0.003-1.378-0.045-2.336,1.259C393.638,156.837,393.474,156.886,393.328,156.841z"/>
			<path style="fill:#263238;" d="M400.859,148.854c0,0-5.433,0.584-4.558,2.792s9.799-0.917,9.799-0.917L400.859,148.854z"/>
			<path style="fill:#263238;" d="M406.732,149.979c0,0-5.433,0.584-4.558,2.792s9.799-0.917,9.799-0.917L406.732,149.979z"/>
		</g>
		<g>
			<path style="fill:#407BFF;" d="M448.535,404.782c-0.082-0.018-3.593-1.215-41.85-1.215c-5.467,0-10.103-2.123-13.78-6.309
				c-17.338-19.739-2.615-81.79,2.207-118.864c1.267-9.74,2.267-17.434,2.267-20.766c0-2.597-0.89-4.573-2.72-6.043
				c-6.498-5.218-22.875-3.049-28.636-1.774l-1.081-4.881c0.941-0.209,23.167-5.016,32.847,2.757
				c3.045,2.444,4.589,5.789,4.589,9.941c0,3.656-0.969,11.103-2.309,21.411c-4.403,33.857-19.253,96.88-3.409,114.919
				c2.724,3.101,6.003,4.608,10.024,4.608c39.184,0,42.569,1.251,42.955,1.338L448.535,404.782z"/>
		</g>
		<g style="opacity:0.7;">
			<path style="fill:#FFFFFF;" d="M448.535,404.782c-0.082-0.018-3.593-1.215-41.85-1.215c-5.467,0-10.103-2.123-13.78-6.309
				c-17.338-19.739-2.615-81.79,2.207-118.864c1.267-9.74,2.267-17.434,2.267-20.766c0-2.597-0.89-4.573-2.72-6.043
				c-6.498-5.218-22.875-3.049-28.636-1.774l-1.081-4.881c0.941-0.209,23.167-5.016,32.847,2.757
				c3.045,2.444,4.589,5.789,4.589,9.941c0,3.656-0.969,11.103-2.309,21.411c-4.403,33.857-19.253,96.88-3.409,114.919
				c2.724,3.101,6.003,4.608,10.024,4.608c39.184,0,42.569,1.251,42.955,1.338L448.535,404.782z"/>
		</g>
		<g>
			<path style="fill:#407BFF;" d="M305.206,224.316v18.227v9.244v18.227l68.716-10.771c3.288-0.515,5.71-3.348,5.71-6.675v-0.78
				v-9.244v-0.78c0-3.328-2.423-6.16-5.71-6.675L305.206,224.316z"/>
			<path style="opacity:0.4;fill:#FFFFFF;" d="M305.206,224.316v18.227v9.244v18.227l68.716-10.771
				c3.288-0.515,5.71-3.348,5.71-6.675v-0.78v-9.244v-0.78c0-3.328-2.423-6.16-5.71-6.675L305.206,224.316z"/>
			<path style="opacity:0.2;fill:#263238;" d="M373.922,253.34l-68.716,10.771v5.902l68.716-10.771
				c3.287-0.515,5.71-3.348,5.71-6.675v-0.78v-5.122C379.632,249.993,377.209,252.825,373.922,253.34z"/>
			<g>
				<polygon style="fill:#407BFF;" points="303.064,217.522 276.807,217.522 276.807,245.395 340.591,245.395 340.591,231.109 				
					"/>
				<polygon style="opacity:0.6;fill:#FFFFFF;" points="303.064,217.522 276.807,217.522 276.807,245.395 340.591,245.395 
					340.591,231.109 				"/>
				<polygon style="fill:#407BFF;" points="314.334,275.218 276.807,261.631 276.807,217.522 314.334,231.109 				"/>
				<polygon style="opacity:0.4;fill:#FFFFFF;" points="314.334,275.218 276.807,261.631 276.807,217.522 314.334,231.109 				"/>
				<rect x="314.334" y="231.109" style="fill:#407BFF;" width="26.257" height="44.109"/>
				<rect x="314.334" y="231.109" style="opacity:0.2;fill:#FFFFFF;" width="26.257" height="44.109"/>
			</g>
			<polygon style="fill:#263238;" points="302.299,241.694 302.299,232.24 288.841,227.367 288.841,236.821 283.31,234.818 
				283.31,258.497 307.83,267.375 307.83,243.696 			"/>
			<polygon style="opacity:0.1;fill:#FFFFFF;" points="302.299,241.694 302.299,232.24 288.841,227.367 288.841,236.821 
				283.31,234.818 283.31,258.497 307.83,267.375 307.83,243.696 			"/>
			<polygon style="fill:#407BFF;" points="307.83,264.112 307.83,251.406 287.694,251.406 287.694,260.085 298.816,264.112 			"/>
			<polygon style="opacity:0.2;fill:#FFFFFF;" points="307.83,264.112 307.83,251.406 287.694,251.406 287.694,260.085 
				298.816,264.112 			"/>
			<polygon style="fill:#FFFFFF;" points="286.562,230.936 283.31,229.759 283.31,225.365 286.562,226.542 			"/>
			<polygon style="fill:#407BFF;" points="307.83,238.637 304.579,237.459 304.579,233.065 307.83,234.243 			"/>
			<polygon style="fill:#407BFF;" points="307.83,265.788 307.83,257.109 303.447,257.109 303.447,265.788 303.447,265.788 			"/>
			<polygon style="opacity:0.2;" points="307.83,265.788 307.83,257.109 303.447,257.109 303.447,265.788 303.447,265.788 			"/>
			<polygon style="fill:#407BFF;" points="287.694,260.085 303.447,265.788 303.447,257.109 287.694,251.406 			"/>
		</g>
		<g>
			<path style="fill:#B55B52;" d="M415.071,194.372c-0.895,2.128-1.877,4.467-2.915,6.649c-1.025,2.215-8.772,20.449-9.422,21.166
				c-0.645,0.711-25.25,11.268-31.064,13.871l0.489,3.051c0.199,1.237,0.293,1.627,1.544,1.549
				c4.443-0.277,27.709-6.762,29.061-7.105c0.677-0.171,3.521-1.062,4.469-1.524c5.538-1.959,11.571-18.845,12.72-21.257
				c0.566-1.21,3.073-7.594,3.601-8.82c0.54-1.24,1.016-2.425,1.514-3.783L415.071,194.372z"/>
			<path style="fill:#B55B52;" d="M372.138,236.129l-7.151,1.879c-2.349,0.458-3.61,3.141-2.743,5.838l0,0
				c1.153,3.589,5.18,4.887,7.24,2.335c0.874-1.082,3.314-4.02,3.953-5.26c0.217-0.42,0.191-0.924-0.038-1.338L372.138,236.129z"/>
			<path style="fill:#263238;" d="M422.389,186.883c10.843,3.961-2.548,32.35-2.548,32.35l-15.373-5.645
				c0,0,3.335-6.515,6.277-15.342C413.554,189.812,415.504,184.368,422.389,186.883z"/>
		</g>
	</g>
</g>
<g id="Character_1">
	<g>
		<g>
			<path style="fill:#B55B52;" d="M141.611,244.676c0,0-3.681,54.57-5.589,79.918c-2.004,26.62-0.238,63.578,2.111,80.701
				c-1.407,0.97-5.793,0.79-8.766,0.107c0,0-17.315-46.703-12.046-76.819c-4.153-19.198-2.68-33.996-4.304-44.987
				c-3.357-22.714,4.126-33.073,4.126-33.073L141.611,244.676z"/>
			<path style="fill:#B55B52;" d="M146.544,244.154c0,0,19.106,49.426,27.27,73.499c8.574,25.281,22.899,56.424,31.761,71.262
				c-0.915,1.444-4.943,3.385-7.945,3.921c0,0-32.721-36.138-38.545-64.585c-35.556-50.32-33.77-79.141-33.77-79.141
				L146.544,244.154z"/>
			<path style="opacity:0.2;" d="M166.925,298.246c-4.551,1.381-13.484,3.893-23.282,5.587c-5.567-10.01-9.462-18.767-12.165-26.161
				l25.332-6.61C160.061,279.673,163.657,289.293,166.925,298.246z"/>
			<path style="opacity:0.2;" d="M139.501,275.578c-0.647,9.379-1.365,19.706-2.039,29.186c-8.311,1.054-16.708,1.258-23.177-0.504
				c-0.413-8.001-0.413-14.868-1.27-20.664c-0.054-0.362-0.097-0.713-0.145-1.069L139.501,275.578z"/>
			<path style="fill:#B55B52;" d="M128.839,204.591c2.095,4.384,4.331,8.503,6.824,12.636c2.55,4.108,5.134,8.124,8.771,12.099
				c0.954,0.994,1.951,1.992,3.378,3.016c0.36,0.257,0.735,0.509,1.182,0.747c0.446,0.26,0.8,0.397,1.205,0.59
				c0.746,0.309,1.46,0.563,2.139,0.751c2.706,0.756,5.148,1.099,7.604,1.336c4.887,0.455,9.611,0.441,14.429,0.058
				c1.531-0.122,2.673-1.461,2.551-2.992c-0.099-1.241-0.997-2.226-2.149-2.49l-0.076-0.017c-4.448-1.015-8.977-2.003-13.245-3.13
				c-2.114-0.58-4.233-1.193-5.927-1.935c-0.421-0.186-0.783-0.371-1.095-0.541c-0.106-0.082-0.291-0.171-0.332-0.229
				c-0.061-0.046-0.157-0.134-0.261-0.227c-0.429-0.374-1.057-1.056-1.645-1.794c-1.207-1.497-2.427-3.294-3.574-5.135
				c-1.154-1.854-2.296-3.764-3.384-5.725c-2.203-3.883-4.362-7.955-6.397-11.892l-0.04-0.077c-1.41-2.728-4.765-3.796-7.493-2.386
				C128.628,198.635,127.553,201.893,128.839,204.591z"/>
			<path style="fill:#407BFF;" d="M129.026,196.022c0,0,10.379-4.552,17.881,15.75c0,0-2.499,5.133-11.249,6.593
				C135.658,218.365,129.02,206.095,129.026,196.022z"/>
			<path style="opacity:0.2;" d="M129.026,196.022c0,0,10.379-4.552,17.881,15.75c0,0-2.499,5.133-11.249,6.593
				C135.658,218.365,129.02,206.095,129.026,196.022z"/>
			<path style="fill:#407BFF;" d="M135.825,219.949c0,0,7.417-0.583,12.667-7.667l-0.868-1.773l-2.369-1.579
				c0,0-2.68,4.801-12.013,6.91L135.825,219.949z"/>
			<path style="opacity:0.7;fill:#FFFFFF;" d="M135.825,219.949c0,0,7.417-0.583,12.667-7.667l-0.868-1.773l-2.369-1.579
				c0,0-2.68,4.801-12.013,6.91L135.825,219.949z"/>
			<path style="fill:#263238;" d="M146.621,413.28c-6.291,0.489-7.13,0.456-10.673,0.612c-3.035,0.127-3.73,0.562-6.166,0.696
				c-2.036,0.115-2.111-1.837-1.658-4.123c0.226-1.148,0.525-3.562,0.816-5.411l9.164-1.385c1.489,2.375,4.69,5.678,8.272,5.879
				C149.794,409.738,149.129,413.085,146.621,413.28z"/>
			<path style="fill:#263238;" d="M217.057,393.495c-5.598,2.912-6.382,3.21-9.582,4.741c-2.743,1.305-3.212,1.977-5.402,3.054
				c-1.829,0.902-2.661-0.864-3.139-3.146c-0.241-1.145-0.911-3.483-1.367-5.298l7.891-4.861c2.3,1.602,6.538,3.39,9.913,2.172
				C218.591,388.994,219.288,392.334,217.057,393.495z"/>
			<path style="fill:#407BFF;" d="M147.492,243.699l19.333,49.75c0,0-26.851,10.833-54.676,7.833c0,0,1.337-8.167,0-14.667
				c-1.337-6.5-3.116-20.667,3.509-36.042l0.791-1.375l29.583-6.75L147.492,243.699z"/>
			<g style="opacity:0.5;">
				<path d="M144.059,299.702l-1.234-26.253l4.919,25.521C146.554,299.223,145.325,299.468,144.059,299.702z"/>
				<path d="M135.825,291.615l0.434,9.289c-1.173,0.145-2.362,0.279-3.571,0.393L135.825,291.615z"/>
				<path d="M154.925,297.248l-5.1-23.8l8.669,22.797C157.395,296.571,156.201,296.908,154.925,297.248z"/>
				<path d="M124.88,284.949l0.238,16.817c-1.304,0.036-2.622,0.042-3.946,0.028L124.88,284.949z"/>
			</g>
			<path style="fill:#B55B52;" d="M184.228,230.168l-2.21-1.255c-0.831-0.472-1.839-0.513-2.706-0.111l-4.05,1.882
				c-1.619,0.752-2.774,2.242-3.099,3.998l-0.201,1.087c3.523,2.332,9.048,2.257,9.048,2.257l1.577,0.153
				c1.405,0.136,2.603-0.804,2.753-2.16l0.344-3.122C185.803,231.819,185.224,230.733,184.228,230.168z"/>
			<path style="fill:#263238;" d="M146.469,245.686l-29.656,5.917c-1.268,0.253-2.487-0.632-2.616-1.918
				c-0.463-4.597-3.011-16.746-15.304-44.864c0,0,9.271-9.096,28.414-8.941c4.33,0.035,8.315,2.417,10.348,6.241
				c3.186,5.992,7.391,17.859,10.564,41.113C148.375,244.382,147.606,245.459,146.469,245.686z"/>
			<path style="fill:#B55B52;" d="M123.251,195.993c1.108,0.948,3.418,3.602,1.631,8.247c0,0-9.038-4.368-15.665-5.346
				C112.894,197.516,117.565,196.348,123.251,195.993z"/>
			<path style="fill:#263238;" d="M98.676,164.949c0,0,0.302-17.035-4.08-19c-4.089-1.833-3.089,4.833-3.089,4.833
				s-5.153-9.824-10.167-8.667c-4.333,1,2,7.5,2,7.5s-9-4-10.833-1.167c-1.833,2.833,3.333,6.167,3.333,6.167s-8,0.381-7.667,3.774
				c0.333,3.393,8.667,3.613,8.667,3.613s-7.052,1.389-6.167,5.427c0.833,3.798,10.333,2.05,10.333,2.05s-6.371,1.527-5.167,4.902
				c1.5,4.203,10.5,0.37,10.5,0.37s-4.663,2.8-2.904,5.197c3.071,4.184,13.533-8.345,13.533-8.345L98.676,164.949z"/>
			<path style="fill:#407BFF;" d="M102.757,163.282c0,0-5.787-2-7.75,4.146c-2.246,7.036,5.448,8.557,5.448,8.557L102.757,163.282z"
				/>
			<path style="fill:#B55B52;" d="M106.479,184.131c2.302,4.225,5.78,12.144,3.565,15.86c0,0,4.125-1.665,14.553,1.783
				c1.729-4.402-0.512-5.137-0.512-5.137c-5.415,0.022-6.456-3.68-6.679-7.337L106.479,184.131z"/>
			<path style="opacity:0.2;" d="M110.934,186.24l6.466,3.056c0.05,0.866,0.15,1.733,0.348,2.551
				c-2.012,0.187-5.318-1.257-6.153-3.187C111.177,187.698,110.917,186.739,110.934,186.24z"/>
			<path style="fill:#B55B52;" d="M100.455,175.986c3.114,6.967,4.282,9.973,9.28,12.477c7.519,3.767,15.455-1.073,14.5-8.706
				c-0.859-6.87-5.807-17.109-13.899-17.721C102.364,161.432,97.341,169.019,100.455,175.986z"/>
			<path style="fill:#263238;" d="M111.843,174.93c0.236,0.596,0.742,0.979,1.13,0.855c0.388-0.124,0.512-0.707,0.276-1.303
				c-0.236-0.596-0.742-0.979-1.13-0.855C111.73,173.751,111.607,174.334,111.843,174.93z"/>
			<path style="fill:#263238;" d="M119.328,172.292c0.236,0.596,0.742,0.979,1.13,0.855c0.388-0.124,0.511-0.707,0.275-1.303
				c-0.236-0.596-0.742-0.979-1.13-0.855C119.216,171.113,119.092,171.696,119.328,172.292z"/>
			<path style="fill:#263238;" d="M119.446,171.077l1.263-0.867C120.709,170.21,120.42,171.561,119.446,171.077z"/>
			<path style="fill:#A02724;" d="M116.827,174.114c0,0,2.024,2.245,3.624,3.13c-0.493,0.984-1.959,1.073-1.959,1.073
				L116.827,174.114z"/>
			<path style="fill:#263238;" d="M118.042,182.452c0.33-0.043,0.674-0.118,1.03-0.231c0.096-0.031,0.143-0.134,0.105-0.231
				c-0.038-0.096-0.145-0.15-0.244-0.119c-2.604,0.831-4.547-0.61-4.567-0.624c-0.085-0.065-0.202-0.053-0.262,0.025
				c-0.06,0.078-0.04,0.194,0.045,0.258C114.225,181.587,115.789,182.748,118.042,182.452z"/>
			<path style="fill:#263238;" d="M107.466,171.595c0.095-0.021,0.179-0.08,0.228-0.169c0.758-1.404,2.128-1.47,2.144-1.47
				c0.203-0.009,0.355-0.178,0.332-0.381c-0.022-0.203-0.207-0.361-0.414-0.353c-0.072,0.003-1.792,0.084-2.732,1.827
				c-0.094,0.174-0.02,0.399,0.165,0.504C107.278,171.602,107.377,171.615,107.466,171.595z"/>
			<path style="fill:#263238;" d="M119.092,167.427c0.092-0.008,0.179-0.05,0.239-0.124c0.125-0.153,0.091-0.385-0.074-0.518
				c-1.658-1.335-3.294-0.892-3.363-0.872c-0.195,0.055-0.296,0.258-0.225,0.453c0.07,0.195,0.285,0.308,0.48,0.254
				c0.064-0.018,1.339-0.343,2.657,0.718C118.891,167.407,118.994,167.436,119.092,167.427z"/>
			<path style="fill:#263238;" d="M111.96,173.715l1.263-0.867C113.223,172.848,112.934,174.199,111.96,173.715z"/>
			<path style="fill:#263238;" d="M104.574,181.921c0,0,3.932-1.361-1.817-11.667c0,0,4.675,0.718,3.13-3.627
				c0,0,5.451,2.654,4.286-2.179c0,0,4.169,2.335,4.168-1.249c0,0,3.646,0.416,3.323-2.751c-0.323-3.167-17.719-4.167-19.771,8.167
				C97.892,168.615,93.307,175.394,104.574,181.921z"/>
			<path style="fill:#B55B52;" d="M100.28,182.59c1.353,1.185,3.049,1.64,4.423,1.525c2.067-0.172,2.232-2.328,0.932-4.014
				c-1.171-1.517-3.657-3.256-5.382-2.249C98.553,178.845,98.733,181.235,100.28,182.59z"/>
			<path style="fill:#407BFF;" d="M121.491,195.877c0,0,4.21,1.592,3.064,7.769c0,0-1.952-3.681-16.017-5.365l-3.963,2.688
				c0,0,7.998,5.236,13.916,6.795c0,0-0.832-2.627,1.793-4.972c0,0,3.228,0.905,4.864,3.155c0,0,1.262-1.506,1.015-5.382
				c0,0,2.496,0.382,3.496,4.132c0,0,1.535-2.514-2.358-8.819L121.491,195.877z"/>
			<path style="opacity:0.7;fill:#FFFFFF;" d="M121.491,195.877c0,0,4.21,1.592,3.064,7.769c0,0-1.952-3.681-16.017-5.365
				l-3.963,2.688c0,0,7.998,5.236,13.916,6.795c0,0-0.832-2.627,1.793-4.972c0,0,3.228,0.905,4.864,3.155
				c0,0,1.262-1.506,1.015-5.382c0,0,2.496,0.382,3.496,4.132c0,0,1.535-2.514-2.358-8.819L121.491,195.877z"/>
		</g>
		<g>
			<g>
				<path style="fill:#407BFF;" d="M47.75,404.201c0.082-0.018,9.723-2.02,47.979-2.02c5.467,0,22.045-2.123,25.722-6.309
					c17.338-19.739,9.268-81.79,4.447-118.864c-1.267-9.74-2.268-17.434-2.268-20.766c0-2.597,0.89-4.573,2.72-6.043
					c6.498-5.218,22.875-3.049,28.636-1.774l1.081-4.881c-0.941-0.209-23.167-5.016-32.847,2.757
					c-3.045,2.444-4.589,5.789-4.589,9.941c0,3.656,0.969,11.104,2.309,21.411c4.403,33.858,12.6,96.88-3.245,114.919
					c-2.724,3.101-17.945,4.608-21.966,4.608c-39.184,0-48.699,2.056-49.084,2.143L47.75,404.201z"/>
			</g>
			<g style="opacity:0.7;">
				<path style="fill:#FFFFFF;" d="M47.75,404.201c0.082-0.018,9.723-2.02,47.979-2.02c5.467,0,22.045-2.123,25.722-6.309
					c17.338-19.739,9.268-81.79,4.447-118.864c-1.267-9.74-2.268-17.434-2.268-20.766c0-2.597,0.89-4.573,2.72-6.043
					c6.498-5.218,22.875-3.049,28.636-1.774l1.081-4.881c-0.941-0.209-23.167-5.016-32.847,2.757
					c-3.045,2.444-4.589,5.789-4.589,9.941c0,3.656,0.969,11.104,2.309,21.411c4.403,33.858,12.6,96.88-3.245,114.919
					c-2.724,3.101-17.945,4.608-21.966,4.608c-39.184,0-48.699,2.056-49.084,2.143L47.75,404.201z"/>
			</g>
		</g>
		<g>
			<path style="fill:#407BFF;" d="M181.69,228.385v12.537v6.359v12.537l-47.266-7.409c-2.261-0.354-3.928-2.303-3.928-4.591v-0.537
				v-6.359v-0.537c0-2.289,1.667-4.237,3.928-4.591L181.69,228.385z"/>
			<path style="opacity:0.4;fill:#FFFFFF;" d="M181.69,228.385v12.537v6.359v12.537l-47.266-7.409
				c-2.261-0.354-3.928-2.303-3.928-4.591v-0.537v-6.359v-0.537c0-2.289,1.667-4.237,3.928-4.591L181.69,228.385z"/>
			<path style="opacity:0.2;fill:#263238;" d="M134.424,248.349l47.266,7.409v4.06l-47.266-7.409
				c-2.261-0.354-3.928-2.303-3.928-4.591v-0.537v-3.523C130.497,246.046,132.163,247.995,134.424,248.349z"/>
			<polygon style="fill:#407BFF;" points="183.685,225.711 209.717,225.711 209.717,242.393 161.225,242.393 161.225,233.843 			"/>
			<polygon style="opacity:0.6;fill:#FFFFFF;" points="183.685,225.711 209.717,225.711 209.717,242.393 161.225,242.393 
				161.225,233.843 			"/>
			<polygon style="fill:#407BFF;" points="187.257,260.242 209.717,252.11 209.717,225.711 187.257,233.843 			"/>
			<polygon style="opacity:0.4;fill:#FFFFFF;" points="187.257,260.242 209.717,252.11 209.717,225.711 187.257,233.843 			"/>
			
				<rect x="161.225" y="233.843" transform="matrix(-1 -1.224647e-16 1.224647e-16 -1 348.4819 494.0851)" style="fill:#407BFF;" width="26.033" height="26.4"/>
			
				<rect x="161.225" y="233.843" transform="matrix(-1 -1.224647e-16 1.224647e-16 -1 348.4819 494.0851)" style="opacity:0.2;fill:#FFFFFF;" width="26.033" height="26.4"/>
			<path style="fill:#407BFF;" d="M204.744,227.523c-0.781-3.119-3.133-5.386-5.914-5.386h-4.718c-3.419,0-6.191,3.425-6.191,7.649
				c0,0.705,0.083,1.384,0.228,2.032h4.732L204.744,227.523z"/>
			<path style="opacity:0.6;fill:#FFFFFF;" d="M204.744,227.523c-0.781-3.119-3.133-5.386-5.914-5.386h-4.718
				c-3.419,0-6.191,3.425-6.191,7.649c0,0.705,0.083,1.384,0.228,2.032h4.732L204.744,227.523z"/>
			<path style="fill:#407BFF;" d="M192.88,231.819l11.864-4.296c-0.781-3.119-3.133-5.386-5.914-5.386
				c-3.419,0-6.191,3.425-6.191,7.649c0,0.705,0.083,1.384,0.228,2.032H192.88z"/>
			<path style="opacity:0.4;fill:#FFFFFF;" d="M192.88,231.819l11.864-4.296c-0.781-3.119-3.133-5.386-5.914-5.386
				c-3.419,0-6.191,3.425-6.191,7.649c0,0.705,0.083,1.384,0.228,2.032H192.88z"/>
			<path style="fill:#263238;" d="M202.715,231.172v-3.144c-0.519-2.074-2.083-3.58-3.932-3.58c-2.273,0-4.115,2.277-4.115,5.085
				v4.552l-4.66,1.687v20.547l16.957-6.139v-20.547L202.715,231.172z"/>
			<polygon style="fill:#263238;" points="190.009,237.049 224.835,237.049 224.835,246.153 190.009,246.153 190.009,241.487 			"/>
			<polygon style="opacity:0.8;fill:#FFFFFF;" points="190.009,237.049 224.835,237.049 224.835,246.153 190.009,246.153 
				190.009,241.487 			"/>
			<polygon style="fill:#263238;" points="212.578,255.894 224.835,251.456 224.835,237.049 212.578,241.487 			"/>
			
				<rect x="190.009" y="241.487" transform="matrix(-1 -1.224647e-16 1.224647e-16 -1 402.5869 497.3816)" style="fill:#263238;" width="22.569" height="14.407"/>
			
				<rect x="190.009" y="241.487" transform="matrix(-1 -1.224647e-16 1.224647e-16 -1 402.5869 497.3816)" style="opacity:0.4;fill:#FFFFFF;" width="22.569" height="14.407"/>
			<polygon style="opacity:0.6;fill:#FFFFFF;" points="212.578,255.894 224.835,251.456 224.835,237.049 212.578,241.487 			"/>
			<polygon style="fill:#407BFF;" points="214.52,255.191 222.893,252.159 222.893,248.103 214.52,251.135 			"/>
			<path style="fill:#263238;" d="M195.464,226.538c-0.498,0.841-0.795,1.874-0.795,2.996v2.553l17.594,5.709l6.487-1.702v-2.001
				L195.464,226.538z"/>
			<path style="opacity:0.8;fill:#FFFFFF;" d="M195.464,226.538c-0.498,0.841-0.795,1.874-0.795,2.996v2.553l17.594,5.709
				l6.487-1.702v-2.001L195.464,226.538z"/>
			<g>
				<polygon style="fill:#263238;" points="218.75,234.094 211.7,236.647 211.7,240.005 218.75,237.452 				"/>
				<polygon style="opacity:0.6;fill:#FFFFFF;" points="218.75,234.094 211.7,236.647 211.7,240.005 218.75,237.452 				"/>
			</g>
			<polygon style="fill:#263238;" points="194.668,231.122 194.668,234.085 194.094,234.294 211.7,240.005 211.7,236.647 			"/>
			<polygon style="opacity:0.4;fill:#FFFFFF;" points="194.668,231.122 194.668,234.085 194.094,234.294 211.7,240.005 
				211.7,236.647 			"/>
		</g>
		<g>
			<path style="fill:#B55B52;" d="M136.22,235.314l-1.978-1.595c-0.744-0.6-1.732-0.803-2.652-0.546l-4.301,1.203
				c-1.719,0.481-3.099,1.765-3.703,3.446l-0.374,1.04c3.1,2.87,8.565,3.687,8.565,3.687l1.532,0.406
				c1.364,0.361,2.699-0.373,3.065-1.687l0.843-3.025C137.508,237.198,137.111,236.033,136.22,235.314z"/>
			<g>
				<path style="fill:#B55B52;" d="M95.295,213.761c-1.047,4.498-1.717,8.788-1.883,13.501c-0.073,2.364-0.036,4.744,0.502,7.577
					c0.153,0.716,0.347,1.464,0.653,2.291c0.321,0.831,0.714,1.736,1.48,2.753c0.847,1.114,1.778,1.804,2.617,2.308
					c0.849,0.502,1.636,0.825,2.377,1.075c1.486,0.481,2.802,0.687,4.067,0.829c1.263,0.133,2.465,0.189,3.645,0.183
					c2.353-0.026,4.604-0.185,6.82-0.476c4.437-0.568,8.674-1.446,12.939-2.712c1.468-0.436,2.305-1.98,1.869-3.448
					c-0.363-1.222-1.493-2.007-2.709-1.984l-0.088,0.002c-4.127,0.079-8.35,0.145-12.403,0.008
					c-2.028-0.091-4.033-0.187-5.924-0.445c-0.942-0.127-1.859-0.262-2.696-0.456c-0.832-0.188-1.604-0.431-2.114-0.687
					c-0.517-0.204-0.713-0.575-0.227-0.113c0.229,0.288,0.006-0.245-0.018-0.9c-0.153-1.368-0.042-3.269,0.126-5.141
					c0.188-1.895,0.459-3.861,0.784-5.833c0.277-1.958,0.698-4.016,1.03-5.873l0.04-0.223c0.541-3.022-1.471-5.91-4.493-6.451
					C98.766,209.027,95.966,210.905,95.295,213.761z"/>
				<path style="fill:#407BFF;" d="M106.465,224.426c0,0-7.844,0.087-13.725-3.534c0,0-0.207-12.961,7.337-17.17
					C107.62,199.512,106.465,224.426,106.465,224.426z"/>
				<path style="opacity:0.2;" d="M106.465,224.426c0,0-7.844,0.087-13.725-3.534c0,0-0.207-12.961,7.337-17.17
					C107.62,199.512,106.465,224.426,106.465,224.426z"/>
				<path style="fill:#407BFF;" d="M95.763,219.697l1.13,3.498l1.302-2.926c2.44,0.495,5.587,0.916,9.575,1.053l0.014,4.562
					c0,0-8.185,0.483-16.415-3.926l0.047-3.9C91.416,218.057,92.746,218.875,95.763,219.697z"/>
				<path style="opacity:0.7;fill:#FFFFFF;" d="M95.763,219.697l1.13,3.498l1.302-2.926c2.44,0.495,5.587,0.916,9.575,1.053
					l0.014,4.562c0,0-8.185,0.483-16.415-3.926l0.047-3.9C91.416,218.057,92.746,218.875,95.763,219.697z"/>
			</g>
		</g>
	</g>
</g>
</svg>
