<?xml version="1.0" encoding="utf-8"?>
<!-- Generator: Adobe Illustrator 27.5.0, SVG Export Plug-In . SVG Version: 6.00 Build 0)  -->
<svg version="1.1" id="Capa_1" xmlns="http://www.w3.org/2000/svg" xmlns:xlink="http://www.w3.org/1999/xlink" x="0px" y="0px"
	 viewBox="0 0 425.2 425.2" style="enable-background:new 0 0 425.2 425.2;" xml:space="preserve">
<g>
	<rect x="0.002" y="0.002" style="fill:#FFFFFF;" width="425.197" height="425.196"/>
	<g>
		
			<ellipse transform="matrix(0.025 -0.9997 0.9997 0.025 -46.6877 418.6254)" style="fill:#B1E0E5;" cx="191.264" cy="233.247" rx="139.265" ry="139.264"/>
		
			<ellipse transform="matrix(0.7071 -0.7071 0.7071 0.7071 -16.7433 245.2032)" style="fill:#B1E0E5;" cx="287.615" cy="142.812" rx="85.586" ry="85.586"/>
	</g>
</g>
<g>
	<g>
		<g>
			<g>
				<path style="fill:#FFFFFF;" d="M83.676,285.689c0.009,0,0.017,0,0.026,0c3.615-0.026,7.391-1.951,10.621-3.385
					c21.065-10.534,14.747-46.343-10.531-36.338c-25.278-10.005-31.597,25.804-10.533,36.338
					C76.393,283.871,80.09,285.707,83.676,285.689z"/>
				<g>
					<path style="fill:#172B35;" d="M83.676,286.427c5.067,0,10.981-2.924,14.948-5.971c3.027-2.325,5.366-5.425,6.947-8.884
						c2.87-6.282,3-13.952-0.216-20.122c-3.305-6.342-10.048-8.768-16.856-7.625c-1.09,0.183-2.157,0.487-3.209,0.818
						c-1.438,0.452-2.134,0.271-3.547-0.173c-2.032-0.639-4.165-0.963-6.292-0.986c-3.24-0.036-6.547,0.999-9.097,3.015
						c-6.337,5.008-7.586,14.014-5.646,21.441c1.105,4.232,3.453,8.084,6.596,11.107C71.428,283.014,77.96,286.234,83.676,286.427
						c0.952,0.032,0.949-1.443,0-1.476c-5.696-0.192-12.023-3.609-16.028-7.635c-2.896-2.911-4.783-6.686-5.739-10.65
						c-1.676-6.95,0.007-15.553,6.304-19.684c3.415-2.241,7.647-2.365,11.523-1.521c1.12,0.244,2.212,0.607,3.289,0.996
						c1.039,0.376,1.618-0.041,2.657-0.393c2.229-0.753,4.563-1.138,6.915-1.1c7.974,0.132,12.83,7.056,13.575,14.413
						c0.521,5.155-0.881,10.389-3.661,14.728c-1.61,2.513-3.809,4.611-6.284,6.258c-3.455,2.301-8.356,4.586-12.551,4.586
						C82.725,284.952,82.725,286.427,83.676,286.427z"/>
				</g>
			</g>
			
				<path style="fill:none;stroke:#172B35;stroke-width:1.4752;stroke-linecap:round;stroke-linejoin:round;stroke-miterlimit:10;" d="
				M76.091,247.246c-11.99,1.109-14.548,16.698-8.111,24.866c1.993,2.529,5.197,5.509,8.111,6.908"/>
			
				<path style="fill:#FFFFFF;stroke:#172B35;stroke-width:1.4752;stroke-linecap:round;stroke-linejoin:round;stroke-miterlimit:10;" d="
				M83.791,245.966c0,0-1.205-9.078,3.184-14.871l2.457,1.229C89.433,232.324,86.575,232.574,83.791,245.966z"/>
			<g>
				
					<path style="fill:#FFFFFF;stroke:#172B35;stroke-width:1.4752;stroke-linecap:round;stroke-linejoin:round;stroke-miterlimit:10;" d="
					M72.117,229.145c0,0-3.98,14.46,11.317,15.429C83.434,244.574,87.935,230.823,72.117,229.145z"/>
				
					<line style="fill:none;stroke:#172B35;stroke-width:1.4752;stroke-linecap:round;stroke-linejoin:round;stroke-miterlimit:10;" x1="74.78" y1="232.775" x2="83.434" y2="244.574"/>
				<g>
					
						<line style="fill:none;stroke:#172B35;stroke-width:1.4752;stroke-linecap:round;stroke-linejoin:round;stroke-miterlimit:10;" x1="74.005" y1="235.516" x2="76.708" y2="235.357"/>
					
						<line style="fill:none;stroke:#172B35;stroke-width:1.4752;stroke-linecap:round;stroke-linejoin:round;stroke-miterlimit:10;" x1="75.085" y1="237.635" x2="78.317" y2="237.551"/>
					
						<line style="fill:none;stroke:#172B35;stroke-width:1.4752;stroke-linecap:round;stroke-linejoin:round;stroke-miterlimit:10;" x1="76.658" y1="239.78" x2="79.89" y2="239.697"/>
					
						<line style="fill:none;stroke:#172B35;stroke-width:1.4752;stroke-linecap:round;stroke-linejoin:round;stroke-miterlimit:10;" x1="78.151" y1="241.813" x2="81.382" y2="241.729"/>
				</g>
				<g>
					
						<line style="fill:none;stroke:#172B35;stroke-width:1.4752;stroke-linecap:round;stroke-linejoin:round;stroke-miterlimit:10;" x1="77.849" y1="232.697" x2="76.885" y2="235.227"/>
					
						<line style="fill:none;stroke:#172B35;stroke-width:1.4752;stroke-linecap:round;stroke-linejoin:round;stroke-miterlimit:10;" x1="79.545" y1="234.364" x2="78.494" y2="237.422"/>
					
						<line style="fill:none;stroke:#172B35;stroke-width:1.4752;stroke-linecap:round;stroke-linejoin:round;stroke-miterlimit:10;" x1="81.119" y1="236.51" x2="80.067" y2="239.567"/>
					
						<line style="fill:none;stroke:#172B35;stroke-width:1.4752;stroke-linecap:round;stroke-linejoin:round;stroke-miterlimit:10;" x1="82.61" y1="238.542" x2="81.559" y2="241.6"/>
				</g>
			</g>
		</g>
		<g>
			<g>
				
					<path style="fill:none;stroke:#172B35;stroke-width:2.3388;stroke-linecap:round;stroke-miterlimit:10;stroke-dasharray:4.7387,4.7387;" d="
					M40.037,257.417c0-24.165,19.589-43.754,43.754-43.754c24.165,0,43.754,19.589,43.754,43.754
					c0,24.164-19.589,43.754-43.754,43.754C59.625,301.171,40.037,281.582,40.037,257.417z"/>
			</g>
		</g>
	</g>
	<g>
		<g>
			<g>
				
					<rect x="300.351" y="254.745" style="fill:#FFFFFF;stroke:#172B35;stroke-width:1.6964;stroke-linecap:round;stroke-miterlimit:10;" width="81.296" height="5.348"/>
			</g>
			<g>
				<g>
					<path style="fill:#FFFFFF;stroke:#172B35;stroke-width:1.628;stroke-linecap:round;stroke-miterlimit:10;" d="M312.295,266.113
						c0,0.755-0.612,1.369-1.368,1.369h-6.438c-0.755,0-1.369-0.614-1.369-1.369v-17.389c0-0.758,0.614-1.369,1.369-1.369h6.438
						c0.755,0,1.368,0.611,1.368,1.369V266.113z"/>
				</g>
			</g>
			<g>
				<g>
					<path style="fill:#FFFFFF;stroke:#172B35;stroke-width:1.628;stroke-linecap:round;stroke-miterlimit:10;" d="M328.522,269.924
						c0,1.087-0.882,1.97-1.969,1.97h-9.259c-1.087,0-1.968-0.883-1.968-1.97v-25.013c0-1.089,0.881-1.97,1.968-1.97h9.259
						c1.087,0,1.969,0.881,1.969,1.97V269.924z"/>
				</g>
			</g>
			<g>
				<g>
					<path style="fill:#FFFFFF;stroke:#172B35;stroke-width:1.628;stroke-linecap:round;stroke-miterlimit:10;" d="M369.487,266.113
						c0,0.755,0.611,1.369,1.368,1.369h6.438c0.755,0,1.369-0.614,1.369-1.369v-17.389c0-0.758-0.614-1.369-1.369-1.369h-6.438
						c-0.757,0-1.368,0.611-1.368,1.369V266.113z"/>
				</g>
			</g>
			<g>
				<g>
					<path style="fill:#FFFFFF;stroke:#172B35;stroke-width:1.628;stroke-linecap:round;stroke-miterlimit:10;" d="M352.516,269.924
						c0,1.087,0.881,1.97,1.97,1.97h9.259c1.086,0,1.969-0.883,1.969-1.97v-25.013c0-1.089-0.883-1.97-1.969-1.97h-9.259
						c-1.089,0-1.97,0.881-1.97,1.97V269.924z"/>
				</g>
			</g>
			<polyline style="fill:#FFFFFF;stroke:#172B35;stroke-width:1.628;stroke-linecap:round;stroke-miterlimit:10;" points="
				324.046,247.684 326.293,247.684 326.293,267.151 			"/>
			<polyline style="fill:#FFFFFF;stroke:#172B35;stroke-width:1.628;stroke-linecap:round;stroke-miterlimit:10;" points="
				360.774,247.684 363.023,247.684 363.023,267.151 			"/>
			<polyline style="fill:#FFFFFF;stroke:#172B35;stroke-width:1.628;stroke-linecap:round;stroke-miterlimit:10;" points="
				307.374,250.753 309.621,250.753 309.621,264.082 			"/>
			<polyline style="fill:#FFFFFF;stroke:#172B35;stroke-width:1.628;stroke-linecap:round;stroke-miterlimit:10;" points="
				374.074,250.753 376.321,250.753 376.321,264.082 			"/>
		</g>
		<g>
			<g>
				
					<path style="fill:none;stroke:#172B35;stroke-width:2.3388;stroke-linecap:round;stroke-miterlimit:10;stroke-dasharray:4.7387,4.7387;" d="
					M297.245,257.417c0-24.165,19.589-43.754,43.754-43.754c24.165,0,43.754,19.589,43.754,43.754
					c0,24.164-19.589,43.754-43.754,43.754C316.834,301.171,297.245,281.582,297.245,257.417z"/>
			</g>
		</g>
	</g>
	<g>
		<g>
			
				<line style="fill:none;stroke:#172B35;stroke-width:2;stroke-linecap:round;stroke-miterlimit:10;" x1="337.02" y1="188.876" x2="337.02" y2="177.52"/>
			
				<line style="fill:none;stroke:#172B35;stroke-width:2;stroke-linecap:round;stroke-miterlimit:10;" x1="331.34" y1="183.199" x2="342.698" y2="183.199"/>
		</g>
		<g>
			
				<line style="fill:none;stroke:#172B35;stroke-width:2;stroke-linecap:round;stroke-miterlimit:10;" x1="391.761" y1="308.95" x2="391.761" y2="297.592"/>
			
				<line style="fill:none;stroke:#172B35;stroke-width:2;stroke-linecap:round;stroke-miterlimit:10;" x1="386.082" y1="303.272" x2="397.439" y2="303.272"/>
		</g>
		<g>
			
				<line style="fill:none;stroke:#172B35;stroke-width:2;stroke-linecap:round;stroke-miterlimit:10;" x1="319.164" y1="390.527" x2="319.164" y2="379.17"/>
			
				<line style="fill:none;stroke:#172B35;stroke-width:2;stroke-linecap:round;stroke-miterlimit:10;" x1="313.484" y1="384.849" x2="324.841" y2="384.849"/>
		</g>
		<g>
			
				<line style="fill:none;stroke:#172B35;stroke-width:2;stroke-linecap:round;stroke-miterlimit:10;" x1="390.953" y1="188.876" x2="390.953" y2="177.52"/>
			
				<line style="fill:none;stroke:#172B35;stroke-width:2;stroke-linecap:round;stroke-miterlimit:10;" x1="385.275" y1="183.198" x2="396.632" y2="183.198"/>
		</g>
		<g>
			
				<line style="fill:none;stroke:#172B35;stroke-width:2;stroke-linecap:round;stroke-miterlimit:10;" x1="186.203" y1="83.387" x2="186.203" y2="72.03"/>
			
				<line style="fill:none;stroke:#172B35;stroke-width:2;stroke-linecap:round;stroke-miterlimit:10;" x1="180.525" y1="77.709" x2="191.882" y2="77.709"/>
		</g>
		<g>
			
				<line style="fill:none;stroke:#172B35;stroke-width:2;stroke-linecap:round;stroke-miterlimit:10;" x1="22.861" y1="219.459" x2="22.861" y2="208.103"/>
			
				<line style="fill:none;stroke:#172B35;stroke-width:2;stroke-linecap:round;stroke-miterlimit:10;" x1="17.183" y1="213.782" x2="28.541" y2="213.782"/>
		</g>
		<g>
			
				<line style="fill:none;stroke:#172B35;stroke-width:2;stroke-linecap:round;stroke-miterlimit:10;" x1="267.259" y1="59.621" x2="267.259" y2="48.264"/>
			
				<line style="fill:none;stroke:#172B35;stroke-width:2;stroke-linecap:round;stroke-miterlimit:10;" x1="261.582" y1="53.943" x2="272.939" y2="53.943"/>
		</g>
		<g>
			
				<line style="fill:none;stroke:#172B35;stroke-width:2;stroke-linecap:round;stroke-miterlimit:10;" x1="119.062" y1="53.943" x2="119.062" y2="42.586"/>
			
				<line style="fill:none;stroke:#172B35;stroke-width:2;stroke-linecap:round;stroke-miterlimit:10;" x1="113.384" y1="48.264" x2="124.742" y2="48.264"/>
		</g>
		<path style="fill:none;stroke:#172B35;stroke-width:2;stroke-linecap:round;stroke-miterlimit:10;" d="M114.396,369.652
			c0-2.577,2.088-4.667,4.666-4.667c2.578,0,4.666,2.089,4.666,4.667c0,2.578-2.088,4.667-4.666,4.667
			C116.484,374.319,114.396,372.23,114.396,369.652z"/>
		<path style="fill:none;stroke:#172B35;stroke-width:2;stroke-linecap:round;stroke-miterlimit:10;" d="M298.996,334.749
			c0-2.578,2.088-4.667,4.666-4.667c2.578,0,4.666,2.089,4.666,4.667c0,2.577-2.088,4.666-4.666,4.666
			C301.084,339.414,298.996,337.326,298.996,334.749z"/>
		<path style="fill:none;stroke:#172B35;stroke-width:2;stroke-linecap:round;stroke-miterlimit:10;" d="M374.123,108.633
			c0-2.578,2.088-4.667,4.666-4.667s4.666,2.089,4.666,4.667c0,2.577-2.088,4.666-4.666,4.666S374.123,111.21,374.123,108.633z"/>
		<path style="fill:none;stroke:#172B35;stroke-width:2;stroke-linecap:round;stroke-miterlimit:10;" d="M224.952,87.978
			c0-2.578,2.088-4.667,4.666-4.667c2.578,0,4.666,2.089,4.666,4.667c0,2.577-2.088,4.666-4.666,4.666
			C227.04,92.644,224.952,90.555,224.952,87.978z"/>
		<path style="fill:none;stroke:#172B35;stroke-width:1.9574;stroke-linecap:round;stroke-miterlimit:10;" d="M56.221,128.573
			c0-2.467,2.09-4.469,4.666-4.469c2.578,0,4.668,2.002,4.668,4.469c0,2.47-2.09,4.472-4.668,4.472
			C58.311,133.045,56.221,131.043,56.221,128.573z"/>
		<path style="fill:none;stroke:#172B35;stroke-width:2;stroke-linecap:round;stroke-miterlimit:10;" d="M30.705,300.613
			c0-2.577,2.088-4.667,4.666-4.667c2.578,0,4.666,2.09,4.666,4.667c0,2.577-2.088,4.667-4.666,4.667
			C32.792,305.28,30.705,303.19,30.705,300.613z"/>
		<path style="fill:none;stroke:#172B35;stroke-width:2;stroke-linecap:round;stroke-miterlimit:10;" d="M44.466,83.311
			c0-2.578,2.09-4.667,4.666-4.667c2.578,0,4.668,2.089,4.668,4.667c0,2.577-2.09,4.666-4.668,4.666
			C46.556,87.977,44.466,85.888,44.466,83.311z"/>
		<g>
			
				<line style="fill:none;stroke:#172B35;stroke-width:2;stroke-linecap:round;stroke-miterlimit:10;" x1="79.037" y1="350.174" x2="46.523" y2="350.174"/>
			
				<line style="fill:none;stroke:#172B35;stroke-width:2;stroke-linecap:round;stroke-miterlimit:10;" x1="66.064" y1="345.459" x2="33.55" y2="345.459"/>
		</g>
		<g>
			
				<line style="fill:none;stroke:#172B35;stroke-width:2;stroke-linecap:round;stroke-miterlimit:10;" x1="408.017" y1="360.502" x2="375.503" y2="360.502"/>
			
				<line style="fill:none;stroke:#172B35;stroke-width:2;stroke-linecap:round;stroke-miterlimit:10;" x1="395.044" y1="355.788" x2="362.531" y2="355.788"/>
		</g>
		<g>
			
				<line style="fill:none;stroke:#172B35;stroke-width:2;stroke-linecap:round;stroke-miterlimit:10;" x1="371.927" y1="67.485" x2="339.414" y2="67.485"/>
			
				<line style="fill:none;stroke:#172B35;stroke-width:2;stroke-linecap:round;stroke-miterlimit:10;" x1="358.955" y1="62.77" x2="326.441" y2="62.77"/>
		</g>
		<g>
			
				<line style="fill:none;stroke:#172B35;stroke-width:2;stroke-linecap:round;stroke-miterlimit:10;" x1="73.861" y1="176.935" x2="41.347" y2="176.935"/>
			
				<line style="fill:none;stroke:#172B35;stroke-width:2;stroke-linecap:round;stroke-miterlimit:10;" x1="60.888" y1="172.219" x2="28.375" y2="172.219"/>
		</g>
	</g>
	<g>
		<g>
			<g>
				<path style="fill:#FFFFFF;stroke:#172B35;stroke-width:1.4961;stroke-linecap:round;stroke-miterlimit:10;" d="M305.793,122.993
					c-9.688,0-16.992-4.002-16.992-9.309c0-5.307,7.304-9.309,16.992-9.309c9.688,0,16.992,4.002,16.992,9.309
					C322.785,118.991,315.481,122.993,305.793,122.993z M305.793,109.494c-7.365,0-11.872,2.712-11.872,4.189
					c0,1.477,4.507,4.189,11.872,4.189c7.365,0,11.872-2.712,11.872-4.189C317.665,112.206,313.158,109.494,305.793,109.494z"/>
			</g>
			<path style="fill:#FFFFFF;stroke:#172B35;stroke-width:1.4961;stroke-linecap:round;stroke-miterlimit:10;" d="M317.667,161.715
				c7.547-4.184,12.66-12.228,12.66-21.467c0-13.548-10.984-24.532-24.534-24.532c-13.549,0-24.533,10.984-24.533,24.532
				c0,9.239,5.111,17.283,12.66,21.467H317.667z"/>
			<g>
				<path style="fill:#172B35;" d="M299.747,135.364v7.208h-1.797v-3.864c0-0.558-0.014-0.893-0.042-1.006
					c-0.026-0.114-0.1-0.198-0.22-0.256c-0.121-0.058-0.388-0.087-0.803-0.087h-0.178v-0.84c0.869-0.187,1.528-0.572,1.98-1.154
					H299.747z"/>
				<path style="fill:#172B35;" d="M304.689,137.803v2.404c0,0.545-0.029,0.943-0.089,1.193c-0.059,0.249-0.183,0.481-0.37,0.698
					c-0.186,0.217-0.413,0.372-0.677,0.468c-0.264,0.095-0.561,0.143-0.884,0.143c-0.432,0-0.789-0.05-1.073-0.15
					c-0.285-0.099-0.513-0.253-0.683-0.465c-0.169-0.211-0.288-0.433-0.359-0.665c-0.072-0.233-0.106-0.604-0.106-1.111v-2.515
					c0-0.661,0.056-1.157,0.171-1.487c0.114-0.33,0.34-0.593,0.68-0.792c0.34-0.199,0.752-0.298,1.236-0.298
					c0.395,0,0.749,0.069,1.059,0.206c0.313,0.14,0.544,0.308,0.7,0.506c0.153,0.199,0.258,0.423,0.314,0.672
					C304.661,136.859,304.689,137.258,304.689,137.803z M302.89,137.198c0-0.382-0.019-0.622-0.056-0.719
					c-0.037-0.097-0.124-0.145-0.26-0.145c-0.135,0-0.222,0.051-0.266,0.154c-0.042,0.102-0.064,0.339-0.064,0.709v3.517
					c0,0.419,0.019,0.671,0.061,0.758c0.04,0.085,0.127,0.128,0.26,0.128c0.134,0,0.222-0.05,0.263-0.151
					c0.04-0.101,0.061-0.327,0.061-0.681V137.198z"/>
				<path style="fill:#172B35;" d="M309.853,135.364l-1.073,3.255l1.178,3.953h-1.937l-0.758-3.089v3.089h-1.876v-7.208h1.876v2.8
					l0.834-2.8H309.853z"/>
				<path style="fill:#172B35;" d="M314.581,138.018h-1.874v-0.654c0-0.413-0.018-0.671-0.054-0.776
					c-0.035-0.104-0.12-0.156-0.253-0.156c-0.117,0-0.195,0.045-0.237,0.134c-0.042,0.089-0.061,0.318-0.061,0.686v3.458
					c0,0.324,0.019,0.537,0.061,0.639c0.042,0.103,0.125,0.154,0.249,0.154c0.138,0,0.229-0.058,0.279-0.173
					c0.048-0.116,0.073-0.341,0.073-0.677v-0.854h-0.378v-1.095h2.195v3.869h-1.178l-0.174-0.517
					c-0.127,0.224-0.288,0.39-0.483,0.501c-0.194,0.111-0.424,0.167-0.688,0.167c-0.315,0-0.61-0.077-0.885-0.229
					c-0.275-0.153-0.483-0.343-0.626-0.568c-0.143-0.226-0.23-0.462-0.267-0.709c-0.035-0.248-0.053-0.62-0.053-1.116v-2.141
					c0-0.688,0.037-1.189,0.11-1.5c0.075-0.313,0.288-0.598,0.639-0.858c0.353-0.259,0.808-0.39,1.366-0.39
					c0.548,0,1.003,0.114,1.365,0.338c0.363,0.226,0.598,0.494,0.708,0.805c0.11,0.311,0.166,0.759,0.166,1.351V138.018z"/>
			</g>
			<path style="fill:none;stroke:#172B35;stroke-width:1.4961;stroke-linecap:round;stroke-miterlimit:10;" d="M311.862,121.517
				c8.056,0,14.587,8.415,14.587,18.796c0,10.381-6.531,18.796-14.587,18.796"/>
		</g>
		<g>
			<g>
				
					<path style="fill:none;stroke:#172B35;stroke-width:2.6802;stroke-linecap:round;stroke-miterlimit:10;stroke-dasharray:5.4071,5.4071;" d="
					M262.753,133.044c0-23.77,19.269-43.041,43.04-43.041c23.771,0,43.04,19.271,43.04,43.041s-19.269,43.039-43.04,43.039
					C282.022,176.084,262.753,156.814,262.753,133.044z"/>
			</g>
		</g>
	</g>
	<g>
		<g>
			<g>
				
					<path style="fill:none;stroke:#172B35;stroke-width:2.6802;stroke-linecap:round;stroke-miterlimit:10;stroke-dasharray:5.4071,5.4071;" d="
					M77.368,133.044c0-23.77,19.269-43.041,43.04-43.041c23.771,0,43.04,19.271,43.04,43.041s-19.269,43.039-43.04,43.039
					C96.636,176.084,77.368,156.814,77.368,133.044z"/>
			</g>
		</g>
		<g>
			<path style="fill:#FFFFFF;stroke:#172B35;stroke-width:1.4961;stroke-miterlimit:10;" d="M132.402,111.442
				c-10.34-1.57-12.344,6.381-12.344,6.381s-2.001-7.951-12.342-6.381c0,0-14.116,2.474-10.273,19.087
				c0,0,4.004,16.612,22.615,24.324c18.613-7.711,22.619-24.324,22.619-24.324C146.519,113.916,132.402,111.442,132.402,111.442z"/>
			<polyline style="fill:none;stroke:#172B35;stroke-width:1.4961;stroke-miterlimit:10;" points="91.564,133.045 108.19,133.045 
				112.531,123.382 115.908,142.323 118.903,131.948 149.253,131.948 			"/>
		</g>
	</g>
</g>
<g>
	<g>
		<g>
			<g>
				<g>
					<path style="fill:#A3704B;" d="M245.021,264.947l0.962,6.109l1.048,6.094l2.103,12.188l2.242,12.164l2.334,12.148
						c1.535,8.102,3.241,16.175,4.864,24.263l2.553,12.111l0.339,1.597h15.728l-14.035-89.765l-0.002-0.01
						c-0.79-5.019-5.5-8.446-10.518-7.656c-5.018,0.79-8.446,5.499-7.656,10.518L245.021,264.947z"/>
				</g>
			</g>
			<g>
				<path style="fill:#A3704B;" d="M114.174,197.288c-4.358,0.404-8.274-3.337-8.74-8.358c-0.47-5.02,2.683-9.421,7.043-9.829
					c4.358-0.407,8.271,3.335,8.742,8.358C121.686,192.48,118.53,196.878,114.174,197.288z"/>
				<g>
					<g>
						<g>
							<path style="fill:#A3704B;" d="M192.024,268.36l-74.246,6.417l-8.104,0.7l-0.152-7.903l-1.466-76.002
								c-0.041-2.112,1.638-3.858,3.75-3.898c1.983-0.038,3.643,1.439,3.872,3.368l0.033,0.289l8.762,75.772l-8.255-7.203
								l73.887-9.839c5.038-0.67,9.667,2.87,10.337,7.908c0.671,5.038-2.87,9.666-7.908,10.337c-0.13,0.017-0.259,0.032-0.388,0.043
								L192.024,268.36z"/>
						</g>
					</g>
				</g>
				<g>
					<g>
						
							<rect x="111.361" y="132.276" transform="matrix(0.0147 -0.9999 0.9999 0.0147 -69.2511 294.7839)" style="fill:#829CAA;" width="7.177" height="100.509"/>
						
							<rect x="113.128" y="134.069" transform="matrix(0.0147 -0.9999 0.9999 0.0147 -71.0691 296.5244)" style="opacity:0.3;fill:#A7A9AC;" width="3.591" height="100.509"/>
						
							<rect x="113.962" y="134.917" transform="matrix(0.0147 -0.9999 0.9999 0.0147 -71.9305 297.3464)" style="opacity:0.3;fill:#A7A9AC;" width="1.895" height="100.508"/>
					</g>
					<g>
						<g>
							<g>
								<path style="fill:#2C4B5B;" d="M78.867,193.67c-0.018,1.014-0.852,1.825-1.867,1.812l-8.64-0.128
									c-1.015-0.015-1.824-0.852-1.809-1.864l0.344-23.339c0.015-1.016,0.847-1.825,1.863-1.811l8.641,0.127
									c1.013,0.015,1.825,0.849,1.81,1.864L78.867,193.67z"/>
							</g>
							<path style="opacity:0.3;fill:#2C4B5B;" d="M74.287,190.453c-0.843-0.011-1.524-0.707-1.512-1.554l0.287-19.489
								c0.005-0.387,0.161-0.735,0.401-1l-4.706-0.07c-1.017-0.015-1.849,0.795-1.863,1.811l-0.344,23.339
								c-0.015,1.012,0.794,1.849,1.809,1.864l8.64,0.128c1.016,0.013,1.85-0.798,1.867-1.812l0.047-3.146L74.287,190.453z"/>
							<path style="opacity:0.3;fill:#2C4B5B;" d="M71.644,192.475c-0.92-0.012-1.655-0.773-1.641-1.694l0.31-21.181
								c0.008-0.495,0.232-0.927,0.58-1.228l-2.134-0.032c-1.017-0.015-1.849,0.795-1.863,1.811l-0.344,23.339
								c-0.015,1.012,0.794,1.849,1.809,1.864l8.64,0.128c1.016,0.013,1.85-0.798,1.867-1.812l0.015-1.088L71.644,192.475z"/>
							<path style="opacity:0.3;fill:#FFFFFF;" d="M78.98,187.174c-0.005,0.278-0.235,0.501-0.51,0.497l-3.195-0.048
								c-0.277-0.003-0.498-0.233-0.495-0.507l0.186-12.549c0.003-0.276,0.233-0.495,0.508-0.491l3.195,0.047
								c0.278,0.003,0.5,0.23,0.498,0.506L78.98,187.174z"/>
						</g>
						<g>
							<g>
								<path style="fill:#2C4B5B;" d="M98.546,199.077c-0.021,1.46-1.223,2.627-2.683,2.605L83.438,201.5
									c-1.461-0.023-2.627-1.225-2.604-2.683l0.493-33.571c0.022-1.462,1.222-2.626,2.683-2.605l12.425,0.183
									c1.46,0.022,2.626,1.222,2.604,2.682L98.546,199.077z"/>
							</g>
							<path style="opacity:0.3;fill:#2C4B5B;" d="M91.965,194.452c-1.22-0.017-2.193-1.02-2.176-2.239l0.414-28.032
								c0.007-0.558,0.228-1.061,0.574-1.44l-6.767-0.1c-1.461-0.021-2.661,1.143-2.683,2.605l-0.493,33.571
								c-0.023,1.458,1.143,2.66,2.604,2.683l12.425,0.182c1.46,0.022,2.661-1.145,2.683-2.605l0.067-4.526L91.965,194.452z"/>
							<path style="opacity:0.3;fill:#2C4B5B;" d="M88.163,197.355c-1.324-0.02-2.384-1.108-2.364-2.433l0.448-30.467
								c0.011-0.71,0.334-1.338,0.83-1.77l-3.067-0.044c-1.461-0.021-2.661,1.143-2.683,2.605l-0.493,33.571
								c-0.023,1.458,1.143,2.66,2.604,2.683l12.425,0.182c1.46,0.022,2.661-1.145,2.683-2.605l0.023-1.57L88.163,197.355z"/>
							<path style="opacity:0.3;fill:#FFFFFF;" d="M98.709,189.736c-0.004,0.398-0.334,0.717-0.732,0.711l-4.591-0.068
								c-0.399-0.004-0.718-0.335-0.713-0.734l0.267-18.047c0.005-0.398,0.334-0.717,0.733-0.712l4.591,0.067
								c0.398,0.006,0.717,0.337,0.71,0.733L98.709,189.736z"/>
						</g>
					</g>
					<g>
						<g>
							<g>
								<path style="fill:#2C4B5B;" d="M150.585,194.724c-0.017,1.012,0.793,1.849,1.807,1.865l8.641,0.127
									c1.014,0.013,1.849-0.797,1.863-1.814l0.342-23.337c0.015-1.016-0.792-1.848-1.81-1.864l-8.638-0.125
									c-1.015-0.017-1.849,0.793-1.864,1.809L150.585,194.724z"/>
							</g>
							<path style="opacity:0.3;fill:#2C4B5B;" d="M155.253,191.645c0.846,0.011,1.544-0.663,1.557-1.511l0.285-19.488
								c0.005-0.388-0.139-0.741-0.371-1.013l4.705,0.068c1.018,0.016,1.824,0.848,1.81,1.864l-0.342,23.337
								c-0.015,1.016-0.849,1.827-1.863,1.814l-8.641-0.127c-1.014-0.016-1.824-0.853-1.807-1.865l0.045-3.148L155.253,191.645z"/>
							<path style="opacity:0.3;fill:#2C4B5B;" d="M157.835,193.742c0.921,0.012,1.678-0.724,1.693-1.645l0.312-21.18
								c0.008-0.495-0.206-0.934-0.545-1.247l2.133,0.031c1.018,0.016,1.824,0.848,1.81,1.864l-0.342,23.337
								c-0.015,1.016-0.849,1.827-1.863,1.814l-8.641-0.127c-1.014-0.016-1.824-0.853-1.807-1.865l0.016-1.089L157.835,193.742z"/>
							<path style="opacity:0.3;fill:#FFFFFF;" d="M150.66,188.229c-0.002,0.276,0.218,0.505,0.495,0.51l3.193,0.045
								c0.277,0.005,0.505-0.219,0.51-0.495l0.184-12.545c0.004-0.276-0.218-0.504-0.496-0.507l-3.192-0.047
								c-0.274-0.005-0.505,0.215-0.507,0.49L150.66,188.229z"/>
						</g>
						<g>
							<g>
								<path style="fill:#2C4B5B;" d="M130.75,199.55c-0.022,1.46,1.143,2.662,2.607,2.684l12.425,0.181
									c1.46,0.023,2.661-1.146,2.683-2.604l0.493-33.573c0.021-1.459-1.147-2.658-2.607-2.681l-12.426-0.182
									c-1.46-0.022-2.66,1.143-2.683,2.602L130.75,199.55z"/>
							</g>
							<path style="opacity:0.3;fill:#2C4B5B;" d="M137.465,195.122c1.22,0.018,2.223-0.955,2.242-2.173l0.411-28.033
								c0.01-0.558-0.198-1.065-0.535-1.457l6.768,0.099c1.46,0.022,2.628,1.222,2.607,2.681l-0.493,33.573
								c-0.021,1.457-1.223,2.627-2.683,2.604l-12.425-0.181c-1.463-0.022-2.629-1.224-2.607-2.684l0.067-4.527L137.465,195.122z"/>
							<path style="opacity:0.3;fill:#2C4B5B;" d="M141.18,198.135c1.327,0.019,2.413-1.036,2.433-2.365l0.448-30.466
								c0.01-0.71-0.292-1.347-0.777-1.792l3.066,0.046c1.46,0.022,2.628,1.222,2.607,2.681l-0.493,33.573
								c-0.021,1.457-1.223,2.627-2.683,2.604l-12.425-0.181c-1.463-0.022-2.629-1.224-2.607-2.684l0.024-1.567L141.18,198.135z"/>
							<path style="opacity:0.3;fill:#FFFFFF;" d="M130.861,190.208c-0.005,0.398,0.314,0.729,0.713,0.733l4.591,0.067
								c0.399,0.004,0.726-0.314,0.73-0.712l0.268-18.048c0.004-0.398-0.313-0.724-0.71-0.731l-4.594-0.069
								c-0.399-0.005-0.725,0.313-0.73,0.713L130.861,190.208z"/>
						</g>
					</g>
					<polyline style="fill:none;stroke:#FFFFFF;stroke-width:1.5747;stroke-linecap:round;stroke-miterlimit:10;" points="
						93.034,165.204 96.051,165.247 95.668,191.379 					"/>
					<polyline style="fill:none;stroke:#FFFFFF;stroke-width:1.5747;stroke-linecap:round;stroke-miterlimit:10;" points="
						134.861,165.819 137.878,165.863 137.495,191.992 					"/>
					<polyline style="fill:none;stroke:#FFFFFF;stroke-width:0.7873;stroke-linecap:round;stroke-miterlimit:10;" points="
						74.104,170.656 77.122,170.7 76.857,188.587 					"/>
					<polyline style="fill:none;stroke:#FFFFFF;stroke-width:0.7873;stroke-linecap:round;stroke-miterlimit:10;" points="
						152.081,171.801 155.1,171.847 154.835,189.735 					"/>
				</g>
				<g>
					<g>
						<g>
							<path style="fill:#A3704B;" d="M108.877,174.963c0.04-1.042-0.779-1.919-1.821-1.956l0,0c-1.042-0.039-1.918,0.778-1.95,1.82
								l-0.218,6.065c-0.037,1.041,0.775,1.917,1.817,1.953l0,0c1.042,0.039,1.918-0.778,1.955-1.816L108.877,174.963z"/>
						</g>
					</g>
					<g>
						<g>
							<path style="fill:#A3704B;" d="M113.42,175.418c0.047-1.23-0.765-2.256-1.809-2.293l0,0c-1.04-0.037-1.924,0.929-1.966,2.16
								l-0.255,7.15c-0.039,1.224,0.767,2.254,1.81,2.29l0,0c1.042,0.036,1.923-0.929,1.965-2.157L113.42,175.418z"/>
						</g>
					</g>
					<g>
						<g>
							<path style="fill:#A3704B;" d="M118.258,175.057c0.04-0.959-0.779-1.768-1.827-1.804l0,0
								c-1.039-0.036-1.913,0.709-1.947,1.669l-0.195,5.579c-0.032,0.957,0.782,1.767,1.827,1.805l0,0
								c1.036,0.037,1.913-0.71,1.947-1.667L118.258,175.057z"/>
						</g>
					</g>
					<g>
						<g>
							<path style="fill:#A3704B;" d="M122.711,174.943c0.027-0.832-0.79-1.537-1.837-1.572l0,0
								c-1.038-0.036-1.913,0.604-1.936,1.437l-0.136,3.475c-0.032,0.832,0.789,1.536,1.831,1.572l0,0
								c1.04,0.037,1.91-0.604,1.94-1.436L122.711,174.943z"/>
						</g>
					</g>
				</g>
			</g>
			<g>
				<rect x="212.51" y="226.547" style="fill:#A3704B;" width="18.744" height="18.361"/>
				<path style="fill:#BCBEC0;" d="M214.166,239.815c5.133-4.483,12.794-3.287,17.088-9.058v-4.21H212.51v15.296
					C212.963,241.082,213.505,240.395,214.166,239.815z"/>
			</g>
			<path style="fill:#A3704B;" d="M191.348,343.813c0,0,0.311,2.374,0.253,7.807h60.427c-0.057-4.318,0.386-7.807,0.386-7.807
				l10.938-77.066c2.453-10.253-5.52-15.226-5.52-15.226l-27.374-10.877h-17.153l-27.374,10.877c0,0-7.973,4.972-5.52,15.226
				L191.348,343.813z"/>
			<path style="fill:#00B9C5;" d="M183.931,351.621h76.423l2.998-84.873c2.453-10.253-5.52-15.226-5.52-15.226l-20.972-8.333
				c-3.861,4.126-9.313,6.748-15.301,6.748c-5.895,0-11.276-2.543-15.125-6.56l-20.503,8.145c0,0-7.973,4.972-5.52,15.226
				L183.931,351.621z"/>
			<g>
				<path style="fill:#3C2415;" d="M262.336,166.148c0-1.933-1.299-3.548-3.034-3.95c1.735-0.4,3.034-2.017,3.034-3.95
					c0-2.202-1.682-3.989-3.778-4.044c0.94-0.738,1.546-1.908,1.546-3.231c0-1.966-1.341-3.606-3.121-3.972
					c0.062-0.29,0.099-0.589,0.099-0.898c0-2.237-1.735-4.048-3.876-4.048c-0.191,0-0.376,0.018-0.56,0.044
					c0.492-0.679,0.785-1.521,0.785-2.435c0-2.235-1.735-4.052-3.876-4.052c-0.054,0-0.109,0.007-0.161,0.009
					c0.03-0.196,0.048-0.399,0.048-0.604c0-2.237-1.735-4.048-3.873-4.048c-0.803,0-1.545,0.251-2.167,0.686
					c0.04-0.225,0.062-0.455,0.062-0.686c0-2.239-1.732-4.049-3.878-4.049c-1.837,0-3.372,1.334-3.77,3.128
					c0.017-0.162,0.027-0.33,0.027-0.497c0-2.236-1.73-4.052-3.871-4.052c-1.234,0-2.332,0.604-3.042,1.54
					c-0.562-1.509-1.965-2.582-3.611-2.582c-1.712,0-3.16,1.162-3.675,2.772c-0.512-1.61-1.962-2.772-3.675-2.772
					c-1.649,0-3.05,1.073-3.614,2.585c-0.708-0.936-1.807-1.543-3.037-1.543c-1.716,0-3.164,1.162-3.676,2.77
					c-0.71-0.827-1.74-1.349-2.884-1.349c-2.143,0-3.878,1.811-3.878,4.049c0,0.208,0.02,0.415,0.049,0.617
					c-0.71-0.812-1.725-1.322-2.855-1.322c-2.144,0-3.879,1.814-3.879,4.048c0,0.267,0.027,0.522,0.069,0.774
					c-0.223-0.045-0.453-0.069-0.693-0.069c-2.141,0-3.876,1.814-3.876,4.049c0,0.256,0.027,0.51,0.069,0.752
					c-0.336-0.099-0.693-0.156-1.062-0.156c-2.141,0-3.876,1.81-3.876,4.045c0,0.903,0.285,1.732,0.76,2.406
					c-2.047,0.128-3.664,1.905-3.644,4.07c0.008,0.879,0.283,1.689,0.745,2.348c-1.44,0.592-2.463,2.053-2.463,3.769
					c0,1.253,0.547,2.374,1.403,3.115c-1.327,0.642-2.252,2.043-2.252,3.672c0,1.533,0.819,2.869,2.022,3.556
					c-1.203,0.685-2.022,2.022-2.022,3.555c0,1.457,0.74,2.729,1.844,3.443c-1.104,0.714-1.844,1.986-1.844,3.439
					c0,1.586,0.878,2.956,2.148,3.62c-0.795,0.743-1.3,1.815-1.3,3.016c0,2.235,1.737,4.049,3.881,4.049
					c0.532,0,1.04-0.114,1.502-0.316c-0.489,0.678-0.782,1.518-0.782,2.434c0,2.235,1.736,4.051,3.876,4.051
					c2.128,0,3.854-1.795,3.874-4.01c1.876-0.283,3.322-1.965,3.322-4.003c0-0.259-0.025-0.515-0.072-0.76
					c0.98-0.734,1.624-1.933,1.624-3.289c0-1.761-1.081-3.257-2.584-3.813c0.96-0.737,1.589-1.922,1.589-3.264
					c0-1.628-0.921-3.026-2.245-3.668c1.837-0.321,3.24-1.981,3.24-3.991c0-1.294-0.587-2.444-1.492-3.186
					c1.254-0.671,2.116-2.028,2.116-3.6c0-0.894-0.285-1.718-0.751-2.386c1.433-0.594,2.451-2.053,2.451-3.765
					c0-0.551-0.107-1.073-0.294-1.552c1.633-0.476,2.837-2.037,2.837-3.896c0-0.778-0.216-1.501-0.579-2.117
					c0.566,0.335,1.217,0.529,1.913,0.529c1.901,0,3.475-1.426,3.809-3.307c0.656,0.527,1.476,0.844,2.367,0.844
					c1.785,0,3.279-1.26,3.732-2.974c0.711,0.849,1.755,1.387,2.918,1.387c1.788,0,3.29-1.267,3.738-2.988
					c0.708,0.955,1.812,1.57,3.062,1.57c0.918,0,1.76-0.335,2.425-0.894c0.624,1.366,1.953,2.312,3.495,2.312
					c1.111,0,2.107-0.489,2.812-1.265c0.487,1.651,1.96,2.852,3.705,2.852c0.302,0,0.597-0.039,0.879-0.108
					c0,0.037-0.008,0.072-0.008,0.108c0,2.237,1.737,4.05,3.881,4.05c0.436,0,0.856-0.081,1.247-0.22
					c-0.086,0.335-0.136,0.689-0.136,1.052c0,2.237,1.732,4.051,3.878,4.051c0.082,0,0.161-0.007,0.243-0.012
					c-0.156,0.436-0.243,0.906-0.243,1.398c0,1.678,0.978,3.118,2.369,3.732c-0.613,0.716-0.992,1.661-0.992,2.698
					c0,1.344,0.631,2.532,1.597,3.269c-0.966,0.738-1.597,1.925-1.597,3.27c0,1.545,0.831,2.889,2.052,3.572
					c-1.221,0.68-2.052,2.023-2.052,3.572c0,1.195,0.5,2.264,1.287,3.008c-1.425,0.594-2.438,2.051-2.438,3.757
					c0,1.847,1.186,3.402,2.804,3.887c0.082,2.163,1.782,3.886,3.871,3.886c0.15,0,0.297-0.011,0.443-0.028
					c0.651,1.289,1.943,2.17,3.433,2.17c2.141,0,3.873-1.813,3.873-4.048c0-1.223-0.517-2.314-1.338-3.058
					c1.999-0.165,3.57-1.905,3.57-4.032c0-1.475-0.751-2.76-1.881-3.469c1.129-0.708,1.881-1.995,1.881-3.466
					c0-1.743-1.056-3.224-2.536-3.797C261.28,169.376,262.336,167.893,262.336,166.148z"/>
				<g>
					<path style="fill:#A3704B;" d="M193.425,196.157c0.707,3.74-0.629,7.133-2.98,7.57c-2.356,0.446-4.831-2.226-5.536-5.967
						c-0.703-3.74,0.636-7.129,2.987-7.573C190.249,189.743,192.724,192.415,193.425,196.157z"/>
					<path style="fill:#D1D3D4;" d="M189.189,193.828c0,0-0.158,0.077-0.436,0.178c-0.132,0.05-0.329,0.083-0.447,0.22
						c-0.127,0.133-0.28,0.186-0.382,0.374c-0.126,0.146-0.215,0.324-0.277,0.54c-0.104,0.171-0.067,0.458-0.134,0.675
						c0.005,0.515,0,1.078,0.156,1.644c0.097,0.571,0.297,1.124,0.507,1.619c0.21,0.506,0.475,0.903,0.745,1.21
						c0.144,0.107,0.283,0.25,0.431,0.312c0.141,0.023,0.304,0.134,0.426,0.087c0.257-0.035,0.448-0.046,0.448-0.046
						s-0.102,0.115-0.367,0.313c-0.126,0.122-0.334,0.115-0.574,0.178c-0.242,0.034-0.527-0.04-0.804-0.145
						c-0.535-0.248-1.049-0.713-1.414-1.287c-0.387-0.566-0.653-1.241-0.807-1.945c-0.075-0.354-0.114-0.717-0.114-1.081
						c-0.042-0.358,0.074-0.732,0.114-1.076c0.131-0.347,0.203-0.688,0.443-0.968c0.104-0.14,0.2-0.281,0.307-0.398
						c0.138-0.093,0.27-0.185,0.398-0.27c0.226-0.196,0.554-0.207,0.774-0.255c0.238-0.06,0.396,0.005,0.545,0.022
						C189.017,193.78,189.189,193.828,189.189,193.828z"/>
				</g>
				<g>
					<path style="fill:#A3704B;" d="M251.149,196.157c-0.708,3.74,0.628,7.133,2.982,7.57c2.35,0.446,4.831-2.226,5.532-5.967
						c0.705-3.74-0.635-7.129-2.986-7.573C254.327,189.743,251.85,192.415,251.149,196.157z"/>
					<path style="fill:#D1D3D4;" d="M255.387,193.828c0,0,0.156,0.077,0.433,0.178c0.129,0.05,0.33,0.083,0.448,0.22
						c0.126,0.133,0.282,0.186,0.381,0.374c0.126,0.146,0.218,0.324,0.277,0.54c0.104,0.171,0.069,0.458,0.136,0.675
						c-0.007,0.515,0,1.078-0.158,1.644c-0.097,0.571-0.297,1.124-0.505,1.619c-0.215,0.506-0.478,0.903-0.747,1.21
						c-0.141,0.107-0.282,0.25-0.428,0.312c-0.142,0.023-0.31,0.134-0.431,0.087c-0.255-0.035-0.446-0.046-0.446-0.046
						s0.099,0.115,0.364,0.313c0.126,0.122,0.337,0.115,0.579,0.178c0.24,0.034,0.524-0.04,0.804-0.145
						c0.532-0.248,1.044-0.713,1.409-1.287c0.391-0.566,0.658-1.241,0.809-1.945c0.075-0.354,0.114-0.717,0.114-1.081
						c0.04-0.358-0.076-0.732-0.116-1.076c-0.129-0.347-0.2-0.688-0.44-0.968c-0.104-0.14-0.201-0.281-0.307-0.398
						c-0.139-0.093-0.27-0.185-0.398-0.27c-0.226-0.196-0.555-0.207-0.778-0.255c-0.235-0.06-0.396,0.005-0.539,0.022
						C255.555,193.78,255.387,193.828,255.387,193.828z"/>
				</g>
				<path style="fill:#A3704B;" d="M222.48,142.271v-0.008c-0.131,0-0.262,0.002-0.388,0.005c-0.136-0.003-0.265-0.005-0.396-0.005
					v0.008c-19.846,0.174-35.243,7.122-32.199,43.297l5.611,27.517c0,0,0.609,5.259,6.373,8.402l12.831,7.992
					c0,0,5.121,2.276,7.779,2.051c2.651,0.226,7.774-2.051,7.774-2.051l12.831-7.992c5.759-3.143,6.371-8.402,6.371-8.402
					l5.614-27.517C257.726,149.393,242.328,142.445,222.48,142.271z"/>
				<path style="fill:#341D0C;" d="M250.891,193.792h2.104l-3.901,19.08c0,0-0.611,10.033-6.385,13.178l-12.858,7.992
					c0,0-5.134,2.274-7.79,2.049c-2.663,0.225-7.799-2.049-7.799-2.049l-12.855-7.992c-5.777-3.146-6.386-13.178-6.386-13.178
					l-3.901-19.08h1.715c1.181,5.635,3.411,12.147,7.861,16.035c1.25,1.091,2.908,1.8,4.569,1.92
					c1.537,0.108,2.705-0.067,3.599-1.357c2.915-4.236,7.415-4.703,12.202-4.645c5.052,0.064,11.86-0.264,14.034,5.532
					c0,0,0.688,1.836,3.118,1.286C238.219,212.563,246.746,214.216,250.891,193.792z"/>
				<path style="fill:#3C2415;" d="M246.748,160.992c0,0,6.668,13.742,4.022,33.719h1.992c0.376-0.94,1.042-2.925,1.307-3.901
					c3.574-13.088,4.186-27.02,2.308-40.652c-1.612-11.711-11.248-13.754-11.248-13.754c-5.41-1.628-38.65-0.57-38.65-0.57
					c-20.049,2.01-19.883,17.873-19.883,17.873c-0.617,7.15-0.926,14.485-0.045,21.497c0.837,6.655,2.077,11.702,4.961,19.994
					l1.537-0.485c0,0-4.571-24.77,4.606-35.98c0,0,10.064-9.641,23.202-3.651C220.856,155.081,242.64,149.724,246.748,160.992z"/>
				<g>
					<g>
						<path style="fill:#855E40;" d="M216.51,197.855c0,0,0.764,0.178,1.909,0.445c0.537,0.124,1.14,0.251,1.757,0.361
							c0.304,0.043,0.618,0.087,0.937,0.133c0.315,0.014,0.628,0.08,0.94,0.063c0.314,0.034,0.622,0.011,0.929,0
							c0.312,0.013,0.607-0.06,0.911-0.075c0.308-0.005,0.587-0.112,0.88-0.143c0.297-0.026,0.56-0.126,0.825-0.185
							c0.257-0.072,0.532-0.09,0.743-0.175c0.215-0.077,0.422-0.125,0.592-0.171c0.342-0.09,0.566-0.126,0.566-0.126
							s-0.073,0.198-0.251,0.518c-0.09,0.158-0.198,0.358-0.346,0.568c-0.132,0.228-0.341,0.421-0.564,0.651
							c-0.23,0.218-0.473,0.478-0.796,0.661c-0.319,0.183-0.642,0.435-1.037,0.558c-0.388,0.134-0.792,0.314-1.229,0.353
							c-0.433,0.083-0.878,0.117-1.322,0.09c-0.447-0.002-0.878-0.091-1.3-0.182c-0.416-0.103-0.813-0.251-1.178-0.415
							c-0.729-0.342-1.329-0.779-1.777-1.216c-0.447-0.442-0.755-0.865-0.937-1.187C216.574,198.065,216.51,197.855,216.51,197.855z
							"/>
					</g>
					<g>
						<g>
							<g>
								<g>
									<g>
										<path style="fill:#2F0F00;" d="M212.713,182.959c0,1.914-1.552,3.466-3.467,3.466c-1.916,0-3.468-1.552-3.468-3.466
											c0-1.913,1.552-3.469,3.468-3.469C211.161,179.49,212.713,181.045,212.713,182.959z"/>
										<path style="fill:#FFFFFF;" d="M208.332,181.206c0,0.727-0.589,1.317-1.317,1.317c-0.725,0-1.314-0.591-1.314-1.317
											c0-0.728,0.589-1.315,1.314-1.315C207.743,179.89,208.332,180.477,208.332,181.206z"/>
										<path style="fill:#FFFFFF;" d="M209.102,182.959c0,0.427-0.344,0.775-0.77,0.775c-0.428,0-0.773-0.347-0.773-0.775
											c0-0.423,0.345-0.77,0.773-0.77C208.758,182.188,209.102,182.536,209.102,182.959z"/>
									</g>
									<path style="fill:#3C2415;" d="M214.54,172.271c0,0,1.092,2.08-0.235,3.87l-11.712-0.117c0,0-2.75,0.12-4.29,1.607
										C198.303,177.631,198.058,170.259,214.54,172.271z"/>
								</g>
							</g>
						</g>
						<g>
							<g>
								<g>
									<g>
										<path style="fill:#2F0F00;" d="M231.299,182.959c0,1.914,1.552,3.466,3.468,3.466c1.913,0,3.467-1.552,3.467-3.466
											c0-1.913-1.554-3.469-3.467-3.469C232.851,179.49,231.299,181.045,231.299,182.959z"/>
										<path style="fill:#FFFFFF;" d="M235.682,181.206c0,0.727,0.584,1.317,1.313,1.317c0.725,0,1.314-0.591,1.314-1.317
											c0-0.728-0.59-1.315-1.314-1.315C236.266,179.89,235.682,180.477,235.682,181.206z"/>
										<path style="fill:#FFFFFF;" d="M234.91,182.959c0,0.427,0.341,0.775,0.771,0.775c0.423,0,0.768-0.347,0.768-0.775
											c0-0.423-0.344-0.77-0.768-0.77C235.251,182.188,234.91,182.536,234.91,182.959z"/>
									</g>
									<path style="fill:#3C2415;" d="M229.47,172.271c0,0-1.089,2.08,0.237,3.87l11.712-0.117c0,0,2.75,0.12,4.287,1.607
										C245.706,177.631,245.951,170.259,229.47,172.271z"/>
								</g>
							</g>
						</g>
					</g>
					<g>
						<g>
							<path style="fill:#FFFFFF;" d="M212.339,209.053c0.188,4.03,4.475,7.254,9.749,7.254c5.271,0,9.562-3.225,9.751-7.254
								H212.339z"/>
							<g>
								<path style="fill:#855E40;" d="M231.84,209.053c0,0-1.219,0.23-3.047,0.395c-0.914,0.089-1.98,0.162-3.123,0.211
									c-1.143,0.059-2.361,0.069-3.58,0.083c-1.219-0.014-2.438-0.023-3.58-0.082c-1.143-0.048-2.209-0.122-3.123-0.211
									c-1.829-0.164-3.047-0.396-3.047-0.396s1.219-0.232,3.047-0.396c0.914-0.089,1.98-0.164,3.123-0.211
									c1.143-0.059,2.361-0.068,3.58-0.082c1.219,0.015,2.438,0.025,3.58,0.083c1.143,0.049,2.209,0.123,3.123,0.212
									C230.622,208.822,231.84,209.053,231.84,209.053z"/>
							</g>
							<g>
								<path style="fill:#855E40;" d="M212.339,209.053c0,0,0.024,0.102,0.07,0.294c0.042,0.191,0.11,0.479,0.236,0.81
									c0.103,0.335,0.294,0.733,0.545,1.152c0.26,0.416,0.585,0.861,1.003,1.286c0.818,0.866,1.988,1.647,3.365,2.19
									c0.686,0.276,1.426,0.476,2.189,0.618c0.748,0.165,1.58,0.198,2.315,0.216c0.868-0.021,1.603-0.053,2.368-0.217
									c0.763-0.145,1.503-0.343,2.189-0.62c1.376-0.543,2.546-1.324,3.364-2.189c0.418-0.424,0.743-0.87,1.004-1.285
									c0.251-0.419,0.442-0.814,0.547-1.155c0.127-0.337,0.194-0.614,0.236-0.806c0.046-0.192,0.07-0.294,0.07-0.294
									s0.001,0.105,0.004,0.302c0,0.198,0.024,0.495-0.05,0.862c-0.042,0.373-0.162,0.819-0.346,1.315
									c-0.189,0.493-0.453,1.047-0.857,1.567c-0.378,0.544-0.886,1.056-1.468,1.542c-0.597,0.462-1.263,0.921-2.02,1.255
									c-0.75,0.344-1.557,0.648-2.409,0.811c-0.84,0.199-1.781,0.26-2.579,0.289c-0.931-0.032-1.773-0.091-2.632-0.289
									c-0.852-0.165-1.658-0.468-2.408-0.812c-0.757-0.334-1.422-0.793-2.02-1.255c-0.583-0.485-1.09-0.998-1.468-1.541
									c-0.405-0.52-0.668-1.075-0.857-1.567c-0.184-0.497-0.303-0.94-0.346-1.319c-0.075-0.374-0.049-0.66-0.049-0.858
									C212.338,209.158,212.339,209.053,212.339,209.053z"/>
							</g>
						</g>
						<path style="fill:#291200;" d="M219.832,219.026c0,0,0.281-0.036,0.704-0.063c0.423-0.014,0.988-0.03,1.555-0.053
							c0.562,0.022,1.127,0.039,1.551,0.053c0.426,0.026,0.703,0.063,0.703,0.063v0.225c0,0-0.277,0.645-0.703,1.103
							c-0.212,0.254-0.46,0.443-0.725,0.599c-0.265,0.143-0.545,0.212-0.827,0.217c-0.285-0.007-0.567-0.079-0.83-0.223
							c-0.136-0.061-0.262-0.175-0.383-0.269c-0.124-0.082-0.235-0.21-0.342-0.33c-0.423-0.456-0.704-1.098-0.704-1.098V219.026z"/>
					</g>
				</g>
			</g>
		</g>
	</g>
</g>
<g>
	
		<line style="fill:none;stroke:#172B35;stroke-width:2.0832;stroke-linecap:round;stroke-miterlimit:10;" x1="172.459" y1="351.621" x2="286.359" y2="351.621"/>
</g>
</svg>
