<?xml version="1.0" encoding="iso-8859-1"?>
<!-- Uploaded to: SVG Repo, www.svgrepo.com, Generator: SVG Repo Mixer Tools -->
<svg fill="#000000" height="800px" width="800px" version="1.1" id="Layer_1" xmlns="http://www.w3.org/2000/svg" xmlns:xlink="http://www.w3.org/1999/xlink" 
	 viewBox="0 0 512 512" xml:space="preserve">
<g>
	<g>
		<path d="M414.05,240.322c-2.789-39.904-10.859-67.99-11.201-69.166c-0.794-2.731-2.695-5.008-5.24-6.278
			c-2.546-1.271-5.506-1.419-8.167-0.411c-0.673,0.255-13.979,5.348-32.941,16.073c-4.58-38.31-12.771-73.473-24.135-102.73
			C312.878,27.634,285.757,0,256,0c-25.784,0-49.298,20.259-68.002,58.587c-15.373,31.503-26.758,74.393-32.481,121.958
			c-18.896-10.691-32.189-15.786-32.959-16.078c-2.66-1.008-5.621-0.859-8.167,0.411s-4.445,3.546-5.24,6.278
			c-0.342,1.176-8.411,29.26-11.201,69.166c-2.589,37.026-0.861,91.569,22.07,141.147c39.661,85.746,86.215,116.69,118.285,127.55
			c5.848,1.98,11.54,2.968,16.953,2.968l1.48,0.013c5.415,0,11.097-0.997,16.956-2.981c32.07-10.86,78.625-41.805,118.285-127.55
			C414.911,331.892,416.638,277.349,414.05,240.322z M276.398,472.025c-1.602,4.934-3.615,8.95-6.015,12.03l-71.539-157.853
			c-2.325-5.131-8.371-7.405-13.5-5.079c-5.13,2.325-7.405,8.369-5.079,13.5l71.004,156.671c-2.035-0.306-4.174-0.834-6.42-1.595
			c-28.288-9.579-69.693-37.618-106.315-116.794c-32.748-70.799-19.116-154.682-12.557-184.688
			c26.453,12.49,95.328,50.542,127.757,120.655C290.464,388.278,286.332,441.424,276.398,472.025z M285.568,332.494
			c1.8-1.839,2.913-4.354,2.913-7.13c0-5.459-4.291-9.901-9.681-10.173c-2.035-4.868-4.213-9.826-6.551-14.882
			c-4.309-9.317-9.198-18.092-14.487-26.332c0.9-1.52,1.425-3.287,1.425-5.181c0-5.633-4.566-10.199-10.199-10.199h-1.996
			c-12.471-16.413-26.294-30.322-39.654-41.805c0.209-0.814,0.333-1.664,0.333-2.543c0-5.633-4.566-10.199-10.199-10.199h-5.991
			c-3.687-2.77-7.275-5.345-10.715-7.714c-2.037-1.402-4.05-2.754-6.035-4.058c0.785-7.622,1.719-15.092,2.787-22.391
			c5.517-0.134,9.95-4.638,9.95-10.187c0-4.384-2.77-8.11-6.652-9.553c2.234-11.857,4.834-23.155,7.751-33.785h0.823
			c5.633,0,10.199-4.566,10.199-10.199c0-3.818-2.101-7.14-5.207-8.889c4.195-12.428,8.853-23.648,13.862-33.439h4.378
			c5.633,0,10.199-4.566,10.199-10.199c0-3.193-1.469-6.041-3.766-7.911C230.474,29.559,243.119,20.398,256,20.398
			c12.559,0,25.287,8.918,36.945,25.326c-2.297,1.87-3.767,4.718-3.767,7.911c0,5.633,4.566,10.199,10.199,10.199h4.449
			c3.326,6.47,6.513,13.603,9.526,21.36c1.513,3.895,2.963,7.911,4.356,12.024c-3.157,1.734-5.296,5.088-5.296,8.944
			c0,5.633,4.566,10.199,10.199,10.199h0.945c2.941,10.724,5.513,22.014,7.707,33.757c-3.922,1.421-6.729,5.168-6.729,9.581
			c0,5.565,4.459,10.081,9.998,10.189c1.604,11.082,2.886,22.494,3.835,34.159h-3.634c-5.633,0-10.199,4.566-10.199,10.199
			s4.566,10.199,10.199,10.199h4.942c0.45,9.611,0.679,19.356,0.679,29.196c0,1.656-0.023,3.302-0.037,4.953h-1.544
			c-5.633,0-10.199,4.566-10.199,10.199c0,5.633,4.566,10.199,10.199,10.199h1.055c-0.501,12.323-1.367,24.445-2.588,36.297
			c-4.904,0.74-8.666,4.961-8.666,10.072c0,4.256,2.608,7.899,6.311,9.428c-1.534,10.957-3.392,21.613-5.55,31.92
			c-0.201-0.012-0.401-0.031-0.606-0.031h-8.081c-5.633,0-10.199,4.566-10.199,10.199c0,5.633,4.566,10.199,10.199,10.199h3.898
			c-0.504,1.918-1.007,3.838-1.533,5.726c-5.701,20.43-12.642,38.334-20.396,52.893
			C305.642,417.226,302.729,379.663,285.568,332.494z M373.466,372.904c-16.651,35.999-34.29,61.424-51.236,79.351
			c7.8-15.251,14.681-33.366,20.431-53.969c11.835-42.407,18.091-92.424,18.091-144.644c0-17.254-0.689-34.244-2.025-50.778
			c10.964-6.615,20.524-11.476,27.303-14.665C392.611,218.165,406.284,301.953,373.466,372.904z"/>
	</g>
</g>
<g>
	<g>
		<path d="M262.196,43.435h-12.393c-5.633,0-10.199,4.566-10.199,10.199c0,5.633,4.566,10.199,10.199,10.199h12.393
			c5.633,0,10.199-4.566,10.199-10.199C272.395,48.002,267.829,43.435,262.196,43.435z"/>
	</g>
</g>
<g>
	<g>
		<path d="M237.834,95.963h-12.112c-5.633,0-10.199,4.566-10.199,10.199c0,5.633,4.566,10.199,10.199,10.199h12.112
			c5.633,0,10.199-4.566,10.199-10.199C248.033,100.529,243.467,95.963,237.834,95.963z"/>
	</g>
</g>
<g>
	<g>
		<path d="M286.278,95.963h-12.112c-5.633,0-10.199,4.566-10.199,10.199c0,5.633,4.566,10.199,10.199,10.199h12.112
			c5.633,0,10.199-4.566,10.199-10.199C296.478,100.529,291.911,95.963,286.278,95.963z"/>
	</g>
</g>
<g>
	<g>
		<path d="M303.239,149.5h-10.497c-5.633,0-10.199,4.566-10.199,10.199c0,5.633,4.566,10.199,10.199,10.199h10.497
			c5.633,0,10.199-4.566,10.199-10.199C313.438,154.066,308.872,149.5,303.239,149.5z"/>
	</g>
</g>
<g>
	<g>
		<path d="M219.258,149.5h-10.497c-5.633,0-10.199,4.566-10.199,10.199c0,5.633,4.566,10.199,10.199,10.199h10.497
			c5.633,0,10.199-4.566,10.199-10.199C229.458,154.066,224.891,149.5,219.258,149.5z"/>
	</g>
</g>
<g>
	<g>
		<path d="M261.249,149.5h-10.497c-5.633,0-10.199,4.566-10.199,10.199c0,5.633,4.566,10.199,10.199,10.199h10.497
			c5.633,0,10.199-4.566,10.199-10.199C271.448,154.066,266.882,149.5,261.249,149.5z"/>
	</g>
</g>
<g>
	<g>
		<path d="M297.298,204.047h-12.479c-5.633,0-10.199,4.566-10.199,10.199c0,5.633,4.566,10.199,10.199,10.199h12.479
			c5.633,0,10.199-4.566,10.199-10.199C307.497,208.613,302.931,204.047,297.298,204.047z"/>
	</g>
</g>
<g>
	<g>
		<path d="M247.384,204.047h-12.478c-5.633,0-10.199,4.566-10.199,10.199c0,5.633,4.566,10.199,10.199,10.199h12.478
			c5.633,0,10.199-4.566,10.199-10.199C257.583,208.613,253.017,204.047,247.384,204.047z"/>
	</g>
</g>
<g>
	<g>
		<path d="M300.293,258.595h-12.826c-5.633,0-10.199,4.566-10.199,10.199c0,5.633,4.566,10.199,10.199,10.199h12.826
			c5.633,0,10.199-4.566,10.199-10.199S305.926,258.595,300.293,258.595z"/>
	</g>
</g>
<g>
	<g>
		<path d="M312.848,315.163h-8.642c-5.633,0-10.199,4.566-10.199,10.199c0,5.633,4.566,10.199,10.199,10.199h8.642
			c5.633,0,10.199-4.566,10.199-10.199C323.048,319.729,318.481,315.163,312.848,315.163z"/>
	</g>
</g>
<g>
	<g>
		<path d="M184.196,293.878l-2.747-6.06c-2.325-5.131-8.37-7.406-13.5-5.08c-5.131,2.325-7.406,8.369-5.08,13.5l2.747,6.06
			c1.706,3.765,5.415,5.992,9.296,5.992c1.407,0,2.838-0.293,4.204-0.912C184.246,305.052,186.52,299.008,184.196,293.878z"/>
	</g>
</g>
</svg>