<?xml version="1.0" encoding="iso-8859-1"?>
<!-- Uploaded to: SVG Repo, www.svgrepo.com, Generator: SVG Repo Mixer Tools -->
<svg fill="#000000" height="800px" width="800px" version="1.1" id="Layer_1" xmlns="http://www.w3.org/2000/svg" xmlns:xlink="http://www.w3.org/1999/xlink" 
	 viewBox="0 0 512.001 512.001" xml:space="preserve">
<g>
	<g>
		<g>
			<path d="M0,359.628l8.506,12.729l50.784-33.933l20.785,20.785l-52.488,43.547l9.776,11.782l53.585-44.456l20.073,20.073
				l-53.571,53.571l10.825,10.825l53.571-53.571l20.073,20.073l-44.457,53.585l11.782,9.776l43.547-52.488l20.785,20.785
				l-33.933,50.784l12.729,8.506l88.164-131.947l-108.59-108.59L0,359.628z M220.827,381.994l-38.579,57.738l-19.64-19.64
				l43.675-52.642L220.827,381.994z M195.411,356.579l-43.675,52.642l-19.065-19.065l48.158-48.158L195.411,356.579z
				 M170.004,331.172l-48.158,48.158l-19.065-19.065l52.642-43.675L170.004,331.172z M91.908,349.393l-19.639-19.639l57.737-38.579
				l14.544,14.544L91.908,349.393z"/>
			<path d="M426.589,0l-22.412,30.567l-23.421,31.941l19.868,19.868L193.392,289.607l-25.731-25.731l-10.825,10.825l25.731,25.731
				l29.001,29.001l25.614,25.614l10.825-10.825l-25.614-25.614l36.446-36.446l-10.826-10.825l-36.445,36.446l-7.351-7.351
				L411.449,93.201l7.351,7.351L262.447,256.904l10.825,10.825l156.353-156.353l19.868,19.867l31.942-23.42L512,85.411L426.589,0z
				 M451.032,111.132l-10.581-10.581l0.011-0.011l-29.001-29.001l-0.011,0.011l-10.581-10.581l9.177-12.516l53.501,53.501
				L451.032,111.132z M476.041,92.795l-56.834-56.834l9.177-12.517l60.173,60.173L476.041,92.795z"/>
		</g>
	</g>
</g>
</svg>