<?xml version="1.0" encoding="iso-8859-1"?>
<!-- Uploaded to: SVG Repo, www.svgrepo.com, Generator: SVG Repo Mixer Tools -->
<svg fill="#000000" height="800px" width="800px" version="1.1" id="Layer_1" xmlns="http://www.w3.org/2000/svg" xmlns:xlink="http://www.w3.org/1999/xlink" 
	 viewBox="0 0 512 512" xml:space="preserve">
<g>
	<g>
		<path d="M427.016,174.971c1.507-5.016,2.283-10.25,2.283-15.524c0-29.45-23.709-53.466-53.041-53.967
			C368.491,46.045,317.522,0,256.001,0c-40.085,0-77.559,19.988-100.052,52.771c-3.494-0.425-7.008-0.638-10.518-0.638
			c-48.158,0-87.338,39.179-87.338,87.338c0,17.2,5.044,33.854,14.392,48.029c-18.982,21.954-29.302,49.573-29.302,79.02
			c0,66.876,54.407,121.284,121.282,121.284c18.129,0,35.553-3.943,51.306-11.273v121.437c0,7.751,6.283,14.034,14.034,14.034
			h52.392c7.751,0,14.034-6.283,14.034-14.034V376.53c15.753,7.328,33.177,11.273,51.306,11.273
			c66.875,0,121.282-54.407,121.282-121.284C468.82,231.336,453.377,197.883,427.016,174.971z M268.165,483.933h-0.001h-24.325
			V358.315c4.308-3.744,8.378-7.806,12.163-12.18c3.785,4.374,7.853,8.436,12.163,12.18V483.933z M347.537,359.735
			c-20.616,0-40.047-6.631-55.884-18.526c-0.291-0.267-0.581-0.533-0.895-0.776c-7.873-6.06-14.647-13.234-20.203-21.361
			c-0.154-0.226-0.31-0.453-0.463-0.681c-0.282-0.421-0.549-0.856-0.825-1.283v-52.688c0-7.751-6.283-14.034-14.034-14.034
			c-7.751,0-14.034,6.283-14.034,14.034v55.005c-5.51,7.98-12.195,15.037-19.953,21.009c-0.316,0.243-0.605,0.509-0.895,0.776
			c-15.837,11.895-35.27,18.526-55.884,18.526c-51.399,0-93.215-41.816-93.215-93.216c0-25.917,10.412-49.998,29.316-67.807
			c5.553-5.23,5.911-13.938,0.807-19.607c-9.81-10.896-15.213-24.972-15.213-39.637c0-32.682,26.588-59.27,59.27-59.27
			c4.707,0,9.435,0.568,14.049,1.691c6.084,1.476,12.406-1.249,15.506-6.686c16.575-29.075,47.619-47.138,81.013-47.138
			c51.355,0,93.145,41.741,93.216,93.08c-0.001,0.077-0.001,0.153-0.001,0.222c0,4.474,2.133,8.681,5.744,11.324
			c3.611,2.643,8.264,3.405,12.529,2.055c2.529-0.801,5.164-1.207,7.836-1.207c14.285,0,25.908,11.623,25.908,25.908
			c0,4.526-1.191,8.986-3.445,12.897c-3.6,6.249-1.876,14.211,3.984,18.412c24.409,17.493,38.98,45.816,38.98,75.763
			C440.752,317.919,398.937,359.735,347.537,359.735z"/>
	</g>
</g>
<g>
	<g>
		<path d="M161.975,109.699c-21.667,0-39.294,17.628-39.294,39.294c0,21.667,17.628,39.294,39.294,39.294
			c21.667,0,39.294-17.628,39.294-39.294C201.269,127.327,183.643,109.699,161.975,109.699z M161.975,160.22
			c-6.19,0-11.227-5.037-11.227-11.227c0-6.19,5.037-11.227,11.227-11.227c6.19,0,11.227,5.037,11.227,11.227
			C173.202,155.184,168.166,160.22,161.975,160.22z"/>
	</g>
</g>
<g>
	<g>
		<path d="M282.198,75.716c-22.607,0-41,18.393-41,41s18.393,41,41,41s41-18.393,41-41S304.804,75.716,282.198,75.716z
			 M282.198,129.648c-7.131,0-12.932-5.802-12.932-12.932s5.802-12.932,12.932-12.932c7.132,0,12.932,5.802,12.932,12.932
			C295.13,123.848,289.329,129.648,282.198,129.648z"/>
	</g>
</g>
<g>
	<g>
		<path d="M361.254,233.799c-24.43,0-44.305,19.875-44.305,44.305c0,24.43,19.875,44.305,44.305,44.305s44.305-19.876,44.305-44.305
			C405.558,253.675,385.684,233.799,361.254,233.799z M361.254,294.341c-8.952,0-16.237-7.284-16.237-16.237
			c0-8.952,7.284-16.237,16.237-16.237c8.953,0,16.237,7.284,16.237,16.237C377.491,287.057,370.207,294.341,361.254,294.341z"/>
	</g>
</g>
<g>
	<g>
		<path d="M143.731,233.799c-24.43,0-44.304,19.875-44.304,44.305c0,24.43,19.875,44.305,44.304,44.305s44.305-19.876,44.305-44.305
			C188.035,253.675,168.161,233.799,143.731,233.799z M143.731,294.341c-8.952,0-16.237-7.284-16.237-16.237
			c0-8.952,7.284-16.237,16.237-16.237c8.954,0,16.237,7.284,16.237,16.237C159.968,287.057,152.684,294.341,143.731,294.341z"/>
	</g>
</g>
<g>
	<g>
		<path d="M268.996,219.582c-0.182-0.898-0.449-1.782-0.8-2.624c-0.351-0.856-0.786-1.67-1.291-2.428
			c-0.519-0.772-1.109-1.488-1.754-2.133s-1.361-1.235-2.133-1.74c-0.758-0.505-1.572-0.94-2.414-1.291
			c-0.856-0.351-1.74-0.632-2.624-0.8c-1.81-0.365-3.677-0.365-5.487,0c-0.898,0.168-1.782,0.449-2.624,0.8
			c-0.856,0.351-1.67,0.786-2.428,1.291c-0.772,0.505-1.488,1.095-2.133,1.74s-1.235,1.361-1.74,2.133
			c-0.505,0.758-0.94,1.572-1.291,2.428c-0.351,0.842-0.617,1.726-0.8,2.624c-0.182,0.898-0.281,1.824-0.281,2.737
			c0,0.912,0.098,1.838,0.281,2.737c0.182,0.898,0.449,1.782,0.8,2.624c0.351,0.856,0.786,1.67,1.291,2.428
			c0.505,0.772,1.095,1.488,1.74,2.133s1.361,1.235,2.133,1.74c0.758,0.505,1.572,0.94,2.428,1.291
			c0.842,0.351,1.726,0.631,2.624,0.8c0.898,0.182,1.824,0.281,2.737,0.281c0.912,0,1.838-0.098,2.751-0.281
			c0.884-0.168,1.768-0.449,2.624-0.8c0.842-0.351,1.656-0.786,2.414-1.291c0.772-0.505,1.488-1.095,2.133-1.74
			s1.235-1.361,1.754-2.133c0.505-0.758,0.94-1.572,1.291-2.428c0.351-0.842,0.617-1.726,0.8-2.624
			c0.182-0.898,0.267-1.824,0.267-2.737C269.263,221.406,269.178,220.48,268.996,219.582z"/>
	</g>
</g>
</svg>