<?xml version="1.0" encoding="utf-8"?>
<!-- Generator: Adobe Illustrator 27.5.0, SVG Export Plug-In . SVG Version: 6.00 Build 0)  -->
<svg version="1.1" xmlns="http://www.w3.org/2000/svg" xmlns:xlink="http://www.w3.org/1999/xlink" x="0px" y="0px"
	 viewBox="0 0 600 500" style="enable-background:new 0 0 600 500;" xml:space="preserve">
<g id="BACKGROUND">
	<rect style="fill:transparent;" width="600" height="500"/>
</g>
<g id="OBJECTS">
	<g>
		<g>
			<path style="fill:#C3CDF9;" d="M519.544,363.469c22.082-36.647,35.796-78.966,35.005-121.744
				c-0.79-42.778-16.875-85.859-47.419-115.818c-30.546-29.96-75.943-45.335-117.728-36.137
				c-44.361,9.763-81.195,44.844-126.444,48.803c-42.032,3.677-83.301-20.482-125.059-14.446
				c-33.696,4.87-62.617,29.895-76.663,60.909c-14.047,31.013-14.363,67.086-5.613,99.989c8.749,32.903,26.032,62.975,46.045,90.519
				L519.544,363.469z"/>
			<g>
				<path style="fill:#F3A299;" d="M34.472,407.5L34.472,407.5c0-31.131,25.237-56.367,56.367-56.367h415.068
					c31.131,0,56.367,25.236,56.367,56.367s-25.236,56.367-56.367,56.367H90.839C59.709,463.868,34.472,438.631,34.472,407.5z"/>
				<path style="fill:#E6847A;" d="M214.243,429.224h-96.184c-3.835,0-6.943-3.109-6.943-6.943l0,0c0-3.835,3.109-6.944,6.943-6.944
					h96.184c3.835,0,6.943,3.109,6.943,6.944l0,0C221.187,426.115,218.078,429.224,214.243,429.224z"/>
				<path style="fill:#E6847A;" d="M493.552,418.582h-144.9c-3.779,0-6.842-3.063-6.842-6.842l0,0c0-3.779,3.063-6.842,6.842-6.842
					h144.9c3.779,0,6.842,3.063,6.842,6.842l0,0C500.393,415.518,497.33,418.582,493.552,418.582z"/>
				<g>
					
						<path style="fill:none;stroke:#E6847A;stroke-width:1.5;stroke-linecap:round;stroke-linejoin:round;stroke-miterlimit:10;" d="
						M513.593,380.854h-49.812v0.017c2.027-10.405-9.021-6.927-9.021-6.927s1.825-16.217-4.119-15.407
						c-5.944,0.811-5.104,16.927-5.104,16.927s-2.331-12.467-7.421-10.339c-5.089,2.129,0,15.745,0,15.745v-0.017h-25.289
						c0,0,3.649-6.421-0.912-9.157s-8.818,2.129-8.818,2.129s1.318-9.325-3.75-9.778c-5.068-0.453-6.092,10.792-6.092,10.792
						s-2.523-8.514-6.172-7.399c-3.649,1.115-1.115,9.951-1.115,9.951s-1.52-4.579-5.372-3.464
						c-3.852,1.115-3.852,6.927-3.852,6.927h-29.139v-0.02c0,0,2.663-6.116-0.105-9.36c-2.768-3.243-6.692,0.963-6.692,0.963
						s-1.081-8.802-4.595-8.396c-3.514,0.405-3.682,9.46-3.682,9.46s-2.94-3.784-5.779-2.703s0.676,10.036,0.676,10.036v0.02
						h-29.303v0.017c2.027-10.405-9.021-6.927-9.021-6.927s1.824-16.217-4.119-15.407c-5.944,0.811-5.105,16.927-5.105,16.927
						s-2.331-12.467-7.421-10.339c-5.089,2.129,0,15.745,0,15.745v-0.017h-29.376v-0.02c0,0,2.663-6.116-0.105-9.36
						c-2.768-3.243-6.692,0.963-6.692,0.963s-1.081-8.802-4.595-8.396c-3.514,0.405-3.682,9.46-3.682,9.46s-2.94-3.784-5.779-2.703
						s0.676,10.036,0.676,10.036v0.02h-70.241c0,0,3.649-6.421-0.912-9.157s-8.818,2.129-8.818,2.129s1.318-9.325-3.75-9.778
						c-5.068-0.453-6.092,10.792-6.092,10.792s-2.523-8.514-6.172-7.399c-3.649,1.115-1.115,9.951-1.115,9.951
						s-1.52-4.579-5.372-3.464c-3.852,1.115-3.852,6.927-3.852,6.927H81.103"/>
					
						<path style="fill:none;stroke:#E6847A;stroke-width:1.5;stroke-linecap:round;stroke-linejoin:round;stroke-miterlimit:10;" d="
						M513.593,442.345h-5.07c2.027-10.405-9.021-6.927-9.021-6.927s1.824-16.217-4.119-15.407
						c-5.944,0.811-5.104,16.927-5.104,16.927s-2.331-12.467-7.421-10.339c-5.089,2.129,0,15.745,0,15.745h-26.826
						c0,0,2.663-6.116-0.105-9.36c-2.768-3.243-6.692,0.963-6.692,0.963s-1.081-8.802-4.595-8.396
						c-3.514,0.405-3.682,9.46-3.682,9.46s-2.94-3.784-5.779-2.703c-2.838,1.081,0.676,10.035,0.676,10.035h-34.06v0.007
						c0,0,3.649-6.42-0.912-9.157c-4.561-2.737-8.818,2.129-8.818,2.129s1.318-9.325-3.75-9.778
						c-5.068-0.453-6.092,10.792-6.092,10.792s-2.523-8.514-6.172-7.399c-3.649,1.115-1.115,9.951-1.115,9.951
						s-1.52-4.579-5.372-3.464c-3.852,1.115-3.852,6.927-3.852,6.927v-0.007h-38.64c2.027-10.405-9.021-6.927-9.021-6.927
						s1.824-16.217-4.119-15.407c-5.944,0.811-5.104,16.927-5.104,16.927s-2.331-12.467-7.421-10.339
						c-5.089,2.129,0,15.745,0,15.745h-42.788c0,0,3.649-6.42-0.912-9.157c-4.561-2.737-8.818,2.129-8.818,2.129
						s1.318-9.325-3.75-9.778c-5.068-0.453-6.092,10.792-6.092,10.792s-2.523-8.514-6.172-7.399
						c-3.649,1.115-1.115,9.951-1.115,9.951s-1.52-4.578-5.372-3.464c-3.852,1.115-3.852,6.927-3.852,6.927h-35.755
						c0,0,2.663-6.116-0.105-9.36c-2.768-3.243-6.692,0.963-6.692,0.963s-1.081-8.802-4.595-8.396
						c-3.514,0.405-3.682,9.46-3.682,9.46s-2.941-3.784-5.779-2.703c-2.838,1.081,0.676,10.035,0.676,10.035h-35.472
						c2.027-10.405-9.021-6.927-9.021-6.927s1.825-16.217-4.119-15.407c-5.944,0.811-5.104,16.927-5.104,16.927
						s-2.331-12.467-7.421-10.339c-5.089,2.129,0,15.745,0,15.745h-24.36"/>
					
						<path style="fill:none;stroke:#E6847A;stroke-width:1.5;stroke-linecap:round;stroke-linejoin:round;stroke-miterlimit:10;" d="
						M63.36,411.6h20.812c0,0-3.514-8.954-0.676-10.036c2.838-1.081,5.779,2.703,5.779,2.703s0.168-9.055,3.682-9.46
						c3.514-0.405,4.595,8.397,4.595,8.397s3.924-4.207,6.692-0.963c2.768,3.243,0.105,9.36,0.105,9.36h27.016v0.007
						c0,0,0-5.812,3.852-6.927c3.852-1.115,5.372,3.464,5.372,3.464s-2.534-8.836,1.115-9.951c3.649-1.115,6.172,7.399,6.172,7.399
						s1.024-11.244,6.092-10.792c5.068,0.453,3.75,9.778,3.75,9.778s4.257-4.865,8.818-2.129c4.561,2.737,0.912,9.157,0.912,9.157
						V411.6h56.568c0,0-5.089-13.617,0-15.745c5.089-2.129,7.421,10.339,7.421,10.339s-0.839-16.116,5.104-16.927
						c5.944-0.811,4.119,15.407,4.119,15.407s11.048-3.478,9.021,6.927h37.016c0,0-3.514-8.954-0.676-10.036
						c2.838-1.081,5.779,2.703,5.779,2.703s0.168-9.055,3.682-9.46c3.514-0.405,4.595,8.397,4.595,8.397s3.924-4.207,6.692-0.963
						c2.768,3.243,0.105,9.36,0.105,9.36h31.478c0,0-2.663-6.116,0.105-9.36c2.768-3.244,6.692,0.963,6.692,0.963
						s1.081-8.802,4.595-8.397c3.514,0.406,3.682,9.46,3.682,9.46s2.94-3.784,5.779-2.703c2.838,1.081-0.676,10.036-0.676,10.036
						h43.852v-0.01c0,0-5.089-13.617,0-15.746c5.089-2.129,7.421,10.339,7.421,10.339s-0.839-16.116,5.104-16.927
						c5.944-0.811,4.119,15.407,4.119,15.407s11.048-3.478,9.021,6.927v0.01h47.902v0.007c0,0,0-5.812,3.852-6.927
						c3.852-1.115,5.372,3.464,5.372,3.464s-2.534-8.836,1.115-9.951c3.649-1.115,6.172,7.399,6.172,7.399
						s1.024-11.244,6.092-10.792c5.068,0.453,3.75,9.778,3.75,9.778s4.257-4.865,8.818-2.129c4.561,2.737,0.912,9.157,0.912,9.157
						V411.6h9.053"/>
				</g>
			</g>
		</g>
		<path style="fill:#FFFFFF;" d="M62.416,172.931l99.989,0.724c0.788,0.006,1.608,0.004,2.314-0.342
			c1.72-0.844,1.846-3.557,0.458-4.879c-1.387-1.321-3.676-1.315-5.358-0.397c0.921-3.434-1.134-7.403-4.47-8.631
			c-3.337-1.229-7.475,0.459-9.001,3.671c-0.64-3.202-3.116-5.969-6.227-6.96c-3.111-0.991-6.731-0.165-8.509,2.425
			c0.074-2.717-1.412-5.424-3.746-6.818c-2.334-1.395-5.42-1.423-7.594,0.245c2.541-7.288-0.028-16.057-6.098-20.823
			c-6.069-4.767-15.197-5.181-21.674-0.984c-6.477,4.196-9.829,12.696-7.8,20.758c-2.357-1.105-4.963-1.986-7.528-1.544
			c-2.565,0.441-4.989,2.594-4.929,5.196c0.057,2.476,2.2,5.035,0.94,7.168c-0.738,1.25-2.368,1.66-3.82,1.618
			c-1.451-0.043-2.898-0.418-4.34-0.245c-2.122,0.254-4.039,1.791-4.749,3.808C59.565,168.937,60.097,171.335,62.416,172.931z"/>
		<path style="fill:#FFFFFF;" d="M318.806,164.616c45.208-0.734,90.417-1.468,135.145-2.802c3.884-5.822,2.971-14.367-2.057-19.238
			c-5.026-4.869-13.597-5.51-20.317-0.571c1.528-5.122-0.091-11.049-4.012-14.682c-3.921-3.633-9.954-4.796-15.262-2.35
			c-0.845-6.742-6.711-12.296-13.382-13.586c-6.672-1.29-13.765,1.321-18.667,6.025c-4.902,4.705-7.741,11.285-8.872,19.459
			c-4.757-2.099-10.502-1.8-15.014,0.783c-4.513,2.583-7.68,7.386-8.845,12.843c-1.789-1.88-4.689-2.611-7.155-1.807
			c-2.467,0.805-4.375,3.107-4.884,6.131c-1.155-1.517-3.389-2.095-5.134-1.329c-1.746,0.766-2.835,2.801-2.605,4.772
			c-1.281-0.516-2.614-0.973-3.995-1.013c-1.38-0.038-2.83,0.396-3.752,1.424C319.077,159.703,318.84,161.381,318.806,164.616z"/>
		<path style="fill:#FFFFFF;" d="M582.09,241.316c-28.268,1.705-56.631,1.853-84.895,0.454c-0.588-1.906,0.056-4.135,1.573-5.432
			c1.517-1.299,3.818-1.59,5.611-0.714c0.252-2.505,1.844-4.834,4.085-5.98c2.241-1.145,5.062-1.071,7.24,0.192
			c-0.931-4.508,3.779-9.167,8.277-8.191c-0.939-3.904,1.099-8.321,4.677-10.142c3.578-1.82,8.349-0.866,10.952,2.191
			c3.427-3.436,9.223-4.199,13.422-1.765c4.198,2.434,6.417,7.843,5.136,12.524c4.45-1.85,10.21,1.602,10.677,6.398
			c2.653-2.113,6.615-2.413,9.556-0.723C581.343,231.817,583.079,235.389,582.09,241.316z"/>
	</g>
	<g>
		<g>
			<path style="fill:#16736E;" d="M480.359,196.321c-4.547-6.605-6.05-15.22-4.008-22.974c0.617-2.346,1.901-4.93,4.282-5.399
				c1.542-0.304,3.157,0.432,4.237,1.576c1.08,1.143,1.703,2.642,2.161,4.147c2.105,6.93,1.121,14.374,0.135,21.55
				C487.118,195.221,487.072,195.221,480.359,196.321z"/>
			<path style="fill:#16736E;" d="M487.207,196.512c2.861-4.045,6.581-7.481,10.839-10.015c0.951-0.566,1.949-1.093,3.038-1.283
				c1.09-0.189,2.295,0.008,3.115,0.75c0.913,0.828,1.185,2.196,0.954,3.406c-0.233,1.21-0.897,2.293-1.622,3.288
				c-2.819,3.868-6.785,6.89-11.066,8.699C492.464,201.311,492.464,201.263,487.207,196.512z"/>
			<path style="fill:#248A85;" d="M477.861,197.516c-2.132-1.192-4.28-2.395-6.123-3.997c-1.842-1.603-3.38-3.654-3.955-6.027
				c-0.276-1.137-0.288-2.445,0.447-3.355c0.709-0.88,1.971-1.164,3.083-0.962c1.112,0.203,2.105,0.814,3.026,1.468
				c3.571,2.533,6.539,5.906,8.643,9.742C481.634,195.174,480.285,195.964,477.861,197.516z"/>
			<path style="fill:#248A85;" d="M485.157,196.204c-0.307-5.548,1.018-11.175,3.769-16.001c0.8-1.403,1.783-2.799,3.235-3.51
				c1.451-0.709,3.471-0.484,4.338,0.878c0.771,1.21,0.412,2.79,0,4.163c-1.758,5.874-4.015,11.597-6.684,17.113
				C489.815,198.8,489.815,198.754,485.157,196.204z"/>
			<g>
				<path style="fill:#E58A1E;" d="M472.181,274.67c10.85-17.61,21.937-35.849,24.999-56.304c0.879-5.877,1.023-12.126-1.516-17.499
					c-2.539-5.373-8.388-9.539-14.239-8.497c-6.16,1.098-10.061,7.152-12.549,12.894C459.658,226.538,459.6,251.6,472.181,274.67z"
					/>
				<g>
					<defs>
						<path id="SVGID_1_" d="M472.181,274.67c10.85-17.61,21.937-35.849,24.999-56.304c0.879-5.877,1.023-12.126-1.516-17.499
							c-2.539-5.373-8.388-9.539-14.239-8.497c-6.16,1.098-10.061,7.152-12.549,12.894C459.658,226.538,459.6,251.6,472.181,274.67z
							"/>
					</defs>
					<clipPath id="SVGID_00000150082630986498020420000000158323327960371331_">
						<use xlink:href="#SVGID_1_"  style="overflow:visible;"/>
					</clipPath>
					
						<path style="clip-path:url(#SVGID_00000150082630986498020420000000158323327960371331_);fill:none;stroke:#FE6545;stroke-width:1.5;stroke-linecap:round;stroke-linejoin:round;stroke-miterlimit:10;" d="
						M469.448,199.416c9.819,6.105,21.227,9.63,32.778,10.131"/>
					
						<path style="clip-path:url(#SVGID_00000150082630986498020420000000158323327960371331_);fill:none;stroke:#FE6545;stroke-width:1.5;stroke-linecap:round;stroke-linejoin:round;stroke-miterlimit:10;" d="
						M464.416,215.339c10.863,5.552,22.967,8.652,35.161,9.007"/>
					
						<path style="clip-path:url(#SVGID_00000150082630986498020420000000158323327960371331_);fill:none;stroke:#FE6545;stroke-width:1.5;stroke-linecap:round;stroke-linejoin:round;stroke-miterlimit:10;" d="
						M497.063,236.208c-12.602,4.19-26.721,3.627-38.95-1.552"/>
				</g>
				<path style="opacity:0.21;fill:#2E2854;" d="M472.181,274.67c10.3-16.717,20.799-34.004,24.458-53.212
					c-9.572,9.615-11.526,21.26-11.526,21.26c3.114-23.106-8.939-36.018-14.651-40.739c-0.584,1.082-1.111,2.189-1.586,3.285
					C459.658,226.538,459.6,251.6,472.181,274.67z"/>
			</g>
		</g>
		<g>
			<path style="fill:#16736E;" d="M508.325,220.962c-2.749-4.546-4.1-9.924-3.826-15.23c0.052-0.987,0.165-1.997,0.614-2.877
				c0.45-0.879,1.302-1.611,2.288-1.666c1.554-0.087,2.702,1.418,3.352,2.832c1.556,3.387,2.023,7.174,2.121,10.9
				c0.034,1.296,0.008,2.663-0.642,3.786C511.584,219.831,510.104,220.577,508.325,220.962z"/>
			<path style="fill:#16736E;" d="M514.987,218.901c1.522-5.713,5.493-10.729,10.703-13.521c1.781-0.954,4.226-1.559,5.635-0.111
				c0.811,0.835,0.982,2.14,0.698,3.269c-0.281,1.13-0.951,2.119-1.648,3.05c-3.017,4.032-6.811,7.479-11.111,10.098
				C518.241,221.097,517.219,220.509,514.987,218.901z"/>
			<path style="fill:#248A85;" d="M511.065,218.445c-0.084-4.562-0.008-9.182,1.152-13.596c1.159-4.413,3.508-8.651,7.217-11.31
				c1.416-1.015,3.249-1.8,4.87-1.162c1.409,0.554,2.254,2.081,2.402,3.588c0.149,1.508-0.278,3.009-0.762,4.445
				c-2.348,6.958-6.121,13.333-9.866,19.649C513.929,219.416,511.78,218.771,511.065,218.445z"/>
			<path style="fill:#248A85;" d="M518.205,221.643c2.716-2.452,6.164-4.083,9.784-4.626c1.219-0.183,2.683-0.145,3.402,0.857
				c0.949,1.325-0.163,3.156-1.42,4.194c-2.414,1.994-5.544,3.105-8.677,3.077C520.418,224.185,519.541,223.224,518.205,221.643z"/>
			<g>
				<path style="fill:#E58A1E;" d="M478.31,274.732c2.381-19.22,8.008-38.939,21.396-52.933c2.478-2.589,5.276-5.001,8.64-6.232
					c3.363-1.231,7.397-1.101,10.244,1.072c2.377,1.816,3.636,4.824,3.85,7.805c0.214,2.983-0.515,5.958-1.51,8.777
					c-3.453,9.791-10.122,18.2-17.9,25.075C495.252,265.171,486.35,270.639,478.31,274.732z"/>
				<g>
					<defs>
						<path id="SVGID_00000081611421455510442690000017480323946870760622_" d="M478.31,274.732
							c2.381-19.22,8.008-38.939,21.396-52.933c2.478-2.589,5.276-5.001,8.64-6.232c3.363-1.231,7.397-1.101,10.244,1.072
							c2.377,1.816,3.636,4.824,3.85,7.805c0.214,2.983-0.515,5.958-1.51,8.777c-3.453,9.791-10.122,18.2-17.9,25.075
							C495.252,265.171,486.35,270.639,478.31,274.732z"/>
					</defs>
					<clipPath id="SVGID_00000151545790001886779610000005365188291486503307_">
						<use xlink:href="#SVGID_00000081611421455510442690000017480323946870760622_"  style="overflow:visible;"/>
					</clipPath>
					
						<path style="clip-path:url(#SVGID_00000151545790001886779610000005365188291486503307_);fill:none;stroke:#FE6545;stroke-width:1.5;stroke-linecap:round;stroke-linejoin:round;stroke-miterlimit:10;" d="
						M501.356,219.279c3.542,2.183,6.228,5.481,9.276,8.312c3.05,2.832,6.82,5.329,10.98,5.259"/>
					
						<path style="clip-path:url(#SVGID_00000151545790001886779610000005365188291486503307_);fill:none;stroke:#FE6545;stroke-width:1.5;stroke-linecap:round;stroke-linejoin:round;stroke-miterlimit:10;" d="
						M494.716,226.843c7.241,6.638,16.633,10.894,26.4,11.963"/>
					
						<path style="clip-path:url(#SVGID_00000151545790001886779610000005365188291486503307_);fill:none;stroke:#FE6545;stroke-width:1.5;stroke-linecap:round;stroke-linejoin:round;stroke-miterlimit:10;" d="
						M488.259,236.141c8.374,6.652,18.989,10.428,29.682,10.561"/>
				</g>
				<path style="opacity:0.21;fill:#2E2854;" d="M515.586,243.967c-8.78-1.032-18.561-1.771-28.818-2.285
					c-4.535,10.355-7.063,21.783-8.458,33.049c8.04-4.092,16.942-9.561,24.72-16.436
					C507.794,254.085,512.138,249.295,515.586,243.967z"/>
			</g>
		</g>
		<g>
			<path style="fill:#248A85;" d="M413.71,207.098c-3.648-5.635-5.901-12.165-6.501-18.85c2.305-1.35,4.823-2.336,7.432-2.909
				c0.096,7.125,1.659,14.227,4.825,20.64C418.026,206.165,416.586,206.353,413.71,207.098z"/>
			<g>
				<path style="fill:#87C699;" d="M384.208,286.095c-12.9-12.014-19.111-30.793-15.92-48.129
					c1.437-7.807,5.373-15.992,12.778-18.854c3.939-1.523,8.332-1.324,12.406-2.436c6.769-1.85,11.982-7.069,17.657-11.195
					c10.457-7.607,23.618-11.834,36.462-10.343c12.844,1.491,25.132,9.09,31.054,20.585c5.679,11.021,5.176,24.32,1.964,36.295
					c-3.285,12.245-9.536,24.088-19.606,31.792c-10.214,7.814-23.532,10.72-36.388,10.367
					C411.76,293.824,395.629,296.732,384.208,286.095z"/>
				<path style="opacity:0.21;fill:#2E2854;" d="M480.609,252.018c0.92-3.43,1.607-6.969,2.001-10.531
					c-45.158-1.978-97.947,0.154-114.911,0.954c-1.466,16.025,4.712,32.667,16.509,43.654c11.421,10.637,27.552,7.729,40.408,8.083
					c12.856,0.353,26.174-2.553,36.388-10.367C471.073,276.106,477.325,264.263,480.609,252.018z"/>
				<g>
					<defs>
						<path id="SVGID_00000149355871426631277030000007007173491759135913_" d="M384.208,286.095
							c-12.9-12.014-19.111-30.793-15.92-48.129c1.437-7.807,5.373-15.992,12.778-18.854c3.939-1.523,8.332-1.324,12.406-2.436
							c6.769-1.85,11.982-7.069,17.657-11.195c10.457-7.607,23.618-11.834,36.462-10.343c12.844,1.491,25.132,9.09,31.054,20.585
							c5.679,11.021,5.176,24.32,1.964,36.295c-3.285,12.245-9.536,24.088-19.606,31.792c-10.214,7.814-23.532,10.72-36.388,10.367
							C411.76,293.824,395.629,296.732,384.208,286.095z"/>
					</defs>
					<clipPath id="SVGID_00000067219684787973122220000014698103946555408562_">
						<use xlink:href="#SVGID_00000149355871426631277030000007007173491759135913_"  style="overflow:visible;"/>
					</clipPath>
					
						<path style="clip-path:url(#SVGID_00000067219684787973122220000014698103946555408562_);fill:none;stroke:#2E2854;stroke-width:1.5;stroke-linecap:round;stroke-linejoin:round;stroke-miterlimit:10;" d="
						M403.031,208.595c-9.945,16.493-10.982,38.015-2.669,55.388c5.991,12.523,16.461,22.996,19.688,36.498"/>
					
						<path style="clip-path:url(#SVGID_00000067219684787973122220000014698103946555408562_);fill:none;stroke:#2E2854;stroke-width:1.5;stroke-linecap:round;stroke-linejoin:round;stroke-miterlimit:10;" d="
						M429.393,192.978c23.359,28.338,29.932,69.554,16.549,103.754"/>
				</g>
			</g>
		</g>
		<g>
			<path style="fill:#B34170;" d="M345.326,256.966l-50.051,2.541c-1.944,0.097-3.413,1.912-2.972,3.808
				c0.014,0.059,0.029,0.119,0.043,0.178c1.259,5.109,5.929,8.648,11.19,8.733c14.846,0.24,29.691,0.47,44.522,0.594
				C347.306,268.303,346.551,263.786,345.326,256.966z"/>
			<path style="fill:#B34170;" d="M382.465,405.314l-5.722-57.4l15.399,5.271l-1.681,51.967c-0.042,1.304-1.111,2.338-2.415,2.338
				h-3.176C383.628,407.49,382.588,406.549,382.465,405.314z"/>
			<g>
				<g>
					<path style="fill:#D24D84;" d="M519.604,253.872c-4.995,43.861-15.984,87.025-32.557,127.894
						c-31.886-5.745-62.227-13.466-91.421-24.322c-10.439-3.883-20.987-8.326-29.105-15.996
						c-10.718-10.126-16.04-24.825-18.672-39.389c-2.631-14.565-2.934-29.478-5.033-45.69
						C400.706,251.631,458.827,249.767,519.604,253.872z"/>
					<path style="opacity:0.15;fill:#2E2854;" d="M342.816,256.368c0.229,1.772,0.43,3.522,0.621,5.265
						c10.826,1.033,52.7,0.935,83.168-0.531c29.696-1.428,77.869-1.133,92.383-2.202c0.208-1.676,0.425-3.35,0.616-5.028
						C458.827,249.767,400.706,251.631,342.816,256.368z"/>
					<path style="opacity:0.15;fill:#2E2854;" d="M487.047,381.766c9.962-24.566,17.89-49.966,23.728-75.843
						c-17.728,14.184-64.002,46.45-103.565,32.889c-35.606-12.204-53.112-31.982-60.269-42.415c0.271,1.894,0.569,3.781,0.909,5.662
						c2.632,14.564,7.954,29.264,18.672,39.389c8.118,7.67,18.666,12.113,29.105,15.996
						C424.819,368.3,455.16,376.02,487.047,381.766z"/>
				</g>
				<path style="fill:#D24D84;" d="M433.287,246.615c-29.716,0.593-59.485,0.366-88.992,3.939c-1.933,0.234-3.97,0.522-5.494,1.733
					c-1.524,1.211-2.219,3.682-0.913,5.126c1.019,1.126,2.736,1.188,4.254,1.167c59.494-0.797,118.987-1.595,178.481-2.391
					c0.948-0.013,1.942-0.038,2.763-0.512c2.017-1.167,1.687-4.439-0.05-5.992c-1.736-1.554-4.226-1.854-6.546-2.069
					C489.902,245.119,462.912,246.025,433.287,246.615z"/>
			</g>
			<g>
				<path style="fill:#2E2854;" d="M483.09,404.338c12.495-6.839,17.724-24.35,11.024-36.919
					c-6.699-12.57-24.153-17.991-36.796-11.431c-12.643,6.562-18.257,23.953-11.835,36.668
					C451.905,405.369,469.535,411.754,483.09,404.338z"/>
				<path style="fill:#FFFFFF;" d="M477.958,387.869c3.401-4.412,2.506-11.512-1.886-14.94c-4.391-3.429-11.497-2.576-14.952,1.796
					c-3.455,4.37-2.643,11.482,1.706,14.962C467.176,393.166,474.399,392.482,477.958,387.869z"/>
				<path style="fill:#2E2854;" d="M473.993,380.692c0.332,2.867-2.9,5.503-5.642,4.6c-2.742-0.903-3.775-4.945-1.804-7.053
					C468.52,376.131,473.528,376.679,473.993,380.692z"/>
			</g>
		</g>
	</g>
	<g>
		<g>
			<path style="fill:#248A85;" d="M154.387,259.617c-7.918,0.531-15.883-4.641-18.619-12.092c-0.574-1.563-0.942-3.217-1.76-4.667
				c-0.819-1.451-2.23-2.715-3.895-2.769c4.232-0.148,8.52-0.133,12.629,0.886c4.11,1.019,8.071,3.135,10.606,6.526
				C155.885,250.893,156.762,255.668,154.387,259.617z"/>
			<path style="fill:#248A85;" d="M155.988,259.817c0.264-6.567,3.879-12.913,9.393-16.491c5.514-3.578,12.781-4.294,18.887-1.861
				c-3.874,0.84-7.223,3.783-8.557,7.515c-0.918,2.57-0.941,5.456-2.275,7.837c-1.543,2.755-4.69,4.376-7.839,4.602
				C162.449,261.645,159.315,260.627,155.988,259.817z"/>
			<g>
				<path style="fill:#A166FF;" d="M192.16,324.212c-3.337,11.305-15.315,18.916-27.337,19.472
					c-12.022,0.555-23.716-4.974-32.603-12.909c-7.54-6.731-13.455-15.344-16.187-24.964c-2.73-9.619-2.133-20.246,2.395-29.193
					c7.169-14.169,24.169-22.646,40.228-20.813c16.059,1.835,30.31,13.418,35.912,28.245
					C200.169,298.88,194.819,315.206,192.16,324.212z"/>
				<path style="opacity:0.21;fill:#2E2854;" d="M120.939,272.447c-0.931,1.329-1.775,2.719-2.51,4.172
					c-4.528,8.947-5.125,19.574-2.395,29.193c2.731,9.619,8.647,18.232,16.187,24.964c8.886,7.936,20.581,13.465,32.603,12.909
					c12.022-0.557,24-8.167,27.337-19.472c2.097-7.105,5.865-18.766,4.615-30.653C151.614,302.409,128.272,281.038,120.939,272.447z
					"/>
			</g>
		</g>
		<g>
			<g>
				<path style="fill:#248A85;" d="M103.746,251.965c-3.974,0.17-7.769-2.3-9.864-5.682c-2.095-3.381-2.669-7.531-2.348-11.496
					c0.321-3.965,1.474-7.809,2.621-11.619c4.492,2.888,8.004,7.273,9.841,12.288C105.832,240.472,105.985,246.089,103.746,251.965z
					"/>
				<path style="fill:#248A85;" d="M103.371,249.708c-2.661-5.881-0.215-13.135,4.43-17.616c4.647-4.479,11.042-6.656,17.361-7.975
					c-1.454,7.158-4.527,13.982-8.926,19.814c-1.27,1.684-2.681,3.314-4.483,4.41C109.951,249.439,107.691,249.943,103.371,249.708z
					"/>
				<path style="fill:#16736E;" d="M105.324,249.425c-2.986-4.401-4.404-9.844-3.944-15.142c0.461-5.298,2.795-10.415,6.495-14.236
					c-1.01,5.072-0.087,10.299,0.11,15.466C108.183,240.68,107.463,246.297,105.324,249.425z"/>
			</g>
			<g>
				<path style="fill:#87C699;" d="M131.784,277.892c-8.703-3.498-15.609-11.189-18.151-20.217
					c-1.184-4.203-1.989-9.346-5.981-11.116c-3.039-1.346-6.754,0.119-8.925,2.637c-2.171,2.517-3.11,5.851-3.795,9.105
					c-4.163,19.757-1.018,40.837,8.002,58.901c3.918,7.844,9.028,15.276,16.017,20.57c6.991,5.292,16.052,8.255,24.669,6.636
					c9.511-1.786,17.601-9.233,20.689-18.406c3.088-9.171,1.296-19.715-4.193-27.686
					C153.711,289.016,143.606,282.644,131.784,277.892z"/>
				<path style="opacity:0.21;fill:#2E2854;" d="M143.621,344.409c9.511-1.786,17.601-9.233,20.689-18.406
					c0.641-1.904,1.06-3.869,1.291-5.856c-6.888,1.73-20.86,3.187-40.376-4.899c-19.76-8.187-28.073-34.294-31.49-49.662
					c-2.107,17.573,1.28,35.757,9.199,51.615c3.918,7.844,9.028,15.276,16.017,20.57
					C125.942,343.064,135.003,346.027,143.621,344.409z"/>
				<g>
					<defs>
						<path id="SVGID_00000079461464728602971760000006313281863926730655_" d="M131.784,277.892
							c-8.703-3.498-15.609-11.189-18.151-20.217c-1.184-4.203-1.989-9.346-5.981-11.116c-3.039-1.346-6.754,0.119-8.925,2.637
							c-2.171,2.517-3.11,5.851-3.795,9.105c-4.163,19.757-1.018,40.837,8.002,58.901c3.918,7.844,9.028,15.276,16.017,20.57
							c6.991,5.292,16.052,8.255,24.669,6.636c9.511-1.786,17.601-9.233,20.689-18.406c3.088-9.171,1.296-19.715-4.193-27.686
							C153.711,289.016,143.606,282.644,131.784,277.892z"/>
					</defs>
					<clipPath id="SVGID_00000049902075736663708910000018004474596412244377_">
						<use xlink:href="#SVGID_00000079461464728602971760000006313281863926730655_"  style="overflow:visible;"/>
					</clipPath>
					
						<path style="clip-path:url(#SVGID_00000049902075736663708910000018004474596412244377_);fill:none;stroke:#2E2854;stroke-width:1.5;stroke-linecap:round;stroke-linejoin:round;stroke-miterlimit:10;" d="
						M102.934,244.809c-1.682,18.829-0.915,38.261,5.681,55.899c6.596,17.639,17.375,35.695,34.708,42.092"/>
					
						<path style="clip-path:url(#SVGID_00000049902075736663708910000018004474596412244377_);fill:none;stroke:#2E2854;stroke-width:1.5;stroke-linecap:round;stroke-linejoin:round;stroke-miterlimit:10;" d="
						M107.589,244.692c2.271,13.705,5.74,27.785,14.425,38.448c7.345,9.019,18.155,15.252,23.069,25.872
						c4.005,8.656,3.367,18.728,2.643,28.29"/>
				</g>
			</g>
			<path style="fill:#16736E;" d="M160.924,333.044c-2.615,6.439-8.255,11.571-14.909,13.573c-6.655,2.001-14.19,0.83-19.923-3.099
				l8.427-1.382c-1.437-3.122-2.555-6.39-3.328-9.738c2.921,1.625,5.627,3.64,8.02,5.973c0.514-3.726,1.581-7.375,3.154-10.791
				c1.523,2.85,2.737,5.865,3.615,8.975c2.128-3.508,4.76-6.712,7.788-9.481c-0.112,3.058-0.224,6.117-0.336,9.177
				C155.596,335.198,157.758,334.147,160.924,333.044z"/>
		</g>
		<g>
			<g>
				<path style="fill:#248A85;" d="M192.18,251.285c-3.966-0.31-7.435-3.22-9.107-6.829c-1.673-3.609-1.742-7.797-0.945-11.695
					c0.796-3.897,2.405-7.574,4.003-11.218c4.111,3.408,7.069,8.185,8.288,13.385C195.637,240.126,195.111,245.721,192.18,251.285z"
					/>
				<path style="fill:#248A85;" d="M192.081,248.999c-1.932-6.159,1.37-13.065,6.521-16.953c5.153-3.887,11.764-5.276,18.196-5.824
					c-2.306,6.931-6.18,13.334-11.249,18.594c-1.464,1.519-3.061,2.967-4.982,3.838
					C198.645,249.525,196.341,249.753,192.081,248.999z"/>
				<path style="fill:#16736E;" d="M194.053,248.953c-2.434-4.729-3.185-10.303-2.089-15.507c1.097-5.204,4.031-10.002,8.164-13.35
					c-1.614,4.913-1.328,10.213-1.755,15.367C197.946,240.616,196.554,246.106,194.053,248.953z"/>
			</g>
			<g>
				<path style="fill:#87C699;" d="M216.888,280.403c-8.218-4.521-14.146-12.99-15.581-22.258
					c-0.668-4.315-0.848-9.518-4.597-11.756c-2.855-1.703-6.719-0.696-9.178,1.542c-2.459,2.237-3.792,5.434-4.865,8.581
					c-6.514,19.111-5.933,40.417,0.844,59.436c2.943,8.259,7.12,16.253,13.421,22.351c6.302,6.096,14.939,10.129,23.689,9.562
					c9.657-0.626,18.586-7.044,22.757-15.777c4.171-8.731,3.663-19.415-0.826-27.989
					C237.315,294.088,228.052,286.545,216.888,280.403z"/>
				<path style="opacity:0.21;fill:#2E2854;" d="M220.621,347.861c9.657-0.626,18.586-7.044,22.757-15.777
					c0.866-1.813,1.519-3.713,1.988-5.657c-7.047,0.887-21.092,0.649-39.491-9.73c-18.629-10.509-23.735-37.428-25.274-53.096
					c-4.211,17.19-3.04,35.65,2.91,52.348c2.944,8.259,7.121,16.253,13.421,22.351C203.233,344.395,211.871,348.428,220.621,347.861
					z"/>
				<g>
					<defs>
						<path id="SVGID_00000178166742363919991250000001193228465315941036_" d="M216.888,280.403
							c-8.218-4.521-14.146-12.99-15.581-22.258c-0.668-4.315-0.848-9.518-4.597-11.756c-2.855-1.703-6.719-0.696-9.178,1.542
							c-2.459,2.237-3.792,5.434-4.865,8.581c-6.514,19.111-5.933,40.417,0.844,59.436c2.943,8.259,7.12,16.253,13.421,22.351
							c6.302,6.096,14.939,10.129,23.689,9.562c9.657-0.626,18.586-7.044,22.757-15.777c4.171-8.731,3.663-19.415-0.826-27.989
							C237.315,294.088,228.052,286.545,216.888,280.403z"/>
					</defs>
					<clipPath id="SVGID_00000119090957958763818060000008883079819586124160_">
						<use xlink:href="#SVGID_00000178166742363919991250000001193228465315941036_"  style="overflow:visible;"/>
					</clipPath>
					
						<path style="clip-path:url(#SVGID_00000119090957958763818060000008883079819586124160_);fill:none;stroke:#2E2854;stroke-width:1.5;stroke-linecap:round;stroke-linejoin:round;stroke-miterlimit:10;" d="
						M192.237,244.082c-3.939,18.489-5.521,37.872-1.099,56.177c4.422,18.305,12.945,37.53,29.381,45.969"/>
					
						<path style="clip-path:url(#SVGID_00000119090957958763818060000008883079819586124160_);fill:none;stroke:#2E2854;stroke-width:1.5;stroke-linecap:round;stroke-linejoin:round;stroke-miterlimit:10;" d="
						M196.872,244.528c0.602,13.879,2.349,28.274,9.685,39.906c6.204,9.839,16.184,17.329,19.782,28.464
						c2.933,9.076,1.085,18.997-0.787,28.402"/>
				</g>
			</g>
			<path style="fill:#16736E;" d="M239.167,338.665c-3.372,6.077-9.589,10.492-16.437,11.677
				c-6.848,1.184-14.186-0.887-19.404-5.478l8.533-0.356c-1.05-3.272-1.766-6.652-2.13-10.068c2.704,1.965,5.147,4.292,7.242,6.897
				c0.959-3.637,2.459-7.13,4.432-10.333c1.169,3.013,2.01,6.153,2.507,9.346c2.535-3.226,5.534-6.089,8.874-8.473
				c-0.48,3.022-0.96,6.046-1.44,9.069C233.619,340.161,235.892,339.379,239.167,338.665z"/>
		</g>
		<g>
			<polygon style="fill:#AB3767;" points="89.35,275.238 88.831,347.013 101.63,348.743 103.186,275.757 			"/>
			<polygon style="fill:#AB3767;" points="238.78,277.659 253.135,278.005 248.811,347.878 237.742,348.742 			"/>
			<path style="fill:#D24D84;" d="M86.495,352.573c55.12-0.995,110.252-1.337,165.38-1.028c0.174-4.216,0.348-8.434,0.523-12.652
				c-55.303-0.386-110.599-2.193-165.81-5.422C86.291,339.455,85.993,345.439,86.495,352.573z"/>
			<path style="fill:#D24D84;" d="M252.145,302.767c0.16,4.954,0.32,9.908,0.48,14.861c-55.778-0.8-110.828-0.358-166.121,0.719
				c-0.239-4.954-0.479-9.908,0-15.049C142.357,303.226,198.211,303.154,252.145,302.767z"/>
			<path style="fill:#D24D84;" d="M85.066,269.447c-0.148,4.997-0.295,9.994-0.442,14.992c56.781,1.128,113.564,2.257,170.346,3.385
				c0.537-4.683,1.074-9.363,1.61-14.045C199.602,269.479,142.434,267.68,85.066,269.447z"/>
			<path style="fill:#2E2854;" d="M95.799,312.956c-2.125,0.063-3.845-2.493-2.991-4.44c0.855-1.945,3.901-2.406,5.293-0.799
				C99.494,309.323,98.685,312.873,95.799,312.956z"/>
			<path style="fill:#2E2854;" d="M96.356,279.686c-2.377,0.575-4.895-1.981-4.286-4.349c0.609-2.368,4.046-3.392,5.852-1.743
				C99.728,275.242,99.099,279.024,96.356,279.686z"/>
			<path style="fill:#2E2854;" d="M96.626,347.244c1.848-0.777,2.258-3.695,0.695-4.95c-1.563-1.257-4.325-0.229-4.686,1.744
				C92.275,346.01,94.555,348.115,96.626,347.244z"/>
			<path style="fill:#2E2854;" d="M246.596,283.272c-1.58,1.389-4.508,0.516-5.068-1.513s1.506-4.28,3.574-3.897
				C247.171,278.243,248.677,281.443,246.596,283.272z"/>
			<path style="fill:#2E2854;" d="M245.57,313.058c-1.546,1.07-4.036,0.152-4.519-1.665c-0.482-1.816,1.226-3.848,3.099-3.685
				C246.023,307.871,248.366,311.124,245.57,313.058z"/>
			<path style="fill:#2E2854;" d="M245.214,348.066c-1.678,0.575-3.705-0.884-3.692-2.659c0.013-1.773,2.061-3.204,3.73-2.604
				C246.921,343.403,248.316,347.003,245.214,348.066z"/>
		</g>
	</g>
	<g>
		<g>
			<g>
				<g>
					<path style="fill:#9E4950;" d="M147.736,178.763c8.868-8.132,17.737-16.264,26.605-24.396l13.263,16.345l2.317,9.793
						c-9.932,5.591-20.324,10.365-31.041,14.246L147.736,178.763z"/>
					<path style="opacity:0.21;fill:#2E2854;" d="M158.88,194.752c10.717-3.88,21.109-8.654,31.041-14.246l-1.254-5.301
						c-11.405,8.081-25.225,12.916-32.84,15.167L158.88,194.752z"/>
				</g>
				<g>
					<path style="fill:#FFFFFF;" d="M219.46,167.923c-6.737,8.159-15.163,14.917-24.59,19.722
						c-7.397-10.265-14.269-21.6-20.529-33.278c7.509-6.885,15.018-13.771,22.527-20.657c1.286-1.18,2.576-2.362,3.874-3.537
						L219.46,167.923z"/>
					<path style="fill:#D8D8EF;" d="M194.87,187.645c9.428-4.805,17.853-11.563,24.59-19.722l-1.514-3.054
						c-7.796,5.948-21.91,14.94-26.521,17.849C192.561,184.382,193.707,186.031,194.87,187.645z"/>
					<g>
						<defs>
							<path id="SVGID_00000044887172779384336940000009698754988039314877_" d="M219.46,167.923
								c-6.737,8.159-15.163,14.917-24.59,19.722c-7.397-10.265-16.436-17.902-20.529-33.278
								c7.509-6.885,15.018-13.771,22.527-20.657c1.286-1.18,2.576-2.362,3.874-3.537L219.46,167.923z"/>
						</defs>
						<clipPath id="SVGID_00000151523880925393329510000006651731918569147304_">
							<use xlink:href="#SVGID_00000044887172779384336940000009698754988039314877_"  style="overflow:visible;"/>
						</clipPath>
						
							<path style="clip-path:url(#SVGID_00000151523880925393329510000006651731918569147304_);fill:none;stroke:#2E2854;stroke-width:1.5;stroke-linecap:round;stroke-linejoin:round;stroke-miterlimit:10;" d="
							M179.888,148.174c6.604,12.66,14.051,24.882,22.273,36.556"/>
					</g>
				</g>
			</g>
			<g>
				<path style="fill:#FE6545;" d="M262.578,253.919c-0.152,19.152,2.048,38.892,11.186,55.725
					c11.468,21.121,25.259,32.052,46.807,46.723c8.579-7.799,20.658-19.572,26.356-30.662
					c-22.289-31.969-33.744-64.349-36.927-103.191L262.578,253.919z"/>
				<path style="fill:#2E2854;" d="M354.128,400.977c-2.425,1.859-4.853,3.725-7.775,6.523h18.82l21.552-28.822
					c0,0-40.872-52.973-39.797-52.974c-9.779,8.541-18.456,18.344-26.356,30.662c12.288,10.493,24.576,20.984,36.909,32.254
					C356.824,392.846,355.702,397,354.128,400.977z"/>
				<path style="opacity:0.21;fill:#2E2854;" d="M263.878,277.321c10.613-0.048,37.124-2.359,50.917-23.057
					c-2.307-10.153-3.887-20.689-4.793-31.751l-47.423,31.406C262.516,261.701,262.855,269.578,263.878,277.321z"/>
			</g>
			<g>
				<path style="fill:#FE6545;" d="M289.03,141.936c-6.71-13.571-15.2-27.833-29.362-33.182c-5.272-1.992-10.907-2.513-16.508-1.955
					l-14.42,20.257l-23.155-1.165l0,0c-1.631,1.408-3.245,2.838-4.843,4.284c11.585,32.111,23.168,64.222,34.752,96.333
					l50.584-3.642l25.828-24.597C305.847,178.907,298.023,160.121,289.03,141.936z"/>
				<path style="opacity:0.21;fill:#2E2854;" d="M219.096,181.053c2.651,7.349,5.303,14.698,7.954,22.047
					c4.967-3.509,13.855-10.241,19.167-16.948l5.094,3.052c0,0,22.367-18.316,22.89-54.027l-15.829-5.004L219.096,181.053z"/>
				<path style="fill:#FFFFFF;" d="M251.894,134.343c-2.071-9.42-5.003-18.65-8.735-27.544c-6.219,0.619-12.397,2.57-17.987,5.384
					c-7.146,3.597-13.514,8.464-19.588,13.708c2.736,6.819,5.489,13.662,8.931,21.422
					C226.609,143.005,238.701,138.696,251.894,134.343z"/>
				<path style="fill:#9E4950;" d="M212.676,120.117c6.618,3.969,13.294,7.988,20.37,12.354c2.296-8.133,3.941-16.449,4.926-24.842
					c-4.435,0.956-8.771,2.526-12.799,4.554C220.746,114.41,216.62,117.127,212.676,120.117z"/>
			</g>
			<g>
				<path style="fill:#FE6545;" d="M213.509,359.448c5.874-5.231,8.512-13.23,9.546-21.027c1.033-7.796,0.711-15.733,1.887-23.509
					c3.044-20.133,16.77-38.334,35.29-46.796c8.766-4.005,18.33-5.895,27.441-9.037c9.112-3.141,18.174-7.885,23.529-15.899
					c8.615-12.892,5.336-30.115,0.705-44.911l-48.779,10.592c-19.694,5.551-40.274,11.599-54.894,25.915
					c-11.158,10.924-17.729,25.659-22.781,40.435c-4.774,13.966-8.441,28.417-9.262,43.154c-0.821,14.735-0.47,28.409,5.878,41.732
					l14.644,5.475L213.509,359.448z"/>
				<path style="fill:#2E2854;" d="M171.673,418.582h44.151c-0.395-19.528-0.811-41.077-2.21-59.216
					c-10.738-1.726-21.751-1.73-31.547,0.73c0.285,14.478,1.014,30.865,1.299,45.343
					C179.726,410.136,175.493,414.479,171.673,418.582z"/>
				<path style="fill:none;stroke:#2E2854;stroke-width:1.5;stroke-linecap:round;stroke-linejoin:round;stroke-miterlimit:10;" d="
					M277.525,205.584c2.22,4.65,6.07,8.499,10.72,10.718c4.65,2.22,10.065,2.791,15.076,1.592"/>
				<path style="fill:none;stroke:#2E2854;stroke-width:1.5;stroke-linecap:round;stroke-linejoin:round;stroke-miterlimit:10;" d="
					M274.422,217.188c0,0-65.312,13.951-77.711,63.935c-12.399,49.985-2.962,81.512-2.962,81.512"/>
				<path style="fill:none;stroke:#2E2854;stroke-width:1.5;stroke-linecap:round;stroke-linejoin:round;stroke-miterlimit:10;" d="
					M263.127,208.86c-19.694,5.551-40.274,11.599-54.894,25.915c-11.158,10.924-17.729,25.659-22.781,40.435
					c-4.774,13.966-8.441,28.417-9.262,43.154c-0.821,14.735-0.47,28.409,5.878,41.732"/>
			</g>
		</g>
		<g>
			<path style="fill:#9E4950;" d="M170.602,202.301c-1.577-1.08-3.207-2.183-5.075-2.582c-1.869-0.398-5.763,0.198-6.648,3.946
				l6.378,4.73l5.345-3.716V202.301z"/>
			<path style="fill:#9E4950;" d="M163.691,176.611c1.713-1.062,1.258-3.945-0.412-5.074c-1.668-1.128-3.898-0.931-5.841-0.394
				c-3.947,1.092-7.538,3.464-10.088,6.657l10.201,2.992L163.691,176.611z"/>
			<path style="fill:#2E2854;" d="M181.867,381.785c-3.158-9.929-9.679-17.722-17.574-21.538c-0.087-0.045-0.176-0.086-0.269-0.121
				c-2.415-1.135-4.95-1.915-7.561-2.253c-0.358-0.046-0.719-0.071-1.079-0.101c2.55-43.18,4.756-87.17,6.89-129.746
				c2.202-43.944,4.48-89.384,7.134-133.902c0.084-1.413-0.993-2.626-2.405-2.71c-1.419-0.082-2.626,0.992-2.71,2.405
				c-2.656,44.543-4.934,89.995-7.137,133.951c-2.14,42.697-4.353,86.819-6.911,130.106c-2.856,0.346-5.707,1.155-8.438,2.385
				c-0.047,0.018-0.091,0.038-0.137,0.059c-3.815,1.741-7.388,4.294-10.385,7.538c-5.56,6.02-9.415,14.445-11.151,24.366
				c-1.358,7.757-1.371,15.703-1.277,22.543c0.02,1.414,1.16,2.506,2.597,2.527c1.415-0.02,2.546-1.182,2.527-2.597
				c-0.091-6.608-0.081-14.27,1.2-21.59c1.566-8.948,4.979-16.476,9.868-21.771c1.522-1.648,3.218-3.077,5.018-4.278l-0.829,48.236
				c-0.024,1.415,1.103,2.581,2.518,2.606c0.015,0,0.03,0,0.045,0c1.394,0,2.537-1.118,2.561-2.518l0.876-51.014
				c3.474-1.337,7.111-1.86,10.566-1.412c1.657,0.215,3.233,0.658,4.74,1.252l-0.504,51.105c-0.014,1.414,1.122,2.573,2.537,2.587
				c0.009,0,0.018,0,0.026,0c1.403,0,2.548-1.131,2.562-2.537l0.476-48.317c5.473,4.017,9.434,10.296,11.342,16.293
				c3.058,9.613,2.656,19.826,1.871,31.217c-0.097,1.411,0.968,2.635,2.38,2.732c0.06,0.004,0.12,0.006,0.179,0.006
				c1.335,0,2.46-1.034,2.554-2.386C184.76,403.422,185.195,392.246,181.867,381.785z"/>
			<g>
				<path style="fill:#9E4950;" d="M250.487,178.708c-10.171,10.772-22.569,19.267-35.706,26.116
					c-13.136,6.85-27.038,12.108-41.019,17.008c-2.77,0.97-5.577,1.935-8.5,2.205c-2.922,0.27-6.014-0.219-8.396-1.933
					c-3.103-2.233-4.503-6.089-5.733-9.708c-0.866-2.548-1.691-5.513-0.255-7.789c1.479-2.344,4.65-1.726,7.419-1.617
					c2.768,0.109,7.078,1.566,9.528,0.27l3.992-2.03c16.274-10.807,31.824-22.614,45.063-36.768
					c2.248-2.403,4.428-4.878,6.527-7.421l21.045,7.575L250.487,178.708z"/>
				<path style="opacity:0.21;fill:#2E2854;" d="M250.487,178.708l-2.828-6.605c-12.051,12.539-43.372,34.79-65.779,42.138
					c-17.923,5.878-25.714,4.535-28.695,3.297c0.91,1.787,2.06,3.4,3.681,4.567c2.382,1.714,5.474,2.202,8.395,1.933
					c2.923-0.271,5.73-1.235,8.5-2.205c13.981-4.9,27.883-10.157,41.019-17.008C227.917,197.975,240.316,189.48,250.487,178.708z"/>
				<path style="fill:none;stroke:#2E2854;stroke-width:1.5;stroke-linecap:round;stroke-linejoin:round;stroke-miterlimit:10;" d="
					M250.487,178.708c-10.171,10.772-22.569,19.267-35.706,26.116c-13.136,6.85-27.038,12.108-41.019,17.008
					c-2.77,0.97-5.577,1.935-8.5,2.205c-2.922,0.27-6.014-0.219-8.396-1.933c-3.103-2.233-4.503-6.089-5.733-9.708
					c-0.866-2.548-1.691-5.513-0.255-7.789c1.479-2.344,4.65-1.726,7.419-1.617c2.028,0.08,4.884,0.883,7.23,0.797"/>
				<g>
					<path style="fill:#FFFFFF;" d="M248.014,118.294c3.14-7.485,12.66-10.05,18.939-4.907c0.046,0.038,0.092,0.076,0.138,0.114
						c4.562,3.828,6.889,9.843,7.268,15.785c0.379,5.942-1.003,11.861-2.817,17.531c-4.503,14.073-11.742,27.242-21.024,38.74
						c-9.472-8.857-21.1-13.989-27.11-28.516C232.21,146.376,242.308,131.894,248.014,118.294z"/>
					<path style="fill:#D8D8EF;" d="M274.359,129.286c-0.134-2.104-0.526-4.212-1.161-6.234
						c-0.621,29.959-22.391,51.574-28.83,57.323c2.097,1.645,4.171,3.331,6.15,5.182c9.282-11.498,16.521-24.666,21.024-38.74
						C273.355,141.146,274.738,135.228,274.359,129.286z"/>
					<g>
						<defs>
							<path id="SVGID_00000091734794411619429510000009935778795170273967_" d="M248.014,118.294
								c3.14-7.485,12.66-10.05,18.939-4.907c0.046,0.038,0.092,0.076,0.138,0.114c4.562,3.828,6.889,9.843,7.268,15.785
								c0.379,5.942-1.003,11.861-2.817,17.531c-4.503,14.073-11.742,27.242-21.024,38.74c-9.472-8.857-21.1-13.989-27.11-28.516
								C232.21,146.376,242.308,131.894,248.014,118.294z"/>
						</defs>
						<clipPath id="SVGID_00000119832655686077786330000014402925194460705718_">
							<use xlink:href="#SVGID_00000091734794411619429510000009935778795170273967_"  style="overflow:visible;"/>
						</clipPath>
						
							<path style="clip-path:url(#SVGID_00000119832655686077786330000014402925194460705718_);fill:none;stroke:#2E2854;stroke-width:1.5;stroke-linecap:round;stroke-linejoin:round;stroke-miterlimit:10;" d="
							M227.796,150.464c7.551,11.599,17.87,21.383,29.856,28.305"/>
					</g>
				</g>
			</g>
			<g>
				<path style="fill:#9E4950;" d="M147.35,177.8c-0.81,1.014-1.516,2.112-2.094,3.277c-2.4,4.834-2.528,10.775-0.186,15.638
					c0.754,1.566,1.796,3.062,3.299,3.935c1.683,0.979,3.742,1.063,5.675,0.837c4.994-0.582,9.733-3.129,12.974-6.974
					c3.241-3.845,4.948-8.947,4.675-13.969c-0.08-1.46-0.347-2.978-1.237-4.138c-1.62-2.116-4.743-2.368-7.349-1.813
					c-2.606,0.554-5.108,1.722-7.773,1.777L147.35,177.8z"/>
				<path style="fill:none;stroke:#2E2854;stroke-width:1.5;stroke-linecap:round;stroke-linejoin:round;stroke-miterlimit:10;" d="
					M145.255,181.077c-2.4,4.834-2.528,10.775-0.186,15.638c0.754,1.566,1.796,3.062,3.299,3.935
					c1.683,0.979,3.742,1.063,5.675,0.837c4.994-0.582,9.733-3.129,12.974-6.974c3.241-3.845,4.948-8.947,4.675-13.969
					c-0.08-1.46-0.347-2.978-1.237-4.138c-1.62-2.116-4.743-2.368-7.349-1.813c-2.606,0.554-5.108,1.722-7.773,1.777"/>
			</g>
		</g>
		<g>
			<g>
				<path style="fill:#C8D9D3;" d="M245.132,51.762c-3.164-3.965-6.353-7.955-10.2-11.262c-3.848-3.306-8.437-5.923-13.454-6.671
					c-6.098-0.908-12.231,0.981-18.075,2.943c-5.576,1.872-11.225,3.887-15.895,7.461c-4.67,3.573-8.285,9.004-7.811,15.475
					C201.662,60.285,223.704,57.9,245.132,51.762z"/>
				<path style="fill:#A2BAB2;" d="M215.647,78.114c-17.081,1.242-33.912,6.122-50.999,4.952c-2.29-0.158-4.626-0.403-6.707-1.372
					c-2.082-0.969-3.893-2.793-4.271-5.058c-0.657-3.934,2.959-7.176,6.31-9.338c12.52-8.077,26.749-13.285,41.326-16.36
					c14.577-3.075,29.528-4.061,44.426-4.118c5.988-0.023,12.05,0.113,17.827,1.692c3.203,0.875,6.599,2.496,7.783,5.598
					c0.891,2.332,0.274,5.043-1.101,7.127c-1.374,2.085-3.42,3.632-5.534,4.962C252.292,74.001,230.274,77.051,215.647,78.114z"/>
			</g>
			<g>
				<path style="fill:#9E4950;" d="M189.551,77.523c-5.378-1.214-11.404,2.074-13.293,7.254c-1.889,5.18,0.605,11.575,5.503,14.108
					c4.899,2.533,11.559,0.873,14.694-3.663L189.551,77.523z"/>
				<g>
					
						<path style="fill:none;stroke:#2E2854;stroke-width:1.5;stroke-linecap:round;stroke-linejoin:round;stroke-miterlimit:10;" d="
						M181.208,90.053c0.799-3.444,4.135-6.126,7.67-6.165"/>
					
						<path style="fill:none;stroke:#2E2854;stroke-width:1.5;stroke-linecap:round;stroke-linejoin:round;stroke-miterlimit:10;" d="
						M188.054,91.009c-1.993-1.044-3.644-2.737-4.654-4.749"/>
				</g>
			</g>
			<g>
				<path style="fill:#9E4950;" d="M242.078,67.442c4.713-2.862,11.472-1.661,14.91,2.65c3.438,4.312,3.107,11.167-0.732,15.126
					c-3.838,3.96-10.681,4.502-15.096,1.199L242.078,67.442z"/>
				<g>
					
						<path style="fill:none;stroke:#2E2854;stroke-width:1.5;stroke-linecap:round;stroke-linejoin:round;stroke-miterlimit:10;" d="
						M253.972,76.668c-1.852-3.011-5.868-4.492-9.233-3.406"/>
					
						<path style="fill:none;stroke:#2E2854;stroke-width:1.5;stroke-linecap:round;stroke-linejoin:round;stroke-miterlimit:10;" d="
						M247.785,79.751c1.557-1.624,2.585-3.754,2.902-5.982"/>
				</g>
			</g>
			<g>
				<path style="fill:#9E4950;" d="M216.085,104.646c1.508,4.53,3.016,9.06,4.895,14.412c3.571-0.671,7.059-1.7,11.515-4.429
					c-1.722-4.803-3.442-9.607-5.165-14.41L216.085,104.646z"/>
				<path style="opacity:0.15;fill:#235859;" d="M217.751,109.636c2.801-0.085,7.805-0.538,12.058-2.501
					c-0.826-2.305-1.652-4.61-2.479-6.915l-11.245,4.426C216.634,106.296,217.184,107.947,217.751,109.636z"/>
			</g>
			<path style="fill:#2E2854;" d="M242.533,80.592c1.602-0.573,2.56-2.298,2.732-3.991c0.172-1.692-0.292-3.377-0.753-5.015
				l-4.559-16.219c-19.373-3.245-39.508,1.188-55.849,11.677c2.285,5.267,3.46,9.54,3.68,13.864
				c0.071,1.388,0.046,2.789,0.324,4.151c0.277,1.361,0.9,2.712,2.014,3.543c1.114,0.83,2.782,1,4.358,0.384
				C209.463,83.853,226.226,86.425,242.533,80.592z"/>
			<g>
				<path style="fill:#9E4950;" d="M234.246,67.272c-0.031,1.69-0.059,3.411,0.419,5.033c0.477,1.621,1.547,3.158,3.122,3.77
					c1.575,0.612,3.647,0.02,4.333-1.525c3.108,11.136-2.181,23.564-11.952,29.088c-9.772,5.523-23.148,3.645-31.02-4.355
					c-6.473-6.577-8.945-16.117-8.926-25.701c2.08,0.881,4.578,0.697,6.506-0.479c1.927-1.175,3.235-3.312,3.405-5.563
					c1.702,1.064,3.922,1.253,5.778,0.489c1.856-0.763,3.302-2.459,3.897-4.407c1.631,2.154,4.49,3.305,7.159,2.882
					c2.669-0.422,5.032-2.402,6.938-4.912C225.848,65.551,230.828,67.729,234.246,67.272z"/>
				<g>
					
						<path style="fill:none;stroke:#2E2854;stroke-width:1.5;stroke-linecap:round;stroke-linejoin:round;stroke-miterlimit:10;" d="
						M193.076,79.209c1.317-2.257,4.618-3.06,6.826-1.659"/>
					
						<path style="fill:none;stroke:#2E2854;stroke-width:1.5;stroke-linecap:round;stroke-linejoin:round;stroke-miterlimit:10;" d="
						M217.18,75.093c1.787-2.797,5.906-3.776,8.76-2.082"/>
					
						<path style="fill:none;stroke:#2E2854;stroke-width:1.5;stroke-linecap:round;stroke-linejoin:round;stroke-miterlimit:10;" d="
						M208.011,74.022c-0.294,1.802-0.738,3.58-1.327,5.308c0.953,0.529,2.06,0.779,3.148,0.71"/>
					
						<path style="fill:none;stroke:#2E2854;stroke-width:1.5;stroke-linecap:round;stroke-linejoin:round;stroke-miterlimit:10;" d="
						M209.869,89.45c4.826-1.559,9.163-4.6,12.273-8.605"/>
				</g>
				<path style="fill:#AB575E;" d="M235.914,87.937c-1.521-2.114-4.683-2.836-6.971-1.593c-2.288,1.244-3.403,4.289-2.458,6.716
					c0.945,2.427,3.826,3.916,6.353,3.283C237.943,95.063,237.435,90.05,235.914,87.937z"/>
				<path style="fill:#AB575E;" d="M205.102,95.054c-1.522-2.114-4.683-2.837-6.971-1.593c-0.868,0.472-1.564,1.204-2.046,2.063
					c0.903,1.333,1.917,2.594,3.063,3.758c1.35,1.372,2.871,2.55,4.499,3.555C206.991,101.003,206.439,96.911,205.102,95.054z"/>
			</g>
		</g>
	</g>
</g>
</svg>
