<?xml version="1.0"?>
<svg width="872.69856" height="590.1815" xmlns="http://www.w3.org/2000/svg" xmlns:svg="http://www.w3.org/2000/svg">

 <g class="layer">
  <title>Layer 1</title>
  <path d="m222.38,599.64c-4.14,0 -8.3,0.17 -12.35,0.52l-0.59,0.05c-26.9,2.38 -46.57,16.17 -45.77,32.09l0.16,2.88c0.1,1.82 0.21,3.77 0.3,5.94c0.05,1.07 1.51,1.89 3.33,1.89l661.64,0c46.65,-0.28 93.13,-0.64 138.14,-1.06a235.09,235.09 0 0 0 25.28,-1.31c12.5,-1.48 21.19,-4.41 26.54,-8.97l0,0c6.66,-5.65 6.87,-12.76 6.47,-20.8c-0.82,-16.23 -1.64,-33.29 -2.45,-50.29c-0.72,-14.98 -1.43,-29.92 -2.14,-44.23c-0.44,-8.49 -1.42,-15.99 -8.99,-21.71c-8.19,-6.2 -23.14,-9.34 -44.42,-9.34c-0.26,0 -0.51,0 -0.77,0c-66.7,0.24 -132.79,23.17 -164.45,57.07c-3.64,3.9 -7.04,8.08 -10.33,12.13c-4.85,5.97 -9.87,12.14 -15.86,17.66a74.56,74.56 0 0 1 -10.48,8.17c-0.26,0.18 -0.55,0.37 -0.86,0.55c-0.72,0.46 -1.46,0.91 -2.18,1.31a75.77,75.77 0 0 1 -13.37,6.07l-0.47,0.16c-0.35,0.13 -0.73,0.25 -1.11,0.37c-2.69,0.86 -5.47,1.6 -8.26,2.2c-12.07,2.66 -25.79,3.3 -40.79,1.9a197.11,197.11 0 0 1 -40.56,-8.27c-13.88,-4.39 -26.88,-9.86 -39.45,-15.15c-5.52,-2.32 -11.23,-4.73 -16.93,-7.01c-1.08,-0.42 -2.13,-0.84 -3.2,-1.26c-6.97,-2.72 -13.28,-4.96 -19.31,-6.86a190.55,190.55 0 0 0 -46.01,-8.52c-16.58,-0.91 -31.2,0.81 -43.43,5.08a74.6,74.6 0 0 0 -9.83,4.23c-14.49,7.53 -23.42,18.63 -32.05,29.37c-10.75,13.36 -21.86,27.17 -43.79,34.33c-25.32,8.27 -62.27,4.83 -88.41,-1.14c-8.22,-1.88 -16.42,-4.04 -24.36,-6.13q-4.81,-1.27 -9.63,-2.52c-6.31,-1.63 -11.47,-2.88 -16.25,-3.93l-1.51,-0.34c-0.84,-0.18 -1.68,-0.36 -2.54,-0.53c-5.67,-1.2 -10.96,-2.13 -16.16,-2.87l-1.23,-0.18c-2.47,-0.33 -4.78,-0.6 -7.04,-0.82l-0.91,-0.09c-4.43,-0.43 -9.02,-0.64 -13.62,-0.64z" fill="#f2f2f2" id="svg_1" transform="translate(-163.65072 -154.90925)"/>
  <path d="m906.56,617.41c18.61,-16.78 46.3,-25.21 69.53,-15.81a115.47,115.47 0 0 0 -51.89,59.94c-3.69,9.84 -6.78,21.16 -15.88,26.43c-5.66,3.28 -12.7,3.44 -19.04,1.86c-6.35,-1.59 -12.17,-4.76 -17.9,-7.9l-1.63,-0.03c7.32,-23.97 18.19,-47.72 36.81,-64.49z" fill="#e6e6e6" id="svg_2" transform="translate(-163.65072 -154.90925)"/>
  <path d="m975.96,602.11a98.69,98.69 0 0 0 -54.9,25.93a42.5,42.5 0 0 0 -8.35,10.38a24.38,24.38 0 0 0 -2.82,12.52c0.1,4.05 0.68,8.19 -0.21,12.21a14.93,14.93 0 0 1 -7.43,9.68c-4.54,2.62 -9.76,3.44 -14.88,4.07c-5.69,0.7 -11.62,1.33 -16.54,4.52c-0.6,0.39 -1.17,-0.56 -0.57,-0.94c8.57,-5.56 19.42,-3.54 28.64,-7.25c4.3,-1.73 8.1,-4.76 9.45,-9.35c1.18,-4.02 0.59,-8.29 0.45,-12.39a26.01,26.01 0 0 1 2.3,-12.34a39.29,39.29 0 0 1 7.92,-10.66a95.75,95.75 0 0 1 24.33,-17.42a100.44,100.44 0 0 1 32.6,-10.06c0.71,-0.09 0.71,1.01 0.01,1.1z" fill="#fff" id="svg_3" transform="translate(-163.65072 -154.90925)"/>
  <path d="m925.66,623.18a14.81,14.81 0 0 1 1.63,-19.1c0.51,-0.5 1.3,0.26 0.8,0.76a13.71,13.71 0 0 0 -1.49,17.78c0.42,0.57 -0.53,1.14 -0.94,0.56z" fill="#fff" id="svg_4" transform="translate(-163.65072 -154.90925)"/>
  <path d="m909.57,648.88a28.54,28.54 0 0 0 20.4,-4.08c0.59,-0.38 1.16,0.56 0.56,0.95a29.69,29.69 0 0 1 -21.23,4.21c-0.7,-0.13 -0.43,-1.2 0.27,-1.08z" fill="#fff" id="svg_5" transform="translate(-163.65072 -154.90925)"/>
  <path d="m953.66,607.34a8.38,8.38 0 0 0 6.26,4.9c0.71,0.11 0.43,1.18 -0.27,1.07a9.39,9.39 0 0 1 -6.94,-5.4a0.57,0.57 0 0 1 0.19,-0.76a0.56,0.56 0 0 1 0.76,0.19z" fill="#fff" id="svg_6" transform="translate(-163.65072 -154.90925)"/>
  <path d="m1001.67,682.51c-0.44,-0.06 -0.88,-0.12 -1.33,-0.18a110.38,110.38 0 0 0 -17.88,-0.91c-0.46,0.01 -0.93,0.02 -1.39,0.04a116.36,116.36 0 0 0 -41.75,9.61a113,113 0 0 0 -15.16,8.06c-6.69,4.23 -13.61,9.36 -21.08,11.08a19.39,19.39 0 0 1 -2.36,0.42l-30.89,-26.74c-0.04,-0.1 -0.09,-0.19 -0.13,-0.28l-1.28,-1.01c0.24,-0.18 0.49,-0.36 0.73,-0.53c0.14,-0.1 0.28,-0.2 0.42,-0.3c0.09,-0.07 0.19,-0.14 0.27,-0.2c0.03,-0.02 0.06,-0.04 0.09,-0.06c0.08,-0.07 0.16,-0.12 0.24,-0.18q2.1,-1.49 4.23,-2.95c0.01,-0.01 0.01,-0.01 0.02,-0.01a166.16,166.16 0 0 1 34.6,-18.6c0.37,-0.14 0.74,-0.28 1.12,-0.41a107.83,107.83 0 0 1 16.94,-4.77a95.33,95.33 0 0 1 9.55,-1.33a79.27,79.27 0 0 1 24.73,1.75c16.14,3.75 30.91,12.61 39.65,26.43c0.23,0.36 0.44,0.71 0.66,1.07z" fill="#e6e6e6" id="svg_7" transform="translate(-163.65072 -154.90925)"/>
  <path d="m1001.26,682.84a98.69,98.69 0 0 0 -59.45,-12.35a42.5,42.5 0 0 0 -12.91,3.26a24.38,24.38 0 0 0 -9.79,8.29c-2.36,3.3 -4.39,6.95 -7.52,9.62a14.93,14.93 0 0 1 -11.76,3.27c-5.2,-0.65 -9.86,-3.13 -14.33,-5.72c-4.97,-2.87 -10.08,-5.93 -15.93,-6.34c-0.71,-0.05 -0.59,-1.15 0.11,-1.1c10.19,0.72 17.64,8.87 27.23,11.46c4.47,1.21 9.34,1.07 13.18,-1.78c3.36,-2.5 5.46,-6.26 7.82,-9.62a26.01,26.01 0 0 1 9.27,-8.47a39.29,39.29 0 0 1 12.74,-3.75a95.75,95.75 0 0 1 29.91,0.75a100.44,100.44 0 0 1 32.09,11.59c0.61,0.35 -0.05,1.24 -0.66,0.89z" fill="#fff" id="svg_8" transform="translate(-163.65072 -154.90925)"/>
  <path d="m948.41,669.38a14.81,14.81 0 0 1 12.8,-14.27c0.71,-0.1 0.89,0.99 0.18,1.09a13.71,13.71 0 0 0 -11.88,13.3c-0.02,0.71 -1.12,0.58 -1.1,-0.12z" fill="#fff" id="svg_9" transform="translate(-163.65072 -154.90925)"/>
  <path d="m920.09,680.21a28.54,28.54 0 0 0 18.74,9.02c0.71,0.05 0.59,1.15 -0.11,1.1a29.69,29.69 0 0 1 -19.49,-9.43c-0.48,-0.52 0.38,-1.21 0.86,-0.69z" fill="#fff" id="svg_10" transform="translate(-163.65072 -154.90925)"/>
  <path d="m980.3,673.58a8.38,8.38 0 0 0 2.06,7.69c0.49,0.51 -0.37,1.2 -0.86,0.69a9.39,9.39 0 0 1 -2.3,-8.5a0.57,0.57 0 0 1 0.61,-0.48a0.56,0.56 0 0 1 0.49,0.6z" fill="#fff" id="svg_11" transform="translate(-163.65072 -154.90925)"/>
  <path d="m419.19,634.09c15.25,-23.12 42.52,-39.85 69.98,-36.25a127.6,127.6 0 0 0 -38.82,78.54c-1.22,11.55 -1.37,24.53 -9.64,32.69c-5.14,5.08 -12.62,7.21 -19.85,7.28c-7.23,0.08 -14.33,-1.7 -21.34,-3.46l-1.75,0.41c1.17,-27.67 6.18,-56.08 21.42,-79.21z" fill="#e6e6e6" id="svg_12" transform="translate(-163.65072 -154.90925)"/>
  <path d="m489.17,598.42a109.07,109.07 0 0 0 -51.51,43.01a46.97,46.97 0 0 0 -6.04,13.42a26.94,26.94 0 0 0 0.47,14.17c1.24,4.32 3,8.58 3.17,13.12a16.49,16.49 0 0 1 -5.25,12.43c-4.13,4.06 -9.48,6.39 -14.79,8.49c-5.89,2.33 -12.05,4.65 -16.43,9.44c-0.53,0.58 -1.4,-0.28 -0.87,-0.86c7.62,-8.32 19.79,-9.18 28.61,-15.71c4.12,-3.04 7.35,-7.35 7.51,-12.64c0.15,-4.62 -1.67,-9.02 -2.96,-13.38a28.75,28.75 0 0 1 -0.97,-13.83a43.42,43.42 0 0 1 5.5,-13.61a105.81,105.81 0 0 1 21.18,-25.4a111,111 0 0 1 32.06,-19.82c0.73,-0.3 1.04,0.88 0.32,1.17z" fill="#fff" id="svg_13" transform="translate(-163.65072 -154.90925)"/>
  <path d="m441.23,634.96a16.36,16.36 0 0 1 -3.57,-20.89c0.4,-0.67 1.47,-0.08 1.07,0.6a15.15,15.15 0 0 0 3.36,19.42c0.6,0.5 -0.26,1.37 -0.86,0.87z" fill="#fff" id="svg_14" transform="translate(-163.65072 -154.90925)"/>
  <path d="m431.18,666.92a31.54,31.54 0 0 0 20.67,-10.04c0.54,-0.58 1.4,0.28 0.87,0.85a32.81,32.81 0 0 1 -21.53,10.41c-0.79,0.06 -0.79,-1.16 -0.01,-1.22z" fill="#fff" id="svg_15" transform="translate(-163.65072 -154.90925)"/>
  <path d="m466.77,610.22a9.26,9.26 0 0 0 8.06,3.49c0.79,-0.07 0.79,1.15 0.01,1.22a10.38,10.38 0 0 1 -8.93,-3.84a0.63,0.63 0 0 1 0,-0.86a0.61,0.61 0 0 1 0.86,-0.01z" fill="#fff" id="svg_16" transform="translate(-163.65072 -154.90925)"/>
  <path d="m539.03,677.26c-0.48,0.06 -0.97,0.11 -1.47,0.18a121.98,121.98 0 0 0 -19.37,4c-0.5,0.14 -0.99,0.28 -1.48,0.43a128.6,128.6 0 0 0 -41.98,21.9a124.88,124.88 0 0 0 -13.98,12.83c-5.97,6.39 -11.94,13.79 -19.46,17.72a21.42,21.42 0 0 1 -2.41,1.11l-40.47,-20.02c-0.07,-0.09 -0.15,-0.17 -0.22,-0.26l-1.65,-0.73c0.21,-0.25 0.43,-0.51 0.63,-0.76c0.12,-0.15 0.25,-0.3 0.37,-0.44c0.08,-0.1 0.17,-0.2 0.23,-0.29c0.03,-0.03 0.06,-0.06 0.08,-0.09c0.07,-0.09 0.14,-0.17 0.21,-0.25q1.83,-2.18 3.71,-4.34c0,-0.01 0,-0.01 0.01,-0.01c9.54,-10.95 20.08,-21.2 31.84,-29.52c0.35,-0.25 0.71,-0.51 1.08,-0.75a119.17,119.17 0 0 1 16.79,-9.81a105.35,105.35 0 0 1 9.85,-4.09a87.6,87.6 0 0 1 26.93,-5c18.3,-0.49 36.56,4.88 49.76,17.23c0.34,0.32 0.67,0.63 1,0.96z" fill="#e6e6e6" id="svg_17" transform="translate(-163.65072 -154.90925)"/>
  <path d="m538.69,677.73a109.07,109.07 0 0 0 -67.02,3.32a46.97,46.97 0 0 0 -12.91,7.08a26.94,26.94 0 0 0 -8.15,11.6c-1.61,4.19 -2.77,8.66 -5.37,12.38a16.49,16.49 0 0 1 -11.67,6.77c-5.75,0.75 -11.42,-0.61 -16.92,-2.13c-6.11,-1.69 -12.43,-3.54 -18.81,-2.36c-0.77,0.15 -0.95,-1.06 -0.18,-1.2c11.1,-2.06 21.33,4.58 32.31,4.68c5.12,0.05 10.29,-1.45 13.6,-5.57c2.9,-3.61 4.1,-8.21 5.69,-12.47a28.75,28.75 0 0 1 7.56,-11.63a43.42,43.42 0 0 1 12.58,-7.55a105.81,105.81 0 0 1 32.2,-7.53a111,111 0 0 1 37.54,3.47c0.76,0.21 0.3,1.34 -0.45,1.14z" fill="#fff" id="svg_18" transform="translate(-163.65072 -154.90925)"/>
  <path d="m478.41,678.03a16.36,16.36 0 0 1 9.73,-18.82c0.73,-0.3 1.22,0.82 0.49,1.11a15.15,15.15 0 0 0 -9.01,17.53c0.18,0.77 -1.03,0.94 -1.21,0.18z" fill="#fff" id="svg_19" transform="translate(-163.65072 -154.90925)"/>
  <path d="m451.14,697.5a31.54,31.54 0 0 0 22.56,4.43c0.77,-0.14 0.95,1.07 0.18,1.21a32.81,32.81 0 0 1 -23.46,-4.66c-0.67,-0.43 0.06,-1.4 0.72,-0.98z" fill="#fff" id="svg_20" transform="translate(-163.65072 -154.90925)"/>
  <path d="m513.7,673.66a9.26,9.26 0 0 0 4.34,7.64c0.66,0.42 -0.07,1.39 -0.73,0.98a10.38,10.38 0 0 1 -4.82,-8.44a0.63,0.63 0 0 1 0.51,-0.7a0.61,0.61 0 0 1 0.7,0.52z" fill="#fff" id="svg_21" transform="translate(-163.65072 -154.90925)"/>
  <path d="m527.69,460.74a9.76,9.76 0 0 0 -1.28,-14.91l15.93,-77.11l-17.19,5.42l-12.82,74.6a9.81,9.81 0 0 0 15.36,12z" fill="#9e616a" id="svg_22" transform="translate(-163.65072 -154.90925)"/>
  <path d="m564.52,254.63l-10.65,-8.04s-9.4,-0.66 -11.06,16.27s-12.08,81.95 -12.08,81.95l-16.29,75.47l22.55,4.95l17.45,-81.44l17.47,-56.18l-7.39,-32.98z" fill="#e6e6e6" id="svg_23" transform="translate(-163.65072 -154.90925)"/>
  <path d="m556.4,394.26l-51.07,-39.71a3.81,3.81 0 0 1 -0.67,-5.34l34.75,-44.69a3.81,3.81 0 0 1 5.34,-0.67l51.07,39.71a3.81,3.81 0 0 1 0.67,5.34l-34.75,44.69a3.81,3.81 0 0 1 -5.34,0.67z" fill="#3f3d56" id="svg_24" transform="translate(-163.65072 -154.90925)"/>
  <path d="m556.12,390.15l-46.74,-36.34a3.38,3.38 0 0 1 -0.59,-4.74l31.5,-40.52a3.38,3.38 0 0 1 4.74,-0.59l46.74,36.34a3.38,3.38 0 0 1 0.6,4.74l-31.51,40.52a3.38,3.38 0 0 1 -4.74,0.59z" fill="#fff" id="svg_25" transform="translate(-163.65072 -154.90925)"/>
  <path d="m515.51,352.78a0.85,0.85 0 0 1 -0.15,-1.19l15.89,-20.44a0.84,0.84 0 1 1 1.34,1.04l-15.9,20.44a0.85,0.85 0 0 1 -1.18,0.15z" fill="#e4e4e4" id="svg_26" transform="translate(-163.65072 -154.90925)"/>
  <path d="m518.14,354.83a0.85,0.85 0 0 1 -0.15,-1.19l15.9,-20.44a0.84,0.84 0 1 1 1.33,1.04l-15.89,20.44a0.85,0.85 0 0 1 -1.19,0.15z" fill="#e4e4e4" id="svg_27" transform="translate(-163.65072 -154.90925)"/>
  <path d="m529.78,345.29a0.85,0.85 0 0 1 -0.15,-1.18l6.89,-8.86a0.84,0.84 0 1 1 1.33,1.04l-6.89,8.86a0.85,0.85 0 0 1 -1.18,0.14z" fill="#e4e4e4" id="svg_28" transform="translate(-163.65072 -154.90925)"/>
  <path d="m533.33,362.68a0.85,0.85 0 0 1 -0.15,-1.18l25.09,-32.27a0.84,0.84 0 1 1 1.34,1.04l-25.09,32.26a0.85,0.85 0 0 1 -1.19,0.15z" fill="#e4e4e4" id="svg_29" transform="translate(-163.65072 -154.90925)"/>
  <path d="m535.97,364.73a0.85,0.85 0 0 1 -0.15,-1.19l25.09,-32.26a0.84,0.84 0 1 1 1.33,1.03l-25.09,32.27a0.85,0.85 0 0 1 -1.18,0.15z" fill="#e4e4e4" id="svg_30" transform="translate(-163.65072 -154.90925)"/>
  <path d="m541.94,369.38a0.85,0.85 0 0 1 -0.14,-1.19l25.09,-32.26a0.84,0.84 0 1 1 1.33,1.03l-25.09,32.27a0.85,0.85 0 0 1 -1.19,0.15z" fill="#e4e4e4" id="svg_31" transform="translate(-163.65072 -154.90925)"/>
  <path d="m544.58,371.43a0.85,0.85 0 0 1 -0.15,-1.19l25.09,-32.27a0.84,0.84 0 1 1 1.33,1.04l-25.09,32.27a0.85,0.85 0 0 1 -1.18,0.15z" fill="#e4e4e4" id="svg_32" transform="translate(-163.65072 -154.90925)"/>
  <path d="m550.56,376.07a0.85,0.85 0 0 1 -0.15,-1.18l25.09,-32.27a0.84,0.84 0 1 1 1.33,1.04l-25.09,32.27a0.85,0.85 0 0 1 -1.18,0.14z" fill="#e4e4e4" id="svg_33" transform="translate(-163.65072 -154.90925)"/>
  <path d="m553.19,378.12a0.85,0.85 0 0 1 -0.15,-1.18l25.09,-32.27a0.84,0.84 0 0 1 1.34,1.04l-25.09,32.26a0.85,0.85 0 0 1 -1.19,0.15z" fill="#e4e4e4" id="svg_34" transform="translate(-163.65072 -154.90925)"/>
  <circle cx="347.61" cy="260.34" fill="#fff" id="svg_35" r="0.35"/>
  <path d="m561.78,176.71a83.48,83.48 0 0 1 -5.96,19.01c-15.67,33.15 28.96,22.35 44.91,22.35c17.44,0 34.13,9.17 31.58,-31.58c-1.09,-17.41 -14.14,-31.58 -31.58,-31.58c-14.89,0 -35.84,6.62 -38.95,21.8z" fill="#2f2e41" id="svg_36" transform="translate(-163.65072 -154.90925)"/>
  <polygon fill="#9e616a" id="svg_37" points="453.34 508.085 438.481 508.085 431.41 450.772 453.34 450.772 453.34 508.085"/>
  <path d="m624.83,688.74l-10.65,0l-1.9,-10.06l-4.88,10.06l-28.26,0a6.35,6.35 0 0 1 -3.61,-11.58l22.57,-15.59l0,-10.17l23.74,1.42l2.99,35.92z" fill="#2f2e41" id="svg_38" transform="translate(-163.65072 -154.90925)"/>
  <polygon fill="#9e616a" id="svg_39" points="541.617 489.333 529.693 498.2 489.82 456.429 507.418 443.342 541.617 489.333"/>
  <path d="m726.92,660.22l-8.55,6.36l-7.53,-6.94l2.1,10.98l-22.68,16.87a6.35,6.35 0 0 1 -9.81,-7.14l8.81,-25.98l-6.07,-8.16l19.9,-13.03l23.83,27.04z" fill="#2f2e41" id="svg_40" transform="translate(-163.65072 -154.90925)"/>
  <polygon fill="#9e616a" id="svg_41" points="404.675 244.313 475.21 233.327 461.183 191.129 404.675 191.129 404.675 244.313"/>
  <path d="m634.29,367.29s28.19,24.36 15.19,93.79l-15.89,68.04l43.27,75.12l-22,12l-53.32,-74.11l-24.4,-57.23l-12.9,-100.3l70.05,-17.31z" fill="#2f2e41" id="svg_42" transform="translate(-163.65072 -154.90925)"/>
  <polygon fill="#2f2e41" id="svg_43" points="426.942 346.301 425.246 372.562 430.21 450.327 454.854 458.812 459.521 379.134 426.942 346.301"/>
  <path d="m583.02,226.81l27.26,1.06l10.87,18.04l24.79,4.84l-14.8,74.87l2.72,42.62l-24.69,-0.15a72.21,72.21 0 0 0 -48.31,18.15l0,0l0.74,-55.32l-10.62,-41.3l2.39,-43.3l19.94,-2.49l9.71,-17.02z" fill="#e6e6e6" id="svg_44" transform="translate(-163.65072 -154.90925)"/>
  <circle cx="434.47" cy="37.49" fill="#9e616a" id="svg_45" r="25.66"/>
  <path d="m580.7,166.24a29.39,29.39 0 0 1 44.68,25.65c-13.07,3.28 -26.81,5.8 -40.75,0.79l-3.3,-8.06l-1.94,8.06c-4.24,1.74 -8.5,3.21 -12.76,-0.01a30.01,30.01 0 0 1 14.07,-26.43z" fill="#2f2e41" id="svg_46" transform="translate(-163.65072 -154.90925)"/>
  <path d="m641.19,419.97l3.46,31.39a3.83,3.83 0 0 0 3.66,2.71l15.95,0a3.83,3.83 0 0 0 3.66,-2.71l2.87,-24.06a5.82,5.82 0 1 0 1.5,-10.94a3.8,3.8 0 0 0 -2.91,-1.35l-24.52,0a3.83,3.83 0 0 0 -3.67,4.96zm30.1,5.71l1.75,-5.71a3.79,3.79 0 0 0 0.06,-2.03c0.08,0 0.15,-0.02 0.22,-0.02a4.16,4.16 0 1 1 0,8.31a4.1,4.1 0 0 1 -2.03,-0.55z" fill="#17B8A6" id="svg_47" transform="translate(-163.65072 -154.90925)"/>
  <path d="m665.24,454.09a9.76,9.76 0 0 1 1.35,-14.9l-15.54,-77.19l17.17,5.51l12.43,74.66a9.81,9.81 0 0 1 -15.41,11.92z" fill="#ffb6b6" id="svg_48" transform="translate(-163.65072 -154.90925)"/>
  <path d="m635.29,258.78l10.65,-8.03s9.39,-0.67 11.06,16.27s12.08,81.95 12.08,81.95l16.29,75.46l-22.56,4.95l-17.45,-81.43l-17.47,-56.19l7.4,-32.98z" fill="#e6e6e6" id="svg_49" transform="translate(-163.65072 -154.90925)"/>
  <circle cx="379.74" cy="168.11" fill="#17B8A6" id="svg_50" r="6.03"/>
  <polygon fill="#9e616a" id="svg_51" points="187.545 578.006 200.106 578.005 206.082 529.556 187.543 529.557 187.545 578.006"/>
  <path d="m347.99,728.81l3.54,0l13.8,-5.61l7.4,5.61l0,0a15.77,15.77 0 0 1 15.76,15.77l0,0.51l-40.5,0l0,-16.28z" fill="#2f2e41" id="svg_52" transform="translate(-163.65072 -154.90925)"/>
  <polygon fill="#9e616a" id="svg_53" points="236.221 570.09 248.474 572.857 264.975 526.914 246.891 522.831 236.221 570.09"/>
  <path d="m397.65,720.29l3.45,0.78l14.7,-2.43l5.98,7.1l0,0a15.77,15.77 0 0 1 11.91,18.85l-0.12,0.5l-39.5,-8.92l3.58,-15.88z" fill="#2f2e41" id="svg_54" transform="translate(-163.65072 -154.90925)"/>
  <path d="m328.2,483.7l11.36,127.26s-4.26,76.4 9.48,103.29l19.91,0l9.86,-110.27l1.24,-74.01l42.7,62.44l-27.19,120.03l24.51,2.19l44.13,-130.26l-48.48,-122.28l-87.52,21.61z" fill="#2f2e41" id="svg_55" transform="translate(-163.65072 -154.90925)"/>
  <circle cx="176.45" cy="96.84" fill="#9e616a" id="svg_56" r="29.29"/>
  <path d="m391.59,308.96l-24.03,-10.32l-11.7,-12.4l-29.22,4.71l-7.76,13.29l-25.1,23.34l29.41,132.98l-0.89,29.04s18.82,8.47 100.45,-11.04c0.98,-0.23 -1.07,-1.25 -1.07,-1.25l-30.09,-168.35z" fill="#3f3d56" id="svg_57" transform="translate(-163.65072 -154.90925)"/>
  <path d="m309.64,268.37q-0.31,-0.42 -0.61,-0.84c-0.08,0.17 -0.14,0.34 -0.24,0.51l0.85,0.33z" fill="#2f2e41" id="svg_58" transform="translate(-163.65072 -154.90925)"/>
  <path d="m369.24,230.32a18.69,18.69 0 0 0 -9.78,-9.45a17.84,17.84 0 0 0 -13.38,0.01c-3.88,-2.44 -8.18,-4.38 -12.71,-4.62s-9.32,1.44 -12.12,5.14a19.78,19.78 0 0 1 -2.11,2.75c-2.25,2.08 -5.66,1.78 -8.64,1.35q2.01,1.72 4.01,3.44q-2.43,0.64 -4.86,1.27q2.84,1.72 5.67,3.44c-5.48,3.3 -7.98,10.49 -7.32,17.02c0.62,6.18 3.61,11.83 7.18,16.86c1.42,-3.01 1.11,-6.6 1.09,-9.98c-0.02,-3.58 0.61,-7.64 3.47,-9.63c1.93,-1.35 4.42,-1.41 6.75,-1.4a309.94,309.94 0 0 1 35.16,2.2a9.9,9.9 0 0 1 4.5,1.3c2.58,1.76 3.08,5.39 3.34,8.58a62.17,62.17 0 0 0 1.99,-16.12a29.71,29.71 0 0 0 -2.24,-12.16z" fill="#2f2e41" id="svg_59" transform="translate(-163.65072 -154.90925)"/>
  <circle cx="214.7" cy="371.89" fill="#fff" id="svg_60" r="46.11"/>
  <path d="m378.36,479.67a47.38,47.38 0 0 0 -7.08,0.54c-1.2,0.17 -2.37,0.4 -3.53,0.67a47.11,47.11 0 0 0 -19.97,81.76c0.79,0.67 1.59,1.31 2.42,1.93a47.12,47.12 0 1 0 28.16,-84.9zm0,92.21a44.82,44.82 0 0 1 -26.64,-8.73c-0.84,-0.62 -1.65,-1.25 -2.44,-1.93a45.05,45.05 0 0 1 20.1,-78.59c1.15,-0.24 2.3,-0.43 3.46,-0.57a44.6,44.6 0 0 1 5.52,-0.34a45.08,45.08 0 0 1 0,90.16z" fill="#3f3d56" id="svg_61" transform="translate(-163.65072 -154.90925)"/>
  <rect fill="#17B8A6" height="6.15" id="svg_62" rx="3" transform="translate(593.05964 874.10957) rotate(-180)" width="51.23" x="352.74" y="511.44"/>
  <rect fill="#17B8A6" height="6.15" id="svg_63" rx="3" transform="translate(593.05964 898.69899) rotate(-180)" width="51.23" x="352.74" y="523.73"/>
  <rect fill="#17B8A6" height="6.15" id="svg_64" rx="3" transform="translate(593.05964 923.28841) rotate(180)" width="51.23" x="352.74" y="536.03"/>
  <polygon fill="#9e616a" id="svg_65" points="730.52 576.442 717.349 576.441 711.083 525.639 730.522 525.64 730.52 576.442"/>
  <polygon fill="#9e616a" id="svg_66" points="668.209 576.442 655.039 576.441 648.773 525.639 668.212 525.64 668.209 576.442"/>
  <path d="m832.32,745.09l-40.5,0l0,-0.51a15.77,15.77 0 0 1 15.77,-15.77l0,0l7.4,-5.61l13.8,5.61l3.53,0l0,16.28z" fill="#2f2e41" id="svg_67" transform="translate(-163.65072 -154.90925)"/>
  <path d="m896.32,745.09l-40.5,0l0,-0.51a15.77,15.77 0 0 1 15.77,-15.77l0,0l7.4,-5.61l13.8,5.61l3.53,0l0,16.28z" fill="#2f2e41" id="svg_68" transform="translate(-163.65072 -154.90925)"/>
  <path d="m818.94,430.69l-20.02,121.88l5.45,18.16l-7.15,12.87l10.5,112.97l-4.26,9.38l11.9,7.34l24.23,0l1.29,-102.27l5.98,-15.02l0,-8.27l12.18,-62.37l2.25,87.34l3.54,15.04l-2.98,10.71l3.89,7.5l10.33,69.57l27.17,0l-2.1,-16.18l0,0a11.96,11.96 0 0 0 6.28,-13.24l-1.56,-7.1l3.55,-20.97l6.45,-117.03l-1.82,-94.42l-31.78,-24.3l-63.32,8.41z" fill="#2f2e41" id="svg_69" transform="translate(-163.65072 -154.90925)"/>
  <circle cx="701.18" cy="94.03" data-name="Ellipse 219" fill="#9e616a" id="ab6171fa-7d69-4734-b81c-8dff60f9761b" r="25.24"/>
  <path d="m809.69,479.06a10.8,10.8 0 0 0 -1.73,-16.48l9.81,-37.11l-18.91,6.36l-6.42,34.27a10.86,10.86 0 0 0 17.25,12.96z" fill="#9e616a" id="svg_70" transform="translate(-163.65072 -154.90925)"/>
  <path d="m820.01,300.86l-4.05,-0.84l-3.47,1.91s-9.66,12.9 -9.66,24.71s-11.82,125.7 -11.82,125.7l21.48,9.67l17.19,-89.17l-9.67,-71.98z" data-name="Path 1101" fill="#e6e6e6" id="bc44dde2-a388-4b93-9ca4-c442728432a9-57" transform="translate(-163.65072 -154.90925)"/>
  <path d="m886.93,230.43s6.6,-12.62 -7.92,-13.77c0,0 -12.38,-11.23 -25,-2.05c0,0 -6.88,0 -10.65,7.79c0,0 -5.41,-2.05 -6.6,3.44c0,0 -3.96,11.47 0,21.8s5.28,11.47 5.28,11.47s-6.51,-21.65 9.33,-22.79s33.58,-11.05 34.9,1.57s3.3,15.73 3.3,15.73s12.55,-18.03 -2.64,-23.19z" data-name="Path 1104" fill="#2f2e41" id="bf427902-b9bf-4946-b5d7-5c1c7e04535e-58" transform="translate(-163.65072 -154.90925)"/>
  <path d="m979.13,583.6a7.72,7.72 0 0 1 -5.17,-1.97l-76.38,-67.99a7.79,7.79 0 0 1 -0.63,-10.99l48.93,-54.96a7.79,7.79 0 0 1 10.98,-0.64l76.38,67.99a7.78,7.78 0 0 1 0.64,10.98l-48.93,54.97a7.73,7.73 0 0 1 -5.36,2.59c-0.15,0.01 -0.31,0.02 -0.46,0.02z" fill="#fff" id="svg_71" transform="translate(-163.65072 -154.90925)"/>
  <path d="m979.13,584.1a8.22,8.22 0 0 1 -5.5,-2.1l-76.38,-67.99a8.29,8.29 0 0 1 -0.68,-11.69l48.93,-54.97a8.29,8.29 0 0 1 11.69,-0.68l76.38,67.99a8.28,8.28 0 0 1 0.68,11.7l-48.93,54.96a8.23,8.23 0 0 1 -5.7,2.76c-0.17,0.01 -0.33,0.02 -0.49,0.02zm-27.44,-137.52a6.26,6.26 0 0 0 -4.69,2.1l-48.93,54.97a6.29,6.29 0 0 0 0.51,8.87l76.38,67.99a6.28,6.28 0 0 0 8.87,-0.52l48.93,-54.96a6.28,6.28 0 0 0 -0.52,-8.87l-76.38,-67.99a6.25,6.25 0 0 0 -4.17,-1.59z" fill="#3f3d56" id="svg_72" transform="translate(-163.65072 -154.90925)"/>
  <path d="m1006.83,531.54a3.35,3.35 0 0 1 -2.24,-0.85l-59.96,-53.37a3.37,3.37 0 1 1 4.48,-5.03l59.96,53.37a3.37,3.37 0 0 1 -2.24,5.88z" fill="#17B8A6" id="svg_73" transform="translate(-163.65072 -154.90925)"/>
  <path d="m995.39,544.39a3.35,3.35 0 0 1 -2.24,-0.85l-59.95,-53.37a3.37,3.37 0 1 1 4.47,-5.03l59.96,53.37a3.36,3.36 0 0 1 -2.24,5.88z" fill="#17B8A6" id="svg_74" transform="translate(-163.65072 -154.90925)"/>
  <path d="m983.95,557.24a3.35,3.35 0 0 1 -2.23,-0.86l-59.96,-53.37a3.37,3.37 0 1 1 4.48,-5.02l59.95,53.37a3.37,3.37 0 0 1 -2.24,5.88z" fill="#17B8A6" id="svg_75" transform="translate(-163.65072 -154.90925)"/>
  <path d="m915.39,481.25a10.8,10.8 0 0 1 5.91,-15.48l0.06,-38.39l16.64,11.01l-2.61,34.77a10.86,10.86 0 0 1 -20,8.09z" fill="#9e616a" id="svg_76" transform="translate(-163.65072 -154.90925)"/>
  <path d="m916.93,311.38l7.43,-7.16l5.46,3.94s5.37,6.44 9.67,25.78s0,125.7 0,125.7l-23.64,-3.23l3.22,-55.86l-9.66,-47.27l7.52,-41.9z" data-name="Path 1100" fill="#e6e6e6" id="f348f81f-b961-4ae4-bc6b-758f6acfb12a-59" transform="translate(-163.65072 -154.90925)"/>
  <path d="m927.9,305.96l-25.04,-11.96l-17,-15.76l-31,-0.24l-10,13l-26.4,8.97l4.4,91.03l-3,7s2.09,1.89 3.05,2.95s-1.32,9.89 -1.32,9.89l-1.29,9.62l3.56,2.54l-4.62,5.47l-1.15,8.61s80.71,-20.07 95.97,13.17c0.8,1.75 -1.18,-15.41 -1.18,-15.41l-1.99,-12.56l1.97,-11.28l3,-3l-5.03,-5.03l3.23,-23.87l13.84,-73.14z" fill="#3f3d56" id="svg_77" transform="translate(-163.65072 -154.90925)"/>
  <path d="m360.06,507.78a11.6,11.6 0 0 0 -8.5,-15.63l-5.57,-40.84l-16.12,14.1l7.75,36.62a11.66,11.66 0 0 0 22.44,5.75z" fill="#9e616a" id="svg_78" transform="translate(-163.65072 -154.90925)"/>
  <path d="m296.88,326.84l-4.38,0.84l-2.64,3.32s-4.27,16.77 0.6,28.49s40.07,129.49 40.07,129.49l25.29,0.74l-19.7,-95.5l-39.24,-67.38z" data-name="Path 1101" fill="#3f3d56" id="e1bf2fad-858c-4bea-9733-320cc40b59f5-60" transform="translate(-163.65072 -154.90925)"/>
  <path d="m396.57,501.78a11.6,11.6 0 0 1 2.06,-17.66l-10.06,-39.97l20.22,7.06l6.46,36.88a11.66,11.66 0 0 1 -18.68,13.69z" fill="#9e616a" id="svg_79" transform="translate(-163.65072 -154.90925)"/>
  <path d="m387.73,310.33l4.37,-0.85l3.69,2.1s10.22,13.97 10.07,26.65s11.1,135.11 11.1,135.11l-23.19,10.11l-17.33,-95.96l11.29,-77.16z" data-name="Path 1101" fill="#3f3d56" id="ff35f29e-9865-4218-824f-c5cf71e1b056-61" transform="translate(-163.65072 -154.90925)"/>
 </g>
</svg>